<svg xmlns="http://www.w3.org/2000/svg" xmlns:xlink="http://www.w3.org/1999/xlink" width="500" zoomAndPan="magnify" viewBox="0 0 375 374.999991" height="500" preserveAspectRatio="xMidYMid meet" version="1.0"><path fill="#ebebeb" d="M 218.75 200 C 220.40625 200 221.996094 199.339844 223.167969 198.167969 C 224.339844 196.996094 225 195.40625 225 193.75 C 225 192.09375 224.339844 190.503906 223.167969 189.332031 C 221.996094 188.160156 220.40625 187.5 218.75 187.5 C 217.09375 187.5 215.503906 188.160156 214.332031 189.332031 C 213.160156 190.503906 212.5 192.09375 212.5 193.75 C 212.5 195.40625 213.160156 196.996094 214.332031 198.167969 C 215.503906 199.339844 217.09375 200 218.75 200 Z M 218.75 225 C 220.40625 225 221.996094 224.339844 223.167969 223.167969 C 224.339844 221.996094 225 220.40625 225 218.75 C 225 217.09375 224.339844 215.503906 223.167969 214.332031 C 221.996094 213.160156 220.40625 212.5 218.75 212.5 C 217.09375 212.5 215.503906 213.160156 214.332031 214.332031 C 213.160156 215.503906 212.5 217.09375 212.5 218.75 C 212.5 220.40625 213.160156 221.996094 214.332031 223.167969 C 215.503906 224.339844 217.09375 225 218.75 225 Z M 193.75 193.75 C 193.75 195.40625 193.089844 196.996094 191.917969 198.167969 C 190.746094 199.339844 189.15625 200 187.5 200 C 185.84375 200 184.253906 199.339844 183.082031 198.167969 C 181.910156 196.996094 181.25 195.40625 181.25 193.75 C 181.25 192.09375 181.910156 190.503906 183.082031 189.332031 C 184.253906 188.160156 185.84375 187.5 187.5 187.5 C 189.15625 187.5 190.746094 188.160156 191.917969 189.332031 C 193.089844 190.503906 193.75 192.09375 193.75 193.75 Z M 193.75 218.75 C 193.75 220.40625 193.089844 221.996094 191.917969 223.167969 C 190.746094 224.339844 189.15625 225 187.5 225 C 185.84375 225 184.253906 224.339844 183.082031 223.167969 C 181.910156 221.996094 181.25 220.40625 181.25 218.75 C 181.25 217.09375 181.910156 215.503906 183.082031 214.332031 C 184.253906 213.160156 185.84375 212.5 187.5 212.5 C 189.15625 212.5 190.746094 213.160156 191.917969 214.332031 C 193.089844 215.503906 193.75 217.09375 193.75 218.75 Z M 156.25 200 C 157.90625 200 159.496094 199.339844 160.667969 198.167969 C 161.839844 196.996094 162.5 195.40625 162.5 193.75 C 162.5 192.09375 161.839844 190.503906 160.667969 189.332031 C 159.496094 188.160156 157.90625 187.5 156.25 187.5 C 154.59375 187.5 153.003906 188.160156 151.832031 189.332031 C 150.660156 190.503906 150 192.09375 150 193.75 C 150 195.40625 150.660156 196.996094 151.832031 198.167969 C 153.003906 199.339844 154.59375 200 156.25 200 Z M 156.25 225 C 157.90625 225 159.496094 224.339844 160.667969 223.167969 C 161.839844 221.996094 162.5 220.40625 162.5 218.75 C 162.5 217.09375 161.839844 215.503906 160.667969 214.332031 C 159.496094 213.160156 157.90625 212.5 156.25 212.5 C 154.59375 212.5 153.003906 213.160156 151.832031 214.332031 C 150.660156 215.503906 150 217.09375 150 218.75 C 150 220.40625 150.660156 221.996094 151.832031 223.167969 C 153.003906 224.339844 154.59375 225 156.25 225 Z M 156.25 225 " fill-opacity="1" fill-rule="nonzero"/><path fill="#ebebeb" d="M 156.25 123.4375 C 157.492188 123.4375 158.6875 123.929688 159.566406 124.808594 C 160.445312 125.6875 160.9375 126.882812 160.9375 128.125 L 160.9375 132.894531 C 165.074219 132.8125 169.632812 132.8125 174.644531 132.8125 L 200.351562 132.8125 C 205.371094 132.8125 209.925781 132.8125 214.0625 132.894531 L 214.0625 128.125 C 214.0625 126.882812 214.558594 125.6875 215.4375 124.808594 C 216.316406 123.929688 217.507812 123.4375 218.75 123.4375 C 219.992188 123.4375 221.1875 123.929688 222.066406 124.808594 C 222.945312 125.6875 223.4375 126.882812 223.4375 128.125 L 223.4375 133.292969 C 225.0625 133.417969 226.601562 133.578125 228.058594 133.769531 C 235.382812 134.757812 241.3125 136.832031 245.996094 141.507812 C 250.667969 146.1875 252.746094 152.117188 253.730469 159.445312 C 254.6875 166.570312 254.6875 175.664062 254.6875 187.148438 L 254.6875 200.351562 C 254.6875 211.835938 254.6875 220.9375 253.730469 228.054688 C 252.746094 235.382812 250.667969 241.3125 245.996094 245.992188 C 241.3125 250.667969 235.382812 252.742188 228.058594 253.730469 C 220.933594 254.6875 211.839844 254.6875 200.351562 254.6875 L 174.65625 254.6875 C 163.167969 254.6875 154.070312 254.6875 146.949219 253.730469 C 139.625 252.742188 133.695312 250.667969 129.011719 245.992188 C 124.339844 241.3125 122.261719 235.382812 121.277344 228.054688 C 120.320312 220.929688 120.320312 211.835938 120.320312 200.351562 L 120.320312 187.148438 C 120.320312 175.664062 120.320312 166.5625 121.277344 159.445312 C 122.261719 152.117188 124.339844 146.1875 129.011719 141.507812 C 133.695312 136.832031 139.625 134.757812 146.949219 133.769531 C 148.410156 133.578125 149.949219 133.417969 151.570312 133.292969 L 151.570312 128.125 C 151.570312 126.882812 152.0625 125.691406 152.941406 124.8125 C 153.816406 123.933594 155.007812 123.4375 156.25 123.4375 Z M 148.1875 143.0625 C 141.90625 143.90625 138.28125 145.492188 135.636719 148.136719 C 132.996094 150.78125 131.40625 154.40625 130.5625 160.6875 C 130.421875 161.75 130.300781 162.871094 130.199219 164.054688 L 244.800781 164.054688 C 244.699219 162.871094 244.578125 161.746094 244.4375 160.679688 C 243.59375 154.398438 242.007812 150.773438 239.363281 148.132812 C 236.71875 145.488281 233.09375 143.898438 226.808594 143.054688 C 220.386719 142.195312 211.917969 142.179688 200 142.179688 L 175 142.179688 C 163.082031 142.179688 154.621094 142.199219 148.1875 143.0625 Z M 129.6875 187.5 C 129.6875 182.164062 129.6875 177.519531 129.769531 173.4375 L 245.230469 173.4375 C 245.3125 177.519531 245.3125 182.164062 245.3125 187.5 L 245.3125 200 C 245.3125 211.917969 245.300781 220.386719 244.4375 226.8125 C 243.59375 233.09375 242.007812 236.71875 239.363281 239.363281 C 236.71875 242.007812 233.09375 243.59375 226.808594 244.4375 C 220.386719 245.300781 211.917969 245.3125 200 245.3125 L 175 245.3125 C 163.082031 245.3125 154.621094 245.300781 148.1875 244.4375 C 141.90625 243.59375 138.28125 242.007812 135.636719 239.363281 C 132.996094 236.71875 131.40625 233.09375 130.5625 226.804688 C 129.699219 220.386719 129.6875 211.917969 129.6875 200 Z M 129.6875 187.5 " fill-opacity="1" fill-rule="evenodd"/></svg>