<svg xmlns="http://www.w3.org/2000/svg" xmlns:xlink="http://www.w3.org/1999/xlink" width="500" zoomAndPan="magnify" viewBox="0 0 375 374.999991" height="500" preserveAspectRatio="xMidYMid meet" version="1.0"><defs><clipPath id="44850e9d96"><path d="M 37.5 54.546875 L 336 54.546875 L 336 318 L 37.5 318 Z M 37.5 54.546875 " clip-rule="nonzero"/></clipPath></defs><g clip-path="url(#44850e9d96)"><path stroke-linecap="round" transform="matrix(3.408954, 0, 0, 3.413461, 37.506012, 54.545449)" fill="none" stroke-linejoin="round" d="M 77.325614 9.952971 C 75.379911 8.006404 73.068672 6.46151 70.52482 5.407548 C 67.980968 4.353587 65.254921 3.811157 62.502519 3.811157 C 59.74897 3.811157 57.022923 4.353587 54.479071 5.407548 C 51.935219 6.46151 49.62398 8.006404 47.678277 9.952971 L 43.637906 13.992584 L 39.598682 9.952971 C 35.66717 6.022073 30.335393 3.812302 24.77444 3.812302 C 19.214634 3.812302 13.882857 6.022073 9.951345 9.952971 C 6.019833 13.885014 3.810577 19.216616 3.810577 24.777092 C 3.810577 30.337568 6.019833 35.66917 9.951345 39.601213 L 13.99057 43.640826 L 43.637906 73.289067 L 73.286389 43.640826 L 77.325614 39.601213 C 79.273609 37.654646 80.818254 35.34417 81.872463 32.800244 C 82.925527 30.256318 83.468673 27.530437 83.468673 24.777092 C 83.468673 22.023747 82.925527 19.297866 81.872463 16.75394 C 80.818254 14.210014 79.273609 11.899538 77.325614 9.952971 Z M 77.325614 9.952971 " stroke="#fefefe" stroke-width="7.622" stroke-opacity="1" stroke-miterlimit="4"/></g></svg>