<svg xmlns="http://www.w3.org/2000/svg" xmlns:xlink="http://www.w3.org/1999/xlink" width="500" zoomAndPan="magnify" viewBox="0 0 375 374.999991" height="500" preserveAspectRatio="xMidYMid meet" version="1.0"><defs><clipPath id="125552aa3e"><path d="M 112.5 115.988281 L 262.5 115.988281 L 262.5 259.238281 L 112.5 259.238281 Z M 112.5 115.988281 " clip-rule="nonzero"/></clipPath></defs><g clip-path="url(#125552aa3e)"><path fill="#f67e27" d="M 188.25 237.179688 L 187.5 237.960938 L 186.675781 237.179688 C 151.050781 203.589844 127.503906 181.378906 127.503906 158.855469 C 127.503906 143.265625 138.753906 131.574219 153.75 131.574219 C 165.300781 131.574219 176.550781 139.371094 180.523438 149.96875 L 194.476562 149.96875 C 198.449219 139.371094 209.699219 131.574219 221.25 131.574219 C 236.246094 131.574219 247.496094 143.265625 247.496094 158.855469 C 247.496094 181.378906 223.949219 203.589844 188.25 237.179688 Z M 221.25 115.988281 C 208.199219 115.988281 195.675781 122.300781 187.5 132.199219 C 179.324219 122.300781 166.800781 115.988281 153.75 115.988281 C 130.652344 115.988281 112.503906 134.769531 112.503906 158.855469 C 112.503906 188.238281 138.003906 212.320312 176.625 248.714844 L 187.5 259.003906 L 198.375 248.714844 C 236.996094 212.320312 262.496094 188.238281 262.496094 158.855469 C 262.496094 134.769531 244.347656 115.988281 221.25 115.988281 Z M 221.25 115.988281 " fill-opacity="1" fill-rule="nonzero"/></g><path fill="#f67e27" d="M 207.847656 190.398438 L 190.40625 190.398438 L 190.40625 207.839844 L 184.59375 207.839844 L 184.59375 190.398438 L 167.152344 190.398438 L 167.152344 184.582031 L 184.59375 184.582031 L 184.59375 167.144531 L 190.40625 167.144531 L 190.40625 184.582031 L 207.847656 184.582031 Z M 207.847656 190.398438 " fill-opacity="1" fill-rule="nonzero"/></svg>