<svg width="48" height="48" viewBox="0 0 48 48" fill="none" xmlns="http://www.w3.org/2000/svg">
<path d="M34 4.375H14C8.47715 4.375 4 8.85215 4 14.375V34.375C4 39.8978 8.47715 44.375 14 44.375H34C39.5228 44.375 44 39.8978 44 34.375V14.375C44 8.85215 39.5228 4.375 34 4.375Z" stroke="#FEFEFE" stroke-width="4" stroke-linecap="round" stroke-linejoin="round"/>
<path d="M31.9994 23.1151C32.2462 24.7796 31.9619 26.4795 31.1869 27.9731C30.4119 29.4667 29.1857 30.6779 27.6827 31.4345C26.1796 32.191 24.4763 32.4543 22.815 32.187C21.1537 31.9197 19.6189 31.1353 18.4291 29.9454C17.2392 28.7556 16.4549 27.2209 16.1875 25.5595C15.9202 23.8982 16.1835 22.1949 16.9401 20.6919C17.6966 19.1888 18.9078 17.9626 20.4014 17.1876C21.895 16.4126 23.5949 16.1283 25.2594 16.3751C26.9573 16.6269 28.5291 17.418 29.7428 18.6317C30.9565 19.8454 31.7476 21.4173 31.9994 23.1151Z" stroke="#FEFEFE" stroke-width="4" stroke-linecap="round" stroke-linejoin="round"/>
<path d="M35 13.375H35.02" stroke="#FEFEFE" stroke-width="4" stroke-linecap="round" stroke-linejoin="round"/>
</svg>
