<svg width="160" height="160" viewBox="0 0 160 160" fill="none" xmlns="http://www.w3.org/2000/svg">
<path d="M160 80C160 124.183 124.183 160 80 160C35.8172 160 0 124.183 0 80C0 35.8172 35.8172 0 80 0C124.183 0 160 35.8172 160 80Z" fill="#A88CFF"/>
<path d="M66.5719 101.75H93.7594V107.188H66.5719V101.75ZM72.0094 112.625H88.3219V118.062H72.0094V112.625ZM80.1657 41.9375C72.9551 41.9375 66.0399 44.8019 60.9412 49.9005C55.8426 54.9992 52.9782 61.9144 52.9782 69.125C52.7943 73.0763 53.5512 77.0147 55.1866 80.6163C56.822 84.218 59.2891 87.3799 62.3851 89.8419C65.1038 92.3703 66.5719 93.8112 66.5719 96.3125H72.0094C72.0094 91.31 68.9916 88.5097 66.0554 85.8181C63.5143 83.8722 61.4891 81.3329 60.1573 78.4227C58.8254 75.5124 58.2274 72.32 58.4157 69.125C58.4157 63.3565 60.7072 57.8243 64.7861 53.7454C68.865 49.6665 74.3972 47.375 80.1657 47.375C85.9341 47.375 91.4663 49.6665 95.5453 53.7454C99.6242 57.8243 101.916 63.3565 101.916 69.125C102.101 72.3224 101.499 75.5163 100.162 78.4267C98.8253 81.3372 96.7948 83.8752 94.2488 85.8181C91.3397 88.5369 88.3219 91.2556 88.3219 96.3125H93.7594C93.7594 93.8112 95.2004 92.3703 97.9463 89.8147C101.04 87.3569 103.506 84.1997 105.141 80.6027C106.777 77.0058 107.535 73.072 107.353 69.125C107.353 65.5547 106.65 62.0193 105.284 58.7208C103.917 55.4223 101.915 52.4251 99.3901 49.9005C96.8656 47.3759 93.8684 45.3733 90.5699 44.007C87.2713 42.6407 83.736 41.9375 80.1657 41.9375Z" fill="white"/>
</svg>
