<svg xmlns="http://www.w3.org/2000/svg" xmlns:xlink="http://www.w3.org/1999/xlink" width="500" zoomAndPan="magnify" viewBox="0 0 375 374.999991" height="500" preserveAspectRatio="xMidYMid meet" version="1.0"><path fill="#ffffff" d="M 140.625 262.5 L 234.375 262.5 L 234.375 281.25 L 140.625 281.25 Z M 159.375 300 L 215.625 300 L 215.625 318.75 L 159.375 318.75 Z M 187.5 56.25 C 162.636719 56.25 138.789062 66.128906 121.207031 83.707031 C 103.625 101.289062 93.75 125.136719 93.75 150 C 93.117188 163.625 95.726562 177.207031 101.363281 189.625 C 107.003906 202.042969 115.511719 212.949219 126.1875 221.4375 C 135.5625 230.15625 140.625 235.125 140.625 243.75 L 159.375 243.75 C 159.375 226.5 148.96875 216.84375 138.84375 207.5625 C 130.082031 200.851562 123.097656 192.097656 118.503906 182.0625 C 113.914062 172.027344 111.851562 161.015625 112.5 150 C 112.5 130.109375 120.402344 111.03125 134.464844 96.96875 C 148.53125 82.902344 167.609375 75 187.5 75 C 207.390625 75 226.46875 82.902344 240.53125 96.96875 C 254.597656 111.03125 262.5 130.109375 262.5 150 C 263.140625 161.023438 261.0625 172.039062 256.453125 182.074219 C 251.84375 192.109375 244.839844 200.863281 236.0625 207.5625 C 226.03125 216.9375 215.625 226.3125 215.625 243.75 L 234.375 243.75 C 234.375 235.125 239.34375 230.15625 248.8125 221.34375 C 259.480469 212.867188 267.984375 201.980469 273.621094 189.578125 C 279.261719 177.175781 281.875 163.609375 281.25 150 C 281.25 137.6875 278.824219 125.496094 274.113281 114.125 C 269.402344 102.75 262.496094 92.414062 253.789062 83.707031 C 245.085938 75.003906 234.75 68.097656 223.375 63.386719 C 212 58.675781 199.8125 56.25 187.5 56.25 Z M 187.5 56.25 " fill-opacity="1" fill-rule="nonzero"/></svg>