<svg width="276" height="69" viewBox="0 0 276 69" fill="none" xmlns="http://www.w3.org/2000/svg">
<path d="M37.8848 12.9655C33.2169 12.8732 29.4307 10.7797 27.5344 9.56176C27.057 9.25516 26.4483 9.25517 25.9709 9.56184C24.0752 10.7798 20.2914 12.8732 15.6205 12.9655C11.7411 13.0564 8.80023 12.4767 6.82831 11.7978C5.78484 11.4385 4.48828 12.1903 4.48828 13.2939V30.1408C4.48828 42.3176 13.8449 56.0555 26.3782 59.8236C26.6223 59.897 26.8828 59.8971 27.127 59.8238C33.3339 57.9598 38.7768 53.643 42.6583 48.3059C46.6177 42.8653 49.0206 36.2914 49.0206 30.1408V13.2902C49.0206 12.1874 47.7263 11.4368 46.6836 11.7961C44.7115 12.4757 41.7697 13.0565 37.8848 12.9655ZM46.6177 30.1408C46.6177 35.6172 44.4587 41.732 40.7145 46.8928C37.0653 51.9178 32.2806 55.5691 27.168 57.3238C26.8986 57.4163 26.6063 57.4174 26.3363 57.3267C21.1949 55.6004 16.4403 51.9192 12.7944 46.9287C9.04659 41.8037 6.89117 35.6172 6.89117 30.1408V14.3068C9.46978 15.0492 12.156 15.4043 14.8422 15.3684H15.6922C19.4005 15.2608 23.1842 14.0594 26.7526 11.8681C30.3247 14.0594 34.1047 15.2608 37.8167 15.3325H38.663C41.3493 15.3684 44.0355 15.0133 46.6177 14.271V30.1408ZM42.6558 17.5282C43.4944 17.4306 44.2471 18.0739 44.2471 18.9182V30.1408C44.2471 35.1581 42.2674 40.7421 38.8065 45.4798C35.6303 49.8129 31.5675 53.0622 27.216 54.743C26.9177 54.8581 26.5875 54.8581 26.2893 54.7428C21.9409 53.062 17.875 49.8128 14.7023 45.4798C11.2379 40.7421 9.25819 35.1223 9.25819 30.1408V18.9458C9.25819 18.0921 10.027 17.4456 10.8748 17.5451C12.1896 17.6993 13.5159 17.7713 14.8422 17.7713H15.728C19.356 17.6374 22.859 16.7071 26.0681 15.0328C26.4964 14.8094 27.0081 14.8106 27.4358 15.0354C30.619 16.708 34.1547 17.6375 37.7808 17.7713H38.663C39.9997 17.7713 41.3345 17.682 42.6558 17.5282Z" fill="#A992F3"/>
<path d="M18.3144 25.4499C18.257 25.7332 18.2642 26.0273 18.3251 26.307C18.3825 26.5868 18.4901 26.8557 18.6407 27.096C18.7914 27.3363 18.9814 27.5479 19.2074 27.7129C19.2361 27.7344 19.2612 27.7559 19.2899 27.7739L19.3795 27.8277C19.4369 27.8671 19.5015 27.8958 19.5624 27.9281C19.5768 27.9352 19.5947 27.9424 19.6091 27.9496L19.6593 27.9675L19.7561 28.007C19.8207 28.0285 19.8888 28.0464 19.9534 28.0679L20.1542 28.1146L20.2582 28.1325C20.2941 28.1397 20.3263 28.1468 20.3622 28.1504C20.5021 28.1684 20.6419 28.1791 20.7818 28.1755C21.0651 28.1755 21.3485 28.1468 21.6318 28.1038C21.9151 28.0608 22.1949 27.9998 22.4782 27.9388C22.7615 27.8779 23.052 27.8169 23.3425 27.7739C23.633 27.7308 23.9271 27.7021 24.2248 27.7057C24.5224 27.7057 24.8237 27.738 25.1178 27.8205L25.2254 27.8563C25.2612 27.8707 25.2971 27.8779 25.3329 27.8958L25.437 27.9388L25.4908 27.9604C25.5087 27.9675 25.5266 27.9783 25.541 27.989C25.6091 28.0249 25.6772 28.0572 25.7418 28.1002L25.835 28.1648C25.8673 28.1863 25.8996 28.2114 25.9283 28.2329C26.1686 28.423 26.3622 28.6597 26.5272 28.9072C26.6922 29.1546 26.8321 29.4128 26.9683 29.6711C27.1082 29.9257 27.2445 30.1803 27.388 30.4314C27.6713 30.9371 27.969 31.4284 28.3097 31.891C28.4818 32.1206 28.6647 32.3429 28.8584 32.5474C29.0556 32.7554 29.2636 32.949 29.4896 33.1212C29.7155 33.2933 29.9522 33.444 30.2104 33.5659C30.4615 33.6878 30.7305 33.7811 31.0066 33.8492C31.5589 33.9891 32.1363 34.0393 32.7138 34.129C33.0043 34.172 33.2912 34.2258 33.5781 34.3083C33.865 34.3872 34.1447 34.4912 34.4101 34.6275C34.9409 34.8964 35.4215 35.2658 35.816 35.7106C36.0132 35.9329 36.189 36.1732 36.3396 36.4314C36.4149 36.5605 36.4831 36.6932 36.5476 36.8259C36.5799 36.8941 36.6086 36.9622 36.6373 37.0303C36.648 37.0662 36.666 37.1021 36.6767 37.1344L36.7126 37.2419C37.0676 38.3788 36.9565 39.6377 36.4257 40.6741C36.874 39.6018 36.8991 38.3752 36.4974 37.3173L36.4615 37.2168L36.4221 37.1164C36.3934 37.0519 36.3719 36.9873 36.3396 36.9228C36.2822 36.7936 36.2141 36.6681 36.1459 36.5462C36.0025 36.3023 35.8339 36.0728 35.6438 35.8612C35.2709 35.438 34.8154 35.0829 34.3097 34.8283C34.0587 34.6992 33.7933 34.5988 33.5171 34.5235C33.2445 34.4481 32.9648 34.3943 32.6779 34.3513C32.1112 34.2652 31.5267 34.2114 30.9528 34.068C30.6659 33.9963 30.379 33.8994 30.11 33.7703C29.841 33.6412 29.59 33.4798 29.3533 33.3005C29.1166 33.1212 28.8978 32.9168 28.6934 32.7052C28.4926 32.49 28.3061 32.2604 28.1303 32.0237C27.7789 31.5503 27.4776 31.0518 27.1907 30.5426C27.0472 30.2879 26.911 30.0333 26.7711 29.7751C26.6348 29.5204 26.4985 29.2694 26.3407 29.0327C26.1829 28.7996 26.0036 28.5808 25.7884 28.4087C25.7597 28.3907 25.7346 28.3656 25.7059 28.3477L25.6199 28.2903C25.5625 28.2509 25.5015 28.2222 25.4405 28.1899C25.4262 28.1827 25.4119 28.1719 25.3939 28.1648L25.3473 28.1468L25.254 28.1038C25.2218 28.0895 25.1859 28.0823 25.1536 28.0715L25.0568 28.0393C24.7878 27.9639 24.5081 27.9317 24.2248 27.9317C23.9414 27.9281 23.6581 27.9568 23.3748 27.9998C23.0915 28.0393 22.8117 28.1002 22.5284 28.1612C22.2451 28.2222 21.9582 28.2795 21.6677 28.3262C21.3772 28.3728 21.0795 28.4015 20.7818 28.4015C20.6312 28.4051 20.4841 28.3943 20.3335 28.3764C20.2976 28.3728 20.2582 28.3656 20.2223 28.362L20.1112 28.3405C20.0358 28.3262 19.9641 28.3046 19.8888 28.2867C19.8529 28.2724 19.8171 28.2616 19.7812 28.2473C19.7489 28.2329 19.7095 28.2222 19.6772 28.2078L19.5732 28.1612L19.523 28.1361C19.5051 28.1289 19.4871 28.1182 19.4728 28.1074C19.4046 28.0715 19.3365 28.0357 19.2755 27.989L19.1823 27.9245C19.1536 27.903 19.1249 27.8743 19.0962 27.8528C18.8667 27.6555 18.673 27.4188 18.5331 27.157C18.3933 26.8952 18.3 26.6083 18.2606 26.3178C18.2211 26.0273 18.2391 25.7296 18.3144 25.4463V25.4499Z" fill="#FEFEFE"/>
<path d="M17.9559 26.3892C17.8985 25.7365 18.0133 25.0658 18.2644 24.4489C18.5154 23.8321 18.9063 23.269 19.4048 22.8207C19.9069 22.3724 20.5094 22.0461 21.1478 21.8632C21.7862 21.6802 22.4676 21.6372 23.1132 21.7663C22.4568 21.734 21.8077 21.8237 21.2016 22.0317C20.5955 22.2397 20.0324 22.5625 19.5555 22.9893C19.082 23.4161 18.7019 23.9397 18.4257 24.5207C18.1532 25.1017 17.9918 25.7365 17.9559 26.3892Z" fill="#FEFEFE"/>
<mask id="mask0_2009_1034" style="mask-type:luminance" maskUnits="userSpaceOnUse" x="18" y="19" width="21" height="22">
<path d="M18.5 19.3706H38.756V40.7886H18.5V19.3706Z" fill="white"/>
</mask>
<g mask="url(#mask0_2009_1034)">
<path d="M18.7754 21.6983C19.5321 20.4467 20.9021 19.5572 22.3941 19.3959C22.4873 19.3887 22.5806 19.3815 22.6738 19.3779H22.8854C22.9069 19.3779 22.932 19.3815 22.9535 19.3815C23.0468 19.3851 23.14 19.3887 23.2333 19.3994C23.3265 19.4066 23.4198 19.4138 23.513 19.4317C23.8824 19.4819 24.2446 19.5752 24.5961 19.7079C24.944 19.8406 25.2811 20.0127 25.5931 20.2171C25.6684 20.2709 25.7438 20.3247 25.8191 20.3785C25.8944 20.4395 25.9661 20.4969 26.0414 20.5543C26.1813 20.6762 26.3176 20.8053 26.4467 20.938C26.7085 21.1998 26.9488 21.476 27.1962 21.7414C27.3182 21.8741 27.4473 22.0032 27.5764 22.1251L27.6732 22.2184L27.7234 22.265L27.7737 22.308L27.8777 22.3941L27.9817 22.4766C28.2614 22.6918 28.5734 22.8567 28.9105 22.9787C29.0791 23.0396 29.2513 23.0934 29.4234 23.1365C29.5991 23.1831 29.7749 23.2225 29.9506 23.262C30.3092 23.3373 30.6679 23.4055 31.0265 23.4987C31.2058 23.5453 31.3852 23.6027 31.5609 23.6673C31.7366 23.7318 31.9088 23.8071 32.0737 23.8968C32.2423 23.9829 32.4001 24.0869 32.5507 24.2052C32.6978 24.3236 32.8377 24.4599 32.9524 24.6141C32.9847 24.6499 33.0098 24.693 33.0385 24.7324L33.0779 24.7934L33.1138 24.8544C33.1604 24.9368 33.2035 25.0265 33.2393 25.1162C33.3111 25.2955 33.3541 25.482 33.3828 25.6721C33.433 26.0486 33.4115 26.4216 33.3864 26.7874C33.3577 27.1568 33.3182 27.5155 33.3218 27.8741C33.3218 28.0498 33.3326 28.2292 33.3613 28.4013C33.3756 28.4874 33.4007 28.5734 33.4186 28.6559C33.4258 28.699 33.4438 28.742 33.4581 28.7815L33.4975 28.907C33.6267 29.2333 33.8132 29.5382 34.0355 29.8143C34.0642 29.8502 34.0965 29.8825 34.1252 29.9148L34.2112 30.0152C34.2758 30.0797 34.3332 30.1479 34.3977 30.2088C34.4659 30.2698 34.5268 30.3344 34.595 30.3918L34.6954 30.4814C34.7313 30.5101 34.7635 30.5388 34.7994 30.5675C35.0756 30.8006 35.3696 31.0122 35.6709 31.213C36.2734 31.6219 36.901 32.0128 37.4533 32.5149C37.5896 32.6368 37.7223 32.7731 37.8478 32.9094C37.8801 32.9453 37.9088 32.9811 37.9375 33.017C37.9698 33.0529 37.9985 33.0887 38.0272 33.1246L38.1132 33.2393C38.1276 33.2573 38.1419 33.2752 38.1527 33.2967L38.1921 33.3541C38.4002 33.6661 38.5651 34.014 38.662 34.3798C38.7624 34.7421 38.8054 35.1186 38.8054 35.4916L38.8018 35.6351C38.8018 35.6817 38.7982 35.7283 38.7947 35.7749C38.7875 35.8646 38.7839 35.9614 38.7696 36.0511L38.7516 36.191L38.7301 36.3308C38.7158 36.4205 38.6942 36.5137 38.6727 36.6034C38.5831 36.9656 38.4504 37.3171 38.2961 37.6506C38.1455 37.9877 37.9662 38.3105 37.7689 38.6225C37.5753 38.9345 37.3673 39.2358 37.1485 39.5299C36.9297 39.824 36.7074 40.1109 36.4814 40.3978C36.6894 40.1001 36.8975 39.7989 37.0947 39.4904C37.2955 39.1892 37.4892 38.8772 37.6649 38.5616C37.7546 38.4002 37.8371 38.2388 37.916 38.0774C37.9949 37.916 38.0702 37.751 38.1383 37.5825C38.271 37.2489 38.3822 36.9046 38.4539 36.5532C38.4683 36.4635 38.4898 36.3774 38.5042 36.2914L38.5257 36.1587L38.5436 36.026C38.5687 35.8467 38.5759 35.6709 38.5795 35.4916C38.5795 35.1366 38.54 34.7815 38.4468 34.4372C38.3535 34.0965 38.1993 33.7737 38.0056 33.4796L37.9698 33.4258C37.9554 33.4079 37.9411 33.39 37.9303 33.372L37.8478 33.2645C37.8227 33.2286 37.7941 33.1963 37.7654 33.164C37.7367 33.1282 37.708 33.0923 37.6793 33.06C37.5573 32.9273 37.4354 32.8018 37.2991 32.6799C36.7683 32.1993 36.1515 31.8084 35.5454 31.3995C35.2405 31.1951 34.9393 30.9799 34.656 30.7432C34.6201 30.7109 34.5842 30.6822 34.5484 30.6536L34.4444 30.5603C34.3726 30.4993 34.3081 30.4348 34.2399 30.3702C34.1718 30.3057 34.1108 30.2375 34.0463 30.1694L33.953 30.0654C33.9243 30.0295 33.8921 29.9937 33.8634 29.9578C33.6267 29.6673 33.4258 29.3409 33.286 28.9895L33.2429 28.8532C33.2286 28.8066 33.2106 28.7635 33.1999 28.7169C33.1784 28.6237 33.1533 28.5304 33.1389 28.4372C33.1066 28.2507 33.0959 28.0606 33.0959 27.8741C33.0923 27.5011 33.1317 27.1353 33.1604 26.7731C33.1891 26.4109 33.207 26.0486 33.1568 25.7007C33.1317 25.5286 33.0923 25.36 33.0277 25.1986C32.999 25.1197 32.9596 25.0408 32.9166 24.9655L32.8843 24.9117L32.8484 24.8579C32.8233 24.8221 32.8018 24.7826 32.7731 24.7503C32.6691 24.6141 32.5436 24.4921 32.4073 24.3845C32.271 24.2769 32.124 24.1765 31.9662 24.094C31.8119 24.0116 31.647 23.9398 31.482 23.8789C31.3134 23.8179 31.1449 23.7641 30.9691 23.7175C30.6213 23.6242 30.2626 23.5597 29.904 23.4808C29.7247 23.4449 29.5453 23.4055 29.366 23.3552C29.1867 23.3086 29.011 23.2548 28.8316 23.1939C28.4802 23.0647 28.1395 22.8854 27.8454 22.6559L27.7342 22.5698L27.6266 22.4766L27.5728 22.4335L27.5226 22.3869L27.4186 22.2901C27.2859 22.161 27.1568 22.0283 27.0313 21.8956C26.7802 21.6266 26.5399 21.3504 26.2853 21.0958C26.1598 20.9667 26.0271 20.8448 25.8944 20.7264C25.8262 20.6726 25.7545 20.6152 25.6864 20.5614C25.6111 20.5112 25.5393 20.4574 25.4676 20.4072C25.1699 20.21 24.8507 20.045 24.5172 19.9195C24.1837 19.794 23.8358 19.7043 23.4807 19.6541C23.3911 19.6397 23.305 19.6326 23.2153 19.6254L23.1472 19.6182C23.1257 19.6146 23.1042 19.6146 23.0827 19.6146L22.9464 19.611C22.9249 19.6075 22.9033 19.6075 22.8818 19.6075H22.8137L22.681 19.611C22.6344 19.611 22.5913 19.6146 22.5483 19.6182L22.412 19.6254C21.7019 19.6684 20.999 19.8908 20.3749 20.2458C20.0593 20.4252 19.7652 20.6368 19.4963 20.8806C19.2273 21.1245 18.9834 21.4007 18.7754 21.7019V21.6983Z" fill="#FEFEFE"/>
</g>
<path d="M20.8398 23.5557C21.2092 23.8749 21.6432 24.1116 22.0987 24.2765C22.3246 24.3554 22.5577 24.4236 22.7944 24.4738C23.0275 24.5276 23.2678 24.567 23.5081 24.5993C23.9851 24.6782 24.4693 24.7248 24.957 24.7607L25.6887 24.8109C25.9325 24.8288 26.18 24.8539 26.4239 24.8826C26.9152 24.94 27.4029 25.0225 27.8835 25.1624C28.3605 25.3022 28.8267 25.4959 29.2464 25.7792C29.4544 25.9227 29.6516 26.0841 29.8238 26.267C29.9995 26.4499 30.1537 26.6543 30.2864 26.8659C30.5518 27.2963 30.7347 27.7625 30.8925 28.2287C31.0539 28.695 31.1902 29.1612 31.3587 29.6167C31.5237 30.0721 31.7246 30.5133 32.0007 30.897C32.2769 31.2843 32.6283 31.6179 33.0085 31.912C33.3886 32.2096 33.8011 32.4643 34.2207 32.7153C34.6403 32.9628 35.0671 33.2067 35.4795 33.4756C35.6875 33.6083 35.8919 33.7518 36.0892 33.9024C36.1358 33.9419 36.186 33.9813 36.2327 34.0208C36.2829 34.0602 36.3295 34.0997 36.3761 34.1391C36.4227 34.1822 36.4729 34.2216 36.516 34.2646C36.5626 34.3077 36.6056 34.3507 36.6487 34.3973C36.993 34.7632 37.2763 35.1863 37.4592 35.6526C37.5489 35.8821 37.6134 36.126 37.6457 36.3699C37.6744 36.6173 37.6708 36.8684 37.6278 37.1087C37.6493 36.8648 37.6314 36.6173 37.5811 36.3806C37.5345 36.1439 37.452 35.918 37.348 35.6992C37.1364 35.2688 36.8388 34.8815 36.4909 34.5551C36.4012 34.4762 36.3151 34.3938 36.2255 34.3113C36.1358 34.2324 36.0426 34.1571 35.9493 34.0817C35.7593 33.9347 35.562 33.7948 35.3576 33.6657C34.9523 33.4003 34.5255 33.16 34.1059 32.909C33.6827 32.6579 33.2631 32.3961 32.8686 32.0913C32.4777 31.7864 32.1119 31.4386 31.8178 31.0297C31.5201 30.6209 31.3157 30.1582 31.1436 29.6956C30.975 29.2293 30.8387 28.7595 30.6809 28.3005C30.5231 27.8414 30.3438 27.3931 30.0927 26.9843C29.9672 26.7834 29.8238 26.5969 29.6624 26.4248C29.4974 26.2526 29.3145 26.102 29.1172 25.9693C28.7263 25.7003 28.2816 25.5138 27.819 25.3811C27.3563 25.2449 26.8793 25.1624 26.3988 25.105C26.1585 25.0763 25.9146 25.0548 25.6707 25.0368L24.9391 24.983C24.6952 24.9687 24.4513 24.9472 24.2039 24.9221C24.0819 24.9077 23.96 24.8934 23.8381 24.879C23.7161 24.8647 23.5906 24.8468 23.4723 24.8252C22.9845 24.7284 22.5039 24.5921 22.052 24.3913C21.8261 24.2873 21.6073 24.1689 21.4029 24.0291C21.1985 23.8892 21.0084 23.7314 20.8398 23.5557Z" fill="#FEFEFE"/>
<path d="M22.0684 27.4256C22.5023 27.3 22.9399 27.1853 23.3846 27.0956C23.6069 27.0526 23.8293 27.0167 24.0552 26.9916C24.2812 26.9629 24.5107 26.9521 24.7402 26.9521C24.9698 26.9521 25.1993 26.9665 25.4288 27.0024C25.6548 27.0346 25.8807 27.0848 26.1031 27.1566C26.3218 27.2283 26.537 27.3215 26.7414 27.4363C26.9423 27.5511 27.1324 27.6874 27.3081 27.838C27.4874 27.985 27.6488 28.1536 27.7994 28.3257C27.95 28.5015 28.0899 28.6844 28.219 28.8709C28.3446 29.0609 28.4629 29.2582 28.5777 29.4555C28.6064 29.5057 28.6315 29.5559 28.6602 29.6061C28.6853 29.6527 28.714 29.7029 28.7391 29.7531C28.7929 29.8535 28.8431 29.9575 28.8933 30.058C28.9937 30.2624 29.0905 30.4632 29.1874 30.6677C29.2842 30.8721 29.381 31.0729 29.4814 31.2773C29.6823 31.679 29.8975 32.0735 30.1449 32.4501C29.8544 32.1022 29.6105 31.7185 29.3846 31.3276C29.2734 31.1303 29.1623 30.933 29.0547 30.7358C28.9507 30.535 28.8466 30.3377 28.7355 30.1405C28.5203 29.746 28.3015 29.355 28.0433 28.9928C27.7851 28.6342 27.4982 28.2899 27.1646 28.0065C26.9961 27.8667 26.8203 27.7376 26.6303 27.6264C26.4438 27.5152 26.2429 27.4291 26.0349 27.3574C25.6225 27.2104 25.1814 27.1458 24.7366 27.1279C24.2919 27.1099 23.8472 27.1458 23.4025 27.2068C22.9542 27.2642 22.5131 27.3502 22.0684 27.4256Z" fill="#FEFEFE"/>
<path d="M17.3036 27.8882C17.0561 27.3538 16.9234 26.7621 16.9019 26.1631C16.8732 25.5642 16.9593 24.9617 17.1529 24.3915C17.3466 23.8212 17.6443 23.2868 18.028 22.8278C18.4118 22.3687 18.8744 21.9778 19.398 21.7017C18.9282 22.0567 18.5122 22.4727 18.1679 22.939C17.8236 23.4052 17.551 23.9181 17.3645 24.4632C17.1816 25.0083 17.0884 25.5821 17.0776 26.1596C17.0669 26.7405 17.1458 27.3215 17.3036 27.8882Z" fill="#FEFEFE"/>
<path d="M18.3828 27.8164C18.5119 28.34 18.7415 28.8349 19.0535 29.2653C19.2077 29.4805 19.3798 29.6813 19.5735 29.8642C19.6237 29.9073 19.6703 29.9539 19.7205 29.9933C19.7707 30.0364 19.821 30.0794 19.8748 30.1189L19.9537 30.1798C19.9788 30.1978 20.0074 30.2157 20.0361 30.2336L20.115 30.291C20.1437 30.309 20.1724 30.3269 20.2011 30.3448C20.4271 30.4811 20.6638 30.6066 20.904 30.7393C21.0224 30.811 21.1408 30.8792 21.2555 30.9617C21.3667 31.0406 21.4779 31.1302 21.5819 31.2271C21.7827 31.4279 21.9549 31.661 22.0732 31.9157C22.1916 32.1739 22.2669 32.45 22.2812 32.7334L22.1306 32.6724C22.2203 32.5935 22.3314 32.554 22.4462 32.5469C22.5574 32.5397 22.6757 32.5756 22.7654 32.6401C22.855 32.7083 22.9232 32.8051 22.9519 32.9127C22.9662 32.9629 22.9734 33.0023 22.9913 33.0239C23.0093 33.049 23.038 33.0633 23.0738 33.0705C23.1455 33.0848 23.2352 33.049 23.3249 33.0131C23.4109 32.9772 23.497 32.9378 23.5831 32.8983C23.7552 32.8158 23.9202 32.719 24.0816 32.615C24.0099 32.676 23.9346 32.7369 23.8557 32.7943C23.7768 32.8517 23.6979 32.9055 23.6154 32.9557C23.5329 33.0059 23.4468 33.0525 23.3607 33.0956C23.3177 33.1171 23.2747 33.1386 23.2244 33.1565C23.1778 33.1745 23.1204 33.1888 23.0631 33.1852C23.0021 33.1781 22.9411 33.1565 22.8945 33.1028C22.8515 33.049 22.8407 32.9916 22.8264 32.9521C22.7977 32.8768 22.7439 32.8123 22.6793 32.7692C22.6112 32.7226 22.5323 32.7047 22.457 32.7118C22.3781 32.7226 22.3063 32.7549 22.2525 32.8051C22.2167 32.8409 22.1593 32.8409 22.127 32.8051C22.1127 32.7907 22.1019 32.7692 22.1019 32.7513V32.7477C22.0517 32.2313 21.7971 31.7435 21.4277 31.3885C21.3344 31.2988 21.234 31.2199 21.1264 31.1446C21.0188 31.0729 20.904 31.0011 20.7893 30.933C20.5598 30.7967 20.3195 30.6748 20.0864 30.5205C19.8568 30.3699 19.6381 30.1942 19.4444 29.9969C19.2507 29.7961 19.0786 29.5809 18.9315 29.3478C18.6374 28.8816 18.4438 28.3544 18.3828 27.8164Z" fill="#FEFEFE"/>
<path d="M23.329 33.0672C23.286 33.121 23.286 33.1927 23.3111 33.2501C23.3326 33.311 23.3792 33.3505 23.4366 33.3756C23.494 33.4007 23.555 33.4115 23.6195 33.4186C23.6841 33.4222 23.7522 33.4186 23.8239 33.4222C23.8562 33.4258 23.8921 33.4294 23.9315 33.4366C23.9674 33.4437 24.0033 33.4545 24.0391 33.4688C24.1073 33.494 24.1682 33.5334 24.2292 33.5693C24.2866 33.6087 24.3404 33.6482 24.3942 33.684C24.448 33.7163 24.5018 33.7486 24.5556 33.7665C24.7815 33.8418 25.0397 33.7845 25.2442 33.6589C25.4558 33.5262 25.6279 33.329 25.7857 33.1174C26.1049 32.6942 26.3882 32.2423 26.5998 31.7581C26.815 31.274 26.9513 30.7539 26.9585 30.2124C27.0015 30.4778 27.0015 30.7539 26.9656 31.0265C26.9549 31.0947 26.9441 31.1628 26.9333 31.2274C26.9154 31.2955 26.9047 31.3636 26.8867 31.4318C26.8688 31.4963 26.8544 31.5645 26.8329 31.629C26.8078 31.6936 26.7899 31.7581 26.7648 31.8227C26.5783 32.3427 26.2914 32.8197 25.965 33.2537C25.8825 33.3648 25.7929 33.4724 25.696 33.5729C25.5956 33.6733 25.4809 33.7665 25.3553 33.8418C25.2262 33.9136 25.0864 33.9674 24.9357 33.9853C24.7887 34.0032 24.6345 33.9889 24.4946 33.9279C24.4229 33.8992 24.3583 33.8598 24.3009 33.8167C24.2471 33.7737 24.1933 33.7307 24.1431 33.6912C24.0893 33.6518 24.0391 33.6123 23.9853 33.5872C23.9566 33.5729 23.9315 33.5621 23.9028 33.5549C23.8742 33.5442 23.8419 33.537 23.8096 33.5334C23.745 33.5226 23.6805 33.5155 23.6088 33.5047C23.5406 33.4904 23.4689 33.4724 23.4079 33.433C23.3756 33.4115 23.347 33.3899 23.3254 33.3577C23.3003 33.329 23.286 33.2967 23.2788 33.2608C23.2609 33.1927 23.2752 33.1102 23.329 33.0672Z" fill="#FEFEFE"/>
<path d="M26.2402 32.748C26.6276 32.7803 27.0041 32.9632 27.3018 33.2286C27.6031 33.4976 27.8254 33.8562 27.9223 34.2543C28.0155 34.6524 27.9796 35.0756 27.8326 35.4486C27.6891 35.8216 27.4309 36.1551 27.101 36.3595C27.3699 36.0798 27.56 35.7463 27.664 35.3912C27.768 35.0362 27.786 34.6596 27.7035 34.3081C27.6174 33.9531 27.4309 33.6267 27.1799 33.3541C26.9252 33.0852 26.606 32.8736 26.2402 32.748Z" fill="#FEFEFE"/>
<path d="M23.1348 37.561C23.2962 36.8939 23.7911 36.2986 24.4438 36.0153C24.7666 35.8682 25.1145 35.8001 25.448 35.7355C25.6166 35.7032 25.7815 35.6745 25.9465 35.6387C26.1079 35.5992 26.2693 35.5562 26.4235 35.4988C26.4988 35.4701 26.5741 35.4378 26.6458 35.402C26.7212 35.3661 26.7893 35.3267 26.8574 35.28C26.922 35.237 26.9866 35.1904 27.0439 35.133C27.0726 35.1079 27.1013 35.0792 27.1264 35.0505L27.1659 35.0039C27.1766 34.9895 27.191 34.9752 27.2017 34.9609C27.295 34.8353 27.3703 34.6919 27.4133 34.5377C27.4564 34.3834 27.4743 34.2221 27.4671 34.0643C27.4528 33.7415 27.3093 33.4295 27.0726 33.1999C26.9579 33.0816 26.818 32.9883 26.6674 32.9166C26.5921 32.8807 26.5131 32.8521 26.4307 32.8305C26.3482 32.8054 26.2657 32.7947 26.1796 32.7839C26.3518 32.7767 26.5239 32.8018 26.6889 32.8592C26.7319 32.8736 26.7714 32.8879 26.8108 32.9094C26.8323 32.9166 26.8503 32.9274 26.8718 32.9381L26.9292 32.9668L26.9579 32.9847L27.0404 33.0385C27.0762 33.0636 27.1121 33.0888 27.1479 33.1174C27.2806 33.2358 27.399 33.3721 27.4851 33.5335C27.5711 33.6913 27.6249 33.867 27.6429 34.0499C27.6536 34.1396 27.6536 34.2292 27.6465 34.3189L27.6393 34.387L27.6357 34.4229L27.6321 34.4552L27.6178 34.5233L27.6034 34.5879C27.5604 34.7672 27.4815 34.9357 27.3739 35.0864C27.3488 35.1258 27.3201 35.1581 27.2878 35.194C27.2591 35.2298 27.2268 35.2621 27.1946 35.2944C27.1264 35.3589 27.0547 35.4127 26.9794 35.4665C26.8288 35.567 26.6674 35.6459 26.5024 35.7104C25.8281 35.9579 25.1288 35.9364 24.5084 36.1766C23.8951 36.4133 23.3858 36.9226 23.1348 37.561Z" fill="#FEFEFE"/>
<path d="M27.599 30.8325C27.6026 31.2808 27.6886 31.7327 27.8536 32.1559C27.9361 32.3675 28.0401 32.5755 28.1585 32.7692C28.2804 32.9629 28.4203 33.1422 28.5745 33.3143C28.7251 33.4865 28.8865 33.6586 29.0228 33.8523C29.0909 33.9491 29.1519 34.0495 29.2021 34.1607C29.2487 34.2683 29.2882 34.3831 29.3061 34.4978C29.385 34.9641 29.238 35.4626 28.908 35.7925C29.2236 35.4518 29.3456 34.9533 29.2523 34.5086C29.2272 34.3974 29.1878 34.2898 29.1376 34.1894C29.0873 34.089 29.0264 33.9922 28.9546 33.9025C28.8148 33.7196 28.6498 33.5582 28.4884 33.3896C28.327 33.2247 28.1728 33.0418 28.0401 32.8445C27.9074 32.6508 27.7927 32.4392 27.6994 32.2241C27.5093 31.7865 27.3946 31.3167 27.373 30.8361C27.373 30.7752 27.4197 30.7214 27.4842 30.7178C27.5452 30.7178 27.599 30.7644 27.599 30.829C27.599 30.829 27.599 30.829 27.599 30.8325Z" fill="#FEFEFE"/>
<path d="M24.4507 27.7447C24.96 28.0245 25.3653 28.4692 25.5912 28.9892C25.8171 29.5093 25.8602 30.0974 25.7167 30.6354C25.8207 30.0903 25.7382 29.52 25.4872 29.0394C25.2397 28.5553 24.8309 28.1679 24.3503 27.9492C24.2929 27.9205 24.2678 27.8559 24.2929 27.7985C24.318 27.7412 24.3862 27.7161 24.4435 27.7412C24.4435 27.7447 24.4471 27.7447 24.4507 27.7447Z" fill="#FEFEFE"/>
<path d="M25.7246 48.5781C26.4993 47.642 27.0946 46.5805 27.5573 45.4723C28.0486 44.3748 28.4036 43.2164 28.7013 42.0473C28.8484 41.4627 28.9811 40.8709 29.1066 40.2792C29.2357 39.691 29.3505 39.0921 29.5047 38.5039C29.6625 37.9121 29.8561 37.3276 30.1466 36.7788C30.1825 36.7107 30.2219 36.6426 30.2578 36.578C30.2973 36.5099 30.3403 36.4453 30.3798 36.3772C30.4658 36.2481 30.5555 36.1225 30.6559 36.0006C30.8496 35.7603 31.0719 35.5379 31.3194 35.3479C31.5633 35.1542 31.8322 34.9928 32.1227 34.8673C32.4097 34.7454 32.7181 34.6629 33.0337 34.6378C33.1915 34.6234 33.3529 34.627 33.5107 34.6449C33.5501 34.6449 33.586 34.6521 33.6254 34.6593C33.6649 34.6629 33.7043 34.6736 33.7438 34.6808L33.8586 34.7059C33.898 34.7167 33.9375 34.7274 33.9733 34.7382C34.1275 34.7848 34.271 34.8494 34.4144 34.9211L34.5149 34.9785C34.5507 34.9964 34.5866 35.0143 34.6189 35.0394C34.6834 35.0825 34.7516 35.1255 34.8125 35.1757C35.3146 35.5559 35.6876 36.0867 35.8992 36.6784C36.0032 36.9761 36.0678 37.2809 36.0965 37.5929C36.1252 37.9014 36.118 38.2134 36.0857 38.5218C36.0176 39.1387 35.8311 39.7376 35.58 40.2971C35.329 40.8566 35.017 41.3874 34.6763 41.893C33.9697 42.8865 33.1771 43.801 32.5531 44.8411C32.6894 44.5721 32.84 44.3067 32.9942 44.0449C33.152 43.7867 33.317 43.532 33.4856 43.2774C33.8191 42.7717 34.167 42.2768 34.4898 41.7675L34.7336 41.3874C34.8125 41.2618 34.8914 41.1327 34.9668 41.0036C35.1138 40.7418 35.2537 40.4764 35.3756 40.2038C35.4975 39.9313 35.6015 39.6515 35.684 39.3682C35.7271 39.2248 35.7593 39.0813 35.7916 38.9343C35.8203 38.7908 35.8454 38.6438 35.8598 38.4967C35.892 38.2026 35.8992 37.905 35.8705 37.6109C35.8418 37.3204 35.7844 37.0299 35.6876 36.7537C35.4904 36.205 35.1389 35.7065 34.6727 35.355C34.6189 35.3084 34.5579 35.269 34.4969 35.2295C34.4682 35.208 34.436 35.1901 34.4037 35.1721L34.3069 35.1183C34.1777 35.0574 34.045 34.9964 33.9088 34.9569C33.8729 34.9462 33.8406 34.9354 33.8048 34.9247L33.6972 34.9032C33.6649 34.896 33.629 34.8852 33.5932 34.8816C33.5573 34.878 33.5214 34.8709 33.4856 34.8673C33.3421 34.8529 33.1951 34.8494 33.0516 34.8637C32.7647 34.8852 32.4814 34.9605 32.2124 35.0753C31.9434 35.1901 31.6888 35.3443 31.4593 35.5236C31.2261 35.7065 31.0145 35.9145 30.8316 36.144C30.7384 36.2588 30.6487 36.3772 30.5698 36.5027C30.534 36.5637 30.4909 36.6246 30.4551 36.6892C30.4192 36.7537 30.3798 36.8183 30.3475 36.8828C30.0677 37.41 29.8777 37.9803 29.7234 38.5613C29.5728 39.1423 29.4545 39.734 29.3289 40.3294C29.1998 40.9211 29.0671 41.5129 28.9201 42.1046C28.6224 43.281 28.2602 44.4501 27.7617 45.5655C27.4999 46.1142 27.1986 46.6486 26.8615 47.1543C26.6929 47.4089 26.5136 47.6564 26.3235 47.8931C26.1335 48.1298 25.9326 48.3593 25.7246 48.5781Z" fill="#FEFEFE"/>
<path d="M25.6996 48.0654C25.5884 48.0618 25.4772 48.0618 25.3696 48.0546L25.2011 48.0438C25.1473 48.0402 25.0899 48.0403 25.0361 48.0331C24.9249 48.0187 24.8173 48.008 24.7061 47.99L24.5412 47.9613C24.4874 47.9542 24.4336 47.9434 24.3798 47.9327C23.9422 47.843 23.5155 47.7211 23.0959 47.5668C22.6798 47.409 22.2746 47.219 21.8837 47.0074C21.4891 46.7958 21.1126 46.5555 20.7468 46.3008C20.5639 46.1717 20.3845 46.039 20.2088 45.9063C20.1191 45.8382 20.0331 45.7665 19.947 45.6983C19.8609 45.6266 19.7749 45.5585 19.6888 45.4867C19.3481 45.1998 19.0181 44.9022 18.6953 44.6009C18.3726 44.2961 18.0606 43.984 17.7485 43.672L17.5154 43.4389C17.4365 43.3564 17.3576 43.2739 17.2787 43.1843C17.2034 43.0982 17.1281 43.0014 17.0635 42.8938C16.999 42.7862 16.9452 42.6678 16.9129 42.5387C16.877 42.4096 16.8699 42.2697 16.8806 42.1406C16.8914 42.0115 16.9237 41.8896 16.9595 41.7748C17.0313 41.5489 17.1281 41.3516 17.1891 41.158C17.2177 41.0611 17.2393 40.9679 17.2536 40.871C17.2644 40.7742 17.2644 40.6774 17.2608 40.5734C17.2536 40.3725 17.2177 40.1574 17.1855 39.9386C17.1711 39.8274 17.1568 39.7126 17.1496 39.5979C17.1388 39.4831 17.1388 39.3648 17.1388 39.25C17.1424 39.1352 17.1496 39.0169 17.164 38.9021C17.1747 38.7873 17.1962 38.6726 17.2177 38.5614C17.2429 38.4466 17.2715 38.3355 17.3074 38.2243C17.3433 38.1167 17.3791 38.0055 17.4258 37.8979C17.4509 37.8477 17.4724 37.7939 17.4975 37.7437C17.5226 37.6935 17.5477 37.6433 17.5656 37.6002C17.5871 37.5536 17.6015 37.5106 17.6158 37.4676C17.6194 37.446 17.623 37.4245 17.6266 37.4066C17.6302 37.3851 17.6338 37.3671 17.6302 37.3492C17.6302 37.2739 17.6015 37.2022 17.5656 37.1699C17.5262 37.1376 17.476 37.1233 17.4007 37.1484C17.3289 37.1699 17.25 37.2273 17.1819 37.2918C17.164 37.3062 17.1496 37.3241 17.1317 37.3456L17.0815 37.403C17.0635 37.4209 17.0492 37.4424 17.0348 37.464C17.0205 37.4819 17.0026 37.5034 16.9882 37.5249C16.8699 37.6935 16.7766 37.8836 16.7049 38.0808C16.6296 38.2817 16.5758 38.4897 16.5256 38.7013C16.4287 39.1245 16.3642 39.562 16.2602 39.996C16.2064 40.2111 16.1418 40.4263 16.0558 40.6308C15.9697 40.8388 15.8549 41.0324 15.7186 41.2082C15.7151 41.2118 15.7079 41.2118 15.7043 41.2082C15.7007 41.2046 15.6971 41.1974 15.7007 41.1938C15.8298 41.0145 15.9302 40.8172 16.0091 40.6128C16.0844 40.4084 16.1418 40.1968 16.1885 39.9816C16.2781 39.5512 16.3247 39.1101 16.4108 38.6798C16.4503 38.461 16.5041 38.2458 16.5758 38.0378C16.6439 37.8262 16.7408 37.6254 16.8627 37.4389C16.877 37.4173 16.895 37.3958 16.9093 37.3743C16.9273 37.3492 16.9416 37.3277 16.9595 37.3062C16.9954 37.2631 17.0277 37.2201 17.0671 37.1806C17.146 37.0982 17.2393 37.03 17.3469 36.9906C17.4007 36.9726 17.458 36.9619 17.5154 36.969C17.5728 36.9762 17.6302 37.0013 17.6732 37.0372C17.7198 37.073 17.7521 37.1233 17.7736 37.1771C17.7952 37.2273 17.8059 37.2846 17.8095 37.342C17.8131 37.4568 17.7772 37.568 17.7342 37.6684C17.7163 37.7186 17.6912 37.7688 17.6696 37.819C17.6445 37.8692 17.623 37.9194 17.6015 37.9696C17.562 38.0737 17.5262 38.1777 17.4939 38.2817C17.4616 38.3857 17.4365 38.4933 17.4114 38.6009C17.3935 38.7084 17.3756 38.816 17.3648 38.9236C17.354 39.0312 17.3469 39.1424 17.3469 39.2536C17.3433 39.3612 17.3469 39.4723 17.3576 39.5799C17.3684 39.6875 17.3827 39.7987 17.3971 39.9063C17.4293 40.1251 17.4688 40.3438 17.4796 40.5626C17.4831 40.6738 17.4831 40.785 17.4688 40.8961C17.458 41.0073 17.4329 41.1185 17.3971 41.2225C17.3325 41.4341 17.2357 41.6349 17.1711 41.843C17.1388 41.947 17.1137 42.0546 17.103 42.1621C17.0958 42.2697 17.103 42.3773 17.1317 42.4813C17.1855 42.6893 17.311 42.8758 17.4509 43.0408C17.5907 43.2058 17.7521 43.36 17.9063 43.5178C18.2148 43.8298 18.5268 44.1418 18.8424 44.4467C19.4808 45.0564 20.1407 45.641 20.8508 46.1574C21.5645 46.6738 22.3284 47.1221 23.1425 47.4557C23.9566 47.7856 24.8209 48.0008 25.6996 48.0402C25.7067 48.0402 25.7103 48.0474 25.7103 48.051C25.7103 48.0582 25.7067 48.0618 25.6996 48.0618V48.0654Z" fill="#FEFEFE"/>
<mask id="mask1_2009_1034" style="mask-type:luminance" maskUnits="userSpaceOnUse" x="14" y="36" width="4" height="4">
<path d="M14.1289 36.1982H17.5826V39.8707H14.1289V36.1982Z" fill="white"/>
</mask>
<g mask="url(#mask1_2009_1034)">
<path d="M17.547 36.9694C17.547 36.9228 17.5254 36.8833 17.4932 36.8546C17.4645 36.8259 17.425 36.808 17.3892 36.8008C17.3174 36.7937 17.2385 36.8295 17.174 36.8797C17.1094 36.9299 17.052 37.0053 16.9731 37.0806C16.9337 37.1164 16.8906 37.1559 16.8404 37.1882C16.8153 37.2061 16.7902 37.2204 16.7615 37.2348C16.7364 37.2527 16.7113 37.2635 16.6862 37.2742C16.5786 37.3209 16.471 37.3496 16.3706 37.3747C16.2666 37.3998 16.1698 37.4141 16.0801 37.4356C15.9869 37.4571 15.9044 37.4823 15.8327 37.5145C15.7609 37.5468 15.6964 37.5898 15.6354 37.6436C15.5708 37.6974 15.5099 37.762 15.4489 37.8337C15.3879 37.9054 15.3234 37.9843 15.2588 38.0597C15.1979 38.135 15.1369 38.2103 15.0795 38.2856C15.0221 38.3609 14.9683 38.4362 14.9217 38.5151C14.8751 38.5904 14.8321 38.6729 14.7998 38.7554C14.7675 38.8379 14.746 38.9276 14.7352 39.0172C14.7209 39.1069 14.7245 39.2001 14.7388 39.2898C14.746 39.3364 14.7567 39.383 14.7747 39.4261C14.789 39.4727 14.8105 39.5157 14.8356 39.5624C14.8392 39.5695 14.8392 39.5767 14.8321 39.5803C14.8285 39.5803 14.8213 39.5803 14.8177 39.5767C14.7496 39.5014 14.6958 39.4117 14.6635 39.3149C14.6312 39.2217 14.6133 39.1176 14.6133 39.0172C14.6133 38.9168 14.624 38.8128 14.6491 38.716C14.6778 38.6156 14.7137 38.5223 14.7603 38.4326C14.85 38.2497 14.9683 38.0884 15.0903 37.927C15.2158 37.7727 15.3306 37.6078 15.4848 37.4715C15.5637 37.4069 15.6497 37.3496 15.743 37.3101C15.8398 37.2707 15.9367 37.2455 16.0371 37.2276C16.2343 37.1882 16.4352 37.1738 16.6217 37.1057C16.7113 37.0698 16.7974 37.0232 16.8727 36.9586C16.9516 36.8977 17.0233 36.8259 17.113 36.7757C17.1596 36.7506 17.2062 36.7291 17.26 36.7183C17.3103 36.7112 17.364 36.7112 17.4143 36.7291C17.4645 36.747 17.5075 36.7793 17.5362 36.8259C17.5685 36.869 17.5828 36.9264 17.5649 36.9766C17.5649 36.9837 17.5577 36.9873 17.5541 36.9837C17.547 36.9837 17.5434 36.9802 17.5434 36.973L17.547 36.9694Z" fill="#FEFEFE"/>
</g>
<mask id="mask2_2009_1034" style="mask-type:luminance" maskUnits="userSpaceOnUse" x="14" y="37" width="8" height="13">
<path d="M14.1289 37.1157H21.2551V49.0943H14.1289V37.1157Z" fill="white"/>
</mask>
<g mask="url(#mask2_2009_1034)">
<path d="M20.5363 49.1944C19.672 48.4162 18.8364 47.6128 17.9792 46.8346C17.8716 46.7377 17.7676 46.6409 17.6564 46.5441L17.4986 46.397L17.3337 46.2536C17.2296 46.1567 17.1185 46.0635 17.0109 45.9702L16.6809 45.6869C16.4586 45.5004 16.2398 45.3068 16.021 45.1023C15.8094 44.8979 15.6014 44.6791 15.4185 44.4317C15.3289 44.3097 15.2428 44.1806 15.1711 44.0443C15.1352 43.9762 15.1029 43.9045 15.0671 43.8363L15.024 43.7287C15.0097 43.6929 14.9917 43.6606 14.981 43.6211C14.8734 43.3378 14.7981 43.0437 14.7443 42.7532C14.6905 42.4592 14.651 42.1722 14.608 41.8853C14.5901 41.7419 14.565 41.602 14.5434 41.4621C14.5327 41.3904 14.5183 41.3187 14.504 41.2505C14.4896 41.1824 14.4753 41.1107 14.4609 41.0425C14.4 40.7664 14.3103 40.4902 14.2458 40.2033C14.1776 39.9128 14.1274 39.6151 14.1382 39.3103C14.1453 39.1453 14.1956 38.9911 14.2637 38.8548C14.3283 38.715 14.4179 38.5894 14.5112 38.4783C14.608 38.3635 14.712 38.2595 14.8196 38.1591C14.9272 38.0586 15.0384 37.9654 15.146 37.8686C15.1531 37.865 15.1603 37.865 15.1639 37.8722C15.1675 37.8757 15.1675 37.8829 15.1639 37.8865C14.9559 38.0909 14.7479 38.2918 14.5757 38.5249C14.4896 38.6396 14.4107 38.7616 14.3534 38.8943C14.296 39.0234 14.2565 39.1668 14.2565 39.3103C14.2565 39.5972 14.3175 39.8841 14.3928 40.1639C14.4681 40.4436 14.5614 40.7162 14.6331 40.9995C14.7801 41.5626 14.8375 42.1436 14.9523 42.7102C15.0097 42.9935 15.0814 43.2733 15.1854 43.5422C15.2858 43.8148 15.4293 44.0659 15.6014 44.299C15.77 44.5321 15.9672 44.7437 16.1752 44.9445C16.3833 45.1454 16.602 45.3354 16.8208 45.5255C17.2583 45.9093 17.6851 46.3038 18.1047 46.7054C18.9404 47.5088 19.7473 48.3444 20.5542 49.1765C20.5578 49.1836 20.5578 49.1908 20.5506 49.1944C20.5471 49.198 20.5399 49.198 20.5363 49.1944Z" fill="#FEFEFE"/>
</g>
<path d="M15.8469 40.1465C15.8003 39.8776 15.7142 39.6409 15.6425 39.3791C15.6102 39.2499 15.5815 39.1137 15.5672 38.9702C15.56 38.8985 15.5564 38.8232 15.56 38.7479C15.5636 38.6725 15.5743 38.5936 15.5923 38.5183C15.6102 38.443 15.6317 38.3677 15.6676 38.2924C15.7035 38.2207 15.7465 38.1489 15.8003 38.088C15.8541 38.0234 15.9186 37.9624 15.9832 37.923C16.0477 37.8764 16.1159 37.8441 16.1769 37.8154L16.349 37.7365C16.4064 37.7114 16.4602 37.6791 16.5176 37.6468C16.6323 37.5859 16.7399 37.5105 16.8619 37.4424H16.8654C16.8726 37.4388 16.8798 37.4424 16.8834 37.446C16.8834 37.4496 16.8834 37.4567 16.8798 37.4603C16.7901 37.5572 16.6969 37.654 16.5965 37.7401C16.5463 37.7867 16.4925 37.8261 16.4387 37.8656C16.3813 37.9015 16.3239 37.9373 16.2701 37.9696C16.1553 38.0377 16.0442 38.1131 15.9689 38.2171C15.8899 38.3211 15.8397 38.443 15.811 38.5685C15.7824 38.6976 15.7752 38.8268 15.7788 38.9594C15.7859 39.0921 15.8039 39.2213 15.8218 39.354C15.8433 39.4831 15.8648 39.6158 15.8756 39.7485C15.8864 39.8812 15.8864 40.0174 15.8684 40.1501C15.8684 40.1537 15.8613 40.1609 15.8541 40.1573C15.8505 40.1573 15.8469 40.1537 15.8469 40.1501V40.1465Z" fill="#FEFEFE"/>
<path d="M15.0405 39.3148C15.0549 39.1247 15.0836 38.9454 15.1123 38.7697C15.1446 38.5939 15.1768 38.4182 15.2091 38.2461C15.227 38.1564 15.245 38.0632 15.2737 37.9699C15.2916 37.9233 15.3059 37.8767 15.331 37.83C15.3418 37.8049 15.3526 37.7834 15.3633 37.7619C15.3705 37.7476 15.3813 37.7368 15.3884 37.7224C15.3956 37.7117 15.4064 37.7009 15.4135 37.6902C15.4853 37.6041 15.5713 37.5467 15.661 37.5001C15.7507 37.4606 15.8511 37.4319 15.9479 37.4427H15.9515C15.9551 37.4463 15.9587 37.4499 15.9587 37.4535C15.9587 37.4571 15.9551 37.4606 15.9515 37.4606C15.8654 37.4786 15.7829 37.5216 15.7112 37.5718C15.6359 37.6256 15.5713 37.6866 15.5211 37.7619C15.496 37.7978 15.4781 37.8372 15.4637 37.8802C15.4458 37.9233 15.4351 37.9663 15.4207 38.0094C15.3992 38.0954 15.3848 38.1851 15.3669 38.2748C15.331 38.4541 15.288 38.6298 15.2378 38.8055C15.2127 38.8916 15.184 38.9813 15.1517 39.0673C15.123 39.1534 15.0908 39.2359 15.0549 39.322C15.0513 39.3256 15.0477 39.3256 15.0441 39.3256C15.0405 39.322 15.037 39.3184 15.0405 39.3184V39.3148Z" fill="#FEFEFE"/>
<path d="M19.7308 34.8352C19.7379 34.8173 19.7559 34.803 19.7738 34.7994C19.7917 34.7922 19.8133 34.7922 19.8348 34.7958C19.8778 34.8101 19.9065 34.8424 19.9316 34.8711C19.9567 34.8998 19.9746 34.9285 19.9997 34.9428C20.0213 34.9608 20.0392 34.9608 20.0535 34.9536C20.0643 34.9464 20.0786 34.9321 20.0894 34.907C20.0966 34.8819 20.1038 34.8532 20.1038 34.8245C20.1073 34.7599 20.1002 34.6954 20.0858 34.638C20.0679 34.577 20.0428 34.5268 20.0069 34.4874C19.9675 34.4479 19.9244 34.4192 19.8814 34.4121C19.7881 34.3941 19.677 34.4479 19.6124 34.5304C19.5443 34.6165 19.5156 34.7384 19.5192 34.8675C19.5228 34.993 19.5479 35.1257 19.5981 35.2477C19.6483 35.3696 19.7236 35.4808 19.824 35.5705C19.9244 35.6601 20.05 35.7318 20.1934 35.7641C20.0464 35.7785 19.8922 35.739 19.7595 35.6601C19.6268 35.5848 19.5156 35.4629 19.4403 35.3266C19.4008 35.2584 19.3685 35.1831 19.347 35.1078C19.3255 35.0325 19.3112 34.9572 19.304 34.8747C19.3004 34.7958 19.304 34.7133 19.3219 34.6272C19.3434 34.5447 19.3793 34.4658 19.4331 34.3905C19.4905 34.3188 19.5622 34.265 19.6483 34.2291C19.7344 34.1933 19.8312 34.1789 19.928 34.204C20.0248 34.2291 20.1038 34.2901 20.1575 34.3618C20.2149 34.4336 20.2472 34.5196 20.258 34.6021C20.2723 34.6846 20.2651 34.7671 20.2508 34.8424C20.24 34.889 20.2257 34.9285 20.2042 34.9679C20.1898 34.9895 20.1755 35.0074 20.154 35.0253C20.136 35.0397 20.1073 35.054 20.0786 35.0612C20.05 35.0648 20.0213 35.0612 19.9962 35.0504C19.9711 35.0397 19.9531 35.0217 19.9388 35.0074C19.9101 34.9715 19.8922 34.9357 19.8778 34.9034C19.8635 34.8747 19.8491 34.8424 19.8204 34.8281C19.7953 34.8137 19.7559 34.8066 19.7308 34.8352Z" fill="#FEFEFE"/>
<mask id="mask3_2009_1034" style="mask-type:luminance" maskUnits="userSpaceOnUse" x="14" y="29" width="7" height="9">
<path d="M14.1289 29.771H20.337V37.1159H14.1289V29.771Z" fill="white"/>
</mask>
<g mask="url(#mask3_2009_1034)">
<path d="M20.1029 30.4093C19.6295 30.2766 19.1489 30.151 18.6719 30.108C18.4316 30.0686 18.1949 30.0506 17.9546 30.0614C17.7179 30.0686 17.4776 30.1008 17.2481 30.1546C17.1297 30.1797 17.015 30.2156 16.9038 30.2515C16.7926 30.2909 16.6814 30.3375 16.5738 30.3913C16.4698 30.4415 16.3658 30.4989 16.269 30.5671C16.1686 30.6316 16.0753 30.7033 15.9857 30.7822C15.627 31.0907 15.3509 31.4959 15.1752 31.9371C14.9958 32.3782 14.9169 32.8588 14.9205 33.3358C14.9313 33.8163 15.0209 34.2933 15.1931 34.7416C15.3652 35.1863 15.6235 35.5988 15.9606 35.9359C16.2762 36.2945 16.6743 36.585 17.1333 36.7715C16.6492 36.6747 16.1865 36.4308 15.8028 36.0937C15.437 35.7351 15.1644 35.2939 14.9815 34.8241C14.7986 34.3507 14.7053 33.845 14.6982 33.3393C14.6874 32.8337 14.7735 32.3244 14.9636 31.851C15.1536 31.3776 15.4513 30.9472 15.8386 30.6101C15.9355 30.5276 16.0359 30.4487 16.1435 30.377C16.2511 30.3053 16.3622 30.2443 16.477 30.1869C16.5918 30.1295 16.7101 30.0829 16.8285 30.0399C16.9504 29.9968 17.0724 29.961 17.1943 29.9323C17.6892 29.8175 18.2057 29.8032 18.7078 29.8821C19.2027 29.9968 19.6617 30.1905 20.1029 30.4093Z" fill="#FEFEFE"/>
</g>
<path d="M22.0088 32.0449C22.0339 32.0736 22.059 32.1059 22.0841 32.1418C22.0985 32.1597 22.1092 32.1776 22.12 32.1956C22.1307 32.2171 22.1379 32.2386 22.1415 32.2637C22.1451 32.2888 22.1451 32.3103 22.1487 32.3282C22.1487 32.3462 22.1522 32.3641 22.1558 32.382C22.1666 32.4179 22.1738 32.4574 22.1881 32.4932C22.1989 32.5291 22.2096 32.5721 22.2204 32.6116C22.2311 32.651 22.2419 32.6941 22.2491 32.7371C22.2634 32.8196 22.2706 32.9021 22.2706 32.9881C22.2706 33.1567 22.2383 33.3289 22.1738 33.4867C22.1594 33.5261 22.1415 33.5656 22.1164 33.605C22.0913 33.6409 22.0626 33.6767 22.0303 33.7054C21.9658 33.7664 21.8833 33.8094 21.8008 33.813C21.8761 33.7736 21.9299 33.7198 21.9729 33.6552C21.9909 33.6229 22.0088 33.5907 22.0231 33.5548C22.0375 33.5225 22.0447 33.4867 22.0554 33.4472C22.0913 33.2966 22.1092 33.1424 22.1092 32.9881C22.1092 32.9128 22.102 32.8339 22.0949 32.755C22.0913 32.7192 22.0877 32.6797 22.0805 32.6403L22.0626 32.5219C22.0554 32.4789 22.0518 32.4358 22.0518 32.3928C22.0518 32.3713 22.0518 32.3498 22.0554 32.3247C22.059 32.3031 22.0626 32.2816 22.0626 32.2673C22.0698 32.2386 22.0554 32.1991 22.0447 32.1597L22.0088 32.0449Z" fill="#FEFEFE"/>
<path d="M22.1443 33.2824C22.2412 33.4474 22.3846 33.5765 22.5532 33.6482C22.5962 33.6661 22.6393 33.6805 22.6823 33.6877C22.7253 33.6984 22.772 33.7056 22.8222 33.7163C22.8724 33.7271 22.9226 33.7379 22.9728 33.7666C23.0194 33.7917 23.0661 33.8275 23.1019 33.8777C23.1198 33.9028 23.1342 33.9315 23.1414 33.9638C23.1485 33.9961 23.1485 34.0284 23.1414 34.0606C23.1306 34.1216 23.1055 34.1682 23.0876 34.2113C23.0696 34.2507 23.0589 34.2866 23.0625 34.3153C23.0625 34.3476 23.0732 34.3834 23.0912 34.4229C23.1091 34.4587 23.1342 34.4982 23.1593 34.5412C23.1844 34.5878 23.2059 34.6345 23.2239 34.6847C23.2597 34.7815 23.2812 34.8855 23.2776 34.9931C23.2741 35.0469 23.2669 35.1043 23.249 35.1545C23.2346 35.2083 23.2095 35.2585 23.188 35.3015C23.1629 35.341 23.145 35.3804 23.1342 35.4163C23.1234 35.4486 23.127 35.4809 23.1342 35.5203C23.1378 35.5633 23.1521 35.6064 23.1665 35.653C23.1736 35.6781 23.1772 35.7032 23.1844 35.7319C23.1844 35.7606 23.188 35.7857 23.188 35.8144C23.1916 35.922 23.1557 36.0296 23.1019 36.1192C23.0517 36.2089 22.98 36.2878 22.8975 36.3488C22.815 36.4097 22.7253 36.4528 22.6321 36.485C22.442 36.5424 22.2448 36.5532 22.0547 36.546C22.2448 36.5173 22.4313 36.485 22.6034 36.4097C22.6859 36.3739 22.7648 36.3272 22.8329 36.2663C22.8975 36.2053 22.9549 36.1372 22.9907 36.0583C23.0123 36.0224 23.0266 35.9794 23.0338 35.9399C23.0445 35.9005 23.0481 35.8574 23.0445 35.818C23.0445 35.7749 23.0374 35.7391 23.023 35.696C23.0087 35.6494 22.9943 35.6028 22.9836 35.549C22.9764 35.5239 22.9728 35.4952 22.9728 35.4665C22.9728 35.4342 22.9764 35.402 22.9836 35.3733C22.9979 35.3159 23.023 35.2693 23.0445 35.2262C23.0696 35.1832 23.084 35.1473 23.0947 35.1079C23.1055 35.0684 23.1127 35.029 23.1163 34.9859C23.1198 34.9034 23.1055 34.8174 23.0768 34.7385C23.0625 34.6954 23.0445 34.656 23.023 34.6165C23.0015 34.5771 22.9764 34.534 22.9549 34.4874C22.9334 34.4372 22.9118 34.3798 22.9118 34.3153C22.9118 34.2866 22.919 34.2543 22.9298 34.2256C22.9369 34.1969 22.9477 34.1718 22.9585 34.1503C22.9836 34.1037 23.0015 34.0678 23.0087 34.0355C23.0158 34.0033 23.0158 33.9746 22.9979 33.9459C22.98 33.9136 22.9513 33.8885 22.9154 33.867C22.8831 33.8455 22.8401 33.8311 22.7971 33.8168C22.754 33.806 22.7038 33.7952 22.6572 33.7773C22.6106 33.763 22.564 33.7415 22.5209 33.7163C22.3452 33.6195 22.2053 33.4617 22.1443 33.2788V33.2824Z" fill="#FEFEFE"/>
<path d="M22.3027 33.856C22.4534 33.899 22.5861 33.9815 22.7116 34.0747C22.8335 34.1716 22.9447 34.2863 23.0308 34.419C23.1204 34.5481 23.185 34.6988 23.2029 34.8601C23.2101 34.9426 23.2065 35.0215 23.1886 35.1004C23.1671 35.1758 23.1384 35.2511 23.0917 35.312C23.1312 35.165 23.1384 35.0179 23.1025 34.8781C23.0702 34.7382 23.0057 34.6091 22.9232 34.4907C22.8443 34.3688 22.7474 34.2576 22.6434 34.15C22.5394 34.046 22.4247 33.9492 22.3027 33.856Z" fill="#FEFEFE"/>
<path d="M17.6484 38.3712C17.7166 37.9552 17.9102 37.5643 18.1864 37.2379C18.3263 37.0766 18.4877 36.9331 18.667 36.8112C18.8427 36.6928 19.04 36.5996 19.248 36.5314C19.6604 36.3951 20.1087 36.3808 20.5319 36.474C20.7471 36.5207 20.9515 36.596 21.1452 36.7C21.3388 36.8004 21.5182 36.9295 21.6795 37.0766C21.9951 37.3742 22.239 37.74 22.4291 38.1202C22.5223 38.3103 22.6048 38.5075 22.6766 38.7048C22.7124 38.8052 22.7483 38.9056 22.7806 39.0025C22.8128 39.0993 22.8487 39.1961 22.8882 39.2858C22.9706 39.4687 23.0854 39.6265 23.2504 39.7197C23.3365 39.7699 23.4297 39.813 23.5265 39.8632C23.5732 39.8883 23.6234 39.9134 23.6664 39.9493C23.713 39.9815 23.7561 40.0174 23.7919 40.0604C23.8672 40.1393 23.9246 40.2362 23.9713 40.3366C24.0143 40.4334 24.043 40.5374 24.0609 40.645C24.0968 40.853 24.0896 41.0646 24.0824 41.2726C24.0645 41.0646 24.0502 40.8566 23.9999 40.6558C23.9497 40.4585 23.8565 40.272 23.713 40.1358C23.6449 40.0676 23.5624 40.021 23.4692 39.978C23.3759 39.9385 23.2791 39.9026 23.1787 39.8524C23.0782 39.8022 22.985 39.7269 22.9133 39.6408C22.838 39.5548 22.7806 39.4615 22.7304 39.3611C22.6299 39.1674 22.5654 38.9666 22.4901 38.7765C22.4148 38.5864 22.3323 38.3963 22.2354 38.217C22.0489 37.8548 21.8194 37.5141 21.5253 37.2415C21.3783 37.1052 21.2169 36.9869 21.0412 36.8936C20.869 36.7968 20.6789 36.7287 20.4853 36.6821C20.2916 36.6354 20.0908 36.6103 19.8899 36.6139C19.6927 36.6175 19.4918 36.6462 19.2982 36.7C18.9108 36.8076 18.5522 37.0192 18.2689 37.3133C17.982 37.6038 17.7632 37.9696 17.6484 38.3712Z" fill="#FEFEFE"/>
<path d="M25.6836 39.8882C25.7948 39.8775 25.906 39.9241 25.992 39.9994C26.0781 40.0711 26.1391 40.1716 26.1749 40.2792C26.2072 40.3903 26.218 40.5051 26.218 40.6163C26.218 40.7275 26.2108 40.8386 26.2001 40.9462C26.1749 41.1686 26.1355 41.3874 26.0745 41.6025C26.0136 41.8177 25.9275 42.0257 25.8163 42.223C25.7051 42.4202 25.5724 42.6031 25.4075 42.7645C25.2425 42.9259 25.0524 43.0586 24.8444 43.159C24.6364 43.2594 24.414 43.3168 24.1881 43.3491C23.9586 43.3778 23.729 43.3778 23.5031 43.3491C23.0512 43.2881 22.6244 43.1196 22.2371 42.9008C22.0434 42.786 21.8569 42.6641 21.6812 42.5278C21.5055 42.3915 21.3405 42.2409 21.1863 42.0759C21.0356 41.911 20.8958 41.7352 20.7774 41.5487C20.6591 41.3587 20.5551 41.1614 20.4762 40.9498C20.3219 40.5338 20.2538 40.0855 20.3112 39.6479C20.304 40.0891 20.4008 40.5194 20.5802 40.9104C20.7559 41.3013 21.0105 41.6527 21.3154 41.954C21.6202 42.2517 21.9681 42.5099 22.3411 42.7143C22.7141 42.9187 23.1158 43.073 23.5354 43.1268C23.7398 43.1519 23.9514 43.1554 24.1594 43.1303C24.3638 43.1052 24.5682 43.0479 24.7547 42.9654C24.9448 42.8793 25.117 42.7645 25.2712 42.6211C25.4218 42.4776 25.5545 42.3126 25.6657 42.1333C25.7769 41.954 25.8629 41.7603 25.9347 41.5559C26.0028 41.3551 26.053 41.1435 26.0889 40.9319C26.1247 40.7203 26.1606 40.5015 26.114 40.2971C26.0925 40.1931 26.0422 40.0998 25.9705 40.0209C25.8952 39.9456 25.7948 39.8918 25.6836 39.8882Z" fill="#FEFEFE"/>
<path d="M18.7871 43.6542C19.1637 43.6937 19.5295 43.6578 19.8953 43.5932C20.2575 43.5323 20.6198 43.4426 20.9963 43.378C21.0896 43.3601 21.1828 43.3458 21.2797 43.335C21.3729 43.3243 21.4697 43.3135 21.563 43.3099C21.6598 43.3027 21.7566 43.3027 21.8535 43.3027C21.9503 43.3063 22.0471 43.3171 22.144 43.3278C22.2408 43.3422 22.3341 43.3601 22.4273 43.3852C22.5205 43.4103 22.6138 43.4426 22.7035 43.4785C22.7895 43.5179 22.8756 43.5645 22.9581 43.6148C23.037 43.6685 23.1123 43.7295 23.1804 43.7941C22.8541 43.604 22.4883 43.5215 22.126 43.5036C21.7638 43.4856 21.398 43.5359 21.0322 43.6004C20.6664 43.6614 20.297 43.7403 19.9168 43.769C19.7267 43.7833 19.5331 43.7869 19.343 43.7726C19.1529 43.7546 18.9628 43.7223 18.7871 43.6542Z" fill="#FEFEFE"/>
<path d="M20.8965 44.393C21.1511 44.2065 21.4344 44.0558 21.7429 43.959C22.0477 43.8658 22.3848 43.8263 22.7148 43.8837C22.7542 43.8944 22.7937 43.9016 22.8331 43.9124C22.8762 43.9231 22.9156 43.9339 22.9551 43.9482C23.0304 43.9733 23.1057 44.002 23.181 44.0343C23.3245 44.0953 23.4643 44.1634 23.6042 44.2208C23.7441 44.2782 23.8875 44.3248 24.0346 44.3427C24.1852 44.3643 24.3358 44.3571 24.4865 44.3033C24.3609 44.4001 24.196 44.4467 24.031 44.4539C23.866 44.4611 23.701 44.4324 23.5468 44.3894C23.2384 44.2997 22.9587 44.1563 22.6718 44.106C22.3848 44.0558 22.0836 44.0738 21.7859 44.1311C21.4882 44.1885 21.1942 44.2889 20.8965 44.393Z" fill="#FEFEFE"/>
<path d="M24.1641 43.9447C24.1999 43.9519 24.2358 43.9626 24.2717 43.9626C24.3075 43.9698 24.3434 43.9698 24.3792 43.9734C24.4546 43.9734 24.5263 43.9698 24.598 43.9626C24.7415 43.9519 24.8885 43.9268 25.0463 43.9268C25.1216 43.9268 25.2041 43.9303 25.2866 43.9483L25.344 43.9626C25.3655 43.9698 25.387 43.977 25.405 43.9841C25.4265 43.9913 25.4444 43.9985 25.4623 44.0092C25.4839 44.0164 25.5018 44.0272 25.5197 44.0379C25.6703 44.124 25.7851 44.2603 25.8533 44.4109C25.8891 44.4862 25.9178 44.5615 25.9322 44.644C25.9501 44.7229 25.9608 44.8054 25.9608 44.8879C25.9573 44.9668 25.9501 45.0493 25.9322 45.1282C25.9106 45.2035 25.8891 45.2824 25.8568 45.3541C25.7959 45.4976 25.7134 45.6267 25.6201 45.7486C25.5269 45.867 25.4229 45.9746 25.3081 46.075C25.4588 45.8168 25.613 45.5622 25.6883 45.2932C25.7098 45.225 25.7241 45.1569 25.7349 45.0888C25.7457 45.0206 25.7492 44.9561 25.7457 44.8915C25.7421 44.8234 25.7313 44.7588 25.717 44.6942C25.7098 44.662 25.699 44.6297 25.6883 44.5974C25.6775 44.5687 25.6668 44.5364 25.6524 44.5078C25.6237 44.4504 25.5879 44.393 25.5484 44.3464C25.509 44.2962 25.4623 44.2531 25.4085 44.2208C25.3045 44.1527 25.1754 44.1168 25.0356 44.1025C24.8957 44.0881 24.7486 44.0881 24.598 44.0738C24.5227 44.0666 24.4438 44.0559 24.3721 44.0343C24.2968 44.0164 24.225 43.9841 24.1641 43.9447Z" fill="#FEFEFE"/>
<path d="M25.3613 43.5427C25.4617 43.5212 25.5622 43.5033 25.6662 43.4961C25.7666 43.4889 25.8706 43.4889 25.9746 43.4961C26.0786 43.5069 26.1826 43.5212 26.283 43.5499C26.3081 43.5571 26.3332 43.5642 26.3583 43.5714C26.3835 43.5786 26.4086 43.5893 26.4337 43.5965C26.4588 43.6073 26.4839 43.618 26.509 43.6288L26.5807 43.6611C26.6775 43.7113 26.7708 43.7687 26.8533 43.8368C26.9358 43.9085 27.0111 43.991 27.0756 44.0771C27.1366 44.1668 27.1904 44.2636 27.2298 44.3676C27.2693 44.468 27.298 44.572 27.3195 44.6796C27.3338 44.7872 27.341 44.8948 27.341 45.0024C27.3338 45.11 27.3231 45.2176 27.298 45.3216C27.2729 45.4292 27.237 45.5296 27.194 45.6264C27.1509 45.7233 27.0971 45.8165 27.0398 45.9026C26.7995 46.254 26.4516 46.5123 26.075 46.6629C26.4086 46.4298 26.6955 46.1465 26.8891 45.8093C26.9358 45.7268 26.9752 45.6408 27.0111 45.5511C27.0433 45.4614 27.0685 45.3718 27.09 45.2785C27.1043 45.1853 27.1151 45.092 27.1151 44.9988C27.1187 44.902 27.1115 44.8087 27.0971 44.7155C27.0792 44.6258 27.0541 44.5326 27.0218 44.4465C26.9896 44.3604 26.9465 44.2779 26.8963 44.199C26.8461 44.1201 26.7851 44.052 26.7206 43.9874L26.6668 43.9408C26.6524 43.9229 26.6309 43.9121 26.613 43.8978L26.5843 43.8727L26.5556 43.8547C26.5377 43.8404 26.5161 43.8261 26.4982 43.8153C26.3332 43.7185 26.1503 43.6467 25.9567 43.6037C25.8598 43.5822 25.763 43.5678 25.6626 43.5571C25.5658 43.5499 25.4653 43.5463 25.3613 43.5427Z" fill="#FEFEFE"/>
<path d="M22.6317 38.8087C22.6855 38.8123 22.7357 38.798 22.7823 38.78C22.829 38.7585 22.872 38.7334 22.9114 38.7011C22.9903 38.6402 23.0621 38.5613 23.1589 38.4895C23.2055 38.4573 23.2593 38.425 23.3203 38.4035C23.3777 38.3819 23.4386 38.3712 23.4996 38.3676C23.6216 38.3604 23.7399 38.3819 23.8475 38.4106C23.9049 38.4214 23.9551 38.4357 24.0053 38.4501C24.0591 38.4644 24.1057 38.4788 24.1559 38.4895C24.2492 38.5111 24.3568 38.5146 24.4787 38.5505C24.5397 38.5684 24.6042 38.5971 24.6652 38.6438C24.7262 38.6868 24.7728 38.7478 24.8086 38.8087C24.8768 38.9343 24.8911 39.0777 24.8768 39.2068C24.8589 39.3323 24.823 39.4435 24.7764 39.5547C24.7262 39.6623 24.6616 39.7663 24.5791 39.8595C24.5397 39.9026 24.493 39.9456 24.4464 39.9815C24.4321 39.9922 24.4213 40.003 24.407 40.0102C24.3962 40.0209 24.3783 40.0281 24.3639 40.0389C24.3352 40.0532 24.3066 40.0711 24.2743 40.0819C24.2133 40.107 24.1488 40.1213 24.0842 40.1249C24.0196 40.1285 23.9587 40.1249 23.8977 40.1178C23.8367 40.107 23.7794 40.0927 23.7256 40.0747C23.7112 40.0711 23.6969 40.064 23.6825 40.0604L23.6502 40.046L23.5749 40.0245C23.5462 40.0138 23.5175 40.003 23.4853 39.9887C23.453 39.9743 23.4207 39.9492 23.392 39.9205C23.3777 39.9026 23.3669 39.8882 23.3597 39.8703C23.3562 39.8595 23.349 39.8524 23.3454 39.8416L23.3382 39.8165C23.3346 39.8022 23.3311 39.7842 23.3275 39.7699C23.3275 39.752 23.3239 39.7376 23.3239 39.7197C23.3203 39.6587 23.3311 39.5977 23.3454 39.5439C23.3597 39.4866 23.3741 39.4363 23.392 39.3861C23.41 39.3359 23.4243 39.2857 23.4351 39.2355C23.4458 39.1853 23.453 39.1351 23.4458 39.0813C23.4458 39.0741 23.4458 39.0705 23.453 39.0705C23.4566 39.0705 23.4602 39.0741 23.4602 39.0777C23.4889 39.1817 23.4709 39.2929 23.4458 39.3969C23.4351 39.4507 23.4243 39.5009 23.4135 39.5547C23.4064 39.6085 23.4028 39.6587 23.4064 39.7125C23.4064 39.7233 23.4135 39.7376 23.4135 39.7484C23.4171 39.7627 23.4207 39.7771 23.4243 39.7878C23.4315 39.8129 23.4458 39.8344 23.4637 39.8524C23.4996 39.8882 23.5498 39.9062 23.6 39.9169L23.6789 39.9384L23.7542 39.96C23.808 39.9743 23.8583 39.9851 23.912 39.9922C24.0161 40.003 24.1236 39.9958 24.2205 39.9528C24.2671 39.9313 24.3101 39.9026 24.3532 39.8703C24.3926 39.838 24.4321 39.7986 24.4644 39.7591C24.5325 39.6802 24.5899 39.587 24.6329 39.4901C24.6724 39.3933 24.7046 39.2929 24.7154 39.1889C24.7297 39.0849 24.7154 38.9773 24.6688 38.884C24.6437 38.8374 24.6114 38.798 24.5719 38.7657C24.5289 38.7334 24.4823 38.7119 24.4321 38.6975C24.3317 38.6653 24.2241 38.6545 24.1201 38.6258C24.0161 38.6007 23.9156 38.5613 23.8116 38.5326C23.7112 38.5003 23.6072 38.4788 23.4996 38.4788C23.4494 38.4788 23.3956 38.486 23.3454 38.5003C23.2952 38.5111 23.2486 38.5362 23.2019 38.5649C23.1123 38.6186 23.0334 38.6904 22.9401 38.7478C22.8935 38.7765 22.8433 38.8016 22.7931 38.8159C22.7393 38.8302 22.6855 38.8338 22.6281 38.8231C22.6245 38.8231 22.6209 38.8195 22.6245 38.8159C22.6245 38.8123 22.6281 38.8087 22.6317 38.8087Z" fill="#FEFEFE"/>
<path d="M23.8631 38.9523C23.9348 39.0276 23.9779 39.1209 24.003 39.2177C24.0281 39.311 24.0352 39.4114 24.0245 39.5082C24.0173 39.6086 23.9922 39.7055 23.9492 39.7951C23.9061 39.8812 23.8487 39.9673 23.7663 40.0282H23.7627C23.7627 40.0318 23.7555 40.0318 23.7555 40.0282C23.7555 40.0246 23.7519 40.0246 23.7555 40.0211C23.795 39.9386 23.8236 39.8525 23.8487 39.7664C23.8739 39.6768 23.8882 39.5871 23.8954 39.4974C23.9061 39.4078 23.9061 39.3181 23.899 39.2249C23.8918 39.1352 23.8739 39.0456 23.8523 38.9559C23.8523 38.9523 23.8523 38.9487 23.8559 38.9487C23.8595 38.9487 23.8595 38.9487 23.8631 38.9523Z" fill="#FEFEFE"/>
<path d="M24.2683 38.9596C24.3436 39.0206 24.3938 39.1031 24.4261 39.1892C24.4584 39.2752 24.4763 39.3721 24.4727 39.4653C24.4727 39.5586 24.4512 39.6518 24.4153 39.7379C24.3759 39.8204 24.3221 39.9029 24.2432 39.9602C24.2396 39.9638 24.236 39.9638 24.2324 39.9602C24.2324 39.9567 24.2324 39.9567 24.2324 39.9531C24.2683 39.8778 24.2934 39.7953 24.3149 39.7128C24.3328 39.6303 24.3436 39.5442 24.3436 39.4617C24.3472 39.3757 24.34 39.2932 24.3257 39.2071C24.3113 39.1246 24.2862 39.0421 24.2539 38.9632C24.2539 38.9596 24.2539 38.9561 24.2575 38.9561C24.2611 38.9561 24.2611 38.9561 24.2647 38.9561L24.2683 38.9596Z" fill="#FEFEFE"/>
<path d="M24.4681 39.7775C24.5219 39.6986 24.6008 39.6519 24.6833 39.6268C24.7657 39.5981 24.8554 39.591 24.9379 39.6053C25.024 39.6161 25.11 39.6484 25.1818 39.6986C25.2499 39.7452 25.3145 39.8133 25.3432 39.903L25.3467 39.9066C25.3467 39.9102 25.3467 39.9173 25.3432 39.9173C25.3396 39.9173 25.336 39.9173 25.336 39.9173L25.2858 39.8886L25.1854 39.8384L25.1351 39.8169C25.0634 39.7918 24.9917 39.7739 24.9164 39.7631C24.8446 39.7524 24.7693 39.7488 24.694 39.7559L24.6366 39.7595L24.5828 39.7667L24.5255 39.7775L24.4717 39.7918C24.4681 39.7918 24.4645 39.7918 24.4645 39.7882C24.4609 39.7846 24.4645 39.7811 24.4645 39.7811L24.4681 39.7775Z" fill="#FEFEFE"/>
<path d="M24.7301 39.1892C24.7983 39.0637 24.87 38.9561 24.9633 38.8521C25.0565 38.7517 25.182 38.6584 25.3327 38.6118C25.408 38.5903 25.4905 38.5795 25.573 38.5867C25.5981 38.5903 25.6267 38.5939 25.6519 38.6046C25.6805 38.6118 25.7092 38.6261 25.7415 38.6548C25.7594 38.6692 25.7738 38.6871 25.7845 38.7122C25.7989 38.7337 25.8025 38.7588 25.8061 38.7839C25.8061 38.809 25.8025 38.8341 25.7953 38.8557C25.7846 38.8772 25.7774 38.8915 25.7666 38.9059C25.7451 38.9346 25.7236 38.9489 25.7021 38.9597C25.6841 38.974 25.6662 38.9812 25.6519 38.9884C25.6196 38.9991 25.5873 39.0099 25.555 39.0242C25.4905 39.0422 25.4295 39.0637 25.3578 39.078H25.3542C25.347 39.078 25.3434 39.0744 25.3434 39.0708C25.3434 39.0673 25.3434 39.0637 25.347 39.0637L25.5084 38.9489L25.5873 38.8951C25.616 38.8772 25.6411 38.8593 25.659 38.8341C25.6734 38.8126 25.6734 38.7804 25.6519 38.766C25.6303 38.7481 25.5981 38.7409 25.5658 38.7409C25.5048 38.7373 25.4403 38.7481 25.3793 38.766C25.2573 38.8055 25.1462 38.8736 25.0458 38.9561C24.992 38.9955 24.9417 39.0386 24.8951 39.078C24.8413 39.1211 24.7911 39.1605 24.7373 39.2C24.7337 39.2035 24.7301 39.2035 24.7266 39.2C24.7266 39.1964 24.7266 39.1928 24.7266 39.1892H24.7301Z" fill="#FEFEFE"/>
<path d="M25.6849 38.7802C25.7674 38.6834 25.8929 38.6296 26.022 38.6188C26.0902 38.6116 26.1547 38.6152 26.2193 38.6296C26.2372 38.6332 26.2516 38.6368 26.2695 38.6439C26.2838 38.6475 26.3018 38.6511 26.3161 38.6583C26.334 38.6654 26.3484 38.6726 26.3627 38.6798C26.3771 38.6834 26.3986 38.6977 26.4237 38.7121C26.4452 38.73 26.4703 38.7515 26.4918 38.7981C26.5026 38.8197 26.5134 38.8519 26.5098 38.8842C26.5098 38.9165 26.5026 38.9452 26.4883 38.9703C26.4703 38.999 26.4524 39.0169 26.4345 39.0277C26.4201 39.042 26.4058 39.0492 26.3914 39.0528C26.3807 39.0599 26.3699 39.0635 26.3591 39.0671C26.3484 39.0707 26.3448 39.0707 26.3376 39.0707C26.2838 39.0851 26.2265 39.0994 26.1727 39.1066C26.0579 39.1245 25.9431 39.1353 25.8176 39.1209H25.814C25.8104 39.1209 25.8068 39.1173 25.8068 39.1102C25.8068 39.1102 25.8104 39.1066 25.814 39.1066L25.9718 39.0456L26.2874 38.9273C26.3125 38.9201 26.3412 38.9093 26.3484 38.8914C26.352 38.8842 26.352 38.877 26.3484 38.8663C26.3448 38.8591 26.334 38.8484 26.3269 38.8412C26.3161 38.834 26.3054 38.8268 26.291 38.8232C26.2802 38.8161 26.2659 38.8089 26.2551 38.8053C26.23 38.7946 26.2049 38.7838 26.1762 38.7766C26.126 38.7587 26.0687 38.7515 26.0149 38.7443C25.9611 38.7408 25.9037 38.7443 25.8499 38.7515C25.7961 38.7587 25.7423 38.773 25.6885 38.7946C25.6849 38.7946 25.6813 38.7946 25.6777 38.791C25.6777 38.7874 25.6777 38.7838 25.6813 38.7802H25.6849Z" fill="#FEFEFE"/>
<path d="M26.3763 38.8771C26.3942 38.8663 26.4157 38.8591 26.4408 38.8556C26.4623 38.8484 26.4838 38.8484 26.509 38.852C26.5556 38.8556 26.6094 38.8735 26.6524 38.9201C26.6739 38.9416 26.6919 38.9703 26.7026 38.999C26.717 39.0277 26.7205 39.06 26.7205 39.0994C26.7205 39.1353 26.7098 39.1747 26.6919 39.2106C26.6703 39.2465 26.6416 39.2752 26.6094 39.2967C26.5484 39.3361 26.4982 39.3397 26.4587 39.3433C26.4229 39.3469 26.387 39.3469 26.3511 39.3433C26.2758 39.3397 26.2005 39.3254 26.118 39.2823L26.1144 39.2787C26.1109 39.2787 26.1073 39.2752 26.1109 39.2716C26.1109 39.268 26.1144 39.268 26.1144 39.268L26.2185 39.2429L26.4265 39.1963C26.4623 39.1891 26.4946 39.1783 26.5233 39.1604C26.5484 39.1461 26.5663 39.1174 26.5699 39.0851C26.5735 39.0528 26.5627 39.0205 26.5448 38.9918C26.5269 38.9667 26.4982 38.9452 26.4695 38.9273C26.4408 38.9129 26.4049 38.9022 26.3727 38.895C26.3691 38.8914 26.3655 38.8878 26.3655 38.8842L26.3691 38.8807L26.3763 38.8771Z" fill="#FEFEFE"/>
<path d="M26.5491 39.1422C26.6674 39.1135 26.8001 39.1494 26.9077 39.2211C26.9615 39.257 27.0117 39.3036 27.0512 39.3574C27.0942 39.4148 27.1193 39.4758 27.1408 39.5403C27.1623 39.6049 27.1731 39.673 27.1767 39.7376C27.1803 39.8057 27.1731 39.8739 27.1588 39.9384C27.1516 39.9707 27.1444 40.003 27.1337 40.0352C27.1229 40.0675 27.1121 40.0962 27.0978 40.1285C27.0799 40.1608 27.0619 40.193 27.0368 40.2289C27.0117 40.2612 26.9794 40.2935 26.9364 40.3186C26.9149 40.3329 26.8934 40.3437 26.8611 40.3544C26.836 40.3616 26.8073 40.3652 26.7786 40.3652C26.7248 40.3616 26.671 40.3508 26.6208 40.3186C26.5957 40.3006 26.5706 40.2791 26.5527 40.2504C26.5311 40.2217 26.5168 40.1859 26.5132 40.15C26.506 40.1177 26.5096 40.089 26.5132 40.0639C26.5168 40.0424 26.524 40.0245 26.5276 40.0137C26.5311 39.9994 26.5311 39.9922 26.5347 39.985C26.5347 39.9779 26.5383 39.9671 26.5383 39.9599C26.5383 39.942 26.5383 39.9241 26.5383 39.9061C26.5347 39.8882 26.5276 39.8703 26.524 39.8559C26.5204 39.8452 26.5168 39.838 26.5096 39.8308C26.506 39.8236 26.5025 39.8129 26.4989 39.8093C26.4989 39.8057 26.4953 39.8057 26.506 39.8057C26.5132 39.8093 26.5347 39.8093 26.5491 39.8021C26.5598 39.7914 26.5634 39.7842 26.5598 39.7878C26.5562 39.7914 26.5491 39.7985 26.5455 39.8093L26.524 39.8487C26.5132 39.8631 26.506 39.8774 26.4953 39.8918C26.4773 39.9169 26.4558 39.942 26.4343 39.9671C26.3411 40.0603 26.2263 40.1213 26.1044 40.1321C26.1008 40.1321 26.0972 40.1285 26.0972 40.1249C26.0936 40.1213 26.0972 40.1177 26.1008 40.1141C26.2048 40.0783 26.298 40.0066 26.3626 39.9169C26.3984 39.8703 26.4236 39.8201 26.4415 39.7663C26.4522 39.7412 26.463 39.7089 26.4989 39.6909C26.5132 39.6838 26.5311 39.6838 26.5491 39.6909C26.5634 39.6981 26.5778 39.7053 26.5885 39.7161C26.671 39.8021 26.7069 39.9312 26.6746 40.046C26.6674 40.0747 26.6638 40.0998 26.6674 40.1249C26.671 40.15 26.6854 40.1679 26.7069 40.1823C26.7499 40.211 26.8073 40.211 26.8503 40.1823C26.897 40.1536 26.9292 40.107 26.9543 40.0603C26.9759 40.0101 26.9974 39.9563 27.0117 39.9025C27.0368 39.7914 27.0404 39.6766 27.0153 39.569C27.0045 39.5152 26.983 39.4614 26.9579 39.4148C26.9292 39.3646 26.8934 39.3215 26.8503 39.2857C26.7678 39.2104 26.6603 39.1602 26.5491 39.1602C26.5455 39.1602 26.5419 39.153 26.5419 39.1494C26.5419 39.1458 26.5455 39.1422 26.5491 39.1422Z" fill="#FEFEFE"/>
<path d="M18.1734 27.777C18.0443 27.777 17.9224 27.8128 17.822 27.8738C17.718 27.9312 17.6319 28.0172 17.5745 28.1177C17.4562 28.3149 17.449 28.5695 17.5315 28.7776C17.6175 28.9927 17.7933 29.1685 18.0049 29.2689C18.2201 29.3729 18.4711 29.4052 18.7257 29.3801C18.4855 29.4697 18.2093 29.4769 17.9583 29.3872C17.7036 29.294 17.4848 29.0967 17.3808 28.8385C17.3306 28.7094 17.3127 28.5695 17.327 28.4297C17.3414 28.2934 17.388 28.1607 17.4669 28.0459C17.5494 27.9348 17.6642 27.8523 17.7861 27.8021C17.9116 27.7554 18.0479 27.7411 18.1734 27.777Z" fill="#FEFEFE"/>
<path d="M18.5583 29.2368C18.4364 29.1794 18.3431 29.0718 18.2786 28.9535C18.2104 28.8351 18.171 28.7024 18.1531 28.5661C18.1351 28.4334 18.1459 28.2936 18.1817 28.1609C18.2176 28.0318 18.2822 27.9098 18.3754 27.813C18.3395 27.9421 18.318 28.064 18.3073 28.186C18.2965 28.3079 18.3001 28.4263 18.3144 28.5482C18.3288 28.6666 18.3539 28.7849 18.3933 28.8997C18.4328 29.018 18.483 29.1292 18.5583 29.2368Z" fill="#FEFEFE"/>
<path d="M23.2356 28.9035C23.0993 29.1007 22.8913 29.2406 22.6761 29.3554C22.4645 29.4701 22.2386 29.5634 22.0377 29.6997C21.7221 29.9077 21.4747 30.2054 21.2344 30.4994C21.2953 30.564 21.3993 30.5712 21.4818 30.5425C21.5679 30.5138 21.6361 30.4528 21.7006 30.3918C21.9337 30.1623 22.1238 29.8897 22.3784 29.6853C22.5327 29.5634 22.7084 29.4666 22.8662 29.3518C23.0276 29.2334 23.171 29.0864 23.2356 28.8999V28.9035Z" fill="#FEFEFE"/>
<path d="M23.3251 29.8145C23.3861 30.105 23.3287 30.417 23.1709 30.6716C23.1099 30.7684 23.031 30.8617 22.9234 30.9047C22.8194 30.9478 22.6939 30.937 22.5899 30.8832C22.4895 30.833 22.407 30.7433 22.3496 30.6429C22.3962 30.8043 22.4967 30.9549 22.6222 31.0482C22.6258 31.1199 22.615 31.1916 22.5899 31.2634C22.615 31.2024 22.6401 31.1414 22.6688 31.084C22.6831 31.1737 22.6939 31.2634 22.6975 31.353C22.6975 31.2705 22.7118 31.1845 22.7334 31.102C22.762 31.2383 22.78 31.3781 22.7943 31.5216C22.8015 31.3817 22.8123 31.2418 22.8302 31.0948C22.8445 31.0876 22.8625 31.0948 22.8732 31.1056C22.8876 31.1163 22.8947 31.1307 22.9019 31.145C22.9414 31.2311 22.9808 31.3136 23.0239 31.3961C22.9987 31.2885 22.9736 31.1809 22.9485 31.0697C23.0382 31.1307 23.0992 31.2203 23.1637 31.3064C23.1171 31.2311 23.0848 31.145 23.0633 31.0589C23.0597 31.041 23.0561 31.0195 23.0705 31.0051C23.0812 30.9908 23.0992 30.9872 23.1171 30.9944C23.135 30.998 23.1494 31.0123 23.1601 31.0231C23.2319 31.0876 23.3 31.1522 23.3681 31.2131C23.3072 31.1414 23.2462 31.0697 23.1852 30.998C23.1601 30.9693 23.135 30.9262 23.1601 30.8975C23.1817 30.8724 23.2211 30.8796 23.2498 30.8904C23.3287 30.9155 23.404 30.9549 23.4757 31.0016C23.4112 30.9442 23.3502 30.8832 23.2892 30.8258C23.2785 30.8151 23.2641 30.8007 23.2606 30.7864C23.257 30.7613 23.2749 30.7326 23.3 30.7254C23.3251 30.7146 23.3502 30.7182 23.3753 30.7254C23.4435 30.7362 23.508 30.7613 23.5654 30.7971C23.5044 30.7505 23.447 30.7003 23.3861 30.6537C23.3753 30.6465 23.3681 30.6393 23.3646 30.6286C23.3538 30.5999 23.3825 30.5748 23.4076 30.564C23.4614 30.5389 23.5224 30.5353 23.5797 30.5533C23.5188 30.5353 23.4506 30.5138 23.4219 30.46C23.404 30.4206 23.4112 30.3739 23.4148 30.3309C23.4291 30.1659 23.3933 29.9974 23.3251 29.818V29.8145Z" fill="#FEFEFE"/>
<path d="M23.2988 33.1387C23.288 33.1961 23.3131 33.2427 23.349 33.2786C23.3813 33.3108 23.4279 33.3395 23.4745 33.3611C23.5211 33.3826 23.5642 33.4005 23.6072 33.3969C23.6503 33.3933 23.6897 33.3754 23.7292 33.3467C23.765 33.318 23.7973 33.2786 23.8296 33.2391C23.8618 33.1961 23.8905 33.153 23.9156 33.11C23.9694 33.0203 24.0089 32.9199 24.0448 32.8159H24.0483C24.0519 32.9271 24.0268 33.0383 23.9838 33.1423C23.9623 33.1961 23.9372 33.2463 23.9049 33.2929C23.8726 33.3395 23.8367 33.3862 23.7865 33.422C23.7399 33.4615 23.6754 33.4902 23.6108 33.4866C23.5427 33.4866 23.4817 33.4615 23.4351 33.4256C23.4135 33.4113 23.3884 33.3933 23.3669 33.3718C23.349 33.3539 23.3275 33.3324 23.3095 33.3073C23.2773 33.257 23.2665 33.1889 23.2988 33.1387Z" fill="#FEFEFE"/>
<path d="M62.5167 48.8839C61.2827 48.8839 60.3426 48.5608 59.6962 47.9144C59.0499 47.268 58.7267 46.3132 58.7267 45.0499V21.0319C58.7267 19.7392 59.0499 18.755 59.6962 18.0793C60.3426 17.3741 61.1946 17.0216 62.2523 17.0216C63.1924 17.0216 63.9269 17.1979 64.4558 17.5504C64.9846 17.903 65.5722 18.4906 66.2185 19.3132L80.1886 36.7648H78.9547V20.8116C78.9547 19.5776 79.2632 18.6375 79.8801 17.9911C80.5265 17.3448 81.4666 17.0216 82.7006 17.0216C83.9345 17.0216 84.86 17.3448 85.477 17.9911C86.1233 18.6375 86.4465 19.5776 86.4465 20.8116V45.2262C86.4465 46.3426 86.1527 47.2387 85.5651 47.9144C84.9775 48.5608 84.1843 48.8839 83.1854 48.8839C82.1864 48.8839 81.3932 48.7077 80.8056 48.3551C80.2474 47.9732 79.6451 47.3856 78.9987 46.5923L65.0287 29.0967H66.2626V45.0499C66.2626 46.3132 65.9394 47.268 65.2931 47.9144C64.6761 48.5608 63.7506 48.8839 62.5167 48.8839ZM103.405 48.9721C100.761 48.9721 98.4693 48.5167 96.5302 47.6059C94.6205 46.6658 93.1515 45.3437 92.1232 43.6396C91.0949 41.9356 90.5808 39.9231 90.5808 37.6021C90.5808 35.3692 91.0656 33.4155 92.0351 31.7408C93.034 30.0368 94.3855 28.7147 96.0895 27.7746C97.8229 26.805 99.7913 26.3203 101.995 26.3203C103.611 26.3203 105.08 26.5847 106.402 27.1135C107.724 27.613 108.855 28.3622 109.795 29.3611C110.735 30.3306 111.44 31.5058 111.91 32.8867C112.41 34.2675 112.66 35.8099 112.66 37.514C112.66 38.1016 112.498 38.5423 112.175 38.8361C111.852 39.1005 111.338 39.2327 110.632 39.2327H97.1472V35.5308H106.931L106.226 36.1037C106.226 35.0167 106.079 34.1353 105.785 33.4596C105.491 32.7838 105.05 32.2697 104.463 31.9171C103.905 31.5646 103.199 31.3883 102.347 31.3883C101.437 31.3883 100.643 31.6086 99.9676 32.0493C99.3213 32.4606 98.8218 33.0776 98.4693 33.9003C98.1167 34.7229 97.9404 35.7512 97.9404 36.9851V37.3818C97.9404 39.4677 98.3958 40.9661 99.3066 41.8769C100.247 42.7583 101.686 43.1989 103.625 43.1989C104.272 43.1989 105.006 43.1255 105.829 42.9786C106.681 42.8023 107.489 42.5673 108.253 42.2735C109.017 41.9797 109.678 41.9356 110.236 42.1413C110.794 42.3176 111.22 42.6407 111.514 43.1108C111.837 43.5515 112.013 44.0657 112.043 44.6532C112.072 45.2115 111.94 45.7697 111.646 46.3279C111.352 46.8567 110.868 47.268 110.192 47.5618C109.163 48.0319 108.062 48.3845 106.887 48.6195C105.741 48.8546 104.58 48.9721 103.405 48.9721ZM127.013 48.9721C124.603 48.9721 122.503 48.5167 120.711 47.6059C118.918 46.6951 117.523 45.3877 116.524 43.6837C115.525 41.9797 115.026 39.9672 115.026 37.6462C115.026 35.8834 115.305 34.3116 115.863 32.9307C116.421 31.5205 117.229 30.3306 118.287 29.3611C119.344 28.3622 120.608 27.613 122.077 27.1135C123.546 26.5847 125.191 26.3203 127.013 26.3203C129.422 26.3203 131.522 26.7757 133.315 27.6864C135.107 28.5972 136.488 29.9046 137.457 31.6086C138.456 33.2833 138.955 35.2958 138.955 37.6462C138.955 39.3796 138.676 40.9514 138.118 42.3616C137.56 43.7719 136.752 44.9764 135.694 45.9753C134.666 46.9449 133.403 47.6941 131.904 48.2229C130.435 48.7223 128.805 48.9721 127.013 48.9721ZM127.013 43.1989C127.806 43.1989 128.511 43.008 129.128 42.626C129.745 42.2147 130.215 41.6124 130.538 40.8192C130.891 39.9966 131.067 38.9389 131.067 37.6462C131.067 35.6777 130.685 34.2675 129.921 33.4155C129.157 32.5341 128.188 32.0934 127.013 32.0934C126.219 32.0934 125.514 32.2844 124.897 32.6663C124.28 33.0482 123.796 33.6505 123.443 34.4732C123.09 35.2664 122.914 36.3241 122.914 37.6462C122.914 39.5852 123.296 40.9955 124.06 41.8769C124.824 42.7583 125.808 43.1989 127.013 43.1989Z" fill="#2E2E2E"/>
<path d="M158.944 48.9721C155.389 48.9721 152.363 48.311 149.865 46.9889C147.398 45.6668 145.517 43.8159 144.225 41.4362C142.932 39.0564 142.285 36.28 142.285 33.107C142.285 30.6391 142.667 28.4209 143.431 26.4525C144.225 24.4547 145.356 22.7506 146.825 21.3404C148.294 19.9008 150.086 18.8137 152.201 18.0793C154.346 17.3154 156.77 16.9334 159.473 16.9334C160.942 16.9334 162.44 17.0803 163.968 17.3741C165.496 17.6386 166.994 18.1527 168.463 18.9166C169.227 19.2691 169.741 19.7686 170.005 20.4149C170.299 21.0319 170.387 21.693 170.27 22.3981C170.182 23.0738 169.932 23.7055 169.521 24.2931C169.139 24.8513 168.61 25.2332 167.934 25.4389C167.258 25.6152 166.494 25.5123 165.642 25.1304C164.761 24.7191 163.806 24.4106 162.778 24.2049C161.75 23.9699 160.663 23.8524 159.517 23.8524C157.548 23.8524 155.903 24.2049 154.581 24.91C153.288 25.6152 152.319 26.6581 151.672 28.039C151.026 29.4198 150.703 31.1092 150.703 33.107C150.703 36.1037 151.437 38.366 152.906 39.8937C154.375 41.4215 156.549 42.1853 159.429 42.1853C160.31 42.1853 161.265 42.0972 162.293 41.9209C163.351 41.7447 164.408 41.4949 165.466 41.1717L163.968 44.2125V36.6766H160.883C159.884 36.6766 159.105 36.4269 158.547 35.9275C158.018 35.428 157.754 34.7229 157.754 33.8121C157.754 32.9013 158.018 32.2109 158.547 31.7408C159.105 31.2414 159.884 30.9917 160.883 30.9917H167.405C168.433 30.9917 169.212 31.2708 169.741 31.829C170.299 32.3578 170.578 33.1364 170.578 34.1647V43.9041C170.578 44.7855 170.387 45.5346 170.005 46.1516C169.653 46.7686 169.08 47.2093 168.287 47.4737C166.906 47.9438 165.407 48.311 163.791 48.5754C162.176 48.8399 160.56 48.9721 158.944 48.9721ZM183.582 48.9721C181.702 48.9721 180.159 48.6342 178.955 47.9585C177.75 47.2534 176.839 46.2104 176.222 44.8295C175.635 43.4487 175.341 41.7006 175.341 39.5852V30.3306C175.341 29.0379 175.679 28.0684 176.354 27.422C177.03 26.7463 178 26.4084 179.263 26.4084C180.526 26.4084 181.496 26.7463 182.172 27.422C182.847 28.0684 183.185 29.0379 183.185 30.3306V39.8056C183.185 40.8633 183.406 41.6565 183.846 42.1853C184.287 42.7142 184.977 42.9786 185.918 42.9786C186.975 42.9786 187.842 42.5967 188.518 41.8328C189.193 41.0689 189.531 40.0553 189.531 38.792V30.3306C189.531 29.0379 189.869 28.0684 190.545 27.422C191.221 26.7463 192.19 26.4084 193.453 26.4084C194.717 26.4084 195.686 26.7463 196.362 27.422C197.038 28.0684 197.376 29.0379 197.376 30.3306V44.9177C197.376 47.5618 196.112 48.8839 193.586 48.8839C192.352 48.8839 191.397 48.5461 190.721 47.8703C190.045 47.1946 189.708 46.2104 189.708 44.9177V42.3616L190.413 44.521C189.766 45.9606 188.856 47.0624 187.68 47.8263C186.535 48.5901 185.168 48.9721 183.582 48.9721ZM209.477 48.9721C207.802 48.9721 206.318 48.6636 205.026 48.0466C203.762 47.4296 202.763 46.5923 202.029 45.5346C201.324 44.4476 200.971 43.2136 200.971 41.8328C200.971 40.2463 201.382 38.9976 202.205 38.0869C203.028 37.1761 204.35 36.5297 206.171 36.1478C207.993 35.7365 210.417 35.5308 213.443 35.5308H215.867V39.2327H213.443C212.297 39.2327 211.342 39.3208 210.578 39.4971C209.844 39.644 209.3 39.8937 208.948 40.2463C208.595 40.5695 208.419 40.9955 208.419 41.5243C208.419 42.2 208.654 42.7583 209.124 43.1989C209.623 43.6396 210.329 43.86 211.239 43.86C211.974 43.86 212.62 43.6984 213.178 43.3752C213.766 43.052 214.236 42.6114 214.589 42.0531C214.941 41.4655 215.117 40.7898 215.117 40.0259V34.9139C215.117 33.8562 214.838 33.107 214.28 32.6663C213.751 32.2256 212.826 32.0053 211.504 32.0053C210.799 32.0053 210.005 32.0934 209.124 32.2697C208.243 32.4166 207.258 32.6957 206.171 33.107C205.378 33.4008 204.702 33.4449 204.144 33.2392C203.586 33.0336 203.145 32.681 202.822 32.1815C202.528 31.6821 202.381 31.1386 202.381 30.551C202.411 29.9634 202.602 29.4052 202.954 28.8763C203.336 28.3475 203.909 27.9362 204.673 27.6424C206.083 27.1135 207.376 26.761 208.551 26.5847C209.756 26.4084 210.857 26.3203 211.856 26.3203C214.265 26.3203 216.249 26.6728 217.806 27.3779C219.392 28.0537 220.567 29.1114 221.331 30.551C222.125 31.9612 222.521 33.7827 222.521 36.0156V44.9177C222.521 46.2104 222.213 47.1946 221.596 47.8703C220.979 48.5461 220.083 48.8839 218.907 48.8839C217.703 48.8839 216.777 48.5461 216.131 47.8703C215.514 47.1946 215.206 46.2104 215.206 44.9177V43.7719L215.47 44.3888C215.323 45.329 214.985 46.1369 214.456 46.8127C213.928 47.4884 213.237 48.0172 212.385 48.3992C211.533 48.7811 210.564 48.9721 209.477 48.9721ZM230.998 48.8839C229.706 48.8839 228.707 48.5461 228.002 47.8703C227.326 47.1946 226.988 46.2104 226.988 44.9177V30.3306C226.988 29.0673 227.311 28.0978 227.958 27.422C228.633 26.7463 229.588 26.4084 230.822 26.4084C232.056 26.4084 232.996 26.7463 233.643 27.422C234.289 28.0978 234.612 29.0673 234.612 30.3306V32.1375H234.171C234.465 30.3747 235.214 28.9791 236.419 27.9509C237.653 26.9226 239.181 26.379 241.002 26.3203C241.854 26.2909 242.486 26.5112 242.897 26.9813C243.338 27.422 243.573 28.2593 243.602 29.4933C243.602 30.551 243.382 31.3883 242.941 32.0053C242.501 32.6222 241.663 32.9895 240.429 33.107L239.416 33.1951C237.859 33.342 236.727 33.7827 236.022 34.5172C235.317 35.2223 234.965 36.28 234.965 37.6902V44.9177C234.965 46.2104 234.627 47.1946 233.951 47.8703C233.275 48.5461 232.291 48.8839 230.998 48.8839ZM254.17 48.9721C252.319 48.9721 250.674 48.5167 249.235 47.6059C247.824 46.6951 246.708 45.3877 245.885 43.6837C245.092 41.9797 244.695 39.9672 244.695 37.6462C244.695 35.2664 245.092 33.2392 245.885 31.5646C246.708 29.8899 247.824 28.5972 249.235 27.6864C250.674 26.7757 252.319 26.3203 254.17 26.3203C255.786 26.3203 257.241 26.7022 258.533 27.4661C259.826 28.23 260.693 29.2142 261.133 30.4188H260.649V20.9879C260.649 19.6951 260.986 18.7109 261.662 18.0352C262.338 17.3594 263.307 17.0216 264.571 17.0216C265.805 17.0216 266.76 17.3594 267.435 18.0352C268.14 18.7109 268.493 19.6951 268.493 20.9879V44.9177C268.493 46.2104 268.155 47.1946 267.479 47.8703C266.833 48.5461 265.878 48.8839 264.615 48.8839C263.381 48.8839 262.426 48.5461 261.75 47.8703C261.075 47.1946 260.737 46.2104 260.737 44.9177V42.4057L261.222 44.5651C260.81 45.8872 259.944 46.9596 258.621 47.7822C257.329 48.5754 255.845 48.9721 254.17 48.9721ZM256.682 43.1989C257.476 43.1989 258.181 43.008 258.798 42.626C259.415 42.2147 259.885 41.6124 260.208 40.8192C260.56 39.9966 260.737 38.9389 260.737 37.6462C260.737 35.6777 260.355 34.2675 259.591 33.4155C258.827 32.5341 257.858 32.0934 256.682 32.0934C255.889 32.0934 255.184 32.2844 254.567 32.6663C253.95 33.0482 253.465 33.6505 253.113 34.4732C252.76 35.2664 252.584 36.3241 252.584 37.6462C252.584 39.5852 252.966 40.9955 253.73 41.8769C254.494 42.7583 255.478 43.1989 256.682 43.1989Z" fill="#A992F3"/>
</svg>
