<svg width="191" height="30" viewBox="0 0 191 30" fill="none" xmlns="http://www.w3.org/2000/svg">
<path d="M3.44043 28.9999C2.32043 28.9999 1.4671 28.7066 0.88043 28.1199C0.293763 27.5332 0.000429809 26.6666 0.000429809 25.5199V3.71989C0.000429809 2.54656 0.293763 1.65322 0.88043 1.03989C1.4671 0.399891 2.24043 0.0798907 3.20043 0.0798907C4.05376 0.0798907 4.72043 0.239891 5.20043 0.559892C5.68043 0.879891 6.21376 1.41322 6.80043 2.15989L19.4804 17.9999H18.3604V3.51989C18.3604 2.39989 18.6404 1.54656 19.2004 0.959891C19.7871 0.373224 20.6404 0.0798907 21.7604 0.0798907C22.8804 0.0798907 23.7204 0.373224 24.2804 0.959891C24.8671 1.54656 25.1604 2.39989 25.1604 3.51989V25.6799C25.1604 26.6932 24.8938 27.5066 24.3604 28.1199C23.8271 28.7066 23.1071 28.9999 22.2004 28.9999C21.2938 28.9999 20.5738 28.8399 20.0404 28.5199C19.5338 28.1732 18.9871 27.6399 18.4004 26.9199L5.72043 11.0399H6.84043V25.5199C6.84043 26.6666 6.5471 27.5332 5.96043 28.1199C5.40043 28.7066 4.56043 28.9999 3.44043 28.9999ZM40.5529 29.0799C38.1529 29.0799 36.0729 28.6666 34.3129 27.8399C32.5796 26.9866 31.2463 25.7866 30.3129 24.2399C29.3796 22.6932 28.9129 20.8666 28.9129 18.7599C28.9129 16.7332 29.3529 14.9599 30.2329 13.4399C31.1396 11.8932 32.3663 10.6932 33.9129 9.83989C35.4863 8.95989 37.2729 8.51989 39.2729 8.51989C40.7396 8.51989 42.0729 8.75989 43.2729 9.23989C44.4729 9.69323 45.4996 10.3732 46.3529 11.2799C47.2063 12.1599 47.8463 13.2266 48.2729 14.4799C48.7263 15.7332 48.9529 17.1332 48.9529 18.6799C48.9529 19.2132 48.8063 19.6132 48.5129 19.8799C48.2196 20.1199 47.7529 20.2399 47.1129 20.2399H34.8729V16.8799H43.7529L43.1129 17.3999C43.1129 16.4132 42.9796 15.6132 42.7129 14.9999C42.4463 14.3866 42.0463 13.9199 41.5129 13.5999C41.0063 13.2799 40.3663 13.1199 39.5929 13.1199C38.7663 13.1199 38.0463 13.3199 37.4329 13.7199C36.8463 14.0932 36.3929 14.6532 36.0729 15.3999C35.7529 16.1466 35.5929 17.0799 35.5929 18.1999V18.5599C35.5929 20.4532 36.0063 21.8132 36.8329 22.6399C37.6863 23.4399 38.9929 23.8399 40.7529 23.8399C41.3396 23.8399 42.0063 23.7732 42.7529 23.6399C43.5263 23.4799 44.2596 23.2666 44.9529 22.9999C45.6463 22.7332 46.2463 22.6932 46.7529 22.8799C47.2596 23.0399 47.6463 23.3332 47.9129 23.7599C48.2063 24.1599 48.3663 24.6266 48.3929 25.1599C48.4196 25.6666 48.2996 26.1732 48.0329 26.6799C47.7663 27.1599 47.3263 27.5332 46.7129 27.7999C45.7796 28.2266 44.7796 28.5466 43.7129 28.7599C42.6729 28.9732 41.6196 29.0799 40.5529 29.0799ZM61.9804 29.0799C59.7938 29.0799 57.8871 28.6666 56.2604 27.8399C54.6338 27.0132 53.3671 25.8266 52.4604 24.2799C51.5538 22.7332 51.1004 20.9066 51.1004 18.7999C51.1004 17.1999 51.3538 15.7732 51.8604 14.5199C52.3671 13.2399 53.1004 12.1599 54.0604 11.2799C55.0204 10.3732 56.1671 9.69323 57.5004 9.23989C58.8338 8.75989 60.3271 8.51989 61.9804 8.51989C64.1671 8.51989 66.0738 8.93322 67.7004 9.75989C69.3271 10.5866 70.5804 11.7732 71.4604 13.3199C72.3671 14.8399 72.8204 16.6666 72.8204 18.7999C72.8204 20.3732 72.5671 21.7999 72.0604 23.0799C71.5538 24.3599 70.8204 25.4532 69.8604 26.3599C68.9271 27.2399 67.7804 27.9199 66.4204 28.3999C65.0871 28.8532 63.6071 29.0799 61.9804 29.0799ZM61.9804 23.8399C62.7004 23.8399 63.3404 23.6666 63.9004 23.3199C64.4604 22.9466 64.8871 22.3999 65.1804 21.6799C65.5004 20.9332 65.6604 19.9732 65.6604 18.7999C65.6604 17.0132 65.3138 15.7332 64.6204 14.9599C63.9271 14.1599 63.0471 13.7599 61.9804 13.7599C61.2604 13.7599 60.6204 13.9332 60.0604 14.2799C59.5004 14.6266 59.0604 15.1732 58.7404 15.9199C58.4204 16.6399 58.2604 17.5999 58.2604 18.7999C58.2604 20.5599 58.6071 21.8399 59.3004 22.6399C59.9938 23.4399 60.8871 23.8399 61.9804 23.8399ZM90.9629 29.0799C87.7363 29.0799 84.9896 28.4799 82.7229 27.2799C80.4829 26.0799 78.7763 24.3999 77.6029 22.2399C76.4296 20.0799 75.8429 17.5599 75.8429 14.6799C75.8429 12.4399 76.1896 10.4266 76.8829 8.63989C77.6029 6.82656 78.6296 5.27989 79.9629 3.99989C81.2963 2.69322 82.9229 1.70656 84.8429 1.03989C86.7896 0.346558 88.9896 -0.000108242 91.4429 -0.000108242C92.7763 -0.000108242 94.1363 0.133225 95.5229 0.399891C96.9096 0.639891 98.2696 1.10656 99.6029 1.79989C100.296 2.11989 100.763 2.57322 101.003 3.15989C101.27 3.71989 101.35 4.31989 101.243 4.95989C101.163 5.57323 100.936 6.14656 100.563 6.67989C100.216 7.18656 99.7363 7.53323 99.1229 7.71989C98.5096 7.87989 97.8163 7.78656 97.0429 7.43989C96.2429 7.06656 95.3763 6.78656 94.4429 6.59989C93.5096 6.38656 92.5229 6.27989 91.4829 6.27989C89.6963 6.27989 88.2029 6.59989 87.0029 7.23989C85.8296 7.87989 84.9496 8.82656 84.3629 10.0799C83.7763 11.3332 83.4829 12.8666 83.4829 14.6799C83.4829 17.3999 84.1496 19.4532 85.4829 20.8399C86.8163 22.2266 88.7896 22.9199 91.4029 22.9199C92.2029 22.9199 93.0696 22.8399 94.0029 22.6799C94.9629 22.5199 95.9229 22.2932 96.8829 21.9999L95.5229 24.7599V17.9199H92.7229C91.8163 17.9199 91.1096 17.6932 90.6029 17.2399C90.1229 16.7866 89.8829 16.1466 89.8829 15.3199C89.8829 14.4932 90.1229 13.8666 90.6029 13.4399C91.1096 12.9866 91.8163 12.7599 92.7229 12.7599H98.6429C99.5763 12.7599 100.283 13.0132 100.763 13.5199C101.27 13.9999 101.523 14.7066 101.523 15.6399V24.4799C101.523 25.2799 101.35 25.9599 101.003 26.5199C100.683 27.0799 100.163 27.4799 99.4429 27.7199C98.1896 28.1466 96.8296 28.4799 95.3629 28.7199C93.8963 28.9599 92.4296 29.0799 90.9629 29.0799ZM113.326 29.0799C111.619 29.0799 110.219 28.7732 109.126 28.1599C108.032 27.5199 107.206 26.5732 106.646 25.3199C106.112 24.0666 105.846 22.4799 105.846 20.5599V12.1599C105.846 10.9866 106.152 10.1066 106.766 9.51989C107.379 8.90656 108.259 8.59989 109.406 8.59989C110.552 8.59989 111.432 8.90656 112.046 9.51989C112.659 10.1066 112.966 10.9866 112.966 12.1599V20.7599C112.966 21.7199 113.166 22.4399 113.566 22.9199C113.966 23.3999 114.592 23.6399 115.446 23.6399C116.406 23.6399 117.192 23.2932 117.806 22.5999C118.419 21.9066 118.726 20.9866 118.726 19.8399V12.1599C118.726 10.9866 119.032 10.1066 119.646 9.51989C120.259 8.90656 121.139 8.59989 122.286 8.59989C123.432 8.59989 124.312 8.90656 124.926 9.51989C125.539 10.1066 125.846 10.9866 125.846 12.1599V25.3999C125.846 27.7999 124.699 28.9999 122.406 28.9999C121.286 28.9999 120.419 28.6932 119.806 28.0799C119.192 27.4666 118.886 26.5732 118.886 25.3999V23.0799L119.526 25.0399C118.939 26.3466 118.112 27.3466 117.046 28.0399C116.006 28.7332 114.766 29.0799 113.326 29.0799ZM136.829 29.0799C135.309 29.0799 133.963 28.7999 132.789 28.2399C131.643 27.6799 130.736 26.9199 130.069 25.9599C129.429 24.9732 129.109 23.8532 129.109 22.5999C129.109 21.1599 129.483 20.0266 130.229 19.1999C130.976 18.3732 132.176 17.7866 133.829 17.4399C135.483 17.0666 137.683 16.8799 140.429 16.8799H142.629V20.2399H140.429C139.389 20.2399 138.523 20.3199 137.829 20.4799C137.163 20.6132 136.669 20.8399 136.349 21.1599C136.029 21.4532 135.869 21.8399 135.869 22.3199C135.869 22.9332 136.083 23.4399 136.509 23.8399C136.963 24.2399 137.603 24.4399 138.429 24.4399C139.096 24.4399 139.683 24.2932 140.189 23.9999C140.723 23.7066 141.149 23.3066 141.469 22.7999C141.789 22.2666 141.949 21.6532 141.949 20.9599V16.3199C141.949 15.3599 141.696 14.6799 141.189 14.2799C140.709 13.8799 139.869 13.6799 138.669 13.6799C138.029 13.6799 137.309 13.7599 136.509 13.9199C135.709 14.0532 134.816 14.3066 133.829 14.6799C133.109 14.9466 132.496 14.9866 131.989 14.7999C131.483 14.6132 131.083 14.2932 130.789 13.8399C130.523 13.3866 130.389 12.8932 130.389 12.3599C130.416 11.8266 130.589 11.3199 130.909 10.8399C131.256 10.3599 131.776 9.98656 132.469 9.71989C133.749 9.23989 134.923 8.91989 135.989 8.75989C137.083 8.59989 138.083 8.51989 138.989 8.51989C141.176 8.51989 142.976 8.83989 144.389 9.47989C145.829 10.0932 146.896 11.0532 147.589 12.3599C148.309 13.6399 148.669 15.2932 148.669 17.3199V25.3999C148.669 26.5732 148.389 27.4666 147.829 28.0799C147.269 28.6932 146.456 28.9999 145.389 28.9999C144.296 28.9999 143.456 28.6932 142.869 28.0799C142.309 27.4666 142.029 26.5732 142.029 25.3999V24.3599L142.269 24.9199C142.136 25.7732 141.829 26.5066 141.349 27.1199C140.869 27.7332 140.243 28.2132 139.469 28.5599C138.696 28.9066 137.816 29.0799 136.829 29.0799ZM156.364 28.9999C155.19 28.9999 154.284 28.6932 153.644 28.0799C153.03 27.4666 152.724 26.5732 152.724 25.3999V12.1599C152.724 11.0132 153.017 10.1332 153.604 9.51989C154.217 8.90656 155.084 8.59989 156.204 8.59989C157.324 8.59989 158.177 8.90656 158.764 9.51989C159.35 10.1332 159.644 11.0132 159.644 12.1599V13.7999H159.244C159.51 12.1999 160.19 10.9332 161.284 9.99989C162.404 9.06656 163.79 8.57322 165.444 8.51989C166.217 8.49323 166.79 8.69323 167.164 9.11989C167.564 9.51989 167.777 10.2799 167.804 11.3999C167.804 12.3599 167.604 13.1199 167.204 13.6799C166.804 14.2399 166.044 14.5732 164.924 14.6799L164.004 14.7599C162.59 14.8932 161.564 15.2932 160.924 15.9599C160.284 16.5999 159.964 17.5599 159.964 18.8399V25.3999C159.964 26.5732 159.657 27.4666 159.044 28.0799C158.43 28.6932 157.537 28.9999 156.364 28.9999ZM177.396 29.0799C175.716 29.0799 174.222 28.6666 172.916 27.8399C171.636 27.0132 170.622 25.8266 169.876 24.2799C169.156 22.7332 168.796 20.9066 168.796 18.7999C168.796 16.6399 169.156 14.7999 169.876 13.2799C170.622 11.7599 171.636 10.5866 172.916 9.75989C174.222 8.93322 175.716 8.51989 177.396 8.51989C178.862 8.51989 180.182 8.86656 181.356 9.55989C182.529 10.2532 183.316 11.1466 183.716 12.2399H183.276V3.67989C183.276 2.50656 183.582 1.61322 184.196 0.999891C184.809 0.386557 185.689 0.0798907 186.836 0.0798907C187.956 0.0798907 188.822 0.386557 189.436 0.999891C190.076 1.61322 190.396 2.50656 190.396 3.67989V25.3999C190.396 26.5732 190.089 27.4666 189.476 28.0799C188.889 28.6932 188.022 28.9999 186.876 28.9999C185.756 28.9999 184.889 28.6932 184.276 28.0799C183.662 27.4666 183.356 26.5732 183.356 25.3999V23.1199L183.796 25.0799C183.422 26.2799 182.636 27.2532 181.436 27.9999C180.262 28.7199 178.916 29.0799 177.396 29.0799ZM179.676 23.8399C180.396 23.8399 181.036 23.6666 181.596 23.3199C182.156 22.9466 182.582 22.3999 182.876 21.6799C183.196 20.9332 183.356 19.9732 183.356 18.7999C183.356 17.0132 183.009 15.7332 182.316 14.9599C181.622 14.1599 180.742 13.7599 179.676 13.7599C178.956 13.7599 178.316 13.9332 177.756 14.2799C177.196 14.6266 176.756 15.1732 176.436 15.9199C176.116 16.6399 175.956 17.5999 175.956 18.7999C175.956 20.5599 176.302 21.8399 176.996 22.6399C177.689 23.4399 178.582 23.8399 179.676 23.8399Z" fill="#FEFEFE"/>
</svg>
