<svg width="105" height="105" viewBox="0 0 105 105" fill="none" xmlns="http://www.w3.org/2000/svg">
<path d="M91.875 26.25H74.375C70.894 26.25 67.5556 27.6328 65.0942 30.0942C62.6328 32.5556 61.25 35.894 61.25 39.375C61.25 42.856 62.6328 46.1944 65.0942 48.6558C67.5556 51.1172 70.894 52.5 74.375 52.5H78.75C82.231 52.5 85.5694 53.8828 88.0308 56.3442C90.4922 58.8056 91.875 62.144 91.875 65.625C91.875 69.106 90.4922 72.4444 88.0308 74.9058C85.5694 77.3672 82.231 78.75 78.75 78.75H61.25M17.5 78.75V26.25H30.625C34.106 26.25 37.4444 27.6328 39.9058 30.0942C42.3672 32.5556 43.75 35.894 43.75 39.375C43.75 42.856 42.3672 46.1944 39.9058 48.6558C37.4444 51.1172 34.106 52.5 30.625 52.5H17.5C41.5625 52.5 39.375 70 43.75 78.75M78.75 26.25V17.5M74.375 87.5V78.75" stroke="#BBBBBB" stroke-width="2" stroke-linecap="round" stroke-linejoin="round"/>
</svg>
