<svg width="46" height="46" viewBox="0 0 46 46" fill="none" xmlns="http://www.w3.org/2000/svg">
<rect x="5.7168" y="7.62158" width="11.4324" height="32.3919" fill="#A992F3"/>
<rect x="5.7168" y="7.62158" width="34.2973" height="9.52703" fill="#A992F3"/>
<path d="M17.1492 5.71631H9.52761C8.51692 5.71631 7.54762 6.1178 6.83296 6.83247C6.11829 7.54713 5.7168 8.51643 5.7168 9.52712V17.1487M17.1492 5.71631H36.2033C37.214 5.71631 38.1833 6.1178 38.8979 6.83247C39.6126 7.54713 40.0141 8.51643 40.0141 9.52712V17.1487M17.1492 5.71631V40.0136M5.7168 17.1487V36.2028C5.7168 37.2135 6.11829 38.1828 6.83296 38.8974C7.54762 39.6121 8.51692 40.0136 9.52761 40.0136H17.1492M5.7168 17.1487H40.0141M40.0141 17.1487V36.2028C40.0141 37.2135 39.6126 38.1828 38.8979 38.8974C38.1833 39.6121 37.214 40.0136 36.2033 40.0136H17.1492" stroke="#2E2E2E" stroke-width="3.81081" stroke-linecap="round" stroke-linejoin="round"/>
</svg>
