<svg width="48" height="48" viewBox="0 0 48 48" fill="none" xmlns="http://www.w3.org/2000/svg">
<path d="M43.9989 34.2152V40.2152C44.0012 40.7722 43.8871 41.3235 43.6639 41.8339C43.4408 42.3442 43.1135 42.8024 42.703 43.1789C42.2926 43.5555 41.808 43.8422 41.2804 44.0206C40.7527 44.1991 40.1936 44.2653 39.6389 44.2152C33.4846 43.5465 27.5729 41.4435 22.3789 38.0752C17.5465 35.0045 13.4496 30.9075 10.3789 26.0752C6.99885 20.8576 4.89538 14.9172 4.23889 8.73519C4.18891 8.18213 4.25464 7.62471 4.43189 7.09844C4.60914 6.57217 4.89403 6.08857 5.26842 5.67844C5.64281 5.2683 6.0985 4.94061 6.60647 4.71624C7.11444 4.49186 7.66357 4.37572 8.21889 4.37519H14.2189C15.1895 4.36564 16.1305 4.70935 16.8664 5.34226C17.6024 5.97517 18.083 6.85409 18.2189 7.81519C18.4721 9.73533 18.9418 11.6206 19.6189 13.4352C19.888 14.151 19.9462 14.929 19.7867 15.677C19.6272 16.4249 19.2566 17.1114 18.7189 17.6552L16.1789 20.1952C19.026 25.2023 23.1718 29.3481 28.1789 32.1952L30.7189 29.6552C31.2627 29.1175 31.9492 28.7469 32.6971 28.5874C33.4451 28.4279 34.223 28.4861 34.9389 28.7552C36.7534 29.4323 38.6388 29.9019 40.5589 30.1552C41.5304 30.2923 42.4177 30.7816 43.052 31.5302C43.6862 32.2788 44.0232 33.2343 43.9989 34.2152Z" stroke="#FEFEFE" stroke-width="4" stroke-linecap="round" stroke-linejoin="round"/>
</svg>
