<svg xmlns="http://www.w3.org/2000/svg" xmlns:xlink="http://www.w3.org/1999/xlink" width="500" zoomAndPan="magnify" viewBox="0 0 375 374.999991" height="500" preserveAspectRatio="xMidYMid meet" version="1.0"><path fill="#ebebeb" d="M 205.394531 196.25 L 205.394531 143.367188 C 205.355469 138.617188 203.472656 134.070312 200.144531 130.679688 C 198.324219 128.878906 196.136719 127.488281 193.734375 126.601562 C 191.328125 125.71875 188.761719 125.363281 186.207031 125.554688 C 181.582031 126.011719 177.300781 128.195312 174.21875 131.671875 C 171.136719 135.148438 169.480469 139.660156 169.582031 144.304688 L 169.644531 196.054688 C 165.066406 199.492188 161.582031 204.179688 159.605469 209.550781 C 157.625 214.917969 157.242188 220.746094 158.496094 226.332031 C 159.75 231.914062 162.589844 237.019531 166.671875 241.027344 C 170.757812 245.035156 175.914062 247.78125 181.519531 248.929688 C 183.476562 249.308594 185.464844 249.496094 187.457031 249.492188 C 195.335938 249.492188 202.894531 246.367188 208.472656 240.800781 C 214.046875 235.238281 217.191406 227.6875 217.207031 219.804688 C 217.21875 215.230469 216.15625 210.714844 214.101562 206.621094 C 212.050781 202.53125 209.070312 198.980469 205.394531 196.25 Z M 202.394531 237.875 C 199.679688 240.097656 196.503906 241.691406 193.101562 242.53125 C 189.695312 243.375 186.144531 243.449219 182.707031 242.75 C 178.144531 241.839844 173.960938 239.578125 170.707031 236.253906 C 167.449219 232.933594 165.273438 228.707031 164.457031 224.125 C 163.648438 219.828125 164.054688 215.394531 165.636719 211.320312 C 167.214844 207.242188 169.902344 203.691406 173.394531 201.0625 C 174.148438 200.507812 174.761719 199.78125 175.183594 198.945312 C 175.609375 198.109375 175.828125 197.1875 175.832031 196.25 L 175.832031 144.304688 C 175.761719 141.253906 176.832031 138.28125 178.828125 135.972656 C 180.828125 133.664062 183.613281 132.175781 186.644531 131.804688 C 186.933594 131.757812 187.226562 131.734375 187.519531 131.742188 C 190.59375 131.777344 193.53125 133.011719 195.703125 135.183594 C 197.875 137.359375 199.113281 140.296875 199.144531 143.367188 L 199.144531 196.25 C 199.148438 197.1875 199.367188 198.109375 199.792969 198.945312 C 200.214844 199.78125 200.828125 200.507812 201.582031 201.0625 C 204.421875 203.1875 206.742188 205.933594 208.363281 209.085938 C 209.988281 212.242188 210.871094 215.722656 210.949219 219.269531 C 211.027344 222.816406 210.300781 226.335938 208.816406 229.558594 C 207.335938 232.78125 205.136719 235.625 202.394531 237.875 Z M 202.394531 237.875 " fill-opacity="1" fill-rule="nonzero"/><path fill="#ebebeb" d="M 199.332031 219.804688 C 199.332031 222.9375 198.085938 225.945312 195.871094 228.160156 C 193.65625 230.375 190.652344 231.617188 187.519531 231.617188 C 184.386719 231.617188 181.382812 230.375 179.164062 228.160156 C 176.949219 225.945312 175.707031 222.9375 175.707031 219.804688 C 175.691406 217.222656 176.539062 214.710938 178.109375 212.660156 C 179.683594 210.613281 181.894531 209.144531 184.394531 208.492188 L 184.394531 146.25 C 184.394531 145.421875 184.722656 144.625 185.308594 144.039062 C 185.894531 143.453125 186.691406 143.125 187.519531 143.125 C 188.347656 143.125 189.140625 143.453125 189.726562 144.039062 C 190.3125 144.625 190.644531 145.421875 190.644531 146.25 L 190.644531 208.5 C 193.136719 209.160156 195.339844 210.628906 196.910156 212.675781 C 198.480469 214.71875 199.332031 217.226562 199.332031 219.804688 Z M 199.332031 219.804688 " fill-opacity="1" fill-rule="nonzero"/></svg>