<svg width="93" height="93" viewBox="0 0 93 93" fill="none" xmlns="http://www.w3.org/2000/svg">
<path d="M57.5934 51.9251V19.1387C57.5697 16.1937 56.4026 13.3732 54.3384 11.2725C53.2099 10.1545 51.8543 9.29215 50.3633 8.74391C48.8724 8.19568 47.2811 7.97437 45.6971 8.09498C42.8304 8.37747 40.176 9.73187 38.2649 11.8872C36.3538 14.0426 35.3269 16.84 35.3896 19.72L35.4284 51.805C32.5912 53.936 30.4297 56.8408 29.2035 60.1706C27.9773 63.5003 27.7386 67.1133 28.5162 70.5754C29.2937 74.0375 31.0544 77.2014 33.5866 79.6871C36.1189 82.1727 39.315 83.8744 42.7909 84.5875C44.004 84.8208 45.2367 84.9376 46.4721 84.9362C51.3574 84.9362 56.043 82.9983 59.501 79.5475C62.959 76.0968 64.9069 71.4152 64.9171 66.53C64.9241 63.6923 64.2652 60.8927 62.9932 58.3561C61.7212 55.8195 59.8717 53.6168 57.5934 51.9251ZM55.7334 77.7326C54.0509 79.1111 52.0825 80.0976 49.9711 80.6204C47.8598 81.1432 45.6585 81.1892 43.5271 80.7551C40.6985 80.1918 38.1054 78.7884 36.0868 76.7283C34.0682 74.6682 32.7178 72.0472 32.2121 69.2076C31.7107 66.5446 31.9639 63.7945 32.943 61.2678C33.9222 58.7411 35.5884 56.5385 37.7534 54.9089C38.2207 54.564 38.6008 54.1145 38.8633 53.5964C39.1257 53.0783 39.2631 52.5059 39.2646 51.9251V19.72C39.2218 17.8268 39.8841 15.9852 41.1229 14.553C42.3618 13.1208 44.0888 12.2002 45.9684 11.97C46.1475 11.9389 46.3292 11.9259 46.5109 11.9312C48.4162 11.9514 50.2377 12.7172 51.5851 14.0645C52.9324 15.4119 53.6982 17.2334 53.7184 19.1387V51.9251C53.7199 52.5059 53.8573 53.0783 54.1198 53.5964C54.3822 54.1145 54.7623 54.564 55.2296 54.9089C56.9907 56.2268 58.4288 57.9281 59.4351 59.884C60.4415 61.8398 60.9897 63.999 61.0382 66.1981C61.0867 68.3971 60.6344 70.5784 59.7153 72.5768C58.7962 74.5752 57.4346 76.3383 55.7334 77.7326Z" fill="#BBBBBB"/>
<path d="M53.8351 66.5297C53.8351 68.4721 53.0635 70.3349 51.69 71.7084C50.3166 73.0818 48.4537 73.8534 46.5114 73.8534C44.569 73.8534 42.7062 73.0818 41.3327 71.7084C39.9592 70.3349 39.1876 68.4721 39.1876 66.5297C39.1787 64.9284 39.7033 63.3697 40.6786 62.0996C41.654 60.8296 43.0245 59.9205 44.5739 59.5159V20.9248C44.5739 20.4109 44.778 19.9181 45.1413 19.5548C45.5047 19.1914 45.9975 18.9873 46.5114 18.9873C47.0252 18.9873 47.518 19.1914 47.8814 19.5548C48.2447 19.9181 48.4489 20.4109 48.4489 20.9248V59.5198C49.9943 59.9302 51.3605 60.8403 52.3348 62.1082C53.309 63.3761 53.8365 64.9307 53.8351 66.5297Z" fill="#BBBBBB"/>
</svg>
