<svg width="46" height="46" viewBox="0 0 46 46" fill="none" xmlns="http://www.w3.org/2000/svg">
<g clip-path="url(#clip0_2257_1198)">
<path d="M26.6757 28.5812V18.491C26.6757 17.6297 26.1739 16.8037 25.2805 16.1946C24.3872 15.5856 23.1756 15.2434 21.9122 15.2434C20.6489 15.2434 19.4372 15.5856 18.5439 16.1946C17.6506 16.8037 17.1487 17.6297 17.1487 18.491L18.5439 28.5812C17.0144 29.278 14.4589 34.8286 13.8391 36.0094C13.2194 37.1902 13.1731 38.4755 13.7071 39.6757C14.241 40.8758 15.327 41.927 16.8045 42.6741C18.282 43.4212 20.0727 43.8245 21.9122 43.8245C23.7517 43.8245 25.5425 43.4212 27.02 42.6741C28.4975 41.927 29.5834 40.8758 30.1174 39.6757C30.6513 38.4755 30.605 37.1902 29.9853 36.0094C29.3655 34.8286 28.2052 29.278 26.6757 28.5812Z" fill="#F67E27"/>
<path d="M26.6757 28.1237V6.66879C26.6757 5.40542 26.1739 4.19381 25.2805 3.30047C24.3872 2.40714 23.1756 1.90527 21.9122 1.90527C20.6489 1.90527 19.4372 2.40714 18.5439 3.30047C17.6506 4.19381 17.1487 5.40542 17.1487 6.66879V28.1237C15.6192 29.1456 14.4589 30.6323 13.8391 32.3643C13.2194 34.0963 13.1731 35.9816 13.7071 37.7419C14.241 39.5022 15.327 41.0442 16.8045 42.14C18.282 43.2358 20.0727 43.8274 21.9122 43.8274C23.7517 43.8274 25.5425 43.2358 27.02 42.14C28.4975 41.0442 29.5834 39.5022 30.1174 37.7419C30.6513 35.9816 30.605 34.0963 29.9853 32.3643C29.3655 30.6323 28.2052 29.1456 26.6757 28.1237Z" stroke="#2E2E2E" stroke-width="3.81081" stroke-linecap="round" stroke-linejoin="round"/>
</g>
<defs>
<clipPath id="clip0_2257_1198">
<rect width="45.7297" height="45.7297" fill="white"/>
</clipPath>
</defs>
</svg>
