<svg width="16" height="16" viewBox="0 0 16 16" fill="none" xmlns="http://www.w3.org/2000/svg">
<path d="M11.6327 12.1906L12.0827 11.7436C14.1647 11.8116 14.1967 11.7386 14.2882 11.5246L14.8602 10.1321L14.9027 10.0001L14.8562 9.88457C14.8317 9.82357 14.7562 9.64157 13.4562 8.40207V7.75007C14.9562 6.30507 14.9242 6.23107 14.8387 6.01957L14.2692 4.61257C14.1837 4.40157 14.1512 4.31907 12.0842 4.37557L11.6342 3.91057C11.6812 3.22563 11.6576 2.53767 11.5637 1.85757L11.5057 1.72607L10.0187 1.07607C9.79966 0.976069 9.72266 0.940069 8.31866 2.46907L7.68766 2.45957C6.24216 0.916569 6.17366 0.944569 5.95716 1.03207L4.57466 1.59107C4.35816 1.67857 4.28166 1.70957 4.36566 3.80957L3.91916 4.25457C1.83816 4.18657 1.80616 4.26057 1.71566 4.47357L1.14266 5.86657L1.09766 6.00007L1.14466 6.11607C1.16916 6.17607 1.24166 6.35607 2.54466 7.59707V8.24707C1.04466 9.69207 1.07716 9.76607 1.16316 9.97807L1.73216 11.3866C1.81916 11.6021 1.85016 11.6786 3.91666 11.6246L4.36666 12.0921C4.31986 12.776 4.34282 13.4628 4.43516 14.1421L4.49316 14.2746L5.98966 14.9286C6.20716 15.0196 6.28266 15.0521 7.68266 13.5286L8.31366 13.5366C9.76116 15.0816 9.83516 15.0516 10.0467 14.9661L11.4262 14.4086C11.6442 14.3221 11.7202 14.2916 11.6327 12.1906ZM5.70366 8.92857C5.52918 8.4726 5.49326 7.97525 5.6004 7.49894C5.70753 7.02262 5.95296 6.58856 6.30587 6.25121C6.65878 5.91386 7.10347 5.68825 7.58412 5.60269C8.06478 5.51713 8.56 5.57543 9.00765 5.77027C9.4553 5.96512 9.83543 6.28783 10.1004 6.69791C10.3653 7.108 10.5032 7.58719 10.4968 8.07536C10.4904 8.56353 10.3399 9.03894 10.0643 9.44193C9.78874 9.84492 9.40026 10.1575 8.94766 10.3406C8.33012 10.5821 7.64207 10.5691 7.03409 10.3044C6.42611 10.0398 5.94773 9.54508 5.70366 8.92857Z" fill="#FEFEFE"/>
</svg>
