<svg width="147" height="147" viewBox="0 0 147 147" fill="none" xmlns="http://www.w3.org/2000/svg">
<path d="M106.79 120.825L110.925 116.718C130.053 117.342 130.347 116.672 131.188 114.706L136.443 101.912L136.833 100.699L136.406 99.6382C136.181 99.0777 135.487 97.4056 123.544 86.0177V80.0275C137.325 66.7515 137.031 66.0717 136.245 64.1285L131.013 51.2017C130.228 49.2631 129.929 48.5052 110.938 49.0243L106.804 44.7521C107.236 38.4592 107.019 32.1385 106.156 25.8901L105.624 24.682L91.9617 18.7101C89.9496 17.7913 89.2422 17.4606 76.3429 31.5083L70.5456 31.421C57.2651 17.2447 56.6358 17.5019 54.6467 18.3058L41.9449 23.4417C39.9558 24.2456 39.253 24.5304 40.0248 43.8241L35.9225 47.9126C16.8033 47.2878 16.5093 47.9677 15.6779 49.9246L10.4134 62.7228L10 63.9493L10.4318 65.0151C10.6569 65.5663 11.323 67.2201 23.2943 78.6218V84.5937C9.51306 97.8696 9.81166 98.5495 10.6018 100.497L15.8295 113.438C16.6288 115.418 16.9136 116.121 35.8996 115.624L40.0339 119.92C39.604 126.203 39.8149 132.513 40.6633 138.754L41.1962 139.971L54.9453 145.98C56.9435 146.816 57.6372 147.115 70.4997 133.117L76.297 133.191C89.5959 147.386 90.2758 147.11 92.219 146.324L104.893 141.202C106.896 140.408 107.594 140.127 106.79 120.825ZM52.3176 90.8549C50.7147 86.6657 50.3846 82.0963 51.3689 77.7202C52.3533 73.3441 54.6081 69.3561 57.8505 66.2567C61.0928 63.1573 65.1784 61.0845 69.5944 60.2984C74.0105 59.5123 78.5603 60.048 82.6731 61.8381C86.7858 63.6282 90.2783 66.5931 92.7123 70.3608C95.1462 74.1285 96.4132 78.531 96.3544 83.0161C96.2955 87.5012 94.9133 91.869 92.3813 95.5714C89.8493 99.2739 86.2802 102.146 82.1219 103.828C76.4483 106.046 70.1268 105.927 64.541 103.496C58.9552 101.064 54.5601 96.5192 52.3176 90.8549Z" fill="white"/>
</svg>
