<svg width="1228" height="308" viewBox="0 0 1228 308" fill="none" xmlns="http://www.w3.org/2000/svg">
<path d="M168.845 58.0787C148.04 57.6673 131.166 48.3368 122.714 42.9086C120.586 41.5421 117.873 41.5422 115.746 42.909C107.297 48.3372 90.4327 57.6673 69.6149 58.0787C52.3251 58.4837 39.2179 55.9001 30.4293 52.8743C25.7786 51.2732 20 54.6238 20 59.5424V134.627C20 188.898 61.7013 250.126 117.561 266.92C118.649 267.248 119.81 267.248 120.898 266.921C148.562 258.614 172.82 239.374 190.12 215.587C207.766 191.339 218.476 162.04 218.476 134.627V59.5261C218.476 54.6108 212.707 51.2654 208.06 52.8669C199.271 55.8959 186.159 58.4841 168.845 58.0787ZM207.766 134.627C207.766 159.035 198.144 186.288 181.456 209.289C165.193 231.685 143.868 247.959 121.081 255.779C119.88 256.191 118.578 256.196 117.374 255.792C94.4599 248.098 73.2691 231.691 57.0194 209.449C40.3159 186.608 30.7094 159.035 30.7094 134.627V64.0568C42.202 67.3656 54.1742 68.948 66.1464 68.7882H69.9346C86.4623 68.3086 103.326 62.9539 119.23 53.1876C135.15 62.9539 151.997 68.3086 168.541 68.6283H172.313C184.286 68.7882 196.258 67.2057 207.766 63.897V134.627ZM190.109 78.4143C193.846 77.9792 197.201 80.8463 197.201 84.6092V134.627C197.201 156.989 188.378 181.876 172.953 202.991C158.797 222.304 140.689 236.785 121.295 244.276C119.966 244.79 118.494 244.79 117.165 244.276C97.7846 236.785 79.6634 222.303 65.523 202.991C50.0823 181.876 41.259 156.829 41.259 134.627V84.7321C41.259 80.9274 44.6855 78.0462 48.4642 78.4894C54.3242 79.1767 60.2353 79.4976 66.1464 79.4976H70.0945C86.2639 78.9009 101.876 74.7547 116.179 67.2926C118.088 66.2966 120.369 66.3023 122.275 67.3039C136.462 74.7588 152.22 78.9012 168.381 79.4976H172.313C178.271 79.4976 184.22 79.0998 190.109 78.4143Z" fill="#A88CFF"/>
<path d="M81.6195 113.72C81.3637 114.983 81.3957 116.294 81.6674 117.541C81.9232 118.787 82.4027 119.986 83.074 121.057C83.7454 122.128 84.5925 123.071 85.5996 123.806C85.7274 123.902 85.8393 123.998 85.9672 124.078L86.3668 124.318C86.6225 124.494 86.9103 124.622 87.182 124.765C87.2459 124.797 87.3258 124.829 87.3898 124.861L87.6136 124.941L88.0451 125.117C88.3328 125.213 88.6365 125.293 88.9243 125.389L89.8194 125.597L90.2829 125.677C90.4428 125.708 90.5866 125.74 90.7465 125.756C91.3698 125.836 91.9932 125.884 92.6166 125.868C93.8794 125.868 95.1421 125.74 96.4049 125.549C97.6676 125.357 98.9144 125.085 100.177 124.813C101.44 124.542 102.735 124.27 104.029 124.078C105.324 123.886 106.635 123.758 107.961 123.774C109.288 123.774 110.631 123.918 111.942 124.286L112.421 124.446C112.581 124.51 112.741 124.542 112.901 124.622L113.364 124.813L113.604 124.909C113.684 124.941 113.764 124.989 113.828 125.037C114.131 125.197 114.435 125.341 114.723 125.533L115.138 125.82C115.282 125.916 115.426 126.028 115.554 126.124C116.625 126.971 117.488 128.026 118.223 129.129C118.959 130.232 119.582 131.383 120.189 132.534C120.813 133.669 121.42 134.803 122.06 135.922C123.322 138.176 124.649 140.366 126.167 142.428C126.935 143.451 127.75 144.442 128.613 145.353C129.492 146.28 130.419 147.143 131.426 147.911C132.433 148.678 133.488 149.349 134.639 149.893C135.758 150.436 136.957 150.852 138.188 151.155C140.649 151.779 143.223 152.002 145.796 152.402C147.091 152.594 148.369 152.834 149.648 153.201C150.927 153.553 152.174 154.016 153.357 154.624C155.722 155.823 157.864 157.469 159.622 159.451C160.501 160.442 161.285 161.513 161.956 162.664C162.292 163.239 162.595 163.831 162.883 164.422C163.027 164.726 163.155 165.03 163.283 165.333C163.331 165.493 163.411 165.653 163.459 165.797L163.618 166.276C165.201 171.343 164.705 176.954 162.34 181.573C164.338 176.794 164.45 171.327 162.659 166.612L162.5 166.164L162.324 165.717C162.196 165.429 162.1 165.141 161.956 164.854C161.7 164.278 161.397 163.719 161.093 163.175C160.454 162.089 159.702 161.066 158.855 160.122C157.193 158.236 155.163 156.654 152.909 155.519C151.79 154.944 150.607 154.496 149.376 154.16C148.162 153.825 146.915 153.585 145.636 153.393C143.111 153.009 140.505 152.77 137.948 152.13C136.669 151.811 135.39 151.379 134.192 150.804C132.993 150.228 131.874 149.509 130.819 148.71C129.764 147.911 128.789 146.999 127.878 146.056C126.983 145.097 126.151 144.074 125.368 143.019C123.802 140.909 122.459 138.688 121.18 136.418C120.541 135.283 119.934 134.148 119.31 132.997C118.703 131.862 118.095 130.744 117.392 129.689C116.689 128.65 115.89 127.675 114.931 126.907C114.803 126.827 114.691 126.715 114.563 126.636L114.179 126.38C113.924 126.204 113.652 126.076 113.38 125.932C113.316 125.9 113.252 125.852 113.172 125.82L112.964 125.74L112.549 125.549C112.405 125.485 112.245 125.453 112.101 125.405L111.67 125.261C110.471 124.925 109.224 124.781 107.961 124.781C106.699 124.765 105.436 124.893 104.173 125.085C102.91 125.261 101.664 125.533 100.401 125.804C99.1382 126.076 97.8594 126.332 96.5647 126.54C95.27 126.747 93.9433 126.875 92.6166 126.875C91.9453 126.891 91.2899 126.843 90.6186 126.763C90.4587 126.747 90.2829 126.715 90.1231 126.699L89.6276 126.604C89.2919 126.54 88.9722 126.444 88.6365 126.364C88.4767 126.3 88.3169 126.252 88.157 126.188C88.0132 126.124 87.8373 126.076 87.6935 126.012L87.2299 125.804L87.0062 125.692C86.9262 125.661 86.8463 125.613 86.7824 125.565C86.4787 125.405 86.175 125.245 85.9033 125.037L85.4877 124.749C85.3598 124.654 85.2319 124.526 85.104 124.43C84.0811 123.551 83.2179 122.496 82.5945 121.329C81.9711 120.162 81.5556 118.883 81.3797 117.589C81.2039 116.294 81.2838 114.967 81.6195 113.704V113.72Z" fill="#FEFEFE"/>
<path d="M80.0208 117.907C79.765 114.998 80.2765 112.009 81.3954 109.26C82.5143 106.511 84.2566 104.001 86.4784 102.003C88.7162 100.005 91.4015 98.5506 94.2467 97.7354C97.0919 96.9202 100.129 96.7284 103.006 97.3039C100.081 97.16 97.1878 97.5596 94.4864 98.4867C91.7851 99.4138 89.2756 100.852 87.1497 102.754C85.0398 104.657 83.3455 106.99 82.1147 109.58C80.8999 112.169 80.1806 114.998 80.0208 117.907Z" fill="#FEFEFE"/>
<mask id="mask0_2009_362" style="mask-type:luminance" maskUnits="userSpaceOnUse" x="82" y="86" width="91" height="97">
<path d="M82.4502 86.6267H172.729V182.084H82.4502V86.6267Z" fill="white"/>
</mask>
<g mask="url(#mask0_2009_362)">
<path d="M83.6807 97.0005C87.0533 91.422 93.1593 87.4579 99.8087 86.7386C100.224 86.7066 100.64 86.6747 101.055 86.6587H101.999C102.094 86.6587 102.206 86.6747 102.302 86.6747C102.718 86.6907 103.133 86.7066 103.549 86.7546C103.965 86.7866 104.38 86.8185 104.796 86.8985C106.442 87.1222 108.057 87.5378 109.623 88.1292C111.173 88.7206 112.676 89.4879 114.067 90.399C114.402 90.6388 114.738 90.8785 115.074 91.1183C115.409 91.39 115.729 91.6458 116.065 91.9015C116.688 92.445 117.295 93.0204 117.871 93.6118C119.038 94.7787 120.109 96.0094 121.212 97.1923C121.755 97.7837 122.33 98.3591 122.906 98.9026L123.337 99.3182L123.561 99.526L123.785 99.7178L124.249 100.101L124.712 100.469C125.959 101.428 127.349 102.163 128.852 102.707C129.603 102.979 130.371 103.218 131.138 103.41C131.921 103.618 132.704 103.794 133.487 103.97C135.086 104.305 136.684 104.609 138.283 105.025C139.082 105.232 139.881 105.488 140.664 105.776C141.448 106.064 142.215 106.399 142.95 106.799C143.701 107.182 144.405 107.646 145.076 108.173C145.731 108.701 146.355 109.308 146.866 109.996C147.01 110.155 147.122 110.347 147.25 110.523L147.426 110.795L147.585 111.067C147.793 111.434 147.985 111.834 148.145 112.233C148.465 113.033 148.656 113.864 148.784 114.711C149.008 116.389 148.912 118.052 148.8 119.682C148.672 121.328 148.497 122.927 148.513 124.525C148.513 125.308 148.561 126.108 148.688 126.875C148.752 127.259 148.864 127.642 148.944 128.01C148.976 128.202 149.056 128.393 149.12 128.569L149.296 129.129C149.871 130.583 150.702 131.942 151.693 133.173C151.821 133.333 151.965 133.476 152.093 133.62L152.477 134.068C152.764 134.356 153.02 134.659 153.308 134.931C153.612 135.203 153.883 135.49 154.187 135.746L154.635 136.146C154.794 136.274 154.938 136.402 155.098 136.529C156.329 137.568 157.64 138.511 158.982 139.407C161.668 141.229 164.465 142.971 166.926 145.209C167.534 145.752 168.125 146.36 168.685 146.967C168.828 147.127 168.956 147.287 169.084 147.447C169.228 147.606 169.356 147.766 169.484 147.926L169.867 148.438C169.931 148.518 169.995 148.597 170.043 148.693L170.219 148.949C171.146 150.34 171.881 151.89 172.313 153.521C172.761 155.135 172.952 156.813 172.952 158.476L172.936 159.115C172.936 159.323 172.92 159.531 172.904 159.738C172.872 160.138 172.856 160.57 172.793 160.969L172.713 161.593L172.617 162.216C172.553 162.616 172.457 163.031 172.361 163.431C171.961 165.045 171.37 166.612 170.683 168.098C170.011 169.601 169.212 171.039 168.333 172.43C167.47 173.821 166.543 175.163 165.568 176.474C164.593 177.785 163.602 179.063 162.595 180.342C163.522 179.015 164.449 177.673 165.328 176.298C166.223 174.955 167.086 173.565 167.869 172.158C168.269 171.439 168.637 170.72 168.988 170C169.34 169.281 169.676 168.546 169.979 167.794C170.571 166.308 171.066 164.773 171.386 163.207C171.45 162.807 171.546 162.424 171.61 162.04L171.706 161.449L171.786 160.857C171.897 160.058 171.929 159.275 171.945 158.476C171.945 156.893 171.77 155.311 171.354 153.776C170.938 152.258 170.251 150.819 169.388 149.509L169.228 149.269C169.164 149.189 169.1 149.109 169.052 149.029L168.685 148.549C168.573 148.39 168.445 148.246 168.317 148.102C168.189 147.942 168.061 147.782 167.933 147.638C167.39 147.047 166.846 146.488 166.239 145.944C163.873 143.802 161.124 142.06 158.423 140.238C157.064 139.327 155.721 138.368 154.459 137.313C154.299 137.169 154.139 137.041 153.979 136.913L153.516 136.497C153.196 136.226 152.908 135.938 152.605 135.65C152.301 135.363 152.029 135.059 151.741 134.755L151.326 134.292C151.198 134.132 151.054 133.972 150.926 133.812C149.871 132.517 148.976 131.063 148.353 129.496L148.161 128.889C148.097 128.681 148.017 128.489 147.969 128.282C147.873 127.866 147.761 127.45 147.697 127.035C147.554 126.204 147.506 125.356 147.506 124.525C147.49 122.863 147.665 121.233 147.793 119.618C147.921 118.004 148.001 116.389 147.777 114.839C147.665 114.072 147.49 113.32 147.202 112.601C147.074 112.249 146.898 111.898 146.706 111.562L146.562 111.322L146.403 111.083C146.291 110.923 146.195 110.747 146.067 110.603C145.603 109.996 145.044 109.452 144.437 108.973C143.829 108.493 143.174 108.046 142.471 107.678C141.783 107.31 141.048 106.991 140.313 106.719C139.561 106.447 138.81 106.207 138.027 106C136.476 105.584 134.878 105.296 133.28 104.945C132.48 104.785 131.681 104.609 130.882 104.385C130.083 104.177 129.3 103.938 128.5 103.666C126.934 103.09 125.415 102.291 124.105 101.268L123.609 100.885L123.13 100.469L122.89 100.277L122.666 100.069L122.203 99.6379C121.611 99.0624 121.036 98.471 120.476 97.8796C119.357 96.6808 118.286 95.45 117.152 94.3151C116.592 93.7397 116.001 93.1962 115.409 92.6687C115.106 92.429 114.786 92.1732 114.482 91.9335C114.147 91.7097 113.827 91.4699 113.507 91.2462C112.18 90.367 110.758 89.6317 109.271 89.0723C107.785 88.5129 106.234 88.1132 104.652 87.8895C104.252 87.8255 103.869 87.7936 103.469 87.7616L103.165 87.7296C103.069 87.7136 102.974 87.7136 102.878 87.7136L102.27 87.6977C102.174 87.6817 102.078 87.6817 101.983 87.6817H101.679L101.087 87.6977C100.88 87.6977 100.688 87.7136 100.496 87.7296L99.8886 87.7616C96.7238 87.9534 93.5909 88.9444 90.8096 90.5269C89.403 91.3261 88.0923 92.2691 86.8935 93.3561C85.6947 94.443 84.6077 95.6738 83.6807 97.0164V97.0005Z" fill="#FEFEFE"/>
</g>
<path d="M92.8721 105.28C94.5184 106.703 96.4525 107.758 98.4825 108.493C99.4895 108.845 100.529 109.148 101.583 109.372C102.622 109.612 103.693 109.788 104.764 109.931C106.89 110.283 109.048 110.491 111.222 110.651L114.483 110.874C115.57 110.954 116.673 111.066 117.759 111.194C119.949 111.45 122.123 111.818 124.265 112.441C126.391 113.064 128.469 113.927 130.339 115.19C131.266 115.83 132.145 116.549 132.912 117.364C133.696 118.179 134.383 119.09 134.974 120.033C136.157 121.952 136.972 124.029 137.676 126.107C138.395 128.185 139.002 130.263 139.754 132.293C140.489 134.323 141.384 136.289 142.615 138C143.846 139.726 145.412 141.213 147.106 142.523C148.801 143.85 150.639 144.985 152.509 146.104C154.379 147.207 156.281 148.294 158.12 149.492C159.047 150.084 159.958 150.723 160.837 151.394C161.045 151.57 161.268 151.746 161.476 151.922C161.7 152.098 161.908 152.274 162.116 152.449C162.323 152.641 162.547 152.817 162.739 153.009C162.947 153.201 163.139 153.392 163.33 153.6C164.865 155.231 166.128 157.117 166.943 159.195C167.342 160.218 167.63 161.305 167.774 162.392C167.902 163.494 167.886 164.613 167.694 165.684C167.79 164.597 167.71 163.494 167.486 162.44C167.279 161.385 166.911 160.378 166.447 159.403C165.504 157.484 164.178 155.758 162.627 154.304C162.228 153.952 161.844 153.584 161.444 153.217C161.045 152.865 160.629 152.529 160.213 152.194C159.366 151.538 158.487 150.915 157.576 150.339C155.77 149.157 153.868 148.086 151.998 146.967C150.111 145.848 148.241 144.681 146.483 143.322C144.741 141.964 143.11 140.413 141.8 138.591C140.473 136.769 139.562 134.707 138.795 132.645C138.043 130.567 137.436 128.473 136.733 126.427C136.029 124.381 135.23 122.383 134.111 120.561C133.552 119.666 132.912 118.835 132.193 118.067C131.458 117.3 130.643 116.629 129.764 116.037C128.021 114.839 126.039 114.007 123.977 113.416C121.915 112.809 119.789 112.441 117.648 112.185C116.577 112.057 115.49 111.961 114.403 111.882L111.142 111.642C110.055 111.578 108.968 111.482 107.865 111.37C107.322 111.306 106.778 111.242 106.235 111.178C105.691 111.114 105.132 111.034 104.604 110.938C102.431 110.507 100.289 109.899 98.2747 109.004C97.2677 108.541 96.2927 108.013 95.3816 107.39C94.4705 106.767 93.6233 106.063 92.8721 105.28Z" fill="#FEFEFE"/>
<path d="M98.3545 122.527C100.289 121.968 102.239 121.456 104.221 121.057C105.212 120.865 106.203 120.705 107.21 120.593C108.217 120.465 109.24 120.417 110.263 120.417C111.286 120.417 112.309 120.481 113.332 120.641C114.339 120.785 115.346 121.009 116.337 121.329C117.312 121.648 118.271 122.064 119.182 122.575C120.077 123.087 120.924 123.694 121.707 124.366C122.507 125.021 123.226 125.772 123.897 126.539C124.569 127.323 125.192 128.138 125.767 128.969C126.327 129.816 126.854 130.695 127.366 131.574C127.494 131.798 127.606 132.022 127.733 132.246C127.845 132.454 127.973 132.677 128.085 132.901C128.325 133.349 128.549 133.812 128.772 134.26C129.22 135.171 129.652 136.066 130.083 136.977C130.515 137.888 130.946 138.783 131.394 139.694C132.289 141.485 133.248 143.243 134.351 144.921C133.056 143.371 131.969 141.66 130.962 139.918C130.467 139.039 129.971 138.16 129.492 137.281C129.028 136.386 128.565 135.507 128.069 134.627C127.11 132.869 126.135 131.127 124.984 129.512C123.833 127.914 122.555 126.38 121.068 125.117C120.317 124.493 119.534 123.918 118.686 123.423C117.855 122.927 116.96 122.543 116.033 122.224C114.195 121.568 112.229 121.281 110.247 121.201C108.265 121.121 106.283 121.281 104.301 121.552C102.303 121.808 100.337 122.192 98.3545 122.527Z" fill="#FEFEFE"/>
<path d="M77.1111 124.589C76.0082 122.207 75.4168 119.57 75.3209 116.901C75.193 114.231 75.5767 111.546 76.4398 109.005C77.303 106.463 78.6296 104.081 80.34 102.035C82.0503 99.9894 84.1122 98.2471 86.4459 97.0164C84.352 98.5988 82.4978 100.453 80.9633 102.531C79.4289 104.609 78.2141 106.895 77.3829 109.324C76.5677 111.754 76.1521 114.311 76.1041 116.885C76.0562 119.474 76.4078 122.064 77.1111 124.589Z" fill="#FEFEFE"/>
<path d="M81.9238 124.269C82.4993 126.603 83.5223 128.809 84.9129 130.727C85.6002 131.686 86.3674 132.581 87.2306 133.396C87.4544 133.588 87.6622 133.796 87.8859 133.971C88.1097 134.163 88.3335 134.355 88.5733 134.531L88.9249 134.803C89.0368 134.883 89.1647 134.962 89.2925 135.042L89.6442 135.298C89.7721 135.378 89.8999 135.458 90.0278 135.538C91.0348 136.145 92.0898 136.705 93.1607 137.296C93.6882 137.616 94.2157 137.92 94.7272 138.287C95.2227 138.639 95.7182 139.038 96.1817 139.47C97.0768 140.365 97.8441 141.404 98.3716 142.539C98.899 143.69 99.2347 144.921 99.2987 146.183L98.6273 145.912C99.0269 145.56 99.5224 145.384 100.034 145.352C100.529 145.32 101.057 145.48 101.457 145.768C101.856 146.071 102.16 146.503 102.288 146.983C102.352 147.206 102.384 147.382 102.464 147.478C102.543 147.59 102.671 147.654 102.831 147.686C103.151 147.75 103.55 147.59 103.95 147.43C104.334 147.27 104.717 147.094 105.101 146.919C105.868 146.551 106.603 146.119 107.323 145.656C107.003 145.928 106.667 146.199 106.316 146.455C105.964 146.711 105.612 146.951 105.245 147.174C104.877 147.398 104.494 147.606 104.11 147.798C103.918 147.894 103.726 147.99 103.502 148.07C103.295 148.149 103.039 148.213 102.783 148.197C102.511 148.165 102.24 148.07 102.032 147.83C101.84 147.59 101.792 147.334 101.728 147.158C101.6 146.823 101.361 146.535 101.073 146.343C100.769 146.135 100.418 146.056 100.082 146.087C99.7302 146.135 99.4105 146.279 99.1708 146.503C99.0109 146.663 98.7552 146.663 98.6113 146.503C98.5474 146.439 98.4994 146.343 98.4994 146.263V146.247C98.2757 143.946 97.1408 141.772 95.4944 140.189C95.0788 139.79 94.6313 139.438 94.1517 139.102C93.6722 138.783 93.1607 138.463 92.6492 138.159C91.6262 137.552 90.5553 137.008 89.5163 136.321C88.4933 135.65 87.5183 134.867 86.6552 133.987C85.792 133.092 85.0248 132.133 84.3694 131.094C83.0587 129.016 82.1956 126.667 81.9238 124.269Z" fill="#FEFEFE"/>
<path d="M103.966 147.67C103.775 147.91 103.775 148.23 103.886 148.486C103.982 148.757 104.19 148.933 104.446 149.045C104.702 149.157 104.973 149.205 105.261 149.237C105.549 149.253 105.853 149.237 106.172 149.253C106.316 149.269 106.476 149.285 106.652 149.317C106.812 149.349 106.971 149.397 107.131 149.461C107.435 149.573 107.707 149.748 107.978 149.908C108.234 150.084 108.474 150.26 108.714 150.42C108.953 150.564 109.193 150.707 109.433 150.787C110.44 151.123 111.591 150.867 112.502 150.308C113.445 149.716 114.212 148.837 114.916 147.894C116.338 146.008 117.601 143.994 118.544 141.836C119.503 139.678 120.11 137.361 120.142 134.947C120.334 136.13 120.334 137.361 120.174 138.575C120.126 138.879 120.078 139.183 120.031 139.471C119.951 139.774 119.903 140.078 119.823 140.382C119.743 140.669 119.679 140.973 119.583 141.261C119.471 141.548 119.391 141.836 119.279 142.124C118.448 144.442 117.169 146.568 115.715 148.502C115.347 148.997 114.948 149.477 114.516 149.924C114.068 150.372 113.557 150.787 112.997 151.123C112.422 151.443 111.799 151.682 111.127 151.762C110.472 151.842 109.785 151.778 109.161 151.507C108.842 151.379 108.554 151.203 108.298 151.011C108.058 150.819 107.819 150.628 107.595 150.452C107.355 150.276 107.131 150.1 106.891 149.988C106.764 149.924 106.652 149.876 106.524 149.844C106.396 149.796 106.252 149.764 106.108 149.748C105.821 149.7 105.533 149.668 105.213 149.621C104.909 149.557 104.59 149.477 104.318 149.301C104.174 149.205 104.046 149.109 103.95 148.965C103.839 148.837 103.775 148.693 103.743 148.534C103.663 148.23 103.727 147.862 103.966 147.67Z" fill="#FEFEFE"/>
<path d="M116.945 146.248C118.672 146.391 120.35 147.207 121.677 148.389C123.019 149.588 124.01 151.187 124.442 152.961C124.857 154.735 124.698 156.621 124.042 158.284C123.403 159.946 122.252 161.433 120.782 162.344C121.98 161.097 122.827 159.61 123.291 158.028C123.755 156.445 123.834 154.767 123.467 153.201C123.083 151.618 122.252 150.164 121.133 148.949C119.998 147.75 118.576 146.807 116.945 146.248Z" fill="#FEFEFE"/>
<path d="M103.102 167.698C103.821 164.725 106.027 162.072 108.936 160.809C110.374 160.154 111.925 159.85 113.411 159.562C114.163 159.419 114.898 159.291 115.633 159.131C116.352 158.955 117.072 158.763 117.759 158.507C118.095 158.38 118.43 158.236 118.75 158.076C119.086 157.916 119.389 157.74 119.693 157.532C119.981 157.341 120.269 157.133 120.524 156.877C120.652 156.765 120.78 156.637 120.892 156.509L121.068 156.302C121.116 156.238 121.18 156.174 121.228 156.11C121.643 155.55 121.979 154.911 122.171 154.224C122.363 153.536 122.442 152.817 122.41 152.114C122.347 150.675 121.707 149.285 120.652 148.262C120.141 147.734 119.517 147.319 118.846 146.999C118.51 146.839 118.159 146.711 117.791 146.615C117.423 146.503 117.056 146.455 116.672 146.407C117.439 146.375 118.207 146.487 118.942 146.743C119.134 146.807 119.31 146.871 119.485 146.967C119.581 146.999 119.661 147.047 119.757 147.095L120.013 147.223L120.141 147.303L120.508 147.542C120.668 147.654 120.828 147.766 120.988 147.894C121.579 148.421 122.107 149.029 122.49 149.748C122.874 150.451 123.114 151.235 123.194 152.05C123.242 152.449 123.242 152.849 123.21 153.249L123.178 153.552L123.162 153.712L123.146 153.856L123.082 154.16L123.018 154.447C122.826 155.247 122.474 155.998 121.995 156.669C121.883 156.845 121.755 156.989 121.611 157.149C121.483 157.309 121.34 157.453 121.196 157.596C120.892 157.884 120.572 158.124 120.237 158.364C119.565 158.811 118.846 159.163 118.111 159.451C115.106 160.553 111.989 160.458 109.224 161.528C106.49 162.583 104.22 164.853 103.102 167.698Z" fill="#FEFEFE"/>
<path d="M123.003 137.712C123.019 139.71 123.403 141.724 124.138 143.61C124.506 144.553 124.969 145.48 125.497 146.343C126.04 147.207 126.663 148.006 127.351 148.773C128.022 149.54 128.741 150.307 129.349 151.171C129.653 151.602 129.924 152.05 130.148 152.545C130.356 153.025 130.532 153.536 130.612 154.048C130.963 156.126 130.308 158.348 128.837 159.818C130.244 158.3 130.787 156.078 130.372 154.096C130.26 153.6 130.084 153.121 129.86 152.673C129.637 152.226 129.365 151.794 129.045 151.394C128.422 150.579 127.686 149.86 126.967 149.109C126.248 148.373 125.561 147.558 124.969 146.679C124.378 145.816 123.866 144.873 123.451 143.914C122.603 141.964 122.092 139.87 121.996 137.728C121.996 137.456 122.204 137.216 122.492 137.2C122.763 137.2 123.003 137.408 123.003 137.696C123.003 137.696 123.003 137.696 123.003 137.712Z" fill="#FEFEFE"/>
<path d="M108.969 123.95C111.239 125.197 113.045 127.179 114.052 129.496C115.059 131.814 115.251 134.436 114.612 136.833C115.075 134.404 114.708 131.862 113.589 129.72C112.486 127.562 110.664 125.836 108.522 124.861C108.266 124.733 108.154 124.445 108.266 124.19C108.378 123.934 108.682 123.822 108.937 123.934C108.937 123.95 108.953 123.95 108.969 123.95Z" fill="#FEFEFE"/>
<path d="M114.643 216.801C118.095 212.63 120.749 207.898 122.811 202.959C125 198.068 126.583 192.905 127.909 187.694C128.565 185.089 129.156 182.451 129.716 179.814C130.291 177.193 130.803 174.523 131.49 171.902C132.193 169.264 133.056 166.659 134.351 164.213C134.511 163.91 134.687 163.606 134.847 163.318C135.022 163.015 135.214 162.727 135.39 162.423C135.774 161.848 136.173 161.288 136.621 160.745C137.484 159.674 138.475 158.683 139.578 157.836C140.665 156.973 141.864 156.253 143.158 155.694C144.437 155.15 145.812 154.783 147.218 154.671C147.922 154.607 148.641 154.623 149.344 154.703C149.52 154.703 149.68 154.735 149.856 154.767C150.032 154.783 150.207 154.831 150.383 154.863L150.895 154.975C151.071 155.022 151.246 155.07 151.406 155.118C152.094 155.326 152.733 155.614 153.372 155.934L153.82 156.189C153.98 156.269 154.14 156.349 154.283 156.461C154.571 156.653 154.875 156.845 155.147 157.068C157.384 158.763 159.047 161.128 159.99 163.766C160.453 165.092 160.741 166.451 160.869 167.842C160.997 169.216 160.965 170.607 160.821 171.982C160.517 174.731 159.686 177.4 158.567 179.894C157.448 182.387 156.058 184.753 154.539 187.007C151.39 191.434 147.858 195.51 145.076 200.146C145.684 198.947 146.355 197.764 147.043 196.597C147.746 195.446 148.481 194.312 149.232 193.177C150.719 190.923 152.269 188.717 153.708 186.447L154.795 184.753C155.147 184.194 155.498 183.618 155.834 183.043C156.489 181.876 157.113 180.693 157.656 179.478C158.2 178.263 158.663 177.017 159.031 175.754C159.222 175.115 159.366 174.475 159.51 173.82C159.638 173.181 159.75 172.525 159.814 171.87C159.958 170.559 159.99 169.232 159.862 167.922C159.734 166.627 159.478 165.332 159.047 164.101C158.168 161.656 156.601 159.434 154.523 157.868C154.283 157.66 154.012 157.484 153.74 157.308C153.612 157.212 153.468 157.132 153.324 157.052L152.893 156.813C152.317 156.541 151.726 156.269 151.119 156.093C150.959 156.045 150.815 155.997 150.655 155.95L150.175 155.854C150.032 155.822 149.872 155.774 149.712 155.758C149.552 155.742 149.392 155.71 149.232 155.694C148.593 155.63 147.938 155.614 147.298 155.678C146.02 155.774 144.757 156.109 143.558 156.621C142.359 157.132 141.224 157.82 140.201 158.619C139.162 159.434 138.219 160.361 137.404 161.384C136.988 161.896 136.589 162.423 136.237 162.983C136.077 163.254 135.886 163.526 135.726 163.814C135.566 164.101 135.39 164.389 135.246 164.677C133.999 167.027 133.152 169.568 132.465 172.158C131.794 174.747 131.266 177.384 130.707 180.038C130.131 182.675 129.54 185.313 128.884 187.95C127.558 193.193 125.943 198.404 123.722 203.375C122.555 205.82 121.212 208.202 119.71 210.456C118.958 211.591 118.159 212.693 117.312 213.748C116.465 214.803 115.57 215.826 114.643 216.801Z" fill="#FEFEFE"/>
<path d="M114.531 214.516C114.036 214.5 113.54 214.5 113.061 214.468L112.31 214.42C112.07 214.404 111.814 214.404 111.574 214.372C111.079 214.308 110.599 214.26 110.104 214.18L109.369 214.053C109.129 214.021 108.889 213.973 108.649 213.925C106.699 213.525 104.797 212.982 102.927 212.294C101.073 211.591 99.2666 210.744 97.5243 209.801C95.766 208.858 94.0877 207.787 92.4573 206.652C91.6421 206.076 90.8429 205.485 90.0597 204.894C89.6601 204.59 89.2765 204.27 88.8928 203.967C88.5092 203.647 88.1256 203.343 87.742 203.024C86.2235 201.745 84.7529 200.418 83.3144 199.075C81.8758 197.717 80.4852 196.326 79.0945 194.936L78.0556 193.897C77.7039 193.529 77.3523 193.161 77.0006 192.762C76.6649 192.378 76.3293 191.946 76.0416 191.467C75.7538 190.987 75.5141 190.46 75.3702 189.884C75.2104 189.309 75.1784 188.686 75.2264 188.11C75.2743 187.535 75.4182 186.991 75.578 186.48C75.8977 185.473 76.3293 184.594 76.601 183.731C76.7289 183.299 76.8248 182.883 76.8887 182.452C76.9367 182.02 76.9367 181.589 76.9207 181.125C76.8887 180.23 76.7289 179.271 76.585 178.296C76.5211 177.8 76.4571 177.289 76.4252 176.777C76.3772 176.266 76.3772 175.738 76.3772 175.227C76.3932 174.715 76.4252 174.188 76.4891 173.677C76.5371 173.165 76.633 172.654 76.7289 172.158C76.8408 171.647 76.9686 171.151 77.1285 170.656C77.2883 170.176 77.4482 169.68 77.656 169.201C77.7678 168.977 77.8638 168.737 77.9756 168.514C78.0875 168.29 78.1994 168.066 78.2793 167.874C78.3752 167.666 78.4392 167.475 78.5031 167.283C78.5191 167.187 78.5351 167.091 78.5511 167.011C78.5671 166.915 78.583 166.835 78.5671 166.755C78.5671 166.42 78.4392 166.1 78.2793 165.956C78.1035 165.812 77.8797 165.748 77.5441 165.86C77.2244 165.956 76.8727 166.212 76.569 166.5C76.4891 166.564 76.4252 166.643 76.3453 166.739L76.1215 166.995C76.0416 167.075 75.9776 167.171 75.9137 167.267C75.8497 167.347 75.7698 167.443 75.7059 167.539C75.1784 168.29 74.7628 169.137 74.4431 170.016C74.1075 170.911 73.8677 171.838 73.6439 172.781C73.2124 174.668 72.9246 176.618 72.4611 178.552C72.2213 179.511 71.9336 180.47 71.55 181.381C71.1664 182.308 70.6549 183.171 70.0475 183.954C70.0315 183.97 69.9995 183.97 69.9835 183.954C69.9676 183.938 69.9516 183.906 69.9676 183.89C70.543 183.091 70.9905 182.212 71.3422 181.301C71.6779 180.39 71.9336 179.447 72.1414 178.488C72.541 176.57 72.7488 174.604 73.1324 172.686C73.3083 171.71 73.548 170.751 73.8677 169.824C74.1714 168.881 74.603 167.986 75.1464 167.155C75.2104 167.059 75.2903 166.963 75.3542 166.867C75.4342 166.755 75.4981 166.659 75.578 166.564C75.7379 166.372 75.8817 166.18 76.0575 166.004C76.4092 165.636 76.8248 165.333 77.3043 165.157C77.5441 165.077 77.7998 165.029 78.0556 165.061C78.3113 165.093 78.5671 165.205 78.7589 165.365C78.9667 165.525 79.1105 165.748 79.2064 165.988C79.3023 166.212 79.3503 166.468 79.3663 166.723C79.3822 167.235 79.2224 167.73 79.0306 168.178C78.9507 168.402 78.8388 168.626 78.7429 168.849C78.631 169.073 78.5351 169.297 78.4392 169.521C78.2634 169.984 78.1035 170.448 77.9597 170.911C77.8158 171.375 77.7039 171.854 77.592 172.334C77.5121 172.813 77.4322 173.293 77.3842 173.772C77.3363 174.252 77.3043 174.747 77.3043 175.243C77.2883 175.722 77.3043 176.218 77.3523 176.698C77.4002 177.177 77.4641 177.673 77.5281 178.152C77.6719 179.127 77.8478 180.102 77.8957 181.077C77.9117 181.573 77.9117 182.068 77.8478 182.564C77.7998 183.059 77.6879 183.555 77.5281 184.018C77.2404 184.961 76.8088 185.856 76.5211 186.784C76.3772 187.247 76.2653 187.727 76.2174 188.206C76.1854 188.686 76.2174 189.165 76.3453 189.629C76.585 190.556 77.1445 191.387 77.7678 192.122C78.3912 192.858 79.1105 193.545 79.7978 194.248C81.1725 195.639 82.5631 197.029 83.9697 198.388C86.8149 201.105 89.756 203.711 92.9209 206.013C96.1017 208.314 99.5063 210.312 103.135 211.799C106.763 213.269 110.615 214.228 114.531 214.404C114.563 214.404 114.579 214.436 114.579 214.452C114.579 214.484 114.563 214.5 114.531 214.5V214.516Z" fill="#FEFEFE"/>
<mask id="mask1_2009_362" style="mask-type:luminance" maskUnits="userSpaceOnUse" x="62" y="161" width="17" height="17">
<path d="M62.9658 161.624H78.3586V177.992H62.9658V161.624Z" fill="white"/>
</mask>
<g mask="url(#mask1_2009_362)">
<path d="M78.1991 165.061C78.1991 164.853 78.1032 164.677 77.9593 164.549C77.8315 164.422 77.6556 164.342 77.4958 164.31C77.1761 164.278 76.8245 164.438 76.5367 164.661C76.249 164.885 75.9933 165.221 75.6416 165.556C75.4658 165.716 75.274 165.892 75.0502 166.036C74.9383 166.116 74.8264 166.18 74.6986 166.244C74.5867 166.324 74.4748 166.372 74.3629 166.42C73.8834 166.627 73.4038 166.755 72.9563 166.867C72.4927 166.979 72.0612 167.043 71.6616 167.139C71.246 167.235 70.8783 167.347 70.5587 167.491C70.239 167.634 69.9513 167.826 69.6795 168.066C69.3918 168.306 69.1201 168.593 68.8483 168.913C68.5766 169.233 68.2889 169.585 68.0012 169.92C67.7294 170.256 67.4577 170.592 67.202 170.927C66.9462 171.263 66.7065 171.599 66.4987 171.95C66.2909 172.286 66.0991 172.653 65.9552 173.021C65.8113 173.389 65.7154 173.788 65.6675 174.188C65.6035 174.588 65.6195 175.003 65.6835 175.403C65.7154 175.611 65.7634 175.818 65.8433 176.01C65.9072 176.218 66.0032 176.41 66.115 176.618C66.131 176.65 66.131 176.681 66.0991 176.697C66.0831 176.697 66.0511 176.697 66.0351 176.681C65.7314 176.346 65.4917 175.946 65.3478 175.515C65.2039 175.099 65.124 174.636 65.124 174.188C65.124 173.74 65.172 173.277 65.2839 172.845C65.4117 172.398 65.5716 171.982 65.7794 171.583C66.179 170.767 66.7065 170.048 67.2499 169.329C67.8094 168.641 68.3209 167.906 69.0082 167.299C69.3598 167.011 69.7435 166.755 70.159 166.579C70.5906 166.404 71.0222 166.292 71.4697 166.212C72.3489 166.036 73.244 165.972 74.0752 165.668C74.4748 165.509 74.8584 165.301 75.1941 165.013C75.5457 164.741 75.8654 164.422 76.265 164.198C76.4728 164.086 76.6806 163.99 76.9204 163.942C77.1441 163.91 77.3839 163.91 77.6077 163.99C77.8315 164.07 78.0233 164.214 78.1511 164.422C78.295 164.613 78.3589 164.869 78.279 165.093C78.279 165.125 78.247 165.141 78.2311 165.125C78.1991 165.125 78.1831 165.109 78.1831 165.077L78.1991 165.061Z" fill="#FEFEFE"/>
</g>
<mask id="mask2_2009_362" style="mask-type:luminance" maskUnits="userSpaceOnUse" x="62" y="165" width="33" height="55">
<path d="M62.9658 165.716H94.7264V219.103H62.9658V165.716Z" fill="white"/>
</mask>
<g mask="url(#mask2_2009_362)">
<path d="M91.5291 219.55C87.6769 216.082 83.9526 212.501 80.1324 209.033C79.6529 208.601 79.1893 208.169 78.6938 207.738L77.9905 207.082L77.2552 206.443C76.7917 206.012 76.2962 205.596 75.8167 205.18L74.3461 203.918C73.3551 203.086 72.3801 202.223 71.405 201.312C70.462 200.401 69.5349 199.426 68.7197 198.323C68.3201 197.78 67.9365 197.204 67.6168 196.597C67.4569 196.293 67.3131 195.973 67.1532 195.67L66.9614 195.19C66.8975 195.03 66.8176 194.886 66.7696 194.711C66.2901 193.448 65.9544 192.137 65.7147 190.842C65.4749 189.532 65.2991 188.253 65.1073 186.974C65.0273 186.335 64.9154 185.712 64.8195 185.088C64.7716 184.769 64.7076 184.449 64.6437 184.145C64.5798 183.841 64.5158 183.522 64.4519 183.218C64.1802 181.987 63.7806 180.756 63.4929 179.478C63.1892 178.183 62.9654 176.856 63.0133 175.498C63.0453 174.762 63.2691 174.075 63.5728 173.468C63.8605 172.844 64.2601 172.285 64.6757 171.789C65.1073 171.278 65.5708 170.814 66.0503 170.367C66.5298 169.919 67.0254 169.504 67.5049 169.072C67.5369 169.056 67.5688 169.056 67.5848 169.088C67.6008 169.104 67.6008 169.136 67.5848 169.152C66.6577 170.063 65.7306 170.958 64.9634 171.997C64.5798 172.509 64.2281 173.052 63.9724 173.644C63.7166 174.219 63.5408 174.858 63.5408 175.498C63.5408 176.776 63.8125 178.055 64.1482 179.302C64.4839 180.549 64.8995 181.763 65.2191 183.026C65.8745 185.536 66.1302 188.125 66.6417 190.651C66.8975 191.913 67.2172 193.16 67.6807 194.359C68.1283 195.574 68.7676 196.693 69.5349 197.732C70.2861 198.771 71.1653 199.714 72.0923 200.609C73.0194 201.504 73.9945 202.351 74.9695 203.198C76.9196 204.909 78.8217 206.667 80.6918 208.457C84.4162 212.038 88.0126 215.762 91.609 219.47C91.625 219.502 91.625 219.534 91.5931 219.55C91.5771 219.566 91.5451 219.566 91.5291 219.55Z" fill="#FEFEFE"/>
</g>
<path d="M70.6229 179.224C70.4151 178.025 70.0315 176.97 69.7118 175.803C69.5679 175.227 69.4401 174.62 69.3761 173.981C69.3442 173.661 69.3282 173.325 69.3442 172.99C69.3601 172.654 69.4081 172.302 69.488 171.967C69.5679 171.631 69.6638 171.295 69.8237 170.96C69.9835 170.64 70.1753 170.32 70.4151 170.049C70.6549 169.761 70.9426 169.489 71.2303 169.313C71.518 169.106 71.8217 168.962 72.0934 168.834L72.8607 168.482C73.1164 168.37 73.3562 168.226 73.6119 168.083C74.1234 167.811 74.603 167.475 75.1464 167.171H75.1624C75.1944 167.155 75.2263 167.171 75.2423 167.187C75.2423 167.203 75.2423 167.235 75.2263 167.251C74.8267 167.683 74.4112 168.114 73.9636 168.498C73.7398 168.706 73.5001 168.882 73.2603 169.058C73.0045 169.217 72.7488 169.377 72.509 169.521C71.9975 169.825 71.502 170.16 71.1664 170.624C70.8147 171.088 70.5909 171.631 70.4631 172.19C70.3352 172.766 70.3032 173.341 70.3192 173.933C70.3512 174.524 70.4311 175.1 70.511 175.691C70.6069 176.266 70.7028 176.858 70.7508 177.449C70.7987 178.041 70.7987 178.648 70.7188 179.239C70.7188 179.255 70.6868 179.287 70.6549 179.271C70.6389 179.271 70.6229 179.255 70.6229 179.239V179.224Z" fill="#FEFEFE"/>
<path d="M67.0262 175.515C67.0901 174.668 67.218 173.868 67.3458 173.085C67.4897 172.302 67.6335 171.519 67.7774 170.752C67.8573 170.352 67.9373 169.936 68.0651 169.521C68.145 169.313 68.209 169.105 68.3209 168.897C68.3688 168.785 68.4168 168.69 68.4647 168.594C68.4967 168.53 68.5446 168.482 68.5766 168.418C68.6086 168.37 68.6565 168.322 68.6885 168.274C69.0082 167.89 69.3918 167.635 69.7914 167.427C70.191 167.251 70.6386 167.123 71.0702 167.171H71.0861C71.1021 167.187 71.1181 167.203 71.1181 167.219C71.1181 167.235 71.1021 167.251 71.0861 167.251C70.7025 167.331 70.3349 167.523 70.0152 167.746C69.6795 167.986 69.3918 168.258 69.168 168.594C69.0561 168.753 68.9762 168.929 68.9123 169.121C68.8324 169.313 68.7844 169.505 68.7205 169.697C68.6246 170.08 68.5606 170.48 68.4807 170.879C68.3209 171.679 68.1291 172.462 67.9053 173.245C67.7934 173.629 67.6655 174.028 67.5217 174.412C67.3938 174.796 67.2499 175.163 67.0901 175.547C67.0741 175.563 67.0581 175.563 67.0421 175.563C67.0262 175.547 67.0102 175.531 67.0262 175.531V175.515Z" fill="#FEFEFE"/>
<path d="M87.9341 155.551C87.966 155.471 88.0459 155.407 88.1259 155.391C88.2058 155.359 88.3017 155.359 88.3976 155.375C88.5894 155.439 88.7173 155.583 88.8292 155.711C88.9411 155.839 89.021 155.967 89.1329 156.03C89.2288 156.11 89.3087 156.11 89.3726 156.078C89.4206 156.046 89.4845 155.982 89.5325 155.871C89.5644 155.759 89.5964 155.631 89.5964 155.503C89.6124 155.215 89.5804 154.928 89.5165 154.672C89.4366 154.4 89.3247 154.176 89.1648 154C88.989 153.825 88.7972 153.697 88.6054 153.665C88.1898 153.585 87.6943 153.825 87.4066 154.192C87.1029 154.576 86.975 155.119 86.991 155.695C87.007 156.254 87.1189 156.846 87.3426 157.389C87.5664 157.933 87.9021 158.428 88.3496 158.828C88.7972 159.227 89.3566 159.547 89.996 159.691C89.3407 159.755 88.6533 159.579 88.0619 159.227C87.4705 158.892 86.975 158.348 86.6393 157.741C86.4635 157.437 86.3197 157.101 86.2237 156.766C86.1278 156.43 86.0639 156.094 86.0319 155.727C86.016 155.375 86.0319 155.007 86.1119 154.624C86.2078 154.256 86.3676 153.905 86.6074 153.569C86.8631 153.249 87.1828 153.009 87.5664 152.85C87.95 152.69 88.3816 152.626 88.8132 152.738C89.2448 152.85 89.5964 153.121 89.8362 153.441C90.0919 153.761 90.2358 154.144 90.2837 154.512C90.3477 154.88 90.3157 155.247 90.2518 155.583C90.2038 155.791 90.1399 155.967 90.044 156.142C89.98 156.238 89.9161 156.318 89.8202 156.398C89.7403 156.462 89.6124 156.526 89.4845 156.558C89.3566 156.574 89.2288 156.558 89.1169 156.51C89.005 156.462 88.9251 156.382 88.8611 156.318C88.7333 156.158 88.6533 155.998 88.5894 155.855C88.5255 155.727 88.4615 155.583 88.3337 155.519C88.2218 155.455 88.0459 155.423 87.9341 155.551Z" fill="#FEFEFE"/>
<mask id="mask3_2009_362" style="mask-type:luminance" maskUnits="userSpaceOnUse" x="62" y="132" width="29" height="34">
<path d="M62.9658 132.981H90.6345V165.717H62.9658V132.981Z" fill="white"/>
</mask>
<g mask="url(#mask3_2009_362)">
<path d="M89.5951 135.827C87.4852 135.235 85.3433 134.676 83.2174 134.484C82.1465 134.308 81.0915 134.228 80.0206 134.276C78.9656 134.308 77.8947 134.452 76.8717 134.692C76.3442 134.804 75.8327 134.963 75.3372 135.123C74.8417 135.299 74.3462 135.507 73.8667 135.747C73.4031 135.97 72.9396 136.226 72.508 136.53C72.0604 136.818 71.6449 137.137 71.2452 137.489C69.6468 138.864 68.416 140.67 67.6328 142.636C66.8336 144.602 66.482 146.744 66.4979 148.87C66.5459 151.012 66.9455 153.137 67.7127 155.135C68.48 157.118 69.6308 158.956 71.1334 160.458C72.54 162.057 74.3142 163.351 76.3602 164.183C74.2023 163.751 72.1404 162.664 70.4301 161.162C68.7997 159.563 67.5849 157.597 66.7697 155.503C65.9545 153.393 65.5389 151.139 65.5069 148.886C65.459 146.632 65.8426 144.362 66.6898 142.252C67.5369 140.142 68.8636 138.224 70.5899 136.722C71.0215 136.354 71.469 136.002 71.9486 135.683C72.4281 135.363 72.9236 135.091 73.4351 134.836C73.9466 134.58 74.4741 134.372 75.0015 134.18C75.545 133.988 76.0885 133.829 76.6319 133.701C78.8377 133.189 81.1395 133.125 83.3773 133.477C85.5831 133.988 87.629 134.852 89.5951 135.827Z" fill="#FEFEFE"/>
</g>
<path d="M98.0833 143.115C98.1952 143.243 98.3071 143.386 98.419 143.546C98.4829 143.626 98.5309 143.706 98.5788 143.786C98.6268 143.882 98.6588 143.978 98.6747 144.09C98.6907 144.202 98.6907 144.298 98.7067 144.377C98.7067 144.457 98.7227 144.537 98.7387 144.617C98.7866 144.777 98.8186 144.953 98.8825 145.113C98.9305 145.273 98.9784 145.464 99.0264 145.64C99.0744 145.816 99.1223 146.008 99.1543 146.2C99.2182 146.567 99.2502 146.935 99.2502 147.319C99.2502 148.07 99.1063 148.837 98.8186 149.54C98.7547 149.716 98.6747 149.892 98.5629 150.068C98.451 150.228 98.3231 150.388 98.1792 150.515C97.8915 150.787 97.5239 150.979 97.1562 150.995C97.4919 150.819 97.7317 150.579 97.9235 150.292C98.0034 150.148 98.0833 150.004 98.1473 149.844C98.2112 149.7 98.2432 149.54 98.2911 149.365C98.451 148.693 98.5309 148.006 98.5309 147.319C98.5309 146.983 98.4989 146.631 98.467 146.28C98.451 146.12 98.435 145.944 98.403 145.768L98.3231 145.241C98.2911 145.049 98.2751 144.857 98.2751 144.665C98.2751 144.569 98.2751 144.473 98.2911 144.362C98.3071 144.266 98.3231 144.17 98.3231 144.106C98.3551 143.978 98.2911 143.802 98.2432 143.626L98.0833 143.115Z" fill="#FEFEFE"/>
<path d="M98.6906 148.63C99.1222 149.365 99.7616 149.94 100.513 150.26C100.705 150.34 100.896 150.404 101.088 150.436C101.28 150.484 101.488 150.516 101.712 150.564C101.935 150.612 102.159 150.66 102.383 150.787C102.591 150.899 102.799 151.059 102.958 151.283C103.038 151.395 103.102 151.523 103.134 151.667C103.166 151.81 103.166 151.954 103.134 152.098C103.086 152.37 102.974 152.578 102.894 152.769C102.815 152.945 102.767 153.105 102.783 153.233C102.783 153.377 102.831 153.537 102.91 153.712C102.99 153.872 103.102 154.048 103.214 154.24C103.326 154.448 103.422 154.656 103.502 154.879C103.662 155.311 103.758 155.774 103.742 156.254C103.726 156.494 103.694 156.749 103.614 156.973C103.55 157.213 103.438 157.437 103.342 157.629C103.23 157.804 103.15 157.98 103.102 158.14C103.054 158.284 103.07 158.428 103.102 158.604C103.118 158.795 103.182 158.987 103.246 159.195C103.278 159.307 103.294 159.419 103.326 159.547C103.326 159.675 103.342 159.786 103.342 159.914C103.358 160.394 103.198 160.873 102.958 161.273C102.735 161.673 102.415 162.024 102.047 162.296C101.68 162.568 101.28 162.76 100.864 162.903C100.017 163.159 99.1382 163.207 98.291 163.175C99.1382 163.047 99.9694 162.903 100.737 162.568C101.104 162.408 101.456 162.2 101.76 161.928C102.047 161.657 102.303 161.353 102.463 161.001C102.559 160.841 102.623 160.65 102.655 160.474C102.703 160.298 102.719 160.106 102.703 159.93C102.703 159.739 102.671 159.579 102.607 159.387C102.543 159.179 102.479 158.971 102.431 158.732C102.399 158.62 102.383 158.492 102.383 158.364C102.383 158.22 102.399 158.076 102.431 157.948C102.495 157.693 102.607 157.485 102.703 157.293C102.815 157.101 102.878 156.941 102.926 156.765C102.974 156.59 103.006 156.414 103.022 156.222C103.038 155.854 102.974 155.471 102.847 155.119C102.783 154.927 102.703 154.751 102.607 154.576C102.511 154.4 102.399 154.208 102.303 154C102.207 153.776 102.111 153.521 102.111 153.233C102.111 153.105 102.143 152.961 102.191 152.833C102.223 152.705 102.271 152.594 102.319 152.498C102.431 152.29 102.511 152.13 102.543 151.986C102.575 151.842 102.575 151.714 102.495 151.587C102.415 151.443 102.287 151.331 102.127 151.235C101.983 151.139 101.792 151.075 101.6 151.011C101.408 150.963 101.184 150.915 100.976 150.835C100.769 150.771 100.561 150.675 100.369 150.564C99.5857 150.132 98.9624 149.429 98.6906 148.614V148.63Z" fill="#FEFEFE"/>
<path d="M99.3955 151.187C100.067 151.379 100.658 151.746 101.218 152.162C101.761 152.593 102.257 153.105 102.64 153.696C103.04 154.272 103.328 154.943 103.408 155.662C103.44 156.03 103.424 156.382 103.344 156.733C103.248 157.069 103.12 157.405 102.912 157.676C103.088 157.021 103.12 156.366 102.96 155.742C102.816 155.119 102.528 154.543 102.161 154.016C101.809 153.473 101.378 152.977 100.914 152.497C100.45 152.034 99.939 151.602 99.3955 151.187Z" fill="#FEFEFE"/>
<path d="M78.6465 171.311C78.9502 169.456 79.8133 167.714 81.0441 166.26C81.6675 165.54 82.3868 164.901 83.186 164.358C83.9692 163.83 84.8484 163.414 85.7754 163.111C87.6136 162.503 89.6116 162.439 91.4978 162.855C92.4568 163.063 93.3679 163.398 94.2311 163.862C95.0942 164.31 95.8934 164.885 96.6127 165.54C98.0193 166.867 99.1063 168.497 99.9534 170.192C100.369 171.039 100.737 171.918 101.056 172.797C101.216 173.245 101.376 173.692 101.52 174.124C101.664 174.555 101.824 174.987 101.999 175.387C102.367 176.202 102.879 176.905 103.614 177.321C103.997 177.544 104.413 177.736 104.845 177.96C105.052 178.072 105.276 178.184 105.468 178.344C105.676 178.488 105.868 178.647 106.027 178.839C106.363 179.191 106.619 179.622 106.827 180.07C107.018 180.502 107.146 180.965 107.226 181.445C107.386 182.372 107.354 183.315 107.322 184.242C107.242 183.315 107.178 182.388 106.954 181.493C106.731 180.613 106.315 179.782 105.676 179.175C105.372 178.871 105.004 178.663 104.589 178.472C104.173 178.296 103.742 178.136 103.294 177.912C102.847 177.688 102.431 177.353 102.111 176.969C101.776 176.585 101.52 176.17 101.296 175.722C100.849 174.859 100.561 173.964 100.225 173.117C99.8895 172.27 99.5218 171.423 99.0903 170.623C98.2591 169.009 97.2361 167.49 95.9254 166.276C95.27 165.668 94.5508 165.141 93.7675 164.725C93.0003 164.294 92.1531 163.99 91.29 163.782C90.4268 163.574 89.5317 163.462 88.6366 163.478C87.7575 163.494 86.8624 163.622 85.9992 163.862C84.2729 164.342 82.6745 165.285 81.4118 166.595C80.133 167.89 79.158 169.52 78.6465 171.311Z" fill="#FEFEFE"/>
<path d="M114.467 178.072C114.962 178.024 115.458 178.232 115.841 178.568C116.225 178.888 116.497 179.335 116.657 179.815C116.801 180.31 116.848 180.822 116.848 181.317C116.848 181.813 116.817 182.308 116.769 182.788C116.657 183.779 116.481 184.754 116.209 185.713C115.937 186.672 115.554 187.599 115.058 188.478C114.563 189.357 113.971 190.172 113.236 190.892C112.501 191.611 111.654 192.202 110.727 192.65C109.799 193.098 108.808 193.353 107.801 193.497C106.778 193.625 105.755 193.625 104.748 193.497C102.734 193.225 100.832 192.474 99.106 191.499C98.2429 190.988 97.4117 190.444 96.6285 189.837C95.8453 189.229 95.11 188.558 94.4227 187.823C93.7513 187.087 93.1279 186.304 92.6005 185.473C92.073 184.626 91.6094 183.747 91.2578 182.804C90.5705 180.95 90.2668 178.952 90.5225 177.001C90.4906 178.968 90.9221 180.886 91.7213 182.628C92.5046 184.37 93.6394 185.937 94.9981 187.279C96.3568 188.606 97.9072 189.757 99.5696 190.668C101.232 191.579 103.022 192.266 104.892 192.506C105.803 192.618 106.746 192.634 107.674 192.522C108.585 192.41 109.496 192.154 110.327 191.787C111.174 191.403 111.941 190.892 112.629 190.252C113.3 189.613 113.891 188.878 114.387 188.079C114.882 187.279 115.266 186.416 115.586 185.505C115.889 184.61 116.113 183.667 116.273 182.724C116.433 181.781 116.593 180.806 116.385 179.895C116.289 179.431 116.065 179.015 115.746 178.664C115.41 178.328 114.962 178.088 114.467 178.072Z" fill="#FEFEFE"/>
<path d="M83.7295 194.856C85.4078 195.031 87.0382 194.871 88.6686 194.584C90.283 194.312 91.8974 193.912 93.5758 193.625C93.9913 193.545 94.4069 193.481 94.8385 193.433C95.2541 193.385 95.6857 193.337 96.1013 193.321C96.5328 193.289 96.9644 193.289 97.396 193.289C97.8275 193.305 98.2591 193.353 98.6907 193.401C99.1223 193.465 99.5379 193.545 99.9535 193.657C100.369 193.769 100.785 193.912 101.184 194.072C101.568 194.248 101.951 194.456 102.319 194.68C102.671 194.919 103.006 195.191 103.31 195.479C101.856 194.632 100.225 194.264 98.6108 194.184C96.9964 194.104 95.366 194.328 93.7356 194.616C92.1052 194.887 90.4588 195.239 88.7645 195.367C87.9174 195.431 87.0542 195.447 86.207 195.383C85.3599 195.303 84.5127 195.159 83.7295 194.856Z" fill="#FEFEFE"/>
<path d="M93.1279 198.148C94.2628 197.317 95.5256 196.646 96.9002 196.214C98.2589 195.799 99.7614 195.623 101.232 195.879C101.408 195.926 101.584 195.958 101.759 196.006C101.951 196.054 102.127 196.102 102.303 196.166C102.639 196.278 102.974 196.406 103.31 196.55C103.949 196.822 104.573 197.125 105.196 197.381C105.819 197.637 106.459 197.845 107.114 197.924C107.785 198.02 108.457 197.988 109.128 197.749C108.569 198.18 107.833 198.388 107.098 198.42C106.363 198.452 105.628 198.324 104.94 198.132C103.566 197.733 102.319 197.093 101.04 196.87C99.7614 196.646 98.4187 196.726 97.092 196.981C95.7653 197.237 94.4546 197.685 93.1279 198.148Z" fill="#FEFEFE"/>
<path d="M107.69 196.15C107.85 196.182 108.01 196.23 108.17 196.23C108.33 196.262 108.49 196.262 108.649 196.278C108.985 196.278 109.305 196.262 109.625 196.23C110.264 196.182 110.919 196.07 111.623 196.07C111.958 196.07 112.326 196.086 112.693 196.166L112.949 196.23C113.045 196.262 113.141 196.294 113.221 196.326C113.317 196.358 113.397 196.39 113.477 196.437C113.573 196.469 113.653 196.517 113.732 196.565C114.404 196.949 114.915 197.556 115.219 198.228C115.379 198.563 115.507 198.899 115.571 199.267C115.651 199.618 115.699 199.986 115.699 200.354C115.683 200.705 115.651 201.073 115.571 201.425C115.475 201.76 115.379 202.112 115.235 202.432C114.963 203.071 114.596 203.646 114.18 204.19C113.764 204.717 113.301 205.197 112.789 205.644C113.461 204.493 114.148 203.359 114.484 202.16C114.58 201.856 114.644 201.552 114.692 201.249C114.739 200.945 114.755 200.657 114.739 200.37C114.723 200.066 114.676 199.778 114.612 199.49C114.58 199.347 114.532 199.203 114.484 199.059C114.436 198.931 114.388 198.787 114.324 198.659C114.196 198.404 114.036 198.148 113.86 197.94C113.685 197.716 113.477 197.524 113.237 197.381C112.773 197.077 112.198 196.917 111.575 196.853C110.951 196.789 110.296 196.789 109.625 196.725C109.289 196.693 108.937 196.645 108.618 196.549C108.282 196.469 107.962 196.326 107.69 196.15Z" fill="#FEFEFE"/>
<path d="M113.028 194.36C113.476 194.264 113.923 194.184 114.387 194.152C114.835 194.12 115.298 194.12 115.762 194.152C116.225 194.2 116.689 194.264 117.136 194.392C117.248 194.424 117.36 194.456 117.472 194.488C117.584 194.52 117.696 194.567 117.808 194.599C117.919 194.647 118.031 194.695 118.143 194.743L118.463 194.887C118.895 195.111 119.31 195.367 119.678 195.67C120.045 195.99 120.381 196.358 120.669 196.741C120.94 197.141 121.18 197.573 121.356 198.036C121.532 198.484 121.66 198.947 121.756 199.427C121.82 199.906 121.852 200.386 121.852 200.865C121.82 201.345 121.772 201.824 121.66 202.288C121.548 202.767 121.388 203.215 121.196 203.647C121.004 204.078 120.765 204.494 120.509 204.877C119.438 206.444 117.888 207.595 116.209 208.266C117.696 207.227 118.974 205.964 119.838 204.462C120.045 204.094 120.221 203.71 120.381 203.311C120.525 202.911 120.637 202.512 120.733 202.096C120.797 201.68 120.845 201.265 120.845 200.849C120.861 200.418 120.829 200.002 120.765 199.587C120.685 199.187 120.573 198.771 120.429 198.388C120.285 198.004 120.093 197.636 119.87 197.285C119.646 196.933 119.374 196.629 119.086 196.342L118.847 196.134C118.783 196.054 118.687 196.006 118.607 195.942L118.479 195.83L118.351 195.75C118.271 195.686 118.175 195.622 118.095 195.575C117.36 195.143 116.545 194.823 115.682 194.631C115.25 194.536 114.819 194.472 114.371 194.424C113.939 194.392 113.492 194.376 113.028 194.36Z" fill="#FEFEFE"/>
<path d="M100.866 173.26C101.106 173.276 101.329 173.212 101.537 173.132C101.745 173.037 101.937 172.925 102.113 172.781C102.464 172.509 102.784 172.157 103.215 171.838C103.423 171.694 103.663 171.55 103.935 171.454C104.19 171.358 104.462 171.31 104.734 171.294C105.277 171.262 105.805 171.358 106.284 171.486C106.54 171.534 106.764 171.598 106.988 171.662C107.227 171.726 107.435 171.79 107.659 171.838C108.075 171.934 108.554 171.95 109.098 172.109C109.369 172.189 109.657 172.317 109.929 172.525C110.201 172.717 110.408 172.989 110.568 173.26C110.872 173.82 110.936 174.459 110.872 175.035C110.792 175.594 110.632 176.09 110.424 176.585C110.201 177.065 109.913 177.528 109.545 177.944C109.369 178.136 109.162 178.327 108.954 178.487C108.89 178.535 108.842 178.583 108.778 178.615C108.73 178.663 108.65 178.695 108.586 178.743C108.458 178.807 108.33 178.887 108.187 178.935C107.915 179.047 107.627 179.111 107.339 179.127C107.052 179.143 106.78 179.127 106.508 179.095C106.236 179.047 105.981 178.983 105.741 178.903C105.677 178.887 105.613 178.855 105.549 178.839L105.405 178.775L105.07 178.679C104.942 178.631 104.814 178.583 104.67 178.519C104.526 178.455 104.382 178.343 104.254 178.215C104.19 178.136 104.142 178.072 104.111 177.992C104.095 177.944 104.063 177.912 104.047 177.864L104.015 177.752C103.999 177.688 103.983 177.608 103.967 177.544C103.967 177.464 103.951 177.4 103.951 177.32C103.935 177.049 103.983 176.777 104.047 176.537C104.111 176.281 104.174 176.058 104.254 175.834C104.334 175.61 104.398 175.386 104.446 175.162C104.494 174.939 104.526 174.715 104.494 174.475C104.494 174.443 104.494 174.427 104.526 174.427C104.542 174.427 104.558 174.443 104.558 174.459C104.686 174.923 104.606 175.418 104.494 175.882C104.446 176.122 104.398 176.345 104.35 176.585C104.318 176.825 104.302 177.049 104.318 177.288C104.318 177.336 104.35 177.4 104.35 177.448C104.366 177.512 104.382 177.576 104.398 177.624C104.43 177.736 104.494 177.832 104.574 177.912C104.734 178.072 104.958 178.151 105.181 178.199L105.533 178.295L105.869 178.391C106.109 178.455 106.332 178.503 106.572 178.535C107.036 178.583 107.515 178.551 107.947 178.359C108.155 178.263 108.346 178.136 108.538 177.992C108.714 177.848 108.89 177.672 109.034 177.496C109.337 177.144 109.593 176.729 109.785 176.297C109.961 175.866 110.105 175.418 110.153 174.955C110.216 174.491 110.153 174.012 109.945 173.596C109.833 173.388 109.689 173.212 109.513 173.069C109.321 172.925 109.114 172.829 108.89 172.765C108.442 172.621 107.963 172.573 107.499 172.445C107.036 172.333 106.588 172.157 106.125 172.03C105.677 171.886 105.213 171.79 104.734 171.79C104.51 171.79 104.27 171.822 104.047 171.886C103.823 171.934 103.615 172.046 103.407 172.173C103.008 172.413 102.656 172.733 102.24 172.989C102.033 173.116 101.809 173.228 101.585 173.292C101.345 173.356 101.106 173.372 100.85 173.324C100.834 173.324 100.818 173.308 100.834 173.292C100.834 173.276 100.85 173.26 100.866 173.26Z" fill="#FEFEFE"/>
<path d="M106.347 173.9C106.667 174.236 106.858 174.651 106.97 175.083C107.082 175.498 107.114 175.946 107.066 176.378C107.034 176.825 106.922 177.257 106.731 177.656C106.539 178.04 106.283 178.424 105.915 178.695H105.899C105.899 178.711 105.867 178.711 105.867 178.695C105.867 178.679 105.851 178.679 105.867 178.663C106.043 178.296 106.171 177.912 106.283 177.528C106.395 177.129 106.459 176.729 106.491 176.33C106.539 175.93 106.539 175.53 106.507 175.115C106.475 174.715 106.395 174.316 106.299 173.916C106.299 173.9 106.299 173.884 106.315 173.884C106.331 173.884 106.331 173.884 106.347 173.9Z" fill="#FEFEFE"/>
<path d="M108.154 173.932C108.49 174.204 108.713 174.571 108.857 174.955C109.001 175.339 109.081 175.77 109.065 176.186C109.065 176.601 108.969 177.017 108.809 177.401C108.634 177.768 108.394 178.136 108.042 178.392C108.026 178.408 108.01 178.408 107.994 178.392C107.994 178.376 107.994 178.376 107.994 178.36C108.154 178.024 108.266 177.656 108.362 177.289C108.442 176.921 108.49 176.537 108.49 176.17C108.506 175.786 108.474 175.419 108.41 175.035C108.346 174.667 108.234 174.3 108.09 173.948C108.09 173.932 108.09 173.916 108.106 173.916C108.122 173.916 108.122 173.916 108.138 173.916L108.154 173.932Z" fill="#FEFEFE"/>
<path d="M109.048 177.577C109.287 177.225 109.639 177.017 110.007 176.905C110.374 176.778 110.774 176.746 111.141 176.81C111.525 176.858 111.909 177.001 112.228 177.225C112.532 177.433 112.82 177.737 112.948 178.136L112.964 178.152C112.964 178.168 112.964 178.2 112.948 178.2C112.932 178.2 112.916 178.2 112.916 178.2L112.692 178.072L112.244 177.849L112.021 177.753C111.701 177.641 111.381 177.561 111.046 177.513C110.726 177.465 110.39 177.449 110.055 177.481L109.799 177.497L109.559 177.529L109.303 177.577L109.063 177.641C109.048 177.641 109.032 177.641 109.032 177.625C109.016 177.609 109.032 177.593 109.032 177.593L109.048 177.577Z" fill="#FEFEFE"/>
<path d="M110.215 174.956C110.519 174.396 110.839 173.917 111.254 173.453C111.67 173.006 112.229 172.59 112.901 172.382C113.236 172.286 113.604 172.238 113.971 172.27C114.083 172.286 114.211 172.302 114.323 172.35C114.451 172.382 114.579 172.446 114.723 172.574C114.803 172.638 114.867 172.718 114.915 172.83C114.978 172.926 114.994 173.038 115.01 173.149C115.01 173.261 114.994 173.373 114.963 173.469C114.915 173.565 114.883 173.629 114.835 173.693C114.739 173.821 114.643 173.885 114.547 173.933C114.467 173.997 114.387 174.029 114.323 174.061C114.179 174.109 114.035 174.156 113.892 174.22C113.604 174.3 113.332 174.396 113.012 174.46H112.996C112.964 174.46 112.949 174.444 112.949 174.428C112.949 174.412 112.949 174.396 112.964 174.396L113.684 173.885L114.035 173.645C114.163 173.565 114.275 173.485 114.355 173.373C114.419 173.277 114.419 173.134 114.323 173.07C114.227 172.99 114.083 172.958 113.94 172.958C113.668 172.942 113.38 172.99 113.108 173.07C112.565 173.245 112.069 173.549 111.622 173.917C111.382 174.093 111.158 174.284 110.95 174.46C110.711 174.652 110.487 174.828 110.247 175.004C110.231 175.02 110.215 175.02 110.199 175.004C110.199 174.988 110.199 174.972 110.199 174.956H110.215Z" fill="#FEFEFE"/>
<path d="M114.467 173.133C114.834 172.701 115.394 172.461 115.969 172.413C116.273 172.381 116.56 172.397 116.848 172.461C116.928 172.477 116.992 172.493 117.072 172.525C117.136 172.541 117.216 172.557 117.28 172.589C117.36 172.621 117.424 172.653 117.488 172.685C117.551 172.701 117.647 172.765 117.759 172.829C117.855 172.909 117.967 173.005 118.063 173.213C118.111 173.309 118.159 173.452 118.143 173.596C118.143 173.74 118.111 173.868 118.047 173.98C117.967 174.108 117.887 174.188 117.807 174.236C117.743 174.3 117.679 174.332 117.615 174.348C117.567 174.38 117.52 174.395 117.472 174.411C117.424 174.427 117.408 174.427 117.376 174.427C117.136 174.491 116.88 174.555 116.64 174.587C116.129 174.667 115.617 174.715 115.058 174.651H115.042C115.026 174.651 115.01 174.635 115.01 174.603C115.01 174.603 115.026 174.587 115.042 174.587L115.745 174.316L117.152 173.788C117.264 173.756 117.392 173.708 117.424 173.628C117.44 173.596 117.44 173.564 117.424 173.516C117.408 173.484 117.36 173.436 117.328 173.404C117.28 173.373 117.232 173.341 117.168 173.325C117.12 173.293 117.056 173.261 117.008 173.245C116.896 173.197 116.784 173.149 116.656 173.117C116.433 173.037 116.177 173.005 115.937 172.973C115.697 172.957 115.442 172.973 115.202 173.005C114.962 173.037 114.722 173.101 114.483 173.197C114.467 173.197 114.451 173.197 114.435 173.181C114.435 173.165 114.435 173.149 114.451 173.133H114.467Z" fill="#FEFEFE"/>
<path d="M117.552 173.565C117.632 173.517 117.728 173.485 117.839 173.469C117.935 173.437 118.031 173.437 118.143 173.453C118.351 173.469 118.591 173.549 118.783 173.757C118.878 173.852 118.958 173.98 119.006 174.108C119.07 174.236 119.086 174.38 119.086 174.556C119.086 174.716 119.038 174.891 118.958 175.051C118.862 175.211 118.735 175.339 118.591 175.435C118.319 175.611 118.095 175.627 117.919 175.643C117.76 175.659 117.6 175.659 117.44 175.643C117.104 175.627 116.769 175.563 116.401 175.371L116.385 175.355C116.369 175.355 116.353 175.339 116.369 175.323C116.369 175.307 116.385 175.307 116.385 175.307L116.848 175.195L117.776 174.987C117.935 174.955 118.079 174.907 118.207 174.828C118.319 174.764 118.399 174.636 118.415 174.492C118.431 174.348 118.383 174.204 118.303 174.076C118.223 173.964 118.095 173.868 117.967 173.789C117.839 173.725 117.68 173.677 117.536 173.645C117.52 173.629 117.504 173.613 117.504 173.597L117.52 173.581L117.552 173.565Z" fill="#FEFEFE"/>
<path d="M118.319 174.748C118.847 174.62 119.438 174.78 119.918 175.099C120.158 175.259 120.381 175.467 120.557 175.707C120.749 175.963 120.861 176.234 120.957 176.522C121.053 176.81 121.101 177.113 121.117 177.401C121.133 177.705 121.101 178.009 121.037 178.296C121.005 178.44 120.973 178.584 120.925 178.728C120.877 178.872 120.829 179 120.765 179.143C120.685 179.287 120.605 179.431 120.493 179.591C120.381 179.735 120.238 179.879 120.046 179.991C119.95 180.055 119.854 180.102 119.71 180.15C119.598 180.182 119.47 180.198 119.342 180.198C119.103 180.182 118.863 180.134 118.639 179.991C118.527 179.911 118.415 179.815 118.335 179.687C118.24 179.559 118.176 179.399 118.16 179.239C118.128 179.095 118.144 178.968 118.16 178.856C118.176 178.76 118.208 178.68 118.224 178.632C118.24 178.568 118.24 178.536 118.256 178.504C118.256 178.472 118.272 178.424 118.272 178.392C118.272 178.312 118.272 178.232 118.272 178.152C118.256 178.072 118.224 177.993 118.208 177.929C118.192 177.881 118.176 177.849 118.144 177.817C118.128 177.785 118.112 177.737 118.096 177.721C118.096 177.705 118.08 177.705 118.128 177.705C118.16 177.721 118.256 177.721 118.319 177.689C118.367 177.641 118.383 177.609 118.367 177.625C118.351 177.641 118.319 177.673 118.303 177.721L118.208 177.897C118.16 177.961 118.128 178.025 118.08 178.088C118 178.2 117.904 178.312 117.808 178.424C117.392 178.84 116.881 179.111 116.337 179.159C116.321 179.159 116.305 179.143 116.305 179.127C116.289 179.111 116.305 179.095 116.321 179.079C116.785 178.92 117.201 178.6 117.488 178.2C117.648 177.993 117.76 177.769 117.84 177.529C117.888 177.417 117.936 177.273 118.096 177.193C118.16 177.161 118.24 177.161 118.319 177.193C118.383 177.225 118.447 177.257 118.495 177.305C118.863 177.689 119.023 178.264 118.879 178.776C118.847 178.904 118.831 179.016 118.847 179.127C118.863 179.239 118.927 179.319 119.023 179.383C119.215 179.511 119.47 179.511 119.662 179.383C119.87 179.255 120.014 179.048 120.126 178.84C120.222 178.616 120.317 178.376 120.381 178.136C120.493 177.641 120.509 177.129 120.397 176.65C120.349 176.41 120.254 176.17 120.142 175.963C120.014 175.739 119.854 175.547 119.662 175.387C119.294 175.051 118.815 174.828 118.319 174.828C118.303 174.828 118.287 174.796 118.287 174.78C118.287 174.764 118.303 174.748 118.319 174.748Z" fill="#FEFEFE"/>
<path d="M80.9957 124.094C80.4203 124.094 79.8768 124.253 79.4293 124.525C78.9657 124.781 78.5821 125.165 78.3264 125.612C77.7989 126.491 77.7669 127.626 78.1346 128.553C78.5182 129.512 79.3014 130.295 80.2445 130.743C81.2035 131.207 82.3224 131.35 83.4573 131.239C82.3864 131.638 81.1556 131.67 80.0367 131.27C78.9018 130.855 77.9268 129.976 77.4632 128.825C77.2394 128.249 77.1595 127.626 77.2235 127.003C77.2874 126.395 77.4952 125.804 77.8468 125.292C78.2145 124.797 78.726 124.429 79.2694 124.205C79.8289 123.998 80.4363 123.934 80.9957 124.094Z" fill="#FEFEFE"/>
<path d="M82.7065 130.599C82.163 130.344 81.7474 129.864 81.4597 129.337C81.156 128.809 80.9802 128.218 80.9003 127.61C80.8203 127.019 80.8683 126.396 81.0281 125.804C81.188 125.229 81.4757 124.685 81.8913 124.254C81.7315 124.829 81.6355 125.373 81.5876 125.916C81.5396 126.459 81.5556 126.987 81.6196 127.53C81.6835 128.058 81.7954 128.585 81.9712 129.097C82.147 129.624 82.3708 130.12 82.7065 130.599Z" fill="#FEFEFE"/>
<path d="M103.549 129.113C102.942 129.992 102.015 130.615 101.056 131.127C100.112 131.638 99.1055 132.054 98.2103 132.661C96.8037 133.588 95.7008 134.915 94.6299 136.226C94.9016 136.513 95.3652 136.545 95.7328 136.417C96.1164 136.29 96.4201 136.018 96.7078 135.746C97.7468 134.723 98.594 133.508 99.7288 132.597C100.416 132.054 101.199 131.622 101.903 131.111C102.622 130.583 103.261 129.928 103.549 129.097V129.113Z" fill="#FEFEFE"/>
<path d="M103.95 133.173C104.222 134.468 103.966 135.858 103.263 136.993C102.991 137.425 102.64 137.84 102.16 138.032C101.696 138.224 101.137 138.176 100.673 137.936C100.226 137.712 99.8583 137.313 99.6025 136.865C99.8103 137.584 100.258 138.256 100.817 138.671C100.833 138.991 100.785 139.311 100.673 139.63C100.785 139.359 100.897 139.087 101.025 138.831C101.089 139.231 101.137 139.63 101.153 140.03C101.153 139.662 101.217 139.279 101.313 138.911C101.441 139.519 101.521 140.142 101.585 140.781C101.617 140.158 101.664 139.535 101.744 138.879C101.808 138.847 101.888 138.879 101.936 138.927C102 138.975 102.032 139.039 102.064 139.103C102.24 139.487 102.416 139.854 102.608 140.222C102.496 139.742 102.384 139.263 102.272 138.767C102.672 139.039 102.943 139.439 103.231 139.822C103.023 139.487 102.879 139.103 102.783 138.719C102.767 138.639 102.751 138.544 102.815 138.48C102.863 138.416 102.943 138.4 103.023 138.432C103.103 138.448 103.167 138.512 103.215 138.56C103.535 138.847 103.838 139.135 104.142 139.407C103.87 139.087 103.599 138.767 103.327 138.448C103.215 138.32 103.103 138.128 103.215 138C103.311 137.888 103.487 137.92 103.615 137.968C103.966 138.08 104.302 138.256 104.622 138.464C104.334 138.208 104.062 137.936 103.79 137.68C103.742 137.632 103.679 137.569 103.663 137.505C103.647 137.393 103.726 137.265 103.838 137.233C103.95 137.185 104.062 137.201 104.174 137.233C104.478 137.281 104.765 137.393 105.021 137.553C104.749 137.345 104.494 137.121 104.222 136.913C104.174 136.881 104.142 136.849 104.126 136.801C104.078 136.673 104.206 136.562 104.318 136.514C104.558 136.402 104.829 136.386 105.085 136.466C104.813 136.386 104.51 136.29 104.382 136.05C104.302 135.874 104.334 135.666 104.35 135.475C104.414 134.739 104.254 133.988 103.95 133.189V133.173Z" fill="#FEFEFE"/>
<path d="M103.838 147.99C103.79 148.246 103.902 148.454 104.062 148.613C104.205 148.757 104.413 148.885 104.621 148.981C104.829 149.077 105.021 149.157 105.212 149.141C105.404 149.125 105.58 149.045 105.756 148.917C105.916 148.789 106.06 148.613 106.203 148.438C106.347 148.246 106.475 148.054 106.587 147.862C106.827 147.463 107.003 147.015 107.163 146.552H107.179C107.195 147.047 107.083 147.543 106.891 148.006C106.795 148.246 106.683 148.47 106.539 148.677C106.395 148.885 106.235 149.093 106.012 149.253C105.804 149.429 105.516 149.557 105.228 149.541C104.925 149.541 104.653 149.429 104.445 149.269C104.349 149.205 104.237 149.125 104.142 149.029C104.062 148.949 103.966 148.853 103.886 148.741C103.742 148.518 103.694 148.214 103.838 147.99Z" fill="#FEFEFE"/>
<path d="M278.627 220.768C273.128 220.768 268.937 219.327 266.057 216.447C263.176 213.566 261.736 209.31 261.736 203.68V96.6342C261.736 90.8727 263.176 86.4861 266.057 83.4745C268.937 80.3318 272.735 78.7605 277.449 78.7605C281.639 78.7605 284.912 79.5462 287.269 81.1175C289.626 82.6888 292.245 85.3077 295.126 88.9741L357.389 166.754H351.889V95.6521C351.889 90.1525 353.264 85.9624 356.014 83.0816C358.895 80.2009 363.085 78.7605 368.585 78.7605C374.084 78.7605 378.209 80.2009 380.959 83.0816C383.839 85.9624 385.28 90.1525 385.28 95.6521V204.465C385.28 209.441 383.97 213.435 381.352 216.447C378.733 219.327 375.197 220.768 370.745 220.768C366.293 220.768 362.758 219.982 360.139 218.411C357.651 216.709 354.967 214.09 352.086 210.554L289.823 132.578H295.322V203.68C295.322 209.31 293.882 213.566 291.001 216.447C288.251 219.327 284.127 220.768 278.627 220.768ZM460.862 221.161C449.077 221.161 438.864 219.131 430.222 215.072C421.71 210.882 415.163 204.989 410.58 197.394C405.997 189.8 403.706 180.83 403.706 170.486C403.706 160.534 405.866 151.826 410.188 144.363C414.64 136.768 420.663 130.876 428.258 126.686C435.983 122.364 444.756 120.204 454.577 120.204C461.779 120.204 468.326 121.382 474.218 123.739C480.111 125.965 485.152 129.304 489.342 133.756C493.532 138.078 496.675 143.315 498.77 149.47C500.996 155.624 502.109 162.498 502.109 170.093C502.109 172.712 501.389 174.676 499.949 175.985C498.508 177.164 496.217 177.753 493.074 177.753H432.972V161.254H476.575L473.433 163.808C473.433 158.963 472.778 155.035 471.469 152.023C470.159 149.011 468.195 146.72 465.576 145.148C463.088 143.577 459.946 142.791 456.148 142.791C452.089 142.791 448.554 143.774 445.542 145.738C442.661 147.571 440.435 150.321 438.864 153.987C437.293 157.653 436.507 162.236 436.507 167.736V169.504C436.507 178.801 438.537 185.479 442.596 189.538C446.786 193.466 453.202 195.43 461.844 195.43C464.725 195.43 467.999 195.103 471.665 194.448C475.462 193.663 479.063 192.615 482.468 191.306C485.872 189.996 488.819 189.8 491.306 190.716C493.794 191.502 495.693 192.942 497.002 195.038C498.443 197.002 499.228 199.293 499.359 201.912C499.49 204.4 498.901 206.888 497.592 209.376C496.282 211.733 494.122 213.566 491.11 214.875C486.527 216.97 481.617 218.542 476.379 219.589C471.272 220.637 466.1 221.161 460.862 221.161ZM566.079 221.161C555.341 221.161 545.979 219.131 537.992 215.072C530.004 211.013 523.784 205.186 519.332 197.591C514.88 189.996 512.654 181.027 512.654 170.682C512.654 162.826 513.898 155.82 516.386 149.666C518.874 143.381 522.475 138.078 527.189 133.756C531.903 129.304 537.533 125.965 544.08 123.739C550.627 121.382 557.96 120.204 566.079 120.204C576.816 120.204 586.178 122.233 594.166 126.293C602.153 130.352 608.308 136.179 612.629 143.774C617.081 151.237 619.307 160.207 619.307 170.682C619.307 178.408 618.063 185.413 615.575 191.698C613.087 197.984 609.486 203.352 604.772 207.804C600.189 212.126 594.559 215.465 587.881 217.822C581.334 220.048 574.066 221.161 566.079 221.161ZM566.079 195.43C569.614 195.43 572.757 194.579 575.507 192.877C578.256 191.044 580.351 188.359 581.792 184.824C583.363 181.158 584.149 176.444 584.149 170.682C584.149 161.909 582.447 155.624 579.042 151.826C575.638 147.898 571.316 145.934 566.079 145.934C562.543 145.934 559.401 146.785 556.651 148.487C553.901 150.19 551.741 152.874 550.169 156.54C548.598 160.076 547.812 164.79 547.812 170.682C547.812 179.324 549.514 185.61 552.919 189.538C556.323 193.466 560.71 195.43 566.079 195.43Z" fill="#2E2E2E"/>
<path d="M708.393 221.161C692.549 221.161 679.062 218.214 667.932 212.322C656.932 206.43 648.552 198.18 642.791 187.574C637.029 176.967 634.148 164.593 634.148 150.452C634.148 139.452 635.851 129.566 639.255 120.793C642.791 111.889 647.832 104.294 654.379 98.0091C660.926 91.5929 668.914 86.748 678.341 83.4745C687.9 80.07 698.703 78.3677 710.75 78.3677C717.297 78.3677 723.975 79.0224 730.784 80.3318C737.593 81.5103 744.271 83.8018 750.818 87.2063C754.223 88.7776 756.514 91.0037 757.693 93.8844C759.002 96.6342 759.395 99.5804 758.871 102.723C758.478 105.735 757.365 108.55 755.532 111.169C753.83 113.657 751.473 115.359 748.461 116.276C745.45 117.061 742.045 116.603 738.248 114.901C734.319 113.067 730.064 111.693 725.481 110.776C720.898 109.728 716.053 109.205 710.946 109.205C702.173 109.205 694.84 110.776 688.948 113.919C683.186 117.061 678.865 121.71 675.985 127.864C673.104 134.018 671.663 141.547 671.663 150.452C671.663 163.808 674.937 173.89 681.484 180.699C688.031 187.508 697.721 190.913 710.553 190.913C714.482 190.913 718.737 190.52 723.32 189.734C728.034 188.949 732.748 187.836 737.462 186.395L730.784 199.948V166.361H717.035C712.583 166.361 709.113 165.248 706.625 163.022C704.268 160.796 703.09 157.653 703.09 153.594C703.09 149.535 704.268 146.458 706.625 144.363C709.113 142.137 712.583 141.024 717.035 141.024H746.104C750.687 141.024 754.157 142.268 756.514 144.756C759.002 147.113 760.246 150.583 760.246 155.166V198.573C760.246 202.501 759.395 205.84 757.693 208.59C756.121 211.34 753.568 213.304 750.033 214.482C743.878 216.578 737.2 218.214 729.998 219.393C722.796 220.571 715.595 221.161 708.393 221.161ZM818.202 221.161C809.822 221.161 802.947 219.655 797.578 216.643C792.21 213.5 788.151 208.852 785.401 202.698C782.782 196.543 781.473 188.752 781.473 179.324V138.078C781.473 132.316 782.978 127.995 785.99 125.114C789.002 122.103 793.323 120.597 798.953 120.597C804.584 120.597 808.905 122.103 811.917 125.114C814.928 127.995 816.434 132.316 816.434 138.078V180.306C816.434 185.02 817.416 188.556 819.38 190.913C821.345 193.27 824.422 194.448 828.612 194.448C833.326 194.448 837.189 192.746 840.2 189.342C843.212 185.937 844.718 181.419 844.718 175.789V138.078C844.718 132.316 846.224 127.995 849.235 125.114C852.247 122.103 856.568 120.597 862.199 120.597C867.829 120.597 872.15 122.103 875.162 125.114C878.174 127.995 879.679 132.316 879.679 138.078V203.09C879.679 214.875 874.049 220.768 862.788 220.768C857.288 220.768 853.033 219.262 850.021 216.25C847.009 213.239 845.503 208.852 845.503 203.09V191.698L848.646 201.323C845.765 207.739 841.706 212.649 836.468 216.054C831.362 219.458 825.273 221.161 818.202 221.161ZM933.612 221.161C926.148 221.161 919.536 219.786 913.774 217.036C908.144 214.286 903.692 210.554 900.418 205.84C897.275 200.995 895.704 195.496 895.704 189.342C895.704 182.271 897.537 176.706 901.204 172.646C904.87 168.587 910.762 165.706 918.881 164.004C926.999 162.171 937.802 161.254 951.289 161.254H962.092V177.753H951.289C946.182 177.753 941.927 178.146 938.522 178.932C935.249 179.586 932.826 180.699 931.255 182.271C929.684 183.711 928.898 185.61 928.898 187.967C928.898 190.978 929.946 193.466 932.041 195.43C934.267 197.394 937.409 198.377 941.468 198.377C944.742 198.377 947.623 197.656 950.111 196.216C952.73 194.776 954.825 192.811 956.396 190.324C957.967 187.705 958.753 184.693 958.753 181.289V158.505C958.753 153.791 957.509 150.452 955.021 148.487C952.664 146.523 948.539 145.541 942.647 145.541C939.504 145.541 935.969 145.934 932.041 146.72C928.112 147.374 923.726 148.618 918.881 150.452C915.345 151.761 912.334 151.957 909.846 151.041C907.358 150.124 905.394 148.553 903.953 146.327C902.644 144.101 901.989 141.678 901.989 139.06C902.12 136.441 902.971 133.953 904.543 131.596C906.245 129.239 908.798 127.406 912.203 126.096C918.488 123.739 924.25 122.168 929.487 121.382C934.856 120.597 939.766 120.204 944.218 120.204C954.956 120.204 963.794 121.775 970.734 124.918C977.805 127.929 983.043 132.643 986.447 139.06C989.983 145.345 991.75 153.463 991.75 163.415V203.09C991.75 208.852 990.376 213.239 987.626 216.25C984.876 219.262 980.882 220.768 975.644 220.768C970.276 220.768 966.151 219.262 963.27 216.25C960.521 213.239 959.146 208.852 959.146 203.09V197.984L960.324 200.734C959.669 204.924 958.164 208.525 955.807 211.536C953.45 214.548 950.373 216.905 946.575 218.607C942.778 220.309 938.457 221.161 933.612 221.161ZM1029.53 220.768C1023.77 220.768 1019.32 219.262 1016.18 216.25C1013.16 213.239 1011.66 208.852 1011.66 203.09V138.078C1011.66 132.447 1013.1 128.126 1015.98 125.114C1018.99 122.103 1023.25 120.597 1028.75 120.597C1034.25 120.597 1038.44 122.103 1041.32 125.114C1044.2 128.126 1045.64 132.447 1045.64 138.078V146.13H1043.67C1044.98 138.274 1048.32 132.054 1053.69 127.471C1059.19 122.888 1066 120.466 1074.12 120.204C1077.92 120.073 1080.73 121.055 1082.56 123.15C1084.53 125.114 1085.58 128.846 1085.71 134.346C1085.71 139.06 1084.72 142.791 1082.76 145.541C1080.8 148.291 1077.06 149.928 1071.56 150.452L1067.05 150.844C1060.11 151.499 1055.07 153.463 1051.92 156.737C1048.78 159.879 1047.21 164.593 1047.21 170.879V203.09C1047.21 208.852 1045.7 213.239 1042.69 216.25C1039.68 219.262 1035.29 220.768 1029.53 220.768ZM1132.81 221.161C1124.56 221.161 1117.23 219.131 1110.81 215.072C1104.52 211.013 1099.55 205.186 1095.88 197.591C1092.35 189.996 1090.58 181.027 1090.58 170.682C1090.58 160.076 1092.35 151.041 1095.88 143.577C1099.55 136.113 1104.52 130.352 1110.81 126.293C1117.23 122.233 1124.56 120.204 1132.81 120.204C1140.01 120.204 1146.49 121.906 1152.25 125.311C1158.01 128.715 1161.88 133.102 1163.84 138.47H1161.68V96.4378C1161.68 90.6763 1163.19 86.2897 1166.2 83.2781C1169.21 80.2664 1173.53 78.7605 1179.16 78.7605C1184.66 78.7605 1188.92 80.2664 1191.93 83.2781C1195.07 86.2897 1196.64 90.6763 1196.64 96.4378V203.09C1196.64 208.852 1195.14 213.239 1192.12 216.25C1189.24 219.262 1184.99 220.768 1179.36 220.768C1173.86 220.768 1169.6 219.262 1166.59 216.25C1163.58 213.239 1162.07 208.852 1162.07 203.09V191.895L1164.23 201.519C1162.4 207.412 1158.54 212.191 1152.65 215.857C1146.88 219.393 1140.27 221.161 1132.81 221.161ZM1144 195.43C1147.54 195.43 1150.68 194.579 1153.43 192.877C1156.18 191.044 1158.28 188.359 1159.72 184.824C1161.29 181.158 1162.07 176.444 1162.07 170.682C1162.07 161.909 1160.37 155.624 1156.97 151.826C1153.56 147.898 1149.24 145.934 1144 145.934C1140.47 145.934 1137.33 146.785 1134.58 148.487C1131.83 150.19 1129.67 152.874 1128.09 156.54C1126.52 160.076 1125.74 164.79 1125.74 170.682C1125.74 179.324 1127.44 185.61 1130.84 189.538C1134.25 193.466 1138.63 195.43 1144 195.43Z" fill="#A88CFF"/>
</svg>
