<svg width="50" height="50" viewBox="0 0 50 50" fill="none" xmlns="http://www.w3.org/2000/svg">
<rect width="50" height="50" rx="25" fill="#F21616"/>
<path d="M22.5061 13.1292L10.154 33.75C9.89937 34.191 9.76462 34.6911 9.7632 35.2003C9.76177 35.7096 9.89372 36.2104 10.1459 36.6528C10.3981 37.0953 10.7618 37.464 11.2007 37.7223C11.6396 37.9806 12.1385 38.1194 12.6478 38.125H37.352C37.8612 38.1194 38.3601 37.9806 38.7991 37.7223C39.238 37.464 39.6016 37.0953 39.8538 36.6528C40.106 36.2104 40.238 35.7096 40.2366 35.2003C40.2351 34.6911 40.1004 34.191 39.8457 33.75L27.4936 13.1292C27.2337 12.7006 26.8676 12.3462 26.4308 12.1003C25.994 11.8544 25.5012 11.7252 24.9999 11.7252C24.4986 11.7252 24.0058 11.8544 23.569 12.1003C23.1322 12.3462 22.7661 12.7006 22.5061 13.1292Z" fill="#F21616" stroke="#FEFEFE" stroke-width="2" stroke-linecap="round" stroke-linejoin="round"/>
<path d="M25 20.625V26.4583" stroke="#FEFEFE" stroke-width="2" stroke-linecap="round" stroke-linejoin="round"/>
<path d="M25 32.2917H25.0146" stroke="#FEFEFE" stroke-width="2" stroke-linecap="round" stroke-linejoin="round"/>
</svg>
