<svg width="127" height="127" viewBox="0 0 127 127" fill="none" xmlns="http://www.w3.org/2000/svg">
<path fill-rule="evenodd" clip-rule="evenodd" d="M66.6737 60.87L87.2636 81.4598L82.7762 85.9525L60.3237 63.4999V31.7499H66.6737V60.87ZM63.4987 116.417C34.2728 116.417 10.582 92.7258 10.582 63.4999C10.582 34.274 34.2728 10.5833 63.4987 10.5833C92.7246 10.5833 116.415 34.274 116.415 63.4999C116.415 92.7258 92.7246 116.417 63.4987 116.417ZM63.4987 110.067C75.8489 110.067 87.6934 105.16 96.4263 96.4275C105.159 87.6946 110.065 75.8502 110.065 63.4999C110.065 51.1497 105.159 39.3053 96.4263 30.5723C87.6934 21.8394 75.8489 16.9333 63.4987 16.9333C51.1484 16.9333 39.304 21.8394 30.5711 30.5723C21.8381 39.3053 16.932 51.1497 16.932 63.4999C16.932 75.8502 21.8381 87.6946 30.5711 96.4275C39.304 105.16 51.1484 110.067 63.4987 110.067Z" fill="white"/>
</svg>
