<svg width="25" height="25" viewBox="0 0 25 25" fill="none" xmlns="http://www.w3.org/2000/svg">
<rect width="25" height="25" rx="12.5" fill="#00FF2A"/>
<path d="M10.0502 15.65L18.5252 7.175C18.7252 6.975 18.9585 6.875 19.2252 6.875C19.4918 6.875 19.7252 6.975 19.9252 7.175C20.1252 7.375 20.2252 7.61267 20.2252 7.888C20.2252 8.16333 20.1252 8.40067 19.9252 8.6L10.7502 17.8C10.5502 18 10.3168 18.1 10.0502 18.1C9.78351 18.1 9.55018 18 9.35018 17.8L5.05018 13.5C4.85018 13.3 4.75418 13.0627 4.76218 12.788C4.77018 12.5133 4.87451 12.2757 5.07518 12.075C5.27585 11.8743 5.51351 11.7743 5.78818 11.775C6.06285 11.7757 6.30018 11.8757 6.50018 12.075L10.0502 15.65Z" fill="white"/>
</svg>
