<svg width="114" height="92" viewBox="0 0 114 92" fill="none" xmlns="http://www.w3.org/2000/svg">
<path d="M38.7246 71.9198L100.783 2.4588C102.247 0.819601 103.956 0 105.908 0C107.861 0 109.57 0.819601 111.034 2.4588C112.499 4.098 113.231 6.04591 113.231 8.30254C113.231 10.5592 112.499 12.5044 111.034 14.1381L43.8503 89.5412C42.3858 91.1804 40.6773 92 38.7246 92C36.772 92 35.0634 91.1804 33.5989 89.5412L2.11225 54.2984C0.647758 52.6592 -0.0552002 50.7141 0.0033796 48.4629C0.0619594 46.2117 0.825935 44.2638 2.29531 42.6191C3.76469 40.9745 5.505 40.1549 7.51624 40.1604C9.52748 40.1658 11.2653 40.9854 12.7298 42.6191L38.7246 71.9198Z" fill="white"/>
</svg>
