<svg width="153" height="34" viewBox="0 0 153 34" fill="none" xmlns="http://www.w3.org/2000/svg">
<path d="M18.8161 4.87414C16.1861 4.82213 14.0529 3.64262 12.9845 2.95642C12.7155 2.78368 12.3726 2.78368 12.1036 2.95647C11.0356 3.64267 8.90367 4.82213 6.27202 4.87414C4.08634 4.92533 2.42941 4.59873 1.31841 4.21622C0.730499 4.01382 0 4.43739 0 5.05917V14.5509C0 21.4115 5.27163 29.1516 12.3331 31.2746C12.4706 31.316 12.6174 31.316 12.755 31.2747C16.252 30.2246 19.3186 27.7924 21.5055 24.7854C23.7363 21.7201 25.0901 18.0163 25.0901 14.5509V5.0571C25.0901 4.43574 24.3609 4.01284 23.7734 4.21528C22.6623 4.59819 21.0048 4.92538 18.8161 4.87414ZM23.7363 14.5509C23.7363 17.6364 22.5199 21.0816 20.4103 23.9893C18.3544 26.8204 15.6586 28.8776 12.7781 29.8662C12.6263 29.9183 12.4616 29.9189 12.3095 29.8678C9.41276 28.8952 6.73396 26.8212 4.67977 24.0095C2.56821 21.122 1.35382 17.6364 1.35382 14.5509V5.62985C2.80665 6.04812 4.3201 6.24816 5.83354 6.22796H6.31243C8.40176 6.16734 10.5335 5.49043 12.544 4.25583C14.5566 5.49043 16.6863 6.16734 18.7777 6.20775H19.2545C20.768 6.22796 22.2814 6.02791 23.7363 5.60965V14.5509ZM21.5041 7.44483C21.9766 7.38983 22.4006 7.75227 22.4006 8.22796V14.5509C22.4006 17.3778 21.2853 20.5239 19.3354 23.1931C17.5458 25.6345 15.2568 27.4652 12.8051 28.4121C12.6371 28.477 12.451 28.477 12.283 28.4121C9.83305 27.4651 7.54229 25.6344 5.75474 23.1931C3.80282 20.5239 2.68743 17.3576 2.68743 14.5509V8.24349C2.68743 7.76253 3.12059 7.39831 3.59828 7.45433C4.33906 7.54121 5.0863 7.58178 5.83354 7.58178H6.33264C8.37668 7.50635 10.3503 6.98221 12.1583 6.0389C12.3997 5.91299 12.688 5.91371 12.9289 6.04033C14.7224 6.98273 16.7145 7.50639 18.7575 7.58178H19.2545C20.0076 7.58178 20.7597 7.5315 21.5041 7.44483Z" fill="#FEFEFE"/>
<path d="M7.78921 11.9078C7.75688 12.0674 7.76092 12.2331 7.79527 12.3907C7.8276 12.5483 7.88822 12.6999 7.97308 12.8352C8.05795 12.9706 8.16504 13.0898 8.29234 13.1828C8.30851 13.1949 8.32265 13.207 8.33882 13.2171L8.38933 13.2475C8.42166 13.2697 8.45803 13.2858 8.49238 13.304C8.50047 13.3081 8.51057 13.3121 8.51865 13.3162L8.54694 13.3263L8.6015 13.3485C8.63787 13.3606 8.67626 13.3707 8.71263 13.3828L8.82579 13.4091L8.88439 13.4192C8.90459 13.4233 8.92278 13.4273 8.94298 13.4293C9.02179 13.4394 9.10059 13.4455 9.1794 13.4435C9.33903 13.4435 9.49866 13.4273 9.65829 13.403C9.81791 13.3788 9.97552 13.3444 10.1352 13.3101C10.2948 13.2757 10.4585 13.2414 10.6221 13.2171C10.7858 13.1929 10.9515 13.1767 11.1192 13.1788C11.2869 13.1788 11.4566 13.1969 11.6223 13.2434L11.683 13.2636C11.7032 13.2717 11.7234 13.2757 11.7436 13.2858L11.8022 13.3101L11.8325 13.3222C11.8426 13.3263 11.8527 13.3323 11.8608 13.3384C11.8992 13.3586 11.9376 13.3768 11.9739 13.401L12.0265 13.4374C12.0446 13.4495 12.0628 13.4637 12.079 13.4758C12.2144 13.5829 12.3235 13.7162 12.4164 13.8557C12.5094 13.9951 12.5882 14.1406 12.665 14.2861C12.7438 14.4295 12.8206 14.573 12.9014 14.7144C13.061 14.9993 13.2287 15.2762 13.4207 15.5368C13.5177 15.6661 13.6207 15.7914 13.7298 15.9066C13.841 16.0238 13.9582 16.1329 14.0855 16.2299C14.2128 16.3269 14.3461 16.4118 14.4916 16.4805C14.6331 16.5492 14.7846 16.6017 14.9402 16.6401C15.2514 16.7189 15.5767 16.7472 15.902 16.7977C16.0657 16.8219 16.2273 16.8523 16.389 16.8987C16.5506 16.9432 16.7082 17.0018 16.8578 17.0786C17.1568 17.2301 17.4276 17.4382 17.6499 17.6888C17.761 17.8141 17.86 17.9495 17.9449 18.0949C17.9873 18.1677 18.0257 18.2424 18.0621 18.3172C18.0803 18.3556 18.0964 18.394 18.1126 18.4324C18.1186 18.4526 18.1287 18.4728 18.1348 18.491L18.155 18.5516C18.3551 19.1921 18.2924 19.9014 17.9934 20.4853C18.2459 19.8812 18.2601 19.1901 18.0338 18.594L18.0136 18.5375L17.9913 18.4809C17.9752 18.4445 17.9631 18.4081 17.9449 18.3718C17.9125 18.299 17.8741 18.2283 17.8358 18.1596C17.7549 18.0222 17.66 17.8929 17.5529 17.7737C17.3427 17.5352 17.0861 17.3352 16.8012 17.1917C16.6598 17.119 16.5102 17.0624 16.3546 17.02C16.2011 16.9775 16.0435 16.9472 15.8818 16.923C15.5626 16.8745 15.2332 16.8442 14.9099 16.7633C14.7482 16.7229 14.5866 16.6684 14.435 16.5956C14.2835 16.5229 14.1421 16.432 14.0087 16.3309C13.8753 16.2299 13.7521 16.1147 13.6369 15.9955C13.5237 15.8743 13.4187 15.7449 13.3197 15.6116C13.1216 15.3449 12.9519 15.064 12.7903 14.7771C12.7094 14.6336 12.6326 14.4901 12.5538 14.3447C12.4771 14.2012 12.4003 14.0597 12.3114 13.9264C12.2225 13.795 12.1214 13.6718 12.0002 13.5748C11.984 13.5647 11.9699 13.5506 11.9537 13.5404L11.9052 13.5081C11.8729 13.4859 11.8385 13.4697 11.8042 13.4515C11.7961 13.4475 11.788 13.4414 11.7779 13.4374L11.7517 13.4273L11.6991 13.403C11.6809 13.395 11.6607 13.3909 11.6425 13.3849L11.588 13.3667C11.4364 13.3242 11.2788 13.3061 11.1192 13.3061C10.9596 13.304 10.7999 13.3202 10.6403 13.3444C10.4807 13.3667 10.3231 13.401 10.1634 13.4354C10.0038 13.4697 9.84216 13.5021 9.67849 13.5283C9.51482 13.5546 9.34711 13.5708 9.1794 13.5708C9.09453 13.5728 9.01168 13.5667 8.92682 13.5566C8.90661 13.5546 8.88439 13.5506 8.86418 13.5485L8.80154 13.5364C8.75911 13.5283 8.71869 13.5162 8.67626 13.5061C8.65605 13.498 8.63585 13.492 8.61564 13.4839C8.59746 13.4758 8.57523 13.4697 8.55704 13.4616L8.49845 13.4354L8.47016 13.4212C8.46005 13.4172 8.44995 13.4111 8.44187 13.4051C8.40348 13.3849 8.36508 13.3647 8.33073 13.3384L8.2782 13.302C8.26203 13.2899 8.24587 13.2737 8.2297 13.2616C8.10038 13.1505 7.99127 13.0171 7.91246 12.8696C7.83366 12.7221 7.78112 12.5604 7.7589 12.3968C7.73667 12.2331 7.74677 12.0654 7.78921 11.9058V11.9078Z" fill="#A992F3"/>
<path d="M7.58728 12.437C7.55495 12.0693 7.61961 11.6914 7.76105 11.3439C7.9025 10.9963 8.12275 10.6791 8.40361 10.4265C8.6865 10.1739 9.02597 9.99007 9.38564 9.88702C9.74531 9.78396 10.1292 9.75972 10.4929 9.83246C10.1232 9.81427 9.75743 9.86479 9.41595 9.98198C9.07446 10.0992 8.75722 10.281 8.48848 10.5215C8.22176 10.7619 8.00757 11.057 7.85198 11.3843C7.69841 11.7116 7.60749 12.0693 7.58728 12.437Z" fill="#A992F3"/>
<mask id="mask0_2395_393" style="mask-type:luminance" maskUnits="userSpaceOnUse" x="7" y="8" width="13" height="13">
<path d="M7.89441 8.48291H19.3069V20.5501H7.89441V8.48291Z" fill="white"/>
</mask>
<g mask="url(#mask0_2395_393)">
<path d="M8.05017 9.79416C8.47652 9.08896 9.2484 8.58785 10.089 8.49692C10.1415 8.49288 10.1941 8.48884 10.2466 8.48682H10.3658C10.3779 8.48682 10.3921 8.48884 10.4042 8.48884C10.4567 8.49086 10.5093 8.49288 10.5618 8.49894C10.6143 8.50298 10.6669 8.50702 10.7194 8.51713C10.9275 8.54541 11.1316 8.59795 11.3296 8.67271C11.5256 8.74748 11.7156 8.84447 11.8914 8.95964C11.9338 8.98995 11.9762 9.02026 12.0187 9.05057C12.0611 9.08492 12.1015 9.11725 12.144 9.14958C12.2228 9.21828 12.2995 9.29102 12.3723 9.36579C12.5198 9.51329 12.6552 9.66888 12.7946 9.81841C12.8633 9.89317 12.936 9.96591 13.0088 10.0346L13.0633 10.0872L13.0916 10.1134L13.1199 10.1377L13.1785 10.1862L13.2371 10.2326C13.3947 10.3539 13.5705 10.4468 13.7605 10.5155C13.8554 10.5499 13.9524 10.5802 14.0494 10.6044C14.1484 10.6307 14.2474 10.6529 14.3464 10.6752C14.5485 10.7176 14.7506 10.756 14.9526 10.8085C15.0537 10.8348 15.1547 10.8671 15.2537 10.9035C15.3527 10.9399 15.4497 10.9823 15.5426 11.0328C15.6376 11.0813 15.7265 11.1399 15.8114 11.2066C15.8942 11.2733 15.973 11.35 16.0377 11.4369C16.0559 11.4571 16.07 11.4814 16.0862 11.5036L16.1084 11.538L16.1286 11.5723C16.1549 11.6188 16.1791 11.6693 16.1994 11.7198C16.2398 11.8208 16.264 11.9259 16.2802 12.033C16.3085 12.2452 16.2963 12.4553 16.2822 12.6614C16.266 12.8696 16.2438 13.0716 16.2458 13.2737C16.2458 13.3727 16.2519 13.4737 16.2681 13.5707C16.2761 13.6192 16.2903 13.6677 16.3004 13.7142C16.3044 13.7384 16.3145 13.7627 16.3226 13.7849L16.3448 13.8556C16.4176 14.0395 16.5227 14.2112 16.6479 14.3668C16.6641 14.387 16.6823 14.4052 16.6984 14.4234L16.7469 14.48C16.7833 14.5164 16.8156 14.5548 16.852 14.5891C16.8904 14.6235 16.9248 14.6598 16.9631 14.6922L17.0197 14.7427C17.0399 14.7588 17.0581 14.775 17.0783 14.7912C17.2339 14.9225 17.3996 15.0417 17.5693 15.1549C17.9088 15.3852 18.2624 15.6055 18.5736 15.8884C18.6504 15.9571 18.7251 16.0338 18.7959 16.1106C18.814 16.1308 18.8302 16.151 18.8464 16.1713C18.8646 16.1915 18.8807 16.2117 18.8969 16.2319L18.9454 16.2965C18.9535 16.3066 18.9615 16.3167 18.9676 16.3289L18.9898 16.3612C19.107 16.537 19.2 16.733 19.2545 16.9391C19.3111 17.1432 19.3354 17.3553 19.3354 17.5655L19.3333 17.6463C19.3333 17.6726 19.3313 17.6988 19.3293 17.7251C19.3253 17.7756 19.3232 17.8302 19.3152 17.8807L19.3051 17.9595L19.2929 18.0383C19.2848 18.0888 19.2727 18.1414 19.2606 18.1919C19.2101 18.396 19.1353 18.594 19.0484 18.7819C18.9636 18.9718 18.8625 19.1537 18.7514 19.3295C18.6423 19.5053 18.5251 19.675 18.4018 19.8407C18.2786 20.0064 18.1533 20.168 18.026 20.3297C18.1432 20.162 18.2604 19.9923 18.3715 19.8185C18.4847 19.6487 18.5938 19.473 18.6928 19.2951C18.7433 19.2042 18.7898 19.1133 18.8342 19.0224C18.8787 18.9314 18.9211 18.8385 18.9595 18.7435C19.0343 18.5556 19.0969 18.3616 19.1373 18.1636C19.1454 18.1131 19.1575 18.0646 19.1656 18.0161L19.1778 17.9413L19.1879 17.8666C19.202 17.7655 19.206 17.6665 19.2081 17.5655C19.2081 17.3654 19.1858 17.1654 19.1333 16.9714C19.0808 16.7795 18.9939 16.5976 18.8848 16.4319L18.8646 16.4016C18.8565 16.3915 18.8484 16.3814 18.8423 16.3713L18.7959 16.3107C18.7817 16.2905 18.7655 16.2723 18.7494 16.2541C18.7332 16.2339 18.717 16.2137 18.7009 16.1955C18.6322 16.1207 18.5635 16.05 18.4867 15.9813C18.1876 15.7105 17.8401 15.4903 17.4986 15.26C17.3269 15.1448 17.1571 15.0235 16.9975 14.8902C16.9773 14.872 16.9571 14.8558 16.9369 14.8397L16.8783 14.7871C16.8379 14.7528 16.8015 14.7164 16.7631 14.68C16.7247 14.6437 16.6904 14.6053 16.654 14.5669L16.6015 14.5083C16.5853 14.4881 16.5671 14.4679 16.5509 14.4477C16.4176 14.284 16.3044 14.1001 16.2256 13.9021L16.2014 13.8253C16.1933 13.799 16.1832 13.7748 16.1771 13.7485C16.165 13.696 16.1509 13.6435 16.1428 13.5909C16.1246 13.4858 16.1185 13.3787 16.1185 13.2737C16.1165 13.0635 16.1387 12.8574 16.1549 12.6533C16.1711 12.4493 16.1812 12.2452 16.1529 12.0492C16.1387 11.9522 16.1165 11.8572 16.0801 11.7663C16.064 11.7218 16.0417 11.6774 16.0175 11.6349L15.9993 11.6046L15.9791 11.5743C15.965 11.5541 15.9528 11.5319 15.9367 11.5137C15.8781 11.4369 15.8073 11.3682 15.7306 11.3076C15.6538 11.247 15.5709 11.1904 15.482 11.1439C15.3951 11.0975 15.3022 11.0571 15.2092 11.0227C15.1143 10.9883 15.0193 10.958 14.9203 10.9318C14.7243 10.8792 14.5222 10.8429 14.3202 10.7984C14.2191 10.7782 14.1181 10.756 14.0171 10.7277C13.916 10.7014 13.817 10.6711 13.716 10.6368C13.518 10.564 13.326 10.463 13.1603 10.3337L13.0977 10.2852L13.0371 10.2326L13.0068 10.2084L12.9785 10.1821L12.9199 10.1276C12.8451 10.0548 12.7724 9.98006 12.7016 9.90529C12.5602 9.75375 12.4248 9.59816 12.2814 9.4547C12.2106 9.38195 12.1359 9.31325 12.0611 9.24657C12.0227 9.21626 11.9823 9.18393 11.9439 9.15362C11.9015 9.12533 11.8611 9.09502 11.8207 9.06674C11.6529 8.9556 11.4731 8.86265 11.2852 8.79193C11.0973 8.72121 10.9013 8.67069 10.7012 8.6424C10.6507 8.63432 10.6022 8.63028 10.5517 8.62624L10.5133 8.6222C10.5012 8.62018 10.4891 8.62018 10.4769 8.62018L10.4002 8.61816C10.388 8.61614 10.3759 8.61614 10.3638 8.61614H10.3254L10.2506 8.61816C10.2244 8.61816 10.2001 8.62018 10.1759 8.6222L10.0991 8.62624C9.699 8.65049 9.30296 8.77577 8.95137 8.97581C8.77355 9.07684 8.60786 9.19606 8.45632 9.33346C8.30477 9.47086 8.16737 9.62645 8.05017 9.79618V9.79416Z" fill="#A992F3"/>
</g>
<path d="M9.21155 10.8408C9.41967 11.0207 9.66417 11.154 9.92079 11.247C10.0481 11.2914 10.1794 11.3298 10.3128 11.3581C10.4441 11.3884 10.5795 11.4106 10.7149 11.4288C10.9836 11.4733 11.2564 11.4995 11.5312 11.5198L11.9434 11.548C12.0808 11.5581 12.2203 11.5723 12.3577 11.5885C12.6345 11.6208 12.9093 11.6673 13.1801 11.7461C13.4488 11.8249 13.7115 11.934 13.9479 12.0936C14.0651 12.1744 14.1762 12.2654 14.2732 12.3684C14.3722 12.4715 14.4591 12.5866 14.5339 12.7059C14.6834 12.9483 14.7865 13.211 14.8754 13.4737C14.9663 13.7364 15.0431 13.9991 15.138 14.2557C15.231 14.5123 15.3441 14.7608 15.4997 14.977C15.6553 15.1953 15.8533 15.3832 16.0675 15.5489C16.2817 15.7166 16.5141 15.8601 16.7505 16.0015C16.9869 16.1409 17.2274 16.2783 17.4597 16.4299C17.5769 16.5046 17.6921 16.5855 17.8032 16.6703C17.8295 16.6926 17.8578 16.7148 17.8841 16.737C17.9124 16.7592 17.9386 16.7815 17.9649 16.8037C17.9912 16.8279 18.0195 16.8502 18.0437 16.8744C18.07 16.8987 18.0942 16.9229 18.1185 16.9492C18.3124 17.1553 18.4721 17.3937 18.5751 17.6564C18.6256 17.7857 18.662 17.9231 18.6802 18.0605C18.6964 18.1999 18.6943 18.3414 18.6701 18.4768C18.6822 18.3394 18.6721 18.1999 18.6438 18.0666C18.6176 17.9332 18.5711 17.8059 18.5125 17.6827C18.3933 17.4402 18.2256 17.222 18.0296 17.0381C17.979 16.9936 17.9305 16.9471 17.88 16.9007C17.8295 16.8562 17.777 16.8138 17.7244 16.7714C17.6173 16.6885 17.5062 16.6097 17.391 16.537C17.1627 16.3874 16.9223 16.2521 16.6858 16.1106C16.4474 15.9692 16.211 15.8217 15.9887 15.6499C15.7685 15.4782 15.5624 15.2822 15.3967 15.0518C15.229 14.8215 15.1138 14.5608 15.0168 14.3001C14.9218 14.0374 14.8451 13.7727 14.7561 13.5141C14.6672 13.2555 14.5662 13.0029 14.4248 12.7725C14.354 12.6594 14.2732 12.5543 14.1823 12.4573C14.0893 12.3603 13.9863 12.2755 13.8752 12.2007C13.6549 12.0492 13.4043 11.9441 13.1437 11.8693C12.883 11.7925 12.6143 11.7461 12.3435 11.7137C12.2081 11.6976 12.0707 11.6854 11.9333 11.6753L11.5211 11.645C11.3837 11.6369 11.2463 11.6248 11.1069 11.6107C11.0382 11.6026 10.9695 11.5945 10.9008 11.5864C10.8321 11.5783 10.7614 11.5682 10.6947 11.5561C10.4199 11.5016 10.1491 11.4248 9.89452 11.3116C9.76722 11.253 9.64396 11.1863 9.52879 11.1075C9.41361 11.0287 9.30652 10.9398 9.21155 10.8408Z" fill="#A992F3"/>
<path d="M9.90491 13.0211C10.1494 12.9504 10.3959 12.8857 10.6465 12.8352C10.7718 12.811 10.897 12.7908 11.0243 12.7766C11.1516 12.7605 11.281 12.7544 11.4103 12.7544C11.5396 12.7544 11.6689 12.7625 11.7982 12.7827C11.9255 12.8009 12.0528 12.8292 12.1781 12.8696C12.3014 12.91 12.4226 12.9625 12.5378 13.0272C12.6509 13.0918 12.758 13.1686 12.857 13.2535C12.9581 13.3363 13.049 13.4313 13.1339 13.5283C13.2187 13.6273 13.2975 13.7304 13.3703 13.8354C13.441 13.9425 13.5077 14.0537 13.5723 14.1648C13.5885 14.1931 13.6027 14.2214 13.6188 14.2497C13.633 14.2759 13.6491 14.3042 13.6633 14.3325C13.6936 14.3891 13.7219 14.4477 13.7502 14.5043C13.8067 14.6194 13.8613 14.7326 13.9158 14.8478C13.9704 14.9629 14.025 15.0761 14.0815 15.1913C14.1947 15.4176 14.3159 15.6398 14.4554 15.852C14.2917 15.656 14.1543 15.4398 14.027 15.2196C13.9643 15.1084 13.9017 14.9973 13.8411 14.8862C13.7825 14.773 13.7239 14.6619 13.6612 14.5507C13.54 14.3285 13.4168 14.1082 13.2713 13.9041C13.1258 13.7021 12.9641 13.5081 12.7762 13.3485C12.6812 13.2697 12.5822 13.1969 12.4751 13.1343C12.3701 13.0716 12.2569 13.0231 12.1397 12.9827C11.9073 12.8999 11.6588 12.8635 11.4083 12.8534C11.1577 12.8433 10.9071 12.8635 10.6566 12.8979C10.404 12.9302 10.1555 12.9787 9.90491 13.0211Z" fill="#A992F3"/>
<path d="M7.21922 13.282C7.07979 12.9809 7.00503 12.6475 6.99291 12.31C6.97674 11.9726 7.02524 11.6331 7.13435 11.3119C7.24346 10.9906 7.41118 10.6895 7.62738 10.4309C7.84359 10.1722 8.10425 9.95197 8.39926 9.79639C8.13456 9.99643 7.90017 10.2308 7.70619 10.4935C7.51221 10.7562 7.35864 11.0451 7.25357 11.3523C7.15052 11.6594 7.09798 11.9827 7.09192 12.308C7.08586 12.6354 7.13031 12.9627 7.21922 13.282Z" fill="#A992F3"/>
<path d="M7.82751 13.2412C7.90026 13.5362 8.02958 13.8151 8.20537 14.0575C8.29226 14.1788 8.38925 14.2919 8.49836 14.395C8.52665 14.4192 8.55292 14.4455 8.58121 14.4677C8.6095 14.492 8.63779 14.5162 8.66809 14.5385L8.71255 14.5728C8.72669 14.5829 8.74286 14.593 8.75902 14.6031L8.80348 14.6354C8.81964 14.6455 8.83581 14.6556 8.85197 14.6658C8.97927 14.7425 9.11263 14.8133 9.24801 14.888C9.31469 14.9284 9.38138 14.9668 9.44604 15.0133C9.50867 15.0578 9.57131 15.1083 9.62991 15.1628C9.74307 15.276 9.84006 15.4073 9.90674 15.5508C9.97342 15.6963 10.0159 15.8519 10.0239 16.0115L9.93907 15.9771C9.98958 15.9327 10.0522 15.9105 10.1169 15.9064C10.1795 15.9024 10.2462 15.9226 10.2967 15.959C10.3472 15.9973 10.3856 16.0519 10.4018 16.1125C10.4099 16.1408 10.4139 16.163 10.424 16.1752C10.4341 16.1893 10.4503 16.1974 10.4705 16.2014C10.5109 16.2095 10.5614 16.1893 10.6119 16.1691C10.6604 16.1489 10.7089 16.1267 10.7574 16.1044C10.8544 16.058 10.9474 16.0034 11.0383 15.9448C10.9979 15.9792 10.9554 16.0135 10.911 16.0458C10.8665 16.0782 10.8221 16.1085 10.7756 16.1368C10.7291 16.1651 10.6806 16.1913 10.6321 16.2156C10.6079 16.2277 10.5836 16.2398 10.5554 16.2499C10.5291 16.26 10.4968 16.2681 10.4644 16.2661C10.4301 16.262 10.3957 16.2499 10.3695 16.2196C10.3452 16.1893 10.3392 16.157 10.3311 16.1347C10.3149 16.0923 10.2846 16.0559 10.2482 16.0317C10.2098 16.0054 10.1654 15.9953 10.1229 15.9994C10.0785 16.0054 10.0381 16.0236 10.0078 16.0519C9.98756 16.0721 9.95523 16.0721 9.93705 16.0519C9.92896 16.0438 9.9229 16.0317 9.9229 16.0216V16.0196C9.89461 15.7286 9.75115 15.4538 9.54303 15.2538C9.49049 15.2032 9.43391 15.1588 9.37329 15.1164C9.31267 15.0759 9.24801 15.0355 9.18335 14.9971C9.05403 14.9204 8.91865 14.8516 8.78731 14.7648C8.65799 14.6799 8.53473 14.5809 8.42562 14.4698C8.31651 14.3566 8.21952 14.2354 8.13667 14.104C7.97098 13.8413 7.86187 13.5443 7.82751 13.2412Z" fill="#A992F3"/>
<path d="M10.6141 16.1992C10.5898 16.2295 10.5898 16.27 10.604 16.3023C10.6161 16.3366 10.6424 16.3589 10.6747 16.373C10.707 16.3872 10.7414 16.3932 10.7778 16.3973C10.8141 16.3993 10.8525 16.3973 10.8929 16.3993C10.9111 16.4013 10.9313 16.4033 10.9535 16.4074C10.9738 16.4114 10.994 16.4175 11.0142 16.4255C11.0526 16.4397 11.0869 16.4619 11.1213 16.4821C11.1536 16.5044 11.1839 16.5266 11.2142 16.5468C11.2445 16.565 11.2748 16.5832 11.3051 16.5933C11.4324 16.6357 11.5779 16.6034 11.6931 16.5326C11.8123 16.4579 11.9093 16.3467 11.9982 16.2275C12.178 15.9891 12.3377 15.7345 12.4569 15.4617C12.5781 15.1889 12.6549 14.8959 12.659 14.5908C12.6832 14.7403 12.6832 14.8959 12.663 15.0495C12.6569 15.0879 12.6509 15.1263 12.6448 15.1627C12.6347 15.201 12.6286 15.2394 12.6185 15.2778C12.6084 15.3142 12.6004 15.3526 12.5882 15.389C12.5741 15.4253 12.564 15.4617 12.5498 15.4981C12.4448 15.7911 12.2831 16.0598 12.0992 16.3043C12.0528 16.3669 12.0022 16.4276 11.9477 16.4841C11.8911 16.5407 11.8265 16.5933 11.7557 16.6357C11.683 16.6761 11.6042 16.7064 11.5193 16.7165C11.4365 16.7266 11.3496 16.7185 11.2708 16.6842C11.2304 16.668 11.194 16.6458 11.1617 16.6215C11.1314 16.5973 11.1011 16.5731 11.0728 16.5508C11.0425 16.5286 11.0142 16.5064 10.9839 16.4922C10.9677 16.4841 10.9535 16.4781 10.9374 16.474C10.9212 16.468 10.903 16.4639 10.8848 16.4619C10.8485 16.4559 10.8121 16.4518 10.7717 16.4458C10.7333 16.4377 10.6929 16.4276 10.6585 16.4053C10.6403 16.3932 10.6242 16.3811 10.6121 16.3629C10.5979 16.3467 10.5898 16.3286 10.5858 16.3084C10.5757 16.27 10.5838 16.2235 10.6141 16.1992Z" fill="#A992F3"/>
<path d="M12.255 16.02C12.4732 16.0382 12.6854 16.1413 12.8531 16.2908C13.0228 16.4423 13.1481 16.6444 13.2027 16.8687C13.2552 17.093 13.235 17.3314 13.1522 17.5416C13.0713 17.7517 12.9259 17.9396 12.74 18.0548C12.8915 17.8972 12.9986 17.7093 13.0572 17.5092C13.1158 17.3092 13.1259 17.097 13.0794 16.899C13.0309 16.6989 12.9259 16.5151 12.7844 16.3615C12.6409 16.21 12.4611 16.0907 12.255 16.02Z" fill="#A992F3"/>
<path d="M10.5049 18.7312C10.5958 18.3554 10.8747 18.0199 11.2424 17.8603C11.4243 17.7775 11.6203 17.7391 11.8082 17.7027C11.9032 17.6845 11.9961 17.6684 12.0891 17.6482C12.18 17.6259 12.2709 17.6017 12.3578 17.5693C12.4002 17.5532 12.4427 17.535 12.4831 17.5148C12.5255 17.4946 12.5639 17.4724 12.6023 17.4461C12.6387 17.4218 12.675 17.3956 12.7074 17.3632C12.7235 17.3491 12.7397 17.3329 12.7538 17.3168L12.7761 17.2905C12.7821 17.2824 12.7902 17.2743 12.7963 17.2663C12.8488 17.1955 12.8912 17.1147 12.9155 17.0278C12.9397 16.9409 12.9498 16.85 12.9458 16.7611C12.9377 16.5792 12.8569 16.4034 12.7235 16.2741C12.6589 16.2074 12.5801 16.1549 12.4952 16.1145C12.4528 16.0943 12.4083 16.0781 12.3618 16.066C12.3154 16.0519 12.2689 16.0458 12.2204 16.0397C12.3174 16.0357 12.4144 16.0498 12.5073 16.0822C12.5316 16.0903 12.5538 16.0983 12.576 16.1105C12.5881 16.1145 12.5982 16.1206 12.6104 16.1266L12.6427 16.1428L12.6589 16.1529L12.7053 16.1832C12.7255 16.1973 12.7458 16.2115 12.766 16.2277C12.8407 16.2943 12.9074 16.3711 12.9559 16.462C13.0044 16.551 13.0347 16.65 13.0448 16.753C13.0509 16.8035 13.0509 16.854 13.0468 16.9046L13.0428 16.943L13.0408 16.9632L13.0387 16.9813L13.0307 17.0197L13.0226 17.0561C12.9983 17.1571 12.9539 17.2521 12.8933 17.337C12.8791 17.3592 12.863 17.3774 12.8448 17.3976C12.8286 17.4178 12.8104 17.436 12.7922 17.4542C12.7538 17.4905 12.7134 17.5209 12.671 17.5512C12.5861 17.6077 12.4952 17.6522 12.4022 17.6886C12.0224 17.828 11.6284 17.8159 11.2788 17.9512C10.9333 18.0846 10.6463 18.3715 10.5049 18.7312Z" fill="#A992F3"/>
<path d="M13.0206 14.9406C13.0226 15.1932 13.0711 15.4478 13.1641 15.6862C13.2105 15.8055 13.2691 15.9227 13.3358 16.0318C13.4045 16.1409 13.4833 16.2419 13.5702 16.3389C13.6551 16.4359 13.746 16.5329 13.8228 16.642C13.8612 16.6966 13.8955 16.7531 13.9238 16.8158C13.9501 16.8764 13.9723 16.9411 13.9824 17.0057C14.0269 17.2684 13.944 17.5493 13.7581 17.7352C13.936 17.5432 14.0047 17.2623 13.9521 17.0118C13.938 16.9491 13.9157 16.8885 13.8875 16.8319C13.8592 16.7754 13.8248 16.7208 13.7844 16.6703C13.7056 16.5672 13.6127 16.4763 13.5217 16.3813C13.4308 16.2884 13.3439 16.1853 13.2691 16.0742C13.1944 15.9651 13.1297 15.8459 13.0772 15.7246C12.9701 15.4781 12.9054 15.2134 12.8933 14.9427C12.8933 14.9083 12.9196 14.878 12.9559 14.876C12.9903 14.876 13.0206 14.9022 13.0206 14.9386C13.0206 14.9386 13.0206 14.9386 13.0206 14.9406Z" fill="#A992F3"/>
<path d="M11.2467 13.2013C11.5337 13.359 11.762 13.6095 11.8893 13.9025C12.0166 14.1955 12.0408 14.5269 11.96 14.83C12.0186 14.5228 11.9721 14.2016 11.8307 13.9308C11.6913 13.658 11.4609 13.4398 11.1901 13.3165C11.1578 13.3004 11.1437 13.264 11.1578 13.2317C11.172 13.1993 11.2104 13.1852 11.2427 13.1993C11.2427 13.2013 11.2447 13.2013 11.2467 13.2013Z" fill="#A992F3"/>
<path d="M11.964 24.9387C12.4004 24.4114 12.7359 23.8133 12.9965 23.1889C13.2734 22.5706 13.4734 21.9179 13.6411 21.2592C13.724 20.9298 13.7987 20.5964 13.8694 20.263C13.9422 19.9316 14.0068 19.5942 14.0937 19.2628C14.1826 18.9294 14.2917 18.6 14.4554 18.2909C14.4756 18.2525 14.4979 18.2141 14.5181 18.1777C14.5403 18.1393 14.5645 18.103 14.5868 18.0646C14.6353 17.9918 14.6858 17.9211 14.7423 17.8524C14.8515 17.717 14.9767 17.5918 15.1162 17.4847C15.2536 17.3755 15.4051 17.2846 15.5688 17.2139C15.7304 17.1452 15.9042 17.0987 16.082 17.0846C16.1709 17.0765 16.2619 17.0785 16.3508 17.0886C16.373 17.0886 16.3932 17.0927 16.4154 17.0967C16.4377 17.0987 16.4599 17.1048 16.4821 17.1088L16.5468 17.123C16.569 17.129 16.5912 17.1351 16.6114 17.1412C16.6983 17.1674 16.7791 17.2038 16.86 17.2442L16.9165 17.2765C16.9367 17.2866 16.957 17.2967 16.9751 17.3109C17.0115 17.3351 17.0499 17.3594 17.0843 17.3877C17.3671 17.6019 17.5773 17.9009 17.6965 18.2343C17.7551 18.402 17.7915 18.5738 17.8076 18.7496C17.8238 18.9233 17.8198 19.0991 17.8016 19.2729C17.7632 19.6205 17.6581 19.9579 17.5167 20.2731C17.3752 20.5883 17.1994 20.8874 17.0075 21.1723C16.6094 21.732 16.1628 22.2473 15.8113 22.8333C15.888 22.6817 15.9729 22.5322 16.0598 22.3847C16.1487 22.2392 16.2417 22.0957 16.3366 21.9523C16.5245 21.6674 16.7205 21.3885 16.9024 21.1016L17.0398 20.8874C17.0843 20.8167 17.1287 20.7439 17.1711 20.6712C17.254 20.5237 17.3328 20.3742 17.4015 20.2206C17.4702 20.067 17.5288 19.9094 17.5753 19.7498C17.5995 19.669 17.6177 19.5881 17.6359 19.5053C17.652 19.4245 17.6662 19.3416 17.6743 19.2588C17.6925 19.0931 17.6965 18.9254 17.6803 18.7597C17.6642 18.596 17.6318 18.4323 17.5773 18.2767C17.4662 17.9676 17.2681 17.6867 17.0054 17.4887C16.9751 17.4624 16.9408 17.4402 16.9064 17.418C16.8903 17.4059 16.8721 17.3958 16.8539 17.3857L16.7993 17.3553C16.7266 17.321 16.6518 17.2866 16.5751 17.2644C16.5548 17.2584 16.5367 17.2523 16.5165 17.2462L16.4558 17.2341C16.4377 17.2301 16.4174 17.224 16.3972 17.222C16.377 17.22 16.3568 17.2159 16.3366 17.2139C16.2558 17.2058 16.173 17.2038 16.0921 17.2119C15.9305 17.224 15.7708 17.2664 15.6193 17.3311C15.4678 17.3958 15.3243 17.4826 15.195 17.5837C15.0636 17.6867 14.9444 17.8039 14.8414 17.9332C14.7888 17.9979 14.7383 18.0646 14.6939 18.1353C14.6736 18.1697 14.6494 18.204 14.6292 18.2404C14.609 18.2767 14.5868 18.3131 14.5686 18.3495C14.411 18.6465 14.3039 18.9678 14.217 19.2951C14.1321 19.6225 14.0654 19.9559 13.9947 20.2913C13.922 20.6247 13.8472 20.9581 13.7644 21.2915C13.5967 21.9543 13.3926 22.613 13.1117 23.2414C12.9642 23.5506 12.7945 23.8517 12.6045 24.1366C12.5096 24.28 12.4085 24.4194 12.3014 24.5528C12.1943 24.6862 12.0812 24.8155 11.964 24.9387Z" fill="#A992F3"/>
<path d="M11.9499 24.6496C11.8873 24.6475 11.8246 24.6475 11.764 24.6435L11.669 24.6374C11.6387 24.6354 11.6064 24.6354 11.5761 24.6314C11.5134 24.6233 11.4528 24.6172 11.3902 24.6071L11.2972 24.591C11.2669 24.5869 11.2366 24.5809 11.2063 24.5748C10.9598 24.5243 10.7193 24.4556 10.4829 24.3687C10.2485 24.2798 10.0202 24.1727 9.79995 24.0535C9.57768 23.9343 9.36551 23.7989 9.15941 23.6554C9.05636 23.5827 8.95532 23.5079 8.85631 23.4331C8.8058 23.3948 8.7573 23.3543 8.70881 23.316C8.66031 23.2755 8.61182 23.2371 8.56332 23.1967C8.37136 23.0351 8.18547 22.8674 8.00361 22.6976C7.82175 22.5259 7.64596 22.3501 7.47017 22.1743L7.33883 22.043C7.29437 21.9965 7.24992 21.95 7.20546 21.8995C7.16303 21.851 7.1206 21.7964 7.08423 21.7358C7.04785 21.6752 7.01755 21.6085 6.99936 21.5358C6.97915 21.463 6.97511 21.3842 6.98117 21.3115C6.98724 21.2387 7.00542 21.17 7.02563 21.1054C7.06604 20.9781 7.1206 20.867 7.15495 20.7578C7.17111 20.7033 7.18324 20.6507 7.19132 20.5962C7.19738 20.5416 7.19738 20.4871 7.19536 20.4285C7.19132 20.3153 7.17111 20.1941 7.15293 20.0708C7.14485 20.0082 7.13676 19.9435 7.13272 19.8789C7.12666 19.8142 7.12666 19.7475 7.12666 19.6829C7.12868 19.6182 7.13272 19.5515 7.1408 19.4869C7.14687 19.4222 7.15899 19.3575 7.17111 19.2949C7.18526 19.2302 7.20142 19.1676 7.22163 19.105C7.24183 19.0444 7.26204 18.9817 7.28831 18.9211C7.30245 18.8928 7.31458 18.8625 7.32872 18.8342C7.34287 18.8059 7.35701 18.7776 7.36711 18.7534C7.37924 18.7271 7.38732 18.7029 7.3954 18.6786C7.39742 18.6665 7.39944 18.6544 7.40146 18.6443C7.40349 18.6321 7.40551 18.622 7.40349 18.6119C7.40349 18.5695 7.38732 18.5291 7.36711 18.5109C7.34489 18.4927 7.3166 18.4846 7.27417 18.4988C7.23375 18.5109 7.1893 18.5432 7.15091 18.5796C7.1408 18.5877 7.13272 18.5978 7.12262 18.6099L7.09433 18.6422C7.08423 18.6523 7.07614 18.6645 7.06806 18.6766C7.05998 18.6867 7.04988 18.6988 7.04179 18.7109C6.97511 18.8059 6.92258 18.913 6.88216 19.0241C6.83973 19.1373 6.80942 19.2545 6.78113 19.3737C6.72658 19.6121 6.6902 19.8587 6.63161 20.1032C6.6013 20.2244 6.56493 20.3456 6.51643 20.4608C6.46794 20.578 6.40328 20.6871 6.32649 20.7861C6.32447 20.7882 6.32043 20.7882 6.31841 20.7861C6.31639 20.7841 6.31437 20.7801 6.31639 20.778C6.38913 20.677 6.44571 20.5659 6.49016 20.4507C6.5326 20.3355 6.56493 20.2163 6.59119 20.0951C6.64171 19.8526 6.66798 19.6041 6.71647 19.3616C6.7387 19.2383 6.76901 19.1171 6.80942 18.9999C6.84781 18.8807 6.90237 18.7675 6.97107 18.6625C6.97915 18.6503 6.98926 18.6382 6.99734 18.6261C7.00744 18.6119 7.01553 18.5998 7.02563 18.5877C7.04583 18.5634 7.06402 18.5392 7.08625 18.517C7.1307 18.4705 7.18324 18.4321 7.24386 18.4099C7.27416 18.3998 7.3065 18.3937 7.33883 18.3978C7.37116 18.4018 7.40349 18.4159 7.42773 18.4361C7.454 18.4563 7.47219 18.4846 7.48431 18.5149C7.49643 18.5432 7.5025 18.5756 7.50452 18.6079C7.50654 18.6726 7.48633 18.7352 7.46208 18.7918C7.45198 18.8201 7.43784 18.8483 7.42571 18.8766C7.41157 18.9049 7.39944 18.9332 7.38732 18.9615C7.36509 19.0201 7.34489 19.0787 7.3267 19.1373C7.30852 19.1959 7.29437 19.2565 7.28023 19.3171C7.27012 19.3778 7.26002 19.4384 7.25396 19.499C7.2479 19.5596 7.24386 19.6222 7.24386 19.6849C7.24183 19.7455 7.24386 19.8081 7.24992 19.8688C7.25598 19.9294 7.26406 19.992 7.27214 20.0526C7.29033 20.1759 7.31256 20.2992 7.31862 20.4224C7.32064 20.4851 7.32064 20.5477 7.31256 20.6103C7.30649 20.673 7.29235 20.7356 7.27214 20.7942C7.23577 20.9134 7.18122 21.0266 7.14485 21.1438C7.12666 21.2024 7.11252 21.263 7.10645 21.3236C7.10241 21.3842 7.10645 21.4449 7.12262 21.5035C7.15293 21.6206 7.22365 21.7257 7.30245 21.8187C7.38126 21.9116 7.47219 21.9985 7.55907 22.0874C7.73285 22.2632 7.90864 22.439 8.08646 22.6108C8.44613 22.9543 8.81792 23.2836 9.21801 23.5746C9.62011 23.8656 10.0505 24.1181 10.5092 24.3061C10.9679 24.492 11.4548 24.6132 11.9499 24.6354C11.9539 24.6354 11.956 24.6395 11.956 24.6415C11.956 24.6455 11.9539 24.6475 11.9499 24.6475V24.6496Z" fill="#A992F3"/>
<mask id="mask1_2395_393" style="mask-type:luminance" maskUnits="userSpaceOnUse" x="5" y="17" width="3" height="4">
<path d="M5.43079 17.9634H7.37665V20.0325H5.43079V17.9634Z" fill="white"/>
</mask>
<g mask="url(#mask1_2395_393)">
<path d="M7.3571 18.3974C7.3571 18.3711 7.34497 18.3489 7.32679 18.3327C7.31062 18.3166 7.28839 18.3065 7.26819 18.3024C7.22778 18.2984 7.18332 18.3186 7.14695 18.3469C7.11058 18.3752 7.07825 18.4176 7.03379 18.46C7.01157 18.4802 6.98732 18.5025 6.95903 18.5206C6.94489 18.5307 6.93074 18.5388 6.91458 18.5469C6.90043 18.557 6.88629 18.5631 6.87214 18.5691C6.81153 18.5954 6.75091 18.6116 6.69433 18.6257C6.63573 18.6399 6.58118 18.6479 6.53066 18.6601C6.47812 18.6722 6.43165 18.6863 6.39124 18.7045C6.35082 18.7227 6.31445 18.747 6.2801 18.7773C6.24373 18.8076 6.20938 18.8439 6.17503 18.8844C6.14068 18.9248 6.10431 18.9692 6.06794 19.0117C6.03359 19.0541 5.99924 19.0965 5.96691 19.139C5.93458 19.1814 5.90427 19.2238 5.878 19.2683C5.85173 19.3107 5.82748 19.3572 5.8093 19.4037C5.79111 19.4501 5.77899 19.5006 5.77293 19.5512C5.76484 19.6017 5.76686 19.6542 5.77495 19.7047C5.77899 19.731 5.78505 19.7573 5.79515 19.7815C5.80323 19.8078 5.81536 19.832 5.8295 19.8583C5.83152 19.8623 5.83152 19.8664 5.82748 19.8684C5.82546 19.8684 5.82142 19.8684 5.8194 19.8664C5.78101 19.8239 5.7507 19.7734 5.73251 19.7189C5.71433 19.6663 5.70422 19.6077 5.70422 19.5512C5.70422 19.4946 5.71029 19.436 5.72443 19.3814C5.7406 19.3249 5.7608 19.2723 5.78707 19.2218C5.83759 19.1187 5.90427 19.0278 5.97297 18.9369C6.04369 18.85 6.10835 18.7571 6.19524 18.6803C6.23969 18.6439 6.28818 18.6116 6.34072 18.5893C6.39528 18.5671 6.44983 18.553 6.50641 18.5429C6.61755 18.5206 6.7307 18.5126 6.83577 18.4742C6.88629 18.454 6.93478 18.4277 6.97722 18.3913C7.02167 18.357 7.06208 18.3166 7.1126 18.2883C7.13887 18.2741 7.16514 18.262 7.19545 18.2559C7.22373 18.2519 7.25404 18.2519 7.28233 18.262C7.31062 18.2721 7.33487 18.2903 7.35103 18.3166C7.36922 18.3408 7.3773 18.3731 7.3672 18.4014C7.3672 18.4055 7.36316 18.4075 7.36114 18.4055C7.3571 18.4055 7.35507 18.4034 7.35507 18.3994L7.3571 18.3974Z" fill="#A992F3"/>
</g>
<mask id="mask2_2395_393" style="mask-type:luminance" maskUnits="userSpaceOnUse" x="5" y="18" width="5" height="8">
<path d="M5.43079 18.4805H9.44577V25.2294H5.43079V18.4805Z" fill="white"/>
</mask>
<g mask="url(#mask2_2395_393)">
<path d="M9.04202 25.2863C8.55505 24.8478 8.08424 24.3952 7.60131 23.9567C7.54069 23.9021 7.48209 23.8476 7.41945 23.793L7.33055 23.7102L7.2376 23.6294C7.179 23.5748 7.11636 23.5223 7.05574 23.4697L6.86984 23.3101C6.74457 23.205 6.62131 23.0959 6.49805 22.9807C6.37883 22.8656 6.26164 22.7423 6.15858 22.6029C6.10807 22.5342 6.05957 22.4614 6.01916 22.3847C5.99896 22.3463 5.98077 22.3058 5.96056 22.2675L5.93632 22.2068C5.92823 22.1866 5.91813 22.1684 5.91207 22.1462C5.85145 21.9866 5.80902 21.8209 5.77871 21.6572C5.7484 21.4915 5.72617 21.3299 5.70192 21.1682C5.69182 21.0874 5.67768 21.0086 5.66555 20.9298C5.65949 20.8894 5.65141 20.849 5.64333 20.8106C5.63524 20.7722 5.62716 20.7318 5.61908 20.6934C5.58473 20.5378 5.53421 20.3822 5.49784 20.2206C5.45945 20.0569 5.43116 19.8892 5.43722 19.7174C5.44126 19.6245 5.46955 19.5376 5.50794 19.4608C5.54431 19.382 5.59483 19.3113 5.64737 19.2486C5.70192 19.184 5.76052 19.1254 5.82114 19.0688C5.88176 19.0122 5.9444 18.9597 6.00502 18.9051C6.00906 18.9031 6.0131 18.9031 6.01512 18.9072C6.01714 18.9092 6.01714 18.9132 6.01512 18.9152C5.89792 19.0304 5.78073 19.1436 5.68374 19.2749C5.63524 19.3396 5.59079 19.4083 5.55846 19.483C5.52613 19.5558 5.5039 19.6366 5.5039 19.7174C5.5039 19.8791 5.53825 20.0407 5.58069 20.1983C5.62312 20.3559 5.67565 20.5095 5.71607 20.6691C5.79891 20.9864 5.83124 21.3137 5.8959 21.633C5.92823 21.7926 5.96865 21.9502 6.02724 22.1018C6.08382 22.2553 6.16465 22.3968 6.26164 22.5281C6.35661 22.6595 6.46774 22.7787 6.58494 22.8918C6.70213 23.005 6.82539 23.1121 6.94865 23.2192C7.19517 23.4354 7.43562 23.6576 7.67203 23.884C8.14284 24.3366 8.59748 24.8074 9.05212 25.2762C9.05414 25.2802 9.05414 25.2842 9.0501 25.2863C9.04808 25.2883 9.04404 25.2883 9.04202 25.2863Z" fill="#A992F3"/>
</g>
<path d="M6.39914 20.188C6.37287 20.0364 6.32437 19.9031 6.28396 19.7555C6.26578 19.6828 6.24961 19.606 6.24153 19.5252C6.23749 19.4848 6.23547 19.4424 6.23749 19.3999C6.23951 19.3575 6.24557 19.313 6.25567 19.2706C6.26578 19.2282 6.2779 19.1857 6.29811 19.1433C6.31831 19.1029 6.34256 19.0625 6.37287 19.0281C6.40318 18.9918 6.43955 18.9574 6.47592 18.9352C6.51229 18.9089 6.55068 18.8907 6.58503 18.8746L6.68202 18.8301C6.71435 18.816 6.74466 18.7978 6.77699 18.7796C6.84165 18.7452 6.90227 18.7028 6.97097 18.6644H6.97299C6.97704 18.6624 6.98108 18.6644 6.9831 18.6664C6.9831 18.6685 6.9831 18.6725 6.98108 18.6745C6.93056 18.7291 6.87802 18.7836 6.82145 18.8321C6.79316 18.8584 6.76285 18.8806 6.73254 18.9028C6.70021 18.9231 6.66788 18.9433 6.63757 18.9614C6.57291 18.9998 6.51027 19.0423 6.46784 19.1009C6.42338 19.1595 6.3951 19.2282 6.37893 19.2989C6.36277 19.3716 6.35872 19.4444 6.36075 19.5191C6.36479 19.5939 6.37489 19.6666 6.38499 19.7414C6.39712 19.8141 6.40924 19.8889 6.4153 19.9637C6.42136 20.0384 6.42136 20.1152 6.41126 20.19C6.41126 20.192 6.40722 20.196 6.40318 20.194C6.40116 20.194 6.39914 20.192 6.39914 20.19V20.188Z" fill="#A992F3"/>
<path d="M5.94468 19.7191C5.95277 19.612 5.96893 19.511 5.9851 19.412C6.00328 19.313 6.02147 19.214 6.03965 19.117C6.04976 19.0665 6.05986 19.0139 6.07603 18.9614C6.08613 18.9351 6.09421 18.9089 6.10836 18.8826C6.11442 18.8685 6.12048 18.8563 6.12654 18.8442C6.13058 18.8361 6.13664 18.8301 6.14069 18.822C6.14473 18.8159 6.15079 18.8099 6.15483 18.8038C6.19524 18.7553 6.24374 18.723 6.29425 18.6967C6.34477 18.6745 6.40135 18.6583 6.4559 18.6644H6.45792C6.45994 18.6664 6.46196 18.6684 6.46196 18.6704C6.46196 18.6725 6.45994 18.6745 6.45792 18.6745C6.40943 18.6846 6.36295 18.7088 6.32254 18.7371C6.28011 18.7674 6.24374 18.8018 6.21545 18.8442C6.2013 18.8644 6.1912 18.8866 6.18312 18.9109C6.17302 18.9351 6.16695 18.9594 6.15887 18.9836C6.14675 19.0321 6.13867 19.0826 6.12856 19.1332C6.10836 19.2342 6.08411 19.3332 6.05582 19.4322C6.04167 19.4807 6.02551 19.5312 6.00732 19.5797C5.99116 19.6282 5.97297 19.6747 5.95277 19.7232C5.95075 19.7252 5.94873 19.7252 5.94671 19.7252C5.94468 19.7232 5.94266 19.7212 5.94468 19.7212V19.7191Z" fill="#A992F3"/>
<path d="M8.58772 17.1958C8.59176 17.1857 8.60186 17.1776 8.61196 17.1755C8.62207 17.1715 8.63419 17.1715 8.64631 17.1735C8.67056 17.1816 8.68673 17.1998 8.70087 17.216C8.71502 17.2321 8.72512 17.2483 8.73926 17.2564C8.75139 17.2665 8.76149 17.2665 8.76957 17.2624C8.77563 17.2584 8.78372 17.2503 8.78978 17.2362C8.79382 17.222 8.79786 17.2059 8.79786 17.1897C8.79988 17.1533 8.79584 17.117 8.78776 17.0846C8.77765 17.0503 8.76351 17.022 8.7433 16.9998C8.72108 16.9775 8.69683 16.9614 8.67258 16.9573C8.62005 16.9472 8.55741 16.9775 8.52104 17.024C8.48264 17.0725 8.46648 17.1412 8.4685 17.2139C8.47052 17.2847 8.48466 17.3594 8.51295 17.4281C8.54124 17.4968 8.58367 17.5595 8.64025 17.61C8.69683 17.6605 8.76755 17.7009 8.84838 17.7191C8.76553 17.7272 8.67864 17.705 8.60388 17.6605C8.52912 17.6181 8.46648 17.5494 8.42405 17.4726C8.40182 17.4342 8.38363 17.3918 8.37151 17.3493C8.35939 17.3069 8.3513 17.2645 8.34726 17.218C8.34524 17.1735 8.34726 17.1271 8.35736 17.0786C8.36949 17.0321 8.38969 16.9876 8.42 16.9452C8.45233 16.9048 8.49275 16.8745 8.54124 16.8543C8.58974 16.8341 8.64429 16.826 8.69885 16.8401C8.75341 16.8543 8.79786 16.8886 8.82817 16.929C8.8605 16.9694 8.87869 17.0179 8.88475 17.0644C8.89283 17.1109 8.88879 17.1574 8.88071 17.1998C8.87464 17.2261 8.86656 17.2483 8.85444 17.2705C8.84636 17.2826 8.83827 17.2927 8.82615 17.3028C8.81605 17.3109 8.79988 17.319 8.78372 17.3231C8.76755 17.3251 8.75139 17.3231 8.73724 17.317C8.7231 17.3109 8.71299 17.3008 8.70491 17.2927C8.68875 17.2725 8.67864 17.2523 8.67056 17.2341C8.66248 17.218 8.6544 17.1998 8.63823 17.1917C8.62409 17.1836 8.60186 17.1796 8.58772 17.1958Z" fill="#A992F3"/>
<mask id="mask3_2395_393" style="mask-type:luminance" maskUnits="userSpaceOnUse" x="5" y="14" width="4" height="5">
<path d="M5.43079 14.3428H8.92849V18.481H5.43079V14.3428Z" fill="white"/>
</mask>
<g mask="url(#mask3_2395_393)">
<path d="M8.79705 14.7024C8.53033 14.6276 8.25956 14.5569 7.99082 14.5327C7.85544 14.5104 7.72208 14.5003 7.5867 14.5064C7.45334 14.5104 7.31795 14.5286 7.18863 14.5589C7.12195 14.5731 7.05729 14.5933 6.99465 14.6135C6.93201 14.6357 6.86937 14.662 6.80876 14.6923C6.75016 14.7206 6.69156 14.7529 6.637 14.7913C6.58043 14.8277 6.52789 14.8681 6.47737 14.9125C6.27531 15.0863 6.11972 15.3146 6.02071 15.5632C5.91968 15.8117 5.87523 16.0825 5.87725 16.3512C5.88331 16.622 5.93383 16.8907 6.03082 17.1433C6.12781 17.3939 6.27329 17.6262 6.46323 17.8162C6.64104 18.0182 6.86533 18.1819 7.12397 18.287C6.85119 18.2324 6.59053 18.095 6.37432 17.9051C6.16822 17.703 6.01465 17.4545 5.9116 17.1898C5.80855 16.9231 5.75601 16.6381 5.75197 16.3532C5.74591 16.0683 5.7944 15.7814 5.9015 15.5147C6.00859 15.248 6.1763 15.0055 6.39453 14.8155C6.44908 14.7691 6.50566 14.7246 6.56628 14.6842C6.6269 14.6438 6.68954 14.6094 6.7542 14.5771C6.81886 14.5448 6.88554 14.5185 6.95222 14.4943C7.02092 14.47 7.08962 14.4498 7.15832 14.4336C7.43717 14.369 7.72814 14.3609 8.01103 14.4054C8.28987 14.47 8.54851 14.5791 8.79705 14.7024Z" fill="#A992F3"/>
</g>
<path d="M9.87061 15.6235C9.88476 15.6397 9.8989 15.6579 9.91305 15.6781C9.92113 15.6882 9.92719 15.6983 9.93325 15.7084C9.93932 15.7205 9.94336 15.7326 9.94538 15.7468C9.9474 15.7609 9.9474 15.7731 9.94942 15.7832C9.94942 15.7933 9.95144 15.8034 9.95346 15.8135C9.95952 15.8337 9.96356 15.8559 9.97165 15.8761C9.97771 15.8963 9.98377 15.9206 9.98983 15.9428C9.99589 15.965 10.002 15.9893 10.006 16.0135C10.0141 16.06 10.0181 16.1065 10.0181 16.155C10.0181 16.2499 9.99993 16.3469 9.96356 16.4358C9.95548 16.4581 9.94538 16.4803 9.93123 16.5025C9.91709 16.5227 9.90092 16.5429 9.88274 16.5591C9.84637 16.5934 9.79989 16.6177 9.75342 16.6197C9.79585 16.5975 9.82616 16.5672 9.85041 16.5308C9.86051 16.5126 9.87061 16.4944 9.8787 16.4742C9.88678 16.456 9.89082 16.4358 9.89688 16.4136C9.91709 16.3287 9.92719 16.2418 9.92719 16.155C9.92719 16.1125 9.92315 16.0681 9.91911 16.0236C9.91709 16.0034 9.91507 15.9812 9.91103 15.959L9.90092 15.8923C9.89688 15.868 9.89486 15.8438 9.89486 15.8195C9.89486 15.8074 9.89486 15.7953 9.89688 15.7811C9.8989 15.769 9.90092 15.7569 9.90092 15.7488C9.90497 15.7326 9.89688 15.7104 9.89082 15.6882L9.87061 15.6235Z" fill="#A992F3"/>
<path d="M9.94712 16.3209C10.0017 16.4138 10.0825 16.4866 10.1775 16.527C10.2017 16.5371 10.226 16.5452 10.2502 16.5492C10.2745 16.5553 10.3007 16.5593 10.329 16.5654C10.3573 16.5714 10.3856 16.5775 10.4139 16.5937C10.4402 16.6078 10.4664 16.628 10.4866 16.6563C10.4967 16.6704 10.5048 16.6866 10.5089 16.7048C10.5129 16.723 10.5129 16.7412 10.5089 16.7593C10.5028 16.7937 10.4886 16.82 10.4785 16.8442C10.4684 16.8664 10.4624 16.8866 10.4644 16.9028C10.4644 16.921 10.4705 16.9412 10.4806 16.9634C10.4907 16.9836 10.5048 17.0059 10.519 17.0301C10.5331 17.0564 10.5452 17.0826 10.5553 17.1109C10.5755 17.1655 10.5877 17.2241 10.5856 17.2847C10.5836 17.315 10.5796 17.3473 10.5695 17.3756C10.5614 17.4059 10.5472 17.4342 10.5351 17.4585C10.521 17.4807 10.5109 17.5029 10.5048 17.5231C10.4988 17.5413 10.5008 17.5595 10.5048 17.5817C10.5068 17.606 10.5149 17.6302 10.523 17.6565C10.527 17.6706 10.5291 17.6848 10.5331 17.701C10.5331 17.7171 10.5351 17.7313 10.5351 17.7474C10.5371 17.808 10.5169 17.8687 10.4866 17.9192C10.4583 17.9697 10.4179 18.0142 10.3715 18.0485C10.325 18.0829 10.2745 18.1071 10.2219 18.1253C10.1148 18.1576 10.0037 18.1637 9.89661 18.1596C10.0037 18.1435 10.1088 18.1253 10.2058 18.0829C10.2522 18.0626 10.2967 18.0364 10.3351 18.002C10.3715 17.9677 10.4038 17.9293 10.424 17.8848C10.4361 17.8646 10.4442 17.8404 10.4482 17.8182C10.4543 17.7959 10.4563 17.7717 10.4543 17.7495C10.4543 17.7252 10.4503 17.705 10.4422 17.6807C10.4341 17.6545 10.426 17.6282 10.4199 17.5979C10.4159 17.5838 10.4139 17.5676 10.4139 17.5514C10.4139 17.5332 10.4159 17.5151 10.4199 17.4989C10.428 17.4666 10.4422 17.4403 10.4543 17.416C10.4684 17.3918 10.4765 17.3716 10.4826 17.3494C10.4886 17.3271 10.4927 17.3049 10.4947 17.2807C10.4967 17.2342 10.4886 17.1857 10.4725 17.1412C10.4644 17.117 10.4543 17.0948 10.4422 17.0725C10.4301 17.0503 10.4159 17.0261 10.4038 16.9998C10.3917 16.9715 10.3795 16.9392 10.3795 16.9028C10.3795 16.8866 10.3836 16.8685 10.3896 16.8523C10.3937 16.8361 10.3997 16.822 10.4058 16.8099C10.4199 16.7836 10.4301 16.7634 10.4341 16.7452C10.4381 16.727 10.4381 16.7108 10.428 16.6947C10.4179 16.6765 10.4018 16.6624 10.3816 16.6502C10.3634 16.6381 10.3391 16.63 10.3149 16.6219C10.2906 16.6159 10.2623 16.6098 10.2361 16.5997C10.2098 16.5916 10.1835 16.5795 10.1593 16.5654C10.0603 16.5108 9.98147 16.4219 9.94712 16.3188V16.3209Z" fill="#A992F3"/>
<path d="M10.0365 16.6436C10.1214 16.6678 10.1963 16.7143 10.2671 16.7669C10.3358 16.8215 10.3985 16.8863 10.4471 16.9611C10.4976 17.0339 10.534 17.1188 10.5441 17.2099C10.5482 17.2564 10.5462 17.3009 10.5361 17.3454C10.5239 17.3878 10.5077 17.4303 10.4814 17.4647C10.5037 17.3818 10.5077 17.2988 10.4875 17.22C10.4693 17.1411 10.4329 17.0683 10.3864 17.0015C10.3419 16.9328 10.2873 16.8701 10.2286 16.8094C10.17 16.7507 10.1053 16.6961 10.0365 16.6436Z" fill="#A992F3"/>
<path d="M7.41321 19.1879C7.4516 18.9535 7.56071 18.7332 7.7163 18.5494C7.79511 18.4584 7.88603 18.3776 7.98707 18.3089C8.08608 18.2422 8.19721 18.1897 8.31441 18.1513C8.54678 18.0745 8.79936 18.0664 9.03779 18.119C9.15903 18.1452 9.2742 18.1877 9.38332 18.2463C9.49243 18.3028 9.59346 18.3756 9.68439 18.4584C9.86221 18.6261 9.99961 18.8322 10.1067 19.0464C10.1592 19.1535 10.2057 19.2647 10.2461 19.3758C10.2663 19.4324 10.2865 19.489 10.3047 19.5435C10.3229 19.5981 10.3431 19.6526 10.3653 19.7031C10.4118 19.8062 10.4765 19.8951 10.5694 19.9476C10.6179 19.9759 10.6705 20.0002 10.725 20.0285C10.7513 20.0426 10.7796 20.0567 10.8038 20.077C10.8301 20.0951 10.8543 20.1153 10.8745 20.1396C10.917 20.184 10.9493 20.2386 10.9756 20.2952C10.9998 20.3497 11.016 20.4083 11.0261 20.469C11.0463 20.5861 11.0423 20.7054 11.0382 20.8226C11.0281 20.7054 11.02 20.5882 10.9917 20.475C10.9634 20.3639 10.9109 20.2588 10.8301 20.182C10.7917 20.1436 10.7452 20.1174 10.6927 20.0931C10.6401 20.0709 10.5856 20.0507 10.529 20.0224C10.4724 19.9941 10.4199 19.9517 10.3795 19.9032C10.3371 19.8547 10.3047 19.8021 10.2764 19.7456C10.2199 19.6365 10.1835 19.5233 10.1411 19.4162C10.0986 19.3091 10.0521 19.202 9.99759 19.101C9.89252 18.8969 9.76319 18.7049 9.5975 18.5514C9.51466 18.4746 9.42373 18.4079 9.32472 18.3554C9.22773 18.3008 9.12064 18.2624 9.01152 18.2362C8.90241 18.2099 8.78925 18.1958 8.6761 18.1978C8.56496 18.1998 8.45181 18.216 8.3427 18.2463C8.12447 18.3069 7.92241 18.4261 7.76278 18.5918C7.60113 18.7555 7.47787 18.9616 7.41321 19.1879Z" fill="#A992F3"/>
<path d="M11.9416 20.0426C12.0042 20.0365 12.0669 20.0628 12.1154 20.1052C12.1639 20.1457 12.1982 20.2022 12.2184 20.2629C12.2366 20.3255 12.2427 20.3902 12.2427 20.4528C12.2427 20.5154 12.2386 20.5781 12.2326 20.6387C12.2184 20.764 12.1962 20.8872 12.1618 21.0085C12.1275 21.1297 12.079 21.2469 12.0163 21.358C11.9537 21.4692 11.8789 21.5722 11.786 21.6631C11.693 21.7541 11.586 21.8288 11.4688 21.8854C11.3516 21.942 11.2263 21.9743 11.099 21.9925C10.9697 22.0087 10.8403 22.0087 10.713 21.9925C10.4584 21.9582 10.218 21.8632 9.99976 21.7399C9.89065 21.6753 9.78557 21.6066 9.68656 21.5298C9.58755 21.453 9.49461 21.3681 9.40772 21.2752C9.32285 21.1822 9.24405 21.0832 9.17737 20.9782C9.11069 20.8711 9.05209 20.7599 9.00763 20.6407C8.92075 20.4063 8.88236 20.1537 8.91469 19.9072C8.91064 20.1558 8.9652 20.3982 9.06623 20.6185C9.16524 20.8387 9.30871 21.0368 9.48046 21.2065C9.65221 21.3742 9.84821 21.5197 10.0584 21.6349C10.2685 21.75 10.4948 21.8369 10.7312 21.8672C10.8464 21.8814 10.9656 21.8834 11.0828 21.8693C11.198 21.8551 11.3132 21.8228 11.4182 21.7763C11.5253 21.7278 11.6223 21.6631 11.7092 21.5823C11.7941 21.5015 11.8688 21.4086 11.9315 21.3075C11.9941 21.2065 12.0426 21.0974 12.083 20.9822C12.1214 20.869 12.1497 20.7498 12.1699 20.6306C12.1901 20.5114 12.2103 20.3881 12.1841 20.273C12.1719 20.2144 12.1436 20.1618 12.1032 20.1174C12.0608 20.0749 12.0042 20.0446 11.9416 20.0426Z" fill="#A992F3"/>
<path d="M8.05615 22.1643C8.26832 22.1866 8.47442 22.1664 8.68053 22.13C8.88461 22.0956 9.08869 22.0451 9.30086 22.0087C9.35339 21.9986 9.40593 21.9906 9.46049 21.9845C9.51302 21.9784 9.56758 21.9724 9.62012 21.9703C9.67467 21.9663 9.72923 21.9663 9.78379 21.9663C9.83834 21.9683 9.8929 21.9744 9.94746 21.9805C10.002 21.9885 10.0546 21.9986 10.1071 22.0128C10.1596 22.0269 10.2122 22.0451 10.2627 22.0653C10.3112 22.0875 10.3597 22.1138 10.4061 22.1421C10.4506 22.1724 10.493 22.2068 10.5314 22.2431C10.3475 22.136 10.1414 22.0896 9.93735 22.0795C9.73327 22.0694 9.52717 22.0976 9.32106 22.134C9.11496 22.1684 8.90684 22.2128 8.69265 22.229C8.58556 22.2371 8.47644 22.2391 8.36935 22.231C8.26226 22.2209 8.15516 22.2027 8.05615 22.1643Z" fill="#A992F3"/>
<path d="M9.24414 22.5803C9.38761 22.4752 9.54723 22.3904 9.72101 22.3358C9.89276 22.2833 10.0827 22.2611 10.2686 22.2934C10.2908 22.2995 10.3131 22.3035 10.3353 22.3096C10.3595 22.3156 10.3818 22.3217 10.404 22.3298C10.4464 22.3439 10.4888 22.3601 10.5313 22.3783C10.6121 22.4126 10.6909 22.451 10.7697 22.4833C10.8485 22.5157 10.9293 22.5419 11.0122 22.552C11.0971 22.5642 11.1819 22.5601 11.2668 22.5298C11.1961 22.5844 11.1031 22.6106 11.0102 22.6147C10.9172 22.6187 10.8243 22.6025 10.7374 22.5783C10.5636 22.5278 10.406 22.447 10.2444 22.4187C10.0827 22.3904 9.91297 22.4005 9.74526 22.4328C9.57754 22.4651 9.41185 22.5217 9.24414 22.5803Z" fill="#A992F3"/>
<path d="M11.0851 22.328C11.1053 22.332 11.1255 22.3381 11.1457 22.3381C11.1659 22.3421 11.1861 22.3421 11.2063 22.3441C11.2488 22.3441 11.2892 22.3421 11.3296 22.3381C11.4104 22.332 11.4932 22.3179 11.5822 22.3179C11.6246 22.3179 11.6711 22.3199 11.7175 22.33L11.7499 22.3381C11.762 22.3421 11.7741 22.3462 11.7842 22.3502C11.7963 22.3542 11.8064 22.3583 11.8165 22.3643C11.8287 22.3684 11.8388 22.3744 11.8489 22.3805C11.9337 22.429 11.9984 22.5058 12.0368 22.5907C12.057 22.6331 12.0732 22.6755 12.0813 22.722C12.0914 22.7664 12.0974 22.8129 12.0974 22.8594C12.0954 22.9039 12.0914 22.9503 12.0813 22.9948C12.0691 23.0372 12.057 23.0817 12.0388 23.1221C12.0045 23.2029 11.958 23.2756 11.9055 23.3443C11.8529 23.411 11.7943 23.4716 11.7297 23.5282C11.8145 23.3827 11.9014 23.2393 11.9438 23.0877C11.956 23.0493 11.9641 23.0109 11.9701 22.9726C11.9762 22.9342 11.9782 22.8978 11.9762 22.8614C11.9742 22.823 11.9681 22.7867 11.96 22.7503C11.956 22.7321 11.9499 22.7139 11.9438 22.6957C11.9378 22.6796 11.9317 22.6614 11.9236 22.6452C11.9075 22.6129 11.8873 22.5806 11.865 22.5543C11.8428 22.526 11.8165 22.5017 11.7862 22.4836C11.7276 22.4452 11.6549 22.425 11.5761 22.4169C11.4973 22.4088 11.4144 22.4088 11.3296 22.4007C11.2871 22.3967 11.2427 22.3906 11.2023 22.3785C11.1598 22.3684 11.1194 22.3502 11.0851 22.328Z" fill="#A992F3"/>
<path d="M11.7601 22.1021C11.8167 22.0899 11.8733 22.0798 11.9319 22.0758C11.9885 22.0717 12.0471 22.0717 12.1057 22.0758C12.1643 22.0818 12.2229 22.0899 12.2794 22.1061C12.2936 22.1101 12.3077 22.1142 12.3219 22.1182C12.336 22.1223 12.3502 22.1283 12.3643 22.1324C12.3784 22.1384 12.3926 22.1445 12.4067 22.1505L12.4471 22.1687C12.5017 22.197 12.5542 22.2294 12.6007 22.2677C12.6472 22.3082 12.6896 22.3546 12.726 22.4031C12.7603 22.4536 12.7907 22.5082 12.8129 22.5668C12.8351 22.6234 12.8513 22.682 12.8634 22.7426C12.8715 22.8032 12.8755 22.8638 12.8755 22.9244C12.8715 22.9851 12.8654 23.0457 12.8513 23.1043C12.8371 23.1649 12.8169 23.2215 12.7927 23.276C12.7684 23.3306 12.7381 23.3831 12.7058 23.4316C12.5704 23.6296 12.3744 23.7751 12.1622 23.86C12.3502 23.7287 12.5118 23.569 12.6209 23.3791C12.6472 23.3326 12.6694 23.2841 12.6896 23.2336C12.7078 23.1831 12.7219 23.1326 12.7341 23.08C12.7422 23.0275 12.7482 22.975 12.7482 22.9224C12.7502 22.8679 12.7462 22.8153 12.7381 22.7628C12.728 22.7123 12.7139 22.6597 12.6957 22.6113C12.6775 22.5628 12.6532 22.5163 12.625 22.4718C12.5967 22.4274 12.5623 22.389 12.5259 22.3526L12.4956 22.3263C12.4876 22.3162 12.4754 22.3102 12.4653 22.3021L12.4492 22.288L12.433 22.2778C12.4229 22.2698 12.4108 22.2617 12.4007 22.2556C12.3077 22.2011 12.2047 22.1607 12.0956 22.1364C12.041 22.1243 11.9864 22.1162 11.9299 22.1101C11.8753 22.1061 11.8187 22.1041 11.7601 22.1021Z" fill="#A992F3"/>
<path d="M10.222 19.4344C10.2524 19.4364 10.2806 19.4283 10.3069 19.4182C10.3332 19.4061 10.3574 19.3919 10.3797 19.3738C10.4241 19.3394 10.4645 19.295 10.5191 19.2545C10.5453 19.2364 10.5757 19.2182 10.61 19.206C10.6423 19.1939 10.6767 19.1879 10.711 19.1858C10.7797 19.1818 10.8464 19.1939 10.907 19.2101C10.9394 19.2162 10.9677 19.2242 10.9959 19.2323C11.0263 19.2404 11.0525 19.2485 11.0808 19.2545C11.1333 19.2667 11.194 19.2687 11.2627 19.2889C11.297 19.299 11.3334 19.3152 11.3677 19.3414C11.4021 19.3657 11.4284 19.4 11.4486 19.4344C11.487 19.5051 11.495 19.5859 11.487 19.6587C11.4768 19.7294 11.4566 19.792 11.4304 19.8547C11.4021 19.9153 11.3657 19.9739 11.3192 20.0264C11.297 20.0507 11.2707 20.0749 11.2445 20.0951C11.2364 20.1012 11.2303 20.1072 11.2223 20.1113C11.2162 20.1173 11.2061 20.1214 11.198 20.1275C11.1818 20.1355 11.1657 20.1456 11.1475 20.1517C11.1131 20.1658 11.0768 20.1739 11.0404 20.1759C11.004 20.178 10.9697 20.1759 10.9353 20.1719C10.901 20.1658 10.8686 20.1578 10.8383 20.1477C10.8302 20.1456 10.8222 20.1416 10.8141 20.1396L10.7959 20.1315L10.7535 20.1194C10.7373 20.1133 10.7211 20.1072 10.703 20.0992C10.6848 20.0911 10.6666 20.0769 10.6504 20.0608C10.6423 20.0507 10.6363 20.0426 10.6322 20.0325C10.6302 20.0264 10.6262 20.0224 10.6241 20.0163L10.6201 20.0022C10.6181 19.9941 10.6161 19.984 10.614 19.9759C10.614 19.9658 10.612 19.9577 10.612 19.9476C10.61 19.9133 10.6161 19.8789 10.6241 19.8486C10.6322 19.8163 10.6403 19.788 10.6504 19.7597C10.6605 19.7314 10.6686 19.7031 10.6747 19.6748C10.6807 19.6465 10.6848 19.6183 10.6807 19.5879C10.6807 19.5839 10.6807 19.5819 10.6848 19.5819C10.6868 19.5819 10.6888 19.5839 10.6888 19.5859C10.705 19.6445 10.6949 19.7072 10.6807 19.7658C10.6747 19.7961 10.6686 19.8244 10.6625 19.8547C10.6585 19.885 10.6565 19.9133 10.6585 19.9436C10.6585 19.9496 10.6625 19.9577 10.6625 19.9638C10.6646 19.9719 10.6666 19.9799 10.6686 19.986C10.6726 20.0002 10.6807 20.0123 10.6908 20.0224C10.711 20.0426 10.7393 20.0527 10.7676 20.0588L10.8121 20.0709L10.8545 20.083C10.8848 20.0911 10.9131 20.0971 10.9434 20.1012C11.002 20.1072 11.0626 20.1032 11.1172 20.079C11.1434 20.0668 11.1677 20.0507 11.1919 20.0325C11.2142 20.0143 11.2364 19.9921 11.2546 19.9698C11.293 19.9254 11.3253 19.8729 11.3496 19.8183C11.3718 19.7637 11.39 19.7072 11.396 19.6486C11.4041 19.59 11.396 19.5293 11.3698 19.4768C11.3556 19.4505 11.3374 19.4283 11.3152 19.4101C11.291 19.3919 11.2647 19.3798 11.2364 19.3717C11.1798 19.3536 11.1192 19.3475 11.0606 19.3313C11.002 19.3172 10.9454 19.295 10.8868 19.2788C10.8302 19.2606 10.7717 19.2485 10.711 19.2485C10.6827 19.2485 10.6524 19.2525 10.6241 19.2606C10.5959 19.2667 10.5696 19.2808 10.5433 19.297C10.4928 19.3273 10.4484 19.3677 10.3958 19.4C10.3695 19.4162 10.3413 19.4303 10.313 19.4384C10.2827 19.4465 10.2524 19.4485 10.22 19.4425C10.218 19.4425 10.216 19.4404 10.218 19.4384C10.218 19.4364 10.22 19.4344 10.222 19.4344Z" fill="#A992F3"/>
<path d="M10.9151 19.5152C10.9555 19.5577 10.9798 19.6103 10.994 19.6649C11.0081 19.7175 11.0122 19.7741 11.0061 19.8287C11.0021 19.8853 10.9879 19.9399 10.9636 19.9905C10.9394 20.039 10.907 20.0876 10.8605 20.122H10.8585C10.8585 20.124 10.8544 20.124 10.8544 20.122C10.8544 20.1199 10.8524 20.1199 10.8544 20.1179C10.8767 20.0714 10.8928 20.0229 10.907 19.9743C10.9212 19.9238 10.9292 19.8732 10.9333 19.8226C10.9394 19.7721 10.9394 19.7215 10.9353 19.6689C10.9313 19.6184 10.9212 19.5678 10.909 19.5172C10.909 19.5152 10.909 19.5132 10.911 19.5132C10.9131 19.5132 10.9131 19.5132 10.9151 19.5152Z" fill="#A992F3"/>
<path d="M11.1436 19.5191C11.1861 19.5535 11.2144 19.6 11.2326 19.6486C11.2508 19.6971 11.2609 19.7517 11.2589 19.8043C11.2589 19.8569 11.2468 19.9095 11.2266 19.958C11.2043 20.0045 11.174 20.051 11.1295 20.0834C11.1275 20.0854 11.1254 20.0854 11.1234 20.0834C11.1234 20.0814 11.1234 20.0814 11.1234 20.0793C11.1436 20.0369 11.1578 19.9904 11.1699 19.9438C11.18 19.8973 11.1861 19.8488 11.1861 19.8023C11.1881 19.7537 11.1841 19.7072 11.176 19.6587C11.1679 19.6121 11.1538 19.5656 11.1355 19.5211C11.1355 19.5191 11.1355 19.5171 11.1376 19.5171C11.1396 19.5171 11.1396 19.5171 11.1416 19.5171L11.1436 19.5191Z" fill="#A992F3"/>
<path d="M11.2567 19.9805C11.287 19.936 11.3315 19.9097 11.3781 19.8956C11.4246 19.8794 11.4751 19.8753 11.5217 19.8834C11.5702 19.8895 11.6187 19.9077 11.6592 19.936C11.6976 19.9623 11.734 20.0007 11.7502 20.0513L11.7522 20.0533C11.7522 20.0554 11.7522 20.0594 11.7502 20.0594C11.7482 20.0594 11.7462 20.0594 11.7462 20.0594L11.7178 20.0432L11.6612 20.0149L11.6329 20.0028C11.5924 19.9886 11.552 19.9785 11.5095 19.9724C11.4691 19.9664 11.4266 19.9643 11.3841 19.9684L11.3518 19.9704L11.3214 19.9745L11.2891 19.9805L11.2587 19.9886C11.2567 19.9886 11.2547 19.9886 11.2547 19.9866C11.2527 19.9846 11.2547 19.9825 11.2547 19.9825L11.2567 19.9805Z" fill="#A992F3"/>
<path d="M11.4039 19.6491C11.4423 19.5783 11.4828 19.5177 11.5353 19.459C11.5879 19.4024 11.6587 19.3498 11.7437 19.3235C11.7861 19.3114 11.8326 19.3053 11.8792 19.3094C11.8933 19.3114 11.9095 19.3134 11.9237 19.3195C11.9398 19.3235 11.956 19.3316 11.9742 19.3478C11.9843 19.3559 11.9924 19.366 11.9985 19.3801C12.0066 19.3923 12.0086 19.4064 12.0106 19.4206C12.0106 19.4347 12.0086 19.4489 12.0046 19.461C11.9985 19.4732 11.9944 19.4813 11.9884 19.4894C11.9762 19.5055 11.9641 19.5136 11.952 19.5197C11.9419 19.5278 11.9318 19.5318 11.9237 19.5359C11.9055 19.5419 11.8873 19.548 11.8691 19.5561C11.8326 19.5662 11.7983 19.5783 11.7578 19.5864H11.7558C11.7517 19.5864 11.7497 19.5844 11.7497 19.5824C11.7497 19.5804 11.7497 19.5783 11.7517 19.5783L11.8428 19.5136L11.8873 19.4833C11.9034 19.4732 11.9176 19.4631 11.9277 19.4489C11.9358 19.4368 11.9358 19.4186 11.9237 19.4105C11.9115 19.4004 11.8933 19.3963 11.8751 19.3963C11.8407 19.3943 11.8043 19.4004 11.77 19.4105C11.7012 19.4327 11.6385 19.4712 11.5819 19.5177C11.5515 19.5399 11.5232 19.5642 11.4969 19.5864C11.4666 19.6107 11.4383 19.633 11.4079 19.6552C11.4059 19.6572 11.4039 19.6572 11.4019 19.6552C11.4019 19.6532 11.4019 19.6512 11.4019 19.6491H11.4039Z" fill="#A992F3"/>
<path d="M11.9415 19.4187C11.9881 19.3641 12.0589 19.3338 12.1317 19.3277C12.1701 19.3237 12.2065 19.3257 12.2429 19.3338C12.253 19.3358 12.2611 19.3378 12.2712 19.3419C12.2793 19.3439 12.2894 19.3459 12.2975 19.35C12.3076 19.354 12.3157 19.358 12.3238 19.3621C12.3319 19.3641 12.344 19.3722 12.3582 19.3803C12.3703 19.3904 12.3845 19.4025 12.3966 19.4288C12.4027 19.441 12.4087 19.4592 12.4067 19.4774C12.4067 19.4956 12.4027 19.5118 12.3946 19.5259C12.3845 19.5421 12.3744 19.5522 12.3642 19.5583C12.3562 19.5664 12.3481 19.5704 12.34 19.5724C12.3339 19.5765 12.3278 19.5785 12.3218 19.5805C12.3157 19.5825 12.3137 19.5825 12.3096 19.5825C12.2793 19.5906 12.2469 19.5987 12.2166 19.6028C12.1519 19.6129 12.0872 19.6189 12.0164 19.6109H12.0144C12.0123 19.6109 12.0103 19.6088 12.0103 19.6048C12.0103 19.6048 12.0123 19.6028 12.0144 19.6028L12.1033 19.5684L12.2813 19.5016C12.2955 19.4976 12.3117 19.4915 12.3157 19.4814C12.3177 19.4774 12.3177 19.4733 12.3157 19.4673C12.3137 19.4632 12.3076 19.4571 12.3036 19.4531C12.2975 19.4491 12.2914 19.445 12.2833 19.443C12.2773 19.4389 12.2692 19.4349 12.2631 19.4329C12.249 19.4268 12.2348 19.4207 12.2186 19.4167C12.1903 19.4066 12.158 19.4025 12.1276 19.3985C12.0973 19.3965 12.0649 19.3985 12.0346 19.4025C12.0042 19.4066 11.9739 19.4147 11.9436 19.4268C11.9415 19.4268 11.9395 19.4268 11.9375 19.4248C11.9375 19.4228 11.9375 19.4207 11.9395 19.4187H11.9415Z" fill="#A992F3"/>
<path d="M12.3315 19.4725C12.3416 19.4664 12.3538 19.4624 12.3679 19.4604C12.3801 19.4563 12.3922 19.4563 12.4064 19.4584C12.4327 19.4604 12.463 19.4705 12.4873 19.4968C12.4994 19.5089 12.5095 19.5251 12.5156 19.5413C12.5237 19.5575 12.5257 19.5757 12.5257 19.5979C12.5257 19.6181 12.5196 19.6404 12.5095 19.6606C12.4974 19.6808 12.4812 19.697 12.463 19.7092C12.4286 19.7314 12.4003 19.7334 12.3781 19.7354C12.3578 19.7375 12.3376 19.7375 12.3174 19.7354C12.2749 19.7334 12.2324 19.7253 12.1859 19.7011L12.1839 19.699C12.1819 19.699 12.1798 19.697 12.1819 19.695C12.1819 19.693 12.1839 19.693 12.1839 19.693L12.2425 19.6788L12.3598 19.6525C12.3801 19.6485 12.3983 19.6424 12.4145 19.6323C12.4286 19.6242 12.4387 19.608 12.4407 19.5898C12.4428 19.5716 12.4367 19.5534 12.4266 19.5372C12.4165 19.5231 12.4003 19.5109 12.3841 19.5008C12.3679 19.4927 12.3477 19.4867 12.3295 19.4826C12.3275 19.4806 12.3255 19.4786 12.3255 19.4766L12.3275 19.4745L12.3315 19.4725Z" fill="#A992F3"/>
<path d="M12.4289 19.6223C12.4956 19.6061 12.5705 19.6263 12.6311 19.6668C12.6615 19.687 12.6898 19.7133 12.712 19.7436C12.7363 19.776 12.7505 19.8104 12.7626 19.8468C12.7747 19.8832 12.7808 19.9216 12.7828 19.958C12.7849 19.9964 12.7808 20.0349 12.7727 20.0713C12.7687 20.0895 12.7646 20.1077 12.7586 20.1259C12.7525 20.1441 12.7464 20.1603 12.7383 20.1785C12.7282 20.1967 12.7181 20.2149 12.704 20.2351C12.6898 20.2533 12.6716 20.2715 12.6473 20.2857C12.6352 20.2938 12.6231 20.2998 12.6048 20.3059C12.5907 20.3099 12.5745 20.312 12.5583 20.312C12.528 20.3099 12.4977 20.3039 12.4693 20.2857C12.4552 20.2756 12.441 20.2634 12.4309 20.2472C12.4188 20.2311 12.4107 20.2108 12.4087 20.1906C12.4046 20.1724 12.4066 20.1562 12.4087 20.1421C12.4107 20.1299 12.4147 20.1198 12.4168 20.1138C12.4188 20.1057 12.4188 20.1016 12.4208 20.0976C12.4208 20.0935 12.4228 20.0875 12.4228 20.0834C12.4228 20.0733 12.4228 20.0632 12.4228 20.0531C12.4208 20.043 12.4168 20.0329 12.4147 20.0248C12.4127 20.0187 12.4107 20.0147 12.4066 20.0106C12.4046 20.0066 12.4026 20.0005 12.4006 19.9985C12.4006 19.9964 12.3986 19.9964 12.4046 19.9964C12.4087 19.9985 12.4208 19.9985 12.4289 19.9944C12.435 19.9884 12.437 19.9843 12.435 19.9863C12.4329 19.9884 12.4289 19.9924 12.4269 19.9985L12.4147 20.0207C12.4087 20.0288 12.4046 20.0369 12.3986 20.045C12.3884 20.0591 12.3763 20.0733 12.3642 20.0875C12.3116 20.14 12.2469 20.1744 12.1781 20.1805C12.1761 20.1805 12.1741 20.1785 12.1741 20.1765C12.172 20.1744 12.1741 20.1724 12.1761 20.1704C12.2347 20.1502 12.2873 20.1097 12.3237 20.0591C12.3439 20.0329 12.3581 20.0045 12.3682 19.9742C12.3743 19.96 12.3804 19.9418 12.4006 19.9317C12.4087 19.9277 12.4188 19.9277 12.4289 19.9317C12.437 19.9358 12.4451 19.9398 12.4511 19.9459C12.4977 19.9944 12.5179 20.0672 12.4997 20.132C12.4956 20.1481 12.4936 20.1623 12.4956 20.1765C12.4977 20.1906 12.5057 20.2007 12.5179 20.2088C12.5422 20.225 12.5745 20.225 12.5988 20.2088C12.6251 20.1926 12.6433 20.1663 12.6574 20.14C12.6696 20.1117 12.6817 20.0814 12.6898 20.0511C12.704 19.9884 12.706 19.9236 12.6918 19.863C12.6857 19.8326 12.6736 19.8023 12.6595 19.776C12.6433 19.7477 12.6231 19.7234 12.5988 19.7032C12.5523 19.6607 12.4916 19.6324 12.4289 19.6324C12.4269 19.6324 12.4248 19.6284 12.4248 19.6263C12.4248 19.6243 12.4269 19.6223 12.4289 19.6223Z" fill="#A992F3"/>
<path d="M7.7104 13.2189C7.63765 13.2189 7.56895 13.2391 7.51238 13.2734C7.45378 13.3057 7.40528 13.3542 7.37295 13.4108C7.30627 13.5219 7.30223 13.6654 7.3487 13.7826C7.3972 13.9038 7.49621 14.0029 7.61543 14.0594C7.73666 14.118 7.87811 14.1362 8.02157 14.1221C7.88619 14.1726 7.7306 14.1766 7.58916 14.1261C7.44569 14.0736 7.32244 13.9624 7.26384 13.817C7.23555 13.7442 7.22545 13.6654 7.23353 13.5866C7.24161 13.5098 7.26788 13.4351 7.31233 13.3704C7.35881 13.3078 7.42347 13.2613 7.49217 13.233C7.56289 13.2067 7.63967 13.1986 7.7104 13.2189Z" fill="#A992F3"/>
<path d="M7.92719 14.0422C7.85843 14.0098 7.80584 13.9492 7.76944 13.8824C7.73101 13.8157 7.70876 13.7408 7.69865 13.664C7.68854 13.5892 7.69461 13.5103 7.71483 13.4354C7.73506 13.3626 7.77146 13.2939 7.82405 13.2393C7.80382 13.3121 7.79169 13.3808 7.78562 13.4496C7.77955 13.5184 7.78157 13.5851 7.78966 13.6539C7.79775 13.7206 7.81191 13.7874 7.83416 13.8521C7.85641 13.9188 7.88472 13.9815 7.92719 14.0422Z" fill="#A992F3"/>
<path d="M10.5615 13.8536C10.4847 13.9647 10.3675 14.0435 10.2463 14.1082C10.127 14.1728 9.99973 14.2254 9.88658 14.3022C9.70876 14.4194 9.56934 14.5871 9.43396 14.7528C9.46831 14.7891 9.52691 14.7932 9.57338 14.777C9.62188 14.7608 9.66027 14.7265 9.69664 14.6921C9.82798 14.5628 9.93507 14.4093 10.0785 14.2941C10.1654 14.2254 10.2644 14.1708 10.3533 14.1062C10.4443 14.0395 10.5251 13.9566 10.5615 13.8516V13.8536Z" fill="#A992F3"/>
<path d="M10.6121 14.3672C10.6465 14.5309 10.6141 14.7067 10.5252 14.8501C10.4909 14.9047 10.4464 14.9572 10.3858 14.9815C10.3272 15.0057 10.2565 14.9996 10.1979 14.9693C10.1413 14.941 10.0948 14.8905 10.0625 14.834C10.0888 14.9249 10.1453 15.0097 10.2161 15.0623C10.2181 15.1027 10.212 15.1431 10.1979 15.1835C10.212 15.1492 10.2262 15.1148 10.2423 15.0825C10.2504 15.133 10.2565 15.1835 10.2585 15.234C10.2585 15.1876 10.2666 15.1391 10.2787 15.0926C10.2949 15.1694 10.305 15.2482 10.3131 15.329C10.3171 15.2502 10.3232 15.1714 10.3333 15.0886C10.3413 15.0845 10.3514 15.0886 10.3575 15.0946C10.3656 15.1007 10.3696 15.1088 10.3737 15.1168C10.3959 15.1653 10.4181 15.2118 10.4424 15.2583C10.4282 15.1977 10.4141 15.137 10.3999 15.0744C10.4505 15.1088 10.4848 15.1593 10.5212 15.2078C10.4949 15.1653 10.4767 15.1168 10.4646 15.0683C10.4626 15.0582 10.4606 15.0461 10.4686 15.038C10.4747 15.03 10.4848 15.0279 10.4949 15.032C10.505 15.034 10.5131 15.0421 10.5192 15.0481C10.5596 15.0845 10.598 15.1209 10.6364 15.1552C10.602 15.1148 10.5677 15.0744 10.5333 15.034C10.5192 15.0178 10.505 14.9936 10.5192 14.9774C10.5313 14.9633 10.5535 14.9673 10.5697 14.9734C10.6141 14.9875 10.6566 15.0097 10.697 15.036C10.6606 15.0037 10.6263 14.9693 10.5919 14.937C10.5858 14.9309 10.5778 14.9229 10.5757 14.9148C10.5737 14.9006 10.5838 14.8845 10.598 14.8804C10.6121 14.8744 10.6263 14.8764 10.6404 14.8804C10.6788 14.8865 10.7152 14.9006 10.7475 14.9208C10.7131 14.8946 10.6808 14.8663 10.6465 14.84C10.6404 14.836 10.6364 14.8319 10.6343 14.8259C10.6283 14.8097 10.6444 14.7956 10.6586 14.7895C10.6889 14.7754 10.7232 14.7733 10.7556 14.7834C10.7212 14.7733 10.6828 14.7612 10.6667 14.7309C10.6566 14.7087 10.6606 14.6824 10.6626 14.6582C10.6707 14.5652 10.6505 14.4702 10.6121 14.3692V14.3672Z" fill="#A992F3"/>
<path d="M10.5979 16.2401C10.5918 16.2725 10.606 16.2988 10.6262 16.319C10.6444 16.3372 10.6707 16.3534 10.697 16.3655C10.7233 16.3777 10.7476 16.3878 10.7718 16.3858C10.7961 16.3837 10.8184 16.3736 10.8406 16.3574C10.8608 16.3413 10.879 16.319 10.8972 16.2968C10.9154 16.2725 10.9316 16.2482 10.9458 16.224C10.9761 16.1734 10.9984 16.1168 11.0186 16.0581H11.0206C11.0226 16.1208 11.0085 16.1835 10.9842 16.2422C10.9721 16.2725 10.9579 16.3008 10.9397 16.3271C10.9215 16.3534 10.9013 16.3797 10.873 16.3999C10.8467 16.4222 10.8103 16.4383 10.7739 16.4363C10.7354 16.4363 10.7011 16.4222 10.6748 16.4019C10.6626 16.3938 10.6485 16.3837 10.6363 16.3716C10.6262 16.3615 10.6141 16.3493 10.604 16.3352C10.5858 16.3069 10.5797 16.2684 10.5979 16.2401Z" fill="#A992F3"/>
<path d="M33.8145 25.2235C33.1193 25.2235 32.5896 25.0414 32.2254 24.6772C31.8613 24.3131 31.6792 23.7751 31.6792 23.0633V9.53126C31.6792 8.80293 31.8613 8.2484 32.2254 7.86768C32.5896 7.47041 33.0696 7.27178 33.6655 7.27178C34.1952 7.27178 34.609 7.3711 34.907 7.56973C35.205 7.76837 35.536 8.09943 35.9002 8.56291L43.7711 18.3954H43.0759V9.40711C43.0759 8.71189 43.2497 8.18219 43.5973 7.81803C43.9615 7.45386 44.4912 7.27178 45.1864 7.27178C45.8816 7.27178 46.403 7.45386 46.7506 7.81803C47.1148 8.18219 47.2969 8.71189 47.2969 9.40711V23.1626C47.2969 23.7916 47.1314 24.2965 46.8003 24.6772C46.4692 25.0414 46.0223 25.2235 45.4595 25.2235C44.8967 25.2235 44.4498 25.1241 44.1187 24.9255C43.8042 24.7103 43.4649 24.3793 43.1007 23.9323L35.2298 14.075H35.925V23.0633C35.925 23.7751 35.7429 24.3131 35.3788 24.6772C35.0311 25.0414 34.5097 25.2235 33.8145 25.2235ZM56.8516 25.2731C55.3618 25.2731 54.0707 25.0166 52.9782 24.5034C51.9022 23.9737 51.0746 23.2288 50.4952 22.2688C49.9159 21.3087 49.6262 20.1748 49.6262 18.8671C49.6262 17.6091 49.8993 16.5083 50.4456 15.5648C51.0084 14.6047 51.7698 13.8599 52.7299 13.3302C53.7065 12.7839 54.8156 12.5108 56.057 12.5108C56.9674 12.5108 57.7951 12.6598 58.54 12.9577C59.2849 13.2391 59.9221 13.6612 60.4518 14.224C60.9815 14.7703 61.3788 15.4324 61.6437 16.2104C61.9251 16.9884 62.0658 17.8574 62.0658 18.8175C62.0658 19.1485 61.9747 19.3968 61.7926 19.5624C61.6105 19.7113 61.3209 19.7858 60.9236 19.7858H53.3258V17.7001H58.8379L58.4407 18.0229C58.4407 17.4105 58.3579 16.9139 58.1924 16.5332C58.0268 16.1524 57.7785 15.8628 57.4475 15.6641C57.133 15.4655 56.7357 15.3662 56.2557 15.3662C55.7425 15.3662 55.2956 15.4903 54.9149 15.7386C54.5507 15.9704 54.2693 16.318 54.0707 16.7815C53.872 17.2449 53.7727 17.8243 53.7727 18.5195V18.743C53.7727 19.9182 54.0293 20.7624 54.5424 21.2756C55.0721 21.7722 55.8832 22.0205 56.9757 22.0205C57.3399 22.0205 57.7537 21.9791 58.2172 21.8963C58.6972 21.797 59.1524 21.6646 59.5828 21.499C60.0132 21.3335 60.3856 21.3087 60.7001 21.4246C61.0146 21.5239 61.2547 21.706 61.4202 21.9708C61.6023 22.2191 61.7016 22.5088 61.7181 22.8398C61.7347 23.1543 61.6602 23.4689 61.4947 23.7834C61.3291 24.0813 61.056 24.3131 60.6753 24.4786C60.096 24.7434 59.4752 24.9421 58.8131 25.0745C58.1675 25.2069 57.5137 25.2731 56.8516 25.2731ZM70.1524 25.2731C68.795 25.2731 67.6115 25.0166 66.6018 24.5034C65.5921 23.9903 64.8058 23.2537 64.243 22.2936C63.6802 21.3335 63.3988 20.1996 63.3988 18.892C63.3988 17.8988 63.556 17.0132 63.8705 16.2352C64.185 15.4407 64.6403 14.7703 65.2362 14.224C65.8321 13.6612 66.5438 13.2391 67.3715 12.9577C68.1991 12.6598 69.1261 12.5108 70.1524 12.5108C71.5097 12.5108 72.6933 12.7674 73.703 13.2805C74.7127 13.7936 75.4907 14.5303 76.037 15.4903C76.5998 16.4338 76.8812 17.5677 76.8812 18.892C76.8812 19.8686 76.7239 20.7542 76.4094 21.5487C76.0949 22.3432 75.6397 23.0219 75.0438 23.5847C74.4644 24.131 73.7527 24.5531 72.9085 24.851C72.0808 25.1324 71.1621 25.2731 70.1524 25.2731ZM70.1524 22.0205C70.5993 22.0205 70.9966 21.9129 71.3442 21.6977C71.6918 21.4659 71.9567 21.1266 72.1387 20.6797C72.3374 20.2162 72.4367 19.6203 72.4367 18.892C72.4367 17.7829 72.2215 16.9884 71.7911 16.5083C71.3608 16.0117 70.8145 15.7634 70.1524 15.7634C69.7055 15.7634 69.3082 15.871 68.9606 16.0862C68.613 16.3014 68.3398 16.6408 68.1412 17.1042C67.9426 17.5512 67.8433 18.1471 67.8433 18.892C67.8433 19.9845 68.0584 20.779 68.4888 21.2756C68.9192 21.7722 69.4737 22.0205 70.1524 22.0205ZM88.1429 25.2731C86.14 25.2731 84.435 24.9007 83.028 24.1558C81.6376 23.4109 80.5782 22.3681 79.8498 21.0273C79.1215 19.6865 78.7573 18.1222 78.7573 16.3345C78.7573 14.9441 78.9725 13.6943 79.4029 12.5853C79.8498 11.4597 80.4871 10.4996 81.3148 9.70506C82.1424 8.89397 83.1522 8.28151 84.344 7.86768C85.5523 7.43731 86.918 7.22212 88.4408 7.22212C89.2685 7.22212 90.1127 7.30488 90.9734 7.47041C91.8342 7.61939 92.6784 7.90907 93.506 8.33944C93.9364 8.53808 94.2261 8.81948 94.3751 9.18365C94.5406 9.53126 94.5903 9.9037 94.524 10.301C94.4744 10.6817 94.3337 11.0376 94.1019 11.3686C93.8867 11.6831 93.5888 11.8983 93.2081 12.0142C92.8274 12.1135 92.397 12.0556 91.9169 11.8404C91.4204 11.6087 90.8824 11.4348 90.303 11.319C89.7237 11.1866 89.1112 11.1203 88.4657 11.1203C87.3566 11.1203 86.4296 11.319 85.6848 11.7162C84.9564 12.1135 84.4102 12.7011 84.046 13.4791C83.6818 14.2571 83.4998 15.2089 83.4998 16.3345C83.4998 18.0229 83.9136 19.2975 84.7412 20.1583C85.5689 21.019 86.7938 21.4494 88.416 21.4494C88.9126 21.4494 89.4506 21.3997 90.0299 21.3004C90.6258 21.2011 91.2217 21.0604 91.8176 20.8783L90.9734 22.5915V18.3457H89.2354C88.6726 18.3457 88.2339 18.205 87.9194 17.9236C87.6215 17.6422 87.4725 17.2449 87.4725 16.7318C87.4725 16.2187 87.6215 15.8297 87.9194 15.5648C88.2339 15.2834 88.6726 15.1427 89.2354 15.1427H92.9101C93.4895 15.1427 93.9281 15.3 94.2261 15.6145C94.5406 15.9124 94.6978 16.3511 94.6978 16.9304V22.4177C94.6978 22.9143 94.5903 23.3364 94.3751 23.684C94.1764 24.0317 93.8536 24.2799 93.4067 24.4289C92.6287 24.6938 91.7845 24.9007 90.8741 25.0497C89.9637 25.1986 89.0533 25.2731 88.1429 25.2731ZM102.024 25.2731C100.965 25.2731 100.096 25.0828 99.4172 24.702C98.7385 24.3048 98.2254 23.7171 97.8778 22.9392C97.5467 22.1612 97.3812 21.1763 97.3812 19.9845V14.7703C97.3812 14.0419 97.5715 13.4957 97.9522 13.1315C98.333 12.7508 98.8792 12.5604 99.591 12.5604C100.303 12.5604 100.849 12.7508 101.23 13.1315C101.61 13.4957 101.801 14.0419 101.801 14.7703V20.1086C101.801 20.7045 101.925 21.1514 102.173 21.4494C102.422 21.7473 102.811 21.8963 103.34 21.8963C103.936 21.8963 104.424 21.6811 104.805 21.2508C105.186 20.8204 105.376 20.2493 105.376 19.5375V14.7703C105.376 14.0419 105.567 13.4957 105.947 13.1315C106.328 12.7508 106.874 12.5604 107.586 12.5604C108.298 12.5604 108.844 12.7508 109.225 13.1315C109.606 13.4957 109.796 14.0419 109.796 14.7703V22.9888C109.796 24.4786 109.084 25.2235 107.661 25.2235C106.965 25.2235 106.427 25.0331 106.047 24.6524C105.666 24.2717 105.476 23.7171 105.476 22.9888V21.5487L105.873 22.7654C105.509 23.5764 104.996 24.1972 104.333 24.6276C103.688 25.0579 102.918 25.2731 102.024 25.2731ZM116.614 25.2731C115.67 25.2731 114.834 25.0993 114.106 24.7517C113.394 24.4041 112.831 23.9323 112.418 23.3364C112.02 22.724 111.822 22.0287 111.822 21.2508C111.822 20.3569 112.053 19.6534 112.517 19.1403C112.98 18.6271 113.725 18.2629 114.751 18.0478C115.778 17.816 117.143 17.7001 118.848 17.7001H120.214V19.7858H118.848C118.203 19.7858 117.665 19.8355 117.234 19.9348C116.821 20.0176 116.514 20.1583 116.316 20.3569C116.117 20.539 116.018 20.779 116.018 21.0769C116.018 21.4577 116.15 21.7722 116.415 22.0205C116.696 22.2688 117.094 22.3929 117.607 22.3929C118.021 22.3929 118.385 22.3019 118.699 22.1198C119.03 21.9377 119.295 21.6894 119.494 21.3749C119.693 21.0438 119.792 20.6631 119.792 20.2327V17.3525C119.792 16.7566 119.635 16.3345 119.32 16.0862C119.022 15.8379 118.501 15.7138 117.756 15.7138C117.359 15.7138 116.912 15.7634 116.415 15.8628C115.918 15.9455 115.364 16.1028 114.751 16.3345C114.305 16.5001 113.924 16.5249 113.609 16.409C113.295 16.2931 113.047 16.0945 112.864 15.8131C112.699 15.5317 112.616 15.2255 112.616 14.8944C112.633 14.5634 112.74 14.2489 112.939 13.9509C113.154 13.6529 113.477 13.4212 113.907 13.2557C114.702 12.9577 115.43 12.7591 116.092 12.6598C116.771 12.5604 117.392 12.5108 117.954 12.5108C119.312 12.5108 120.429 12.7094 121.306 13.1067C122.2 13.4874 122.862 14.0833 123.293 14.8944C123.74 15.689 123.963 16.7152 123.963 17.9733V22.9888C123.963 23.7171 123.789 24.2717 123.442 24.6524C123.094 25.0331 122.589 25.2235 121.927 25.2235C121.249 25.2235 120.727 25.0331 120.363 24.6524C120.015 24.2717 119.842 23.7171 119.842 22.9888V22.3432L119.991 22.6909C119.908 23.2206 119.717 23.6758 119.419 24.0565C119.121 24.4372 118.732 24.7352 118.252 24.9503C117.772 25.1655 117.226 25.2731 116.614 25.2731ZM128.739 25.2235C128.011 25.2235 127.448 25.0331 127.051 24.6524C126.67 24.2717 126.48 23.7171 126.48 22.9888V14.7703C126.48 14.0585 126.662 13.5122 127.026 13.1315C127.407 12.7508 127.945 12.5604 128.64 12.5604C129.335 12.5604 129.865 12.7508 130.229 13.1315C130.593 13.5122 130.775 14.0585 130.775 14.7703V15.7883H130.527C130.693 14.7951 131.115 14.0088 131.793 13.4295C132.489 12.8501 133.349 12.5439 134.376 12.5108C134.856 12.4942 135.212 12.6184 135.443 12.8832C135.692 13.1315 135.824 13.6033 135.841 14.2985C135.841 14.8944 135.716 15.3662 135.468 15.7138C135.22 16.0614 134.748 16.2683 134.053 16.3345L133.482 16.3842C132.605 16.4669 131.967 16.7152 131.57 17.1291C131.173 17.5263 130.974 18.1222 130.974 18.9168V22.9888C130.974 23.7171 130.784 24.2717 130.403 24.6524C130.022 25.0331 129.468 25.2235 128.739 25.2235ZM141.795 25.2731C140.752 25.2731 139.825 25.0166 139.014 24.5034C138.219 23.9903 137.59 23.2537 137.127 22.2936C136.68 21.3335 136.457 20.1996 136.457 18.892C136.457 17.5512 136.68 16.409 137.127 15.4655C137.59 14.522 138.219 13.7936 139.014 13.2805C139.825 12.7674 140.752 12.5108 141.795 12.5108C142.705 12.5108 143.525 12.726 144.253 13.1564C144.981 13.5867 145.47 14.1413 145.718 14.8199H145.445V9.50643C145.445 8.7781 145.635 8.22357 146.016 7.84286C146.397 7.46214 146.943 7.27178 147.655 7.27178C148.35 7.27178 148.888 7.46214 149.268 7.84286C149.666 8.22357 149.864 8.7781 149.864 9.50643V22.9888C149.864 23.7171 149.674 24.2717 149.293 24.6524C148.929 25.0331 148.391 25.2235 147.679 25.2235C146.984 25.2235 146.446 25.0331 146.065 24.6524C145.685 24.2717 145.494 23.7171 145.494 22.9888V21.5735L145.768 22.7902C145.536 23.5351 145.047 24.1392 144.303 24.6027C143.574 25.0497 142.738 25.2731 141.795 25.2731ZM143.21 22.0205C143.657 22.0205 144.054 21.9129 144.402 21.6977C144.75 21.4659 145.014 21.1266 145.196 20.6797C145.395 20.2162 145.494 19.6203 145.494 18.892C145.494 17.7829 145.279 16.9884 144.849 16.5083C144.418 16.0117 143.872 15.7634 143.21 15.7634C142.763 15.7634 142.366 15.871 142.018 16.0862C141.671 16.3014 141.398 16.6408 141.199 17.1042C141 17.5512 140.901 18.1471 140.901 18.892C140.901 19.9845 141.116 20.779 141.547 21.2756C141.977 21.7722 142.531 22.0205 143.21 22.0205Z" fill="#FEFEFE"/>
</svg>
