<svg width="161" height="161" viewBox="0 0 161 161" fill="none" xmlns="http://www.w3.org/2000/svg">
<path opacity="0.5" d="M60.375 30.1875H53.6667C37.8551 30.1875 29.946 30.1875 25.0355 35.098C20.125 40.0085 20.125 47.9176 20.125 63.7292V97.2708C20.125 113.082 20.125 120.985 25.0355 125.902C29.946 130.819 37.8551 130.813 53.6667 130.813H60.375" stroke="white" stroke-width="5.1383"/>
<path d="M60.375 43.4432C60.375 28.061 60.375 20.3666 65.1178 16.1605C69.8606 11.9543 77.1123 13.2155 91.6157 15.7445L107.246 18.4748C123.306 21.2722 131.336 22.6742 136.105 28.5642C140.875 34.4608 140.875 42.9804 140.875 60.0262V100.981C140.875 118.02 140.875 126.539 136.112 132.436C131.336 138.326 123.299 139.728 107.239 142.532L91.6224 145.256C77.119 147.785 69.8673 149.046 65.1245 144.84C60.3817 140.634 60.375 132.939 60.375 117.557V43.4432Z" stroke="white" stroke-width="5.1383"/>
<path opacity="0.5" d="M80.5 73.7915V87.2082" stroke="white" stroke-width="5.1383" stroke-linecap="round"/>
</svg>
