<svg width="139" height="139" viewBox="0 0 139 139" fill="none" xmlns="http://www.w3.org/2000/svg">
<g clip-path="url(#clip0_2735_34)">
<path d="M69.5 83.5857L138.166 111.015L138.722 111.2H139L69.5 139L0 111.2H0.463333L0.834 111.015L69.5 83.5857ZM69.5 93.4083L24.9273 111.2L69.5 128.992L114.073 111.2L69.5 93.4083ZM67.1833 0.927002V78.767L67.276 79.323V79.5083L46.3333 87.8483V51.0597C46.3336 49.4114 45.9231 47.7891 45.1387 46.3394C44.3544 44.8898 43.221 43.6585 41.8412 42.757C40.4613 41.8555 38.8785 41.3122 37.2359 41.1762C35.5932 41.0403 33.9426 41.316 32.4333 41.9783C24.5567 45.407 19.182 53.0057 18.626 61.531L18.5333 63.199V98.9683L0 106.382V27.8003L67.1833 0.927002ZM71.8167 0.927002L139 27.8003V106.382L71.724 79.5083L71.8167 79.1377V0.927002ZM90.35 37.067V64.867L118.15 76.4503V48.6503L90.35 37.067ZM37.0667 62.5503C39.6613 62.5503 41.7 64.589 41.7 67.1837C41.7 69.7783 39.6613 71.817 37.0667 71.817C34.472 71.817 32.4333 69.7783 32.4333 67.1837C32.4333 64.589 34.472 62.5503 37.0667 62.5503Z" fill="white"/>
</g>
<defs>
<clipPath id="clip0_2735_34">
<rect width="139" height="139" fill="white"/>
</clipPath>
</defs>
</svg>
