<svg width="46" height="47" viewBox="0 0 46 47" fill="none" xmlns="http://www.w3.org/2000/svg">
<rect x="5.7168" y="7.99658" width="11.4324" height="32.3919" fill="#A992F3"/>
<rect x="5.7168" y="7.99658" width="34.2973" height="9.52703" fill="#A992F3"/>
<path d="M17.1492 6.09131H9.52761C8.51692 6.09131 7.54762 6.4928 6.83296 7.20747C6.11829 7.92213 5.7168 8.89143 5.7168 9.90212V17.5237M17.1492 6.09131H36.2033C37.214 6.09131 38.1833 6.4928 38.8979 7.20747C39.6126 7.92213 40.0141 8.89143 40.0141 9.90212V17.5237M17.1492 6.09131V40.3886M5.7168 17.5237V36.5778C5.7168 37.5885 6.11829 38.5578 6.83296 39.2724C7.54762 39.9871 8.51692 40.3886 9.52761 40.3886H17.1492M5.7168 17.5237H40.0141M40.0141 17.5237V36.5778C40.0141 37.5885 39.6126 38.5578 38.8979 39.2724C38.1833 39.9871 37.214 40.3886 36.2033 40.3886H17.1492" stroke="#2E2E2E" stroke-width="3.81081" stroke-linecap="round" stroke-linejoin="round"/>
</svg>
