<svg width="426" height="107" viewBox="0 0 426 107" fill="none" xmlns="http://www.w3.org/2000/svg">
<path d="M58.4872 20.2009C51.2806 20.0584 45.4353 16.8263 42.5076 14.946C41.7706 14.4727 40.8308 14.4727 40.0939 14.9461C37.1672 16.8265 31.3254 20.0584 24.1142 20.2009C18.1251 20.3412 13.5848 19.4462 10.5404 18.3981C8.92944 17.8435 6.92773 19.0041 6.92773 20.7079V46.717C6.92773 65.5163 21.373 86.7257 40.7226 92.5431C41.0995 92.6564 41.5017 92.6566 41.8787 92.5434C51.4612 89.6657 59.8642 83.0011 65.8568 74.7613C71.9695 66.3619 75.6792 56.2128 75.6792 46.717V20.7022C75.6792 18.9996 73.6811 17.8408 72.0713 18.3955C69.0266 19.4448 64.4849 20.3413 58.4872 20.2009ZM71.9695 46.717C71.9695 55.1719 68.6363 64.6122 62.8558 72.5798C57.2221 80.3376 49.8351 85.9748 41.942 88.6837C41.526 88.8265 41.0749 88.8282 40.6579 88.6882C32.7204 86.0231 25.38 80.3398 19.7512 72.6352C13.9651 64.723 10.6374 55.1719 10.6374 46.717C10.6374 37.1705 10.6374 31.8182 10.6374 22.2717C14.6185 23.4178 18.7656 23.966 22.9127 23.9106H24.225C29.9501 23.7445 35.7915 21.8897 41.3007 18.5066C46.8154 21.8897 52.6513 23.7445 58.382 23.8552H59.6887C63.8358 23.9106 67.9829 23.3625 71.9695 22.2163V46.717ZM65.8529 27.2451C67.1476 27.0944 68.3096 28.0875 68.3096 29.391V46.717C68.3096 54.4631 65.2533 63.0841 59.9102 70.3983C55.0065 77.088 48.7342 82.1044 42.016 84.6993C41.5556 84.8771 41.0458 84.8771 40.5854 84.6991C33.8721 82.1042 27.595 77.0879 22.6968 70.3983C17.3481 63.0841 14.2918 54.4078 14.2918 46.717V36.8143V29.4335C14.2918 28.1156 15.4787 27.1176 16.7877 27.2711C18.8175 27.5092 20.8651 27.6203 22.9127 27.6203H24.2803C29.8814 27.4136 35.2895 25.9774 40.2438 23.3926C40.9051 23.0475 41.6951 23.0495 42.3554 23.3965C47.2699 25.9788 52.7284 27.4138 58.3266 27.6203H59.6887C61.7523 27.6203 63.813 27.4826 65.8529 27.2451Z" fill="#FEFEFE"/>
<path d="M28.2727 39.4748C28.1841 39.9122 28.1951 40.3662 28.2893 40.7981C28.3779 41.23 28.544 41.6452 28.7765 42.0162C29.0091 42.3872 29.3025 42.7139 29.6513 42.9685C29.6956 43.0018 29.7344 43.035 29.7787 43.0627L29.9171 43.1457C30.0057 43.2066 30.1054 43.2509 30.1995 43.3008C30.2216 43.3118 30.2493 43.3229 30.2715 43.334L30.349 43.3617L30.4985 43.4226C30.5982 43.4558 30.7034 43.4835 30.803 43.5167L31.1131 43.5887L31.2737 43.6164C31.329 43.6274 31.3789 43.6385 31.4342 43.644C31.6502 43.6717 31.8661 43.6883 32.082 43.6828C32.5195 43.6828 32.9569 43.6385 33.3943 43.5721C33.8317 43.5056 34.2636 43.4115 34.701 43.3174C35.1384 43.2232 35.5869 43.1291 36.0354 43.0627C36.4839 42.9962 36.9379 42.9519 37.3974 42.9575C37.857 42.9575 38.3221 43.0073 38.7761 43.1347L38.9422 43.19C38.9976 43.2122 39.053 43.2232 39.1083 43.2509L39.2689 43.3174L39.352 43.3506C39.3796 43.3617 39.4073 43.3783 39.4295 43.3949C39.5347 43.4503 39.6399 43.5001 39.7395 43.5665L39.8835 43.6662C39.9333 43.6994 39.9832 43.7382 40.0275 43.7714C40.3984 44.0649 40.6974 44.4303 40.9521 44.8123C41.2068 45.1944 41.4228 45.593 41.6332 45.9917C41.8491 46.3848 42.0595 46.7779 42.281 47.1655C42.7184 47.9462 43.1779 48.7048 43.704 49.419C43.9697 49.7734 44.2521 50.1167 44.5511 50.4323C44.8556 50.7534 45.1768 51.0524 45.5256 51.3182C45.8744 51.5839 46.2398 51.8165 46.6385 52.0047C47.0261 52.193 47.4413 52.337 47.8677 52.4422C48.7204 52.6581 49.6118 52.7356 50.5032 52.874C50.9517 52.9405 51.3947 53.0235 51.8376 53.1509C52.2806 53.2727 52.7125 53.4333 53.1222 53.6437C53.9417 54.0589 54.6836 54.6292 55.2927 55.3158C55.5972 55.6591 55.8685 56.0301 56.101 56.4287C56.2173 56.628 56.3225 56.8329 56.4222 57.0378C56.472 57.143 56.5163 57.2482 56.5606 57.3534C56.5772 57.4087 56.6049 57.4641 56.6215 57.5139L56.6769 57.68C57.225 59.4352 57.0534 61.3787 56.2339 62.9788C56.926 61.3233 56.9648 59.4297 56.3447 57.7963L56.2893 57.6413L56.2284 57.4863C56.1841 57.3866 56.1509 57.2869 56.101 57.1873C56.0124 56.9879 55.9072 56.7941 55.802 56.6059C55.5806 56.2294 55.3203 55.875 55.0269 55.5483C54.451 54.895 53.7479 54.3468 52.9672 53.9537C52.5796 53.7544 52.1698 53.5994 51.7435 53.4831C51.3227 53.3668 50.8908 53.2838 50.4479 53.2173C49.5731 53.0844 48.6705 53.0014 47.7846 52.7799C47.3417 52.6692 46.8987 52.5197 46.4835 52.3203C46.0682 52.121 45.6806 51.8719 45.3152 51.595C44.9498 51.3182 44.612 51.0026 44.2964 50.6759C43.9863 50.3437 43.6984 49.9893 43.4271 49.6239C42.8845 48.893 42.4194 48.1234 41.9764 47.3371C41.755 46.944 41.5446 46.5509 41.3286 46.1523C41.1182 45.7591 40.9078 45.3716 40.6642 45.0061C40.4206 44.6462 40.1437 44.3085 39.8115 44.0427C39.7672 44.015 39.7285 43.9763 39.6842 43.9486L39.5513 43.86C39.4627 43.7991 39.3686 43.7548 39.2744 43.705C39.2523 43.6939 39.2302 43.6773 39.2025 43.6662L39.1305 43.6385L38.9865 43.5721C38.9367 43.5499 38.8813 43.5388 38.8315 43.5222L38.682 43.4724C38.2667 43.3561 37.8349 43.3063 37.3974 43.3063C36.96 43.3008 36.5226 43.3451 36.0852 43.4115C35.6478 43.4724 35.2159 43.5665 34.7785 43.6607C34.3411 43.7548 33.8981 43.8434 33.4496 43.9154C33.0012 43.9873 32.5416 44.0316 32.082 44.0316C31.8495 44.0372 31.6225 44.0206 31.3899 43.9929C31.3346 43.9873 31.2737 43.9763 31.2183 43.9707L31.0466 43.9375C30.9304 43.9154 30.8196 43.8821 30.7034 43.8544C30.648 43.8323 30.5926 43.8157 30.5372 43.7935C30.4874 43.7714 30.4265 43.7548 30.3767 43.7326L30.2161 43.6607L30.1386 43.6219C30.1109 43.6108 30.0832 43.5942 30.0611 43.5776C29.9559 43.5222 29.8507 43.4669 29.7565 43.3949L29.6126 43.2952C29.5683 43.262 29.524 43.2177 29.4797 43.1845C29.1253 42.88 28.8263 42.5145 28.6104 42.1103C28.3945 41.7061 28.2505 41.2632 28.1896 40.8147C28.1287 40.3662 28.1564 39.9067 28.2727 39.4692V39.4748Z" fill="#1C3AB4"/>
<path d="M27.7187 40.9253C27.6301 39.9176 27.8073 38.8822 28.1949 37.9298C28.5825 36.9775 29.186 36.1082 29.9556 35.4161C30.7308 34.724 31.661 34.2201 32.6465 33.9377C33.6321 33.6554 34.6841 33.5889 35.6807 33.7882C34.6675 33.7384 33.6653 33.8768 32.7296 34.198C31.7938 34.5191 30.9246 35.0174 30.1881 35.6763C29.4573 36.3352 28.8704 37.1436 28.444 38.0406C28.0232 38.9375 27.7741 39.9176 27.7187 40.9253Z" fill="#1C3AB4"/>
<mask id="mask0_2031_294" style="mask-type:luminance" maskUnits="userSpaceOnUse" x="28" y="30" width="32" height="34">
<path d="M28.5605 30.0898H59.8329V63.1561H28.5605V30.0898Z" fill="white"/>
</mask>
<g mask="url(#mask0_2031_294)">
<path d="M28.9863 33.6829C30.1546 31.7506 32.2697 30.3774 34.573 30.1283C34.717 30.1172 34.861 30.1061 35.0049 30.1006H35.3316C35.3648 30.1006 35.4036 30.1061 35.4368 30.1061C35.5808 30.1117 35.7247 30.1172 35.8687 30.1338C36.0126 30.1449 36.1566 30.156 36.3005 30.1836C36.8708 30.2612 37.4301 30.4051 37.9727 30.61C38.5098 30.8148 39.0302 31.0806 39.5119 31.3962C39.6282 31.4793 39.7445 31.5623 39.8608 31.6454C39.977 31.7395 40.0878 31.8281 40.2041 31.9167C40.42 32.1049 40.6304 32.3043 40.8297 32.5091C41.2339 32.9133 41.6049 33.3397 41.9869 33.7494C42.1752 33.9543 42.3745 34.1536 42.5738 34.3418L42.7233 34.4858L42.8009 34.5578L42.8784 34.6242L43.0389 34.7571L43.1995 34.8845C43.6314 35.2167 44.1131 35.4714 44.6336 35.6596C44.8938 35.7537 45.1596 35.8368 45.4253 35.9032C45.6966 35.9752 45.9679 36.0361 46.2393 36.097C46.7929 36.2133 47.3466 36.3185 47.9003 36.4625C48.1772 36.5344 48.454 36.623 48.7253 36.7227C48.9966 36.8224 49.2624 36.9386 49.5171 37.0771C49.7773 37.2099 50.0209 37.3705 50.2535 37.5532C50.4805 37.7359 50.6964 37.9463 50.8736 38.1844C50.9235 38.2398 50.9622 38.3062 51.0065 38.3671L51.0674 38.4613L51.1228 38.5554C51.1948 38.6828 51.2612 38.8212 51.3166 38.9596C51.4273 39.2364 51.4938 39.5244 51.5381 39.8178C51.6156 40.3992 51.5823 40.975 51.5436 41.5398C51.4993 42.1101 51.4384 42.6638 51.4439 43.2175C51.4439 43.4888 51.4605 43.7656 51.5048 44.0314C51.527 44.1643 51.5657 44.2972 51.5934 44.4245C51.6045 44.4909 51.6322 44.5574 51.6543 44.6183L51.7152 44.8121C51.9146 45.3159 52.2025 45.7866 52.5458 46.2129C52.5901 46.2683 52.6399 46.3181 52.6842 46.3679L52.8171 46.523C52.9167 46.6226 53.0053 46.7278 53.105 46.822C53.2102 46.9161 53.3043 47.0158 53.4095 47.1043L53.5646 47.2428C53.6199 47.2871 53.6698 47.3314 53.7251 47.3757C54.1515 47.7356 54.6055 48.0622 55.0706 48.3723C56.0008 49.0035 56.9697 49.607 57.8224 50.3822C58.0328 50.5704 58.2377 50.7808 58.4315 50.9912C58.4813 51.0466 58.5256 51.102 58.5699 51.1573C58.6197 51.2127 58.664 51.2681 58.7083 51.3235L58.8412 51.5006C58.8633 51.5283 58.8855 51.556 58.9021 51.5892L58.963 51.6778C59.2841 52.1595 59.5388 52.6966 59.6883 53.2614C59.8434 53.8206 59.9098 54.402 59.9098 54.9778L59.9043 55.1993C59.9043 55.2713 59.8987 55.3432 59.8932 55.4152C59.8821 55.5536 59.8766 55.7031 59.8544 55.8416L59.8268 56.0575L59.7935 56.2734C59.7714 56.4119 59.7382 56.5558 59.705 56.6942C59.5665 57.2535 59.3617 57.7961 59.1236 58.311C58.891 58.8315 58.6142 59.3298 58.3097 59.8115C58.0107 60.2932 57.6895 60.7583 57.3518 61.2123C57.014 61.6664 56.6707 62.1093 56.3219 62.5523C56.6431 62.0927 56.9642 61.6276 57.2687 61.1514C57.5788 60.6863 57.8778 60.2046 58.1491 59.7174C58.2875 59.4682 58.4149 59.219 58.5367 58.9699C58.6585 58.7207 58.7748 58.466 58.88 58.2058C59.0848 57.6909 59.2565 57.1593 59.3672 56.6167C59.3894 56.4783 59.4226 56.3454 59.4447 56.2125L59.4779 56.0077L59.5056 55.8028C59.5444 55.5259 59.5555 55.2546 59.561 54.9778C59.561 54.4296 59.5001 53.8815 59.3561 53.35C59.2122 52.824 58.9741 52.3256 58.6751 51.8716L58.6197 51.7886C58.5976 51.7609 58.5754 51.7332 58.5588 51.7055L58.4315 51.5394C58.3927 51.484 58.3484 51.4342 58.3041 51.3844C58.2598 51.329 58.2155 51.2736 58.1712 51.2238C57.983 51.0189 57.7947 50.8251 57.5843 50.6369C56.7649 49.8949 55.8125 49.2914 54.8768 48.6602C54.4062 48.3446 53.9411 48.0124 53.5036 47.647C53.4483 47.5971 53.3929 47.5528 53.3375 47.5085L53.177 47.3646C53.0662 47.2705 52.9666 47.1708 52.8614 47.0711C52.7562 46.9715 52.662 46.8663 52.5624 46.7611L52.4184 46.6005C52.3741 46.5451 52.3243 46.4898 52.28 46.4344C51.9146 45.9859 51.6045 45.482 51.3886 44.9394L51.3221 44.729C51.3 44.657 51.2723 44.5906 51.2557 44.5186C51.2224 44.3747 51.1837 44.2307 51.1615 44.0867C51.1117 43.7988 51.0951 43.5054 51.0951 43.2175C51.0896 42.6416 51.1505 42.0769 51.1948 41.5176C51.2391 40.9584 51.2667 40.3992 51.1892 39.8621C51.1505 39.5963 51.0896 39.3361 50.9899 39.0869C50.9456 38.9651 50.8847 38.8433 50.8183 38.727L50.7684 38.644L50.7131 38.5609C50.6743 38.5056 50.6411 38.4447 50.5968 38.3948C50.4362 38.1844 50.2424 37.9962 50.032 37.8301C49.8216 37.664 49.5946 37.5089 49.351 37.3816C49.1129 37.2542 48.8582 37.1435 48.6035 37.0494C48.3433 36.9552 48.083 36.8722 47.8117 36.8002C47.2747 36.6563 46.721 36.5566 46.1673 36.4348C45.8904 36.3794 45.6136 36.3185 45.3367 36.241C45.0599 36.169 44.7886 36.086 44.5117 35.9918C43.9691 35.7925 43.4431 35.5157 42.9891 35.1613L42.8175 35.0284L42.6514 34.8845L42.5683 34.818L42.4908 34.746L42.3302 34.5965C42.1253 34.3972 41.926 34.1923 41.7322 33.9875C41.3446 33.5722 40.9737 33.1459 40.5806 32.7528C40.3868 32.5534 40.1819 32.3652 39.977 32.1825C39.8718 32.0994 39.7611 32.0108 39.6559 31.9278C39.5396 31.8502 39.4289 31.7672 39.3182 31.6897C38.8586 31.3851 38.3658 31.1304 37.8509 30.9367C37.3359 30.7429 36.7989 30.6044 36.2507 30.5269C36.1123 30.5048 35.9794 30.4937 35.841 30.4826L35.7358 30.4716C35.7026 30.466 35.6693 30.466 35.6361 30.466L35.4257 30.4605C35.3925 30.4549 35.3593 30.4549 35.3261 30.4549H35.2209L35.016 30.4605C34.944 30.4605 34.8776 30.466 34.8111 30.4716L34.6007 30.4826C33.5044 30.5491 32.4192 30.8924 31.4558 31.4405C30.9685 31.7174 30.5145 32.044 30.0992 32.4205C29.684 32.797 29.3075 33.2234 28.9863 33.6885V33.6829Z" fill="#1C3AB4"/>
</g>
<path d="M32.1709 36.5513C32.7412 37.0441 33.4112 37.4095 34.1143 37.6642C34.4632 37.786 34.8231 37.8912 35.1885 37.9687C35.5484 38.0518 35.9194 38.1127 36.2903 38.1625C37.0267 38.2843 37.7742 38.3563 38.5272 38.4117L39.6568 38.4892C40.0333 38.5169 40.4153 38.5556 40.7918 38.5999C41.5504 38.6885 42.3034 38.8159 43.0453 39.0318C43.7817 39.2477 44.5015 39.5467 45.1494 39.9841C45.4705 40.2056 45.775 40.4548 46.0408 40.7372C46.3121 41.0195 46.5502 41.3351 46.755 41.6618C47.1648 42.3262 47.4472 43.046 47.6908 43.7658C47.9399 44.4856 48.1503 45.2054 48.4106 45.9086C48.6653 46.6118 48.9753 47.2928 49.4017 47.8853C49.828 48.4833 50.3706 48.9982 50.9575 49.4522C51.5445 49.9118 52.1812 50.3049 52.829 50.6925C53.4768 51.0745 54.1357 51.451 54.7725 51.8663C55.0936 52.0712 55.4092 52.2926 55.7137 52.5252C55.7857 52.5861 55.8632 52.647 55.9352 52.7079C56.0127 52.7688 56.0847 52.8297 56.1567 52.8906C56.2287 52.9571 56.3062 53.018 56.3726 53.0844C56.4446 53.1508 56.511 53.2173 56.5775 53.2893C57.109 53.854 57.5464 54.5074 57.8288 55.2272C57.9672 55.5815 58.0669 55.958 58.1167 56.3346C58.161 56.7166 58.1555 57.1042 58.089 57.4751C58.1223 57.0986 58.0946 56.7166 58.0171 56.3512C57.9451 55.9857 57.8177 55.6369 57.6572 55.2992C57.3305 54.6347 56.8709 54.0367 56.3339 53.5329C56.1954 53.4111 56.0625 53.2837 55.9241 53.1564C55.7857 53.0346 55.6417 52.9183 55.4978 52.802C55.2043 52.575 54.8998 52.3591 54.5842 52.1597C53.9585 51.75 53.2996 51.379 52.6518 50.9915C51.9985 50.6039 51.3507 50.1997 50.7416 49.7291C50.1381 49.2584 49.5733 48.7213 49.1193 48.0901C48.6597 47.4589 48.3441 46.7447 48.0784 46.0304C47.8181 45.3106 47.6077 44.5853 47.3641 43.8766C47.1205 43.1678 46.8436 42.4757 46.4561 41.8445C46.2623 41.5345 46.0408 41.2465 45.7916 40.9808C45.5369 40.715 45.2546 40.4825 44.95 40.2776C44.3465 39.8623 43.6599 39.5744 42.9457 39.3695C42.2314 39.1591 41.495 39.0318 40.7531 38.9432C40.3821 38.8989 40.0056 38.8657 39.6291 38.838L38.4996 38.7549C38.123 38.7328 37.7465 38.6996 37.3645 38.6608C37.1762 38.6387 36.988 38.6165 36.7997 38.5944C36.6115 38.5722 36.4177 38.5445 36.235 38.5113C35.482 38.3618 34.74 38.1514 34.0424 37.8414C33.6935 37.6808 33.3558 37.4981 33.0402 37.2821C32.7246 37.0662 32.4311 36.8226 32.1709 36.5513Z" fill="#1C3AB4"/>
<path d="M34.0703 42.5253C34.7403 42.3315 35.4158 42.1543 36.1023 42.0159C36.4456 41.9495 36.7889 41.8941 37.1377 41.8553C37.4866 41.811 37.8409 41.7944 38.1953 41.7944C38.5497 41.7944 38.904 41.8166 39.2584 41.8719C39.6072 41.9218 39.956 41.9993 40.2993 42.11C40.6371 42.2208 40.9693 42.3647 41.2849 42.5419C41.5949 42.7191 41.8884 42.9295 42.1597 43.162C42.4365 43.3891 42.6857 43.6493 42.9183 43.9151C43.1508 44.1864 43.3667 44.4687 43.5661 44.7567C43.7599 45.0501 43.9426 45.3546 44.1198 45.6592C44.164 45.7367 44.2028 45.8142 44.2471 45.8917C44.2859 45.9637 44.3302 46.0412 44.3689 46.1187C44.452 46.2738 44.5295 46.4343 44.607 46.5894C44.762 46.905 44.9115 47.215 45.061 47.5306C45.2105 47.8462 45.36 48.1563 45.515 48.4719C45.8251 49.092 46.1573 49.7011 46.5394 50.2825C46.0909 49.7454 45.7144 49.153 45.3656 48.5494C45.1939 48.2449 45.0223 47.9404 44.8562 47.6358C44.6956 47.3258 44.535 47.0213 44.3634 46.7167C44.0312 46.1077 43.6934 45.5041 43.2948 44.9449C42.8961 44.3912 42.4532 43.8597 41.9382 43.4223C41.678 43.2063 41.4067 43.007 41.1132 42.8354C40.8253 42.6637 40.5152 42.5308 40.1941 42.4201C39.5574 42.1931 38.8763 42.0934 38.1898 42.0657C37.5032 42.0381 36.8166 42.0934 36.13 42.1876C35.4379 42.2761 34.7569 42.409 34.0703 42.5253Z" fill="#1C3AB4"/>
<path d="M26.7115 43.2396C26.3294 42.4146 26.1246 41.501 26.0913 40.5764C26.047 39.6517 26.1799 38.7215 26.4789 37.8411C26.7779 36.9608 27.2375 36.1358 27.8299 35.4271C28.4224 34.7183 29.1366 34.1148 29.945 33.6885C29.2197 34.2366 28.5774 34.8789 28.0459 35.5987C27.5143 36.3185 27.0935 37.1103 26.8056 37.9519C26.5232 38.7935 26.3793 39.6794 26.3626 40.5708C26.346 41.4678 26.4678 42.3648 26.7115 43.2396Z" fill="#1C3AB4"/>
<path d="M28.3779 43.1284C28.5773 43.9368 28.9316 44.7009 29.4133 45.3653C29.6514 45.6975 29.9172 46.0076 30.2162 46.29C30.2937 46.3564 30.3657 46.4284 30.4432 46.4893C30.5207 46.5557 30.5982 46.6222 30.6813 46.6831L30.8031 46.7772C30.8418 46.8049 30.8861 46.8326 30.9304 46.8603L31.0522 46.9489C31.0965 46.9766 31.1408 47.0042 31.1851 47.0319C31.534 47.2423 31.8994 47.4361 32.2704 47.641C32.4531 47.7517 32.6358 47.8569 32.813 47.9843C32.9846 48.1061 33.1563 48.2445 33.3168 48.394C33.6269 48.7041 33.8927 49.064 34.0754 49.4571C34.2581 49.8557 34.3744 50.2821 34.3965 50.7195L34.164 50.6254C34.3024 50.5035 34.474 50.4426 34.6512 50.4316C34.8229 50.4205 35.0056 50.4759 35.144 50.5755C35.2824 50.6807 35.3876 50.8302 35.4319 50.9963C35.4541 51.0738 35.4651 51.1347 35.4928 51.168C35.5205 51.2067 35.5648 51.2289 35.6202 51.24C35.7309 51.2621 35.8693 51.2067 36.0078 51.1514C36.1406 51.096 36.2735 51.0351 36.4064 50.9742C36.6722 50.8468 36.9269 50.6973 37.176 50.5368C37.0653 50.6309 36.949 50.725 36.8272 50.8136C36.7054 50.9022 36.5836 50.9853 36.4562 51.0628C36.3289 51.1403 36.196 51.2123 36.0631 51.2787C35.9967 51.3119 35.9302 51.3452 35.8527 51.3728C35.7807 51.4005 35.6922 51.4227 35.6036 51.4171C35.5094 51.4061 35.4153 51.3728 35.3433 51.2898C35.2769 51.2067 35.2603 51.1181 35.2381 51.0572C35.1938 50.941 35.1108 50.8413 35.0111 50.7749C34.9059 50.7029 34.7841 50.6752 34.6678 50.6863C34.546 50.7029 34.4353 50.7527 34.3522 50.8302C34.2969 50.8856 34.2083 50.8856 34.1584 50.8302C34.1363 50.8081 34.1197 50.7749 34.1197 50.7472V50.7416C34.0422 49.9443 33.649 49.1913 33.0787 48.6432C32.9348 48.5047 32.7798 48.3829 32.6136 48.2666C32.4475 48.1559 32.2704 48.0452 32.0932 47.94C31.7388 47.7296 31.3678 47.5413 31.0079 47.3032C30.6536 47.0707 30.3158 46.7994 30.0168 46.4948C29.7179 46.1848 29.4521 45.8526 29.2251 45.4927C28.771 44.7729 28.4721 43.9589 28.3779 43.1284Z" fill="#1C3AB4"/>
<path d="M36.0127 51.2355C35.9462 51.3185 35.9462 51.4293 35.985 51.5179C36.0182 51.612 36.0902 51.6729 36.1788 51.7117C36.2673 51.7504 36.3615 51.767 36.4611 51.7781C36.5608 51.7836 36.666 51.7781 36.7767 51.7836C36.8266 51.7892 36.8819 51.7947 36.9428 51.8058C36.9982 51.8169 37.0536 51.8335 37.109 51.8556C37.2142 51.8944 37.3083 51.9553 37.4024 52.0106C37.491 52.0716 37.5741 52.1325 37.6571 52.1878C37.7402 52.2377 37.8232 52.2875 37.9063 52.3152C38.2551 52.4315 38.6537 52.3429 38.9693 52.1491C39.296 51.9442 39.5618 51.6397 39.8054 51.313C40.2982 50.6596 40.7356 49.962 41.0623 49.2145C41.3945 48.467 41.6049 47.6642 41.616 46.8281C41.6824 47.2379 41.6824 47.6642 41.6271 48.085C41.6104 48.1902 41.5938 48.2954 41.5772 48.3951C41.5495 48.5003 41.5329 48.6055 41.5052 48.7107C41.4776 48.8103 41.4554 48.9155 41.4222 49.0152C41.3834 49.1149 41.3557 49.2145 41.317 49.3142C41.0291 50.117 40.5861 50.8534 40.0823 51.5234C39.9549 51.695 39.8165 51.8612 39.667 52.0162C39.512 52.1712 39.3348 52.3152 39.141 52.4315C38.9417 52.5422 38.7257 52.6252 38.4932 52.6529C38.2662 52.6806 38.0281 52.6585 37.8121 52.5643C37.7014 52.52 37.6017 52.4591 37.5131 52.3927C37.4301 52.3263 37.347 52.2598 37.2695 52.1989C37.1865 52.138 37.109 52.0771 37.0259 52.0383C36.9816 52.0162 36.9428 51.9996 36.8986 51.9885C36.8543 51.9719 36.8044 51.9608 36.7546 51.9553C36.6549 51.9387 36.5553 51.9276 36.4445 51.911C36.3393 51.8888 36.2286 51.8612 36.1345 51.8002C36.0846 51.767 36.0403 51.7338 36.0071 51.684C35.9684 51.6397 35.9462 51.5898 35.9351 51.5345C35.9075 51.4293 35.9296 51.3019 36.0127 51.2355Z" fill="#1C3AB4"/>
<path d="M40.5098 50.7422C41.1077 50.792 41.6891 51.0744 42.1487 51.4841C42.6138 51.8994 42.9571 52.4531 43.1066 53.0677C43.2505 53.6823 43.1952 54.3356 42.9681 54.9115C42.7467 55.4873 42.348 56.0022 41.8386 56.3178C42.2539 55.886 42.5473 55.371 42.7079 54.8229C42.8685 54.2747 42.8962 53.6933 42.7688 53.1507C42.6359 52.6026 42.348 52.0987 41.9604 51.6779C41.5673 51.2627 41.0745 50.936 40.5098 50.7422Z" fill="#1C3AB4"/>
<path d="M35.7139 58.1724C35.963 57.1425 36.7271 56.2234 37.7348 55.786C38.2331 55.559 38.7702 55.4538 39.2852 55.3541C39.5454 55.3043 39.8001 55.26 40.0548 55.2046C40.3039 55.1437 40.5531 55.0773 40.7912 54.9887C40.9075 54.9444 41.0237 54.8945 41.1345 54.8392C41.2507 54.7838 41.356 54.7229 41.4612 54.6509C41.5608 54.5845 41.6605 54.5125 41.7491 54.4239C41.7934 54.3852 41.8377 54.3409 41.8764 54.2966L41.9373 54.2246C41.9539 54.2024 41.9761 54.1803 41.9927 54.1581C42.1367 53.9644 42.2529 53.7429 42.3194 53.5048C42.3858 53.2667 42.4135 53.0175 42.4024 52.7739C42.3803 52.2756 42.1588 51.7939 41.7934 51.4395C41.6162 51.2568 41.4002 51.1129 41.1677 51.0021C41.0514 50.9468 40.9296 50.9025 40.8023 50.8692C40.6749 50.8305 40.5476 50.8139 40.4147 50.7973C40.6805 50.7862 40.9462 50.8249 41.2009 50.9135C41.2674 50.9357 41.3283 50.9578 41.3892 50.991C41.4224 51.0021 41.4501 51.0187 41.4833 51.0353L41.5719 51.0796L41.6162 51.1073L41.7435 51.1904C41.7989 51.2291 41.8543 51.2679 41.9096 51.3122C42.1145 51.4949 42.2972 51.7053 42.4301 51.9545C42.563 52.1981 42.646 52.4694 42.6737 52.7518C42.6903 52.8902 42.6903 53.0286 42.6793 53.167L42.6682 53.2722L42.6627 53.3276L42.6571 53.3774L42.635 53.4826L42.6128 53.5823C42.5464 53.8592 42.4246 54.1194 42.2585 54.3519C42.2197 54.4128 42.1754 54.4627 42.1256 54.518C42.0813 54.5734 42.0314 54.6232 41.9816 54.6731C41.8764 54.7727 41.7657 54.8558 41.6494 54.9388C41.4169 55.0939 41.1677 55.2157 40.913 55.3154C39.8721 55.6974 38.7924 55.6642 37.8345 56.0351C36.8877 56.4006 36.1014 57.1868 35.7139 58.1724Z" fill="#1C3AB4"/>
<path d="M42.6076 47.7851C42.6131 48.4772 42.746 49.1748 43.0007 49.8282C43.1281 50.1549 43.2886 50.476 43.4714 50.775C43.6596 51.074 43.8756 51.3508 44.1136 51.6166C44.3462 51.8824 44.5954 52.1482 44.8058 52.4471C44.911 52.5966 45.0051 52.7517 45.0826 52.9233C45.1546 53.0894 45.2155 53.2666 45.2432 53.4438C45.365 54.1636 45.138 54.9332 44.6286 55.4426C45.1158 54.9166 45.3041 54.147 45.1601 53.4604C45.1214 53.2888 45.0605 53.1226 44.9829 52.9676C44.9054 52.8126 44.8113 52.6631 44.7006 52.5247C44.4846 52.2423 44.2299 51.9931 43.9808 51.7329C43.7316 51.4782 43.4935 51.1958 43.2886 50.8913C43.0838 50.5923 42.9066 50.2656 42.7626 49.9334C42.4692 49.2579 42.292 48.5326 42.2588 47.7906C42.2588 47.6965 42.3308 47.6134 42.4304 47.6079C42.5246 47.6079 42.6076 47.6799 42.6076 47.7796C42.6076 47.7796 42.6076 47.7796 42.6076 47.7851Z" fill="#1C3AB4"/>
<path d="M37.7459 43.0181C38.5322 43.45 39.1578 44.1365 39.5067 44.9394C39.8555 45.7422 39.9219 46.6503 39.7004 47.4808C39.861 46.6392 39.7337 45.7589 39.3461 45.0169C38.964 44.2694 38.3328 43.6714 37.5909 43.3337C37.5023 43.2894 37.4635 43.1897 37.5023 43.1011C37.5411 43.0126 37.6463 42.9738 37.7349 43.0126C37.7349 43.0181 37.7404 43.0181 37.7459 43.0181Z" fill="#1C3AB4"/>
<path d="M39.7119 75.1815C40.9079 73.7364 41.827 72.0975 42.5413 70.3866C43.2998 68.6923 43.848 66.9039 44.3075 65.0989C44.5345 64.1964 44.7394 63.2828 44.9332 62.3692C45.1325 61.4611 45.3097 60.5365 45.5478 59.6284C45.7914 58.7148 46.0904 57.8123 46.5389 56.9652C46.5943 56.86 46.6552 56.7548 46.7105 56.6551C46.7714 56.5499 46.8379 56.4503 46.8988 56.3451C47.0317 56.1457 47.1701 55.9519 47.3251 55.7637C47.6241 55.3927 47.9674 55.0494 48.3494 54.756C48.726 54.457 49.1412 54.2078 49.5897 54.014C50.0327 53.8258 50.5088 53.6984 50.9961 53.6597C51.2397 53.6375 51.4889 53.6431 51.7325 53.6707C51.7934 53.6707 51.8488 53.6818 51.9097 53.6929C51.9706 53.6984 52.0315 53.715 52.0924 53.7261L52.2696 53.7649C52.3305 53.7815 52.3914 53.7981 52.4467 53.8147C52.6848 53.8867 52.9063 53.9863 53.1278 54.0971L53.2828 54.1857C53.3382 54.2134 53.3935 54.241 53.4434 54.2798C53.543 54.3462 53.6482 54.4127 53.7424 54.4902C54.5175 55.0771 55.0934 55.8966 55.42 56.8101C55.5806 57.2697 55.6803 57.7403 55.7246 58.2221C55.7689 58.6982 55.7578 59.1799 55.708 59.6561C55.6028 60.6085 55.3148 61.5331 54.9273 62.3969C54.5397 63.2606 54.058 64.0801 53.532 64.8608C52.4412 66.3945 51.2176 67.8064 50.2541 69.4121C50.4645 68.9968 50.6971 68.5871 50.9352 68.1829C51.1788 67.7843 51.4335 67.3911 51.6937 66.998C52.2087 66.2173 52.7457 65.4532 53.2441 64.667L53.6206 64.0801C53.7424 63.8863 53.8642 63.687 53.9805 63.4876C54.2075 63.0834 54.4234 62.6737 54.6117 62.2529C54.7999 61.8321 54.9605 61.4002 55.0878 60.9628C55.1543 60.7413 55.2041 60.5199 55.2539 60.2928C55.2982 60.0714 55.337 59.8444 55.3591 59.6173C55.409 59.1633 55.42 58.7038 55.3758 58.2497C55.3315 57.8013 55.2429 57.3528 55.0934 56.9264C54.7888 56.0793 54.2462 55.3097 53.5264 54.767C53.4434 54.6951 53.3493 54.6342 53.2551 54.5732C53.2108 54.54 53.161 54.5123 53.1112 54.4847L52.9617 54.4016C52.7623 54.3075 52.5575 54.2133 52.3471 54.1524C52.2917 54.1358 52.2419 54.1192 52.1865 54.1026L52.0204 54.0694C51.9706 54.0583 51.9152 54.0417 51.8598 54.0362C51.8045 54.0306 51.7491 54.0196 51.6937 54.014C51.4723 53.9919 51.2452 53.9863 51.0238 54.0085C50.5808 54.0417 50.1434 54.158 49.7281 54.3352C49.3129 54.5123 48.9197 54.7504 48.5654 55.0273C48.2055 55.3097 47.8788 55.6308 47.5964 55.9852C47.4525 56.1623 47.3141 56.3451 47.1922 56.5388C47.1369 56.633 47.0704 56.7271 47.0151 56.8268C46.9597 56.9264 46.8988 57.0261 46.849 57.1258C46.4171 57.9397 46.1236 58.82 45.8855 59.717C45.653 60.614 45.4703 61.5276 45.2765 62.4467C45.0772 63.3603 44.8723 64.2739 44.6453 65.1875C44.1857 67.0035 43.6265 68.8086 42.8569 70.5305C42.4527 71.3777 41.9876 72.2027 41.4671 72.9834C41.2069 73.3765 40.93 73.7585 40.6366 74.124C40.3431 74.4894 40.0331 74.8438 39.7119 75.1815Z" fill="#1C3AB4"/>
<path d="M39.6735 74.39C39.5019 74.3844 39.3302 74.3844 39.1641 74.3733L38.9039 74.3567C38.8208 74.3512 38.7322 74.3512 38.6492 74.3401C38.4775 74.318 38.3114 74.3014 38.1398 74.2737L37.8851 74.2294C37.802 74.2183 37.719 74.2017 37.6359 74.1851C36.9604 74.0467 36.3015 73.8584 35.6537 73.6203C35.0114 73.3767 34.3858 73.0833 33.7823 72.7566C33.1732 72.4299 32.5918 72.0589 32.0271 71.6658C31.7447 71.4665 31.4678 71.2616 31.1965 71.0568C31.0581 70.9516 30.9252 70.8408 30.7923 70.7356C30.6595 70.6249 30.5266 70.5197 30.3937 70.4089C29.8677 69.966 29.3583 69.5064 28.86 69.0413C28.3616 68.5707 27.8799 68.089 27.3982 67.6073L27.0383 67.2474C26.9165 67.12 26.7947 66.9927 26.6729 66.8543C26.5566 66.7214 26.4403 66.5719 26.3407 66.4058C26.241 66.2397 26.158 66.0569 26.1081 65.8576C26.0528 65.6583 26.0417 65.4424 26.0583 65.243C26.0749 65.0437 26.1247 64.8554 26.1801 64.6783C26.2909 64.3294 26.4403 64.0249 26.5345 63.7259C26.5788 63.5764 26.612 63.4325 26.6341 63.283C26.6507 63.1335 26.6507 62.984 26.6452 62.8234C26.6341 62.5133 26.5788 62.1811 26.5289 61.8434C26.5068 61.6717 26.4846 61.4946 26.4736 61.3174C26.457 61.1402 26.457 60.9575 26.457 60.7803C26.4625 60.6031 26.4736 60.4204 26.4957 60.2432C26.5123 60.066 26.5455 59.8889 26.5788 59.7172C26.6175 59.54 26.6618 59.3684 26.7172 59.1967C26.7726 59.0306 26.8279 58.859 26.8999 58.6929C26.9387 58.6154 26.9719 58.5323 27.0106 58.4548C27.0494 58.3773 27.0882 58.2998 27.1158 58.2333C27.1491 58.1614 27.1712 58.0949 27.1934 58.0285C27.1989 57.9952 27.2044 57.962 27.21 57.9343C27.2155 57.9011 27.221 57.8734 27.2155 57.8457C27.2155 57.7295 27.1712 57.6187 27.1158 57.5689C27.0549 57.5191 26.9774 57.4969 26.8612 57.5357C26.7504 57.5689 26.6286 57.6575 26.5234 57.7572C26.4957 57.7793 26.4736 57.807 26.4459 57.8402L26.3684 57.9288C26.3407 57.9565 26.3185 57.9897 26.2964 58.0229C26.2742 58.0506 26.2466 58.0838 26.2244 58.1171C26.0417 58.3773 25.8977 58.6707 25.787 58.9753C25.6707 59.2853 25.5877 59.6065 25.5102 59.9332C25.3607 60.5865 25.261 61.262 25.1004 61.932C25.0174 62.2642 24.9177 62.5964 24.7848 62.912C24.6519 63.2331 24.4748 63.5321 24.2644 63.8034C24.2588 63.809 24.2477 63.809 24.2422 63.8034C24.2367 63.7979 24.2311 63.7868 24.2367 63.7813C24.436 63.5044 24.591 63.1999 24.7128 62.8843C24.8291 62.5687 24.9177 62.242 24.9897 61.9098C25.1281 61.2454 25.2001 60.5644 25.333 59.8999C25.3939 59.5622 25.4769 59.23 25.5877 58.9088C25.6929 58.5822 25.8424 58.2721 26.0306 57.9842C26.0528 57.951 26.0805 57.9177 26.1026 57.8845C26.1303 57.8457 26.1524 57.8125 26.1801 57.7793C26.2355 57.7129 26.2853 57.6464 26.3462 57.5855C26.468 57.4582 26.612 57.353 26.7781 57.2921C26.8611 57.2644 26.9497 57.2478 27.0383 57.2588C27.1269 57.2699 27.2155 57.3087 27.282 57.364C27.3539 57.4194 27.4038 57.4969 27.437 57.58C27.4702 57.6575 27.4868 57.7461 27.4924 57.8347C27.4979 58.0119 27.4425 58.1835 27.3761 58.3385C27.3484 58.416 27.3096 58.4936 27.2764 58.5711C27.2377 58.6486 27.2044 58.7261 27.1712 58.8036C27.1103 58.9642 27.0549 59.1248 27.0051 59.2853C26.9553 59.4459 26.9165 59.612 26.8778 59.7781C26.8501 59.9442 26.8224 60.1103 26.8058 60.2764C26.7892 60.4425 26.7781 60.6142 26.7781 60.7858C26.7726 60.9519 26.7781 61.1236 26.7947 61.2897C26.8113 61.4558 26.8335 61.6274 26.8556 61.7935C26.9054 62.1313 26.9664 62.469 26.983 62.8068C26.9885 62.9784 26.9885 63.1501 26.9664 63.3217C26.9497 63.4934 26.911 63.665 26.8556 63.8256C26.7559 64.1523 26.6065 64.4623 26.5068 64.7835C26.457 64.944 26.4182 65.1101 26.4016 65.2762C26.3905 65.4424 26.4016 65.6085 26.4459 65.769C26.5289 66.0902 26.7227 66.3781 26.9387 66.6328C27.1546 66.8875 27.4038 67.1256 27.6419 67.3692C28.118 67.8509 28.5997 68.3326 29.087 68.8032C30.0725 69.7445 31.0913 70.647 32.1876 71.4443C33.2895 72.2416 34.4688 72.9338 35.7257 73.4487C36.9826 73.9581 38.317 74.2903 39.6735 74.3512C39.6846 74.3512 39.6901 74.3623 39.6901 74.3678C39.6901 74.3789 39.6846 74.3844 39.6735 74.3844V74.39Z" fill="#1C3AB4"/>
<mask id="mask1_2031_294" style="mask-type:luminance" maskUnits="userSpaceOnUse" x="21" y="56" width="7" height="6">
<path d="M21.8115 56.0688H27.1435V61.7386H21.8115V56.0688Z" fill="white"/>
</mask>
<g mask="url(#mask1_2031_294)">
<path d="M27.0878 57.2592C27.0878 57.1873 27.0545 57.1264 27.0047 57.0821C26.9604 57.0378 26.8995 57.0101 26.8441 56.999C26.7334 56.9879 26.6116 57.0433 26.5119 57.1208C26.4123 57.1983 26.3237 57.3146 26.2019 57.4309C26.141 57.4863 26.0745 57.5472 25.997 57.597C25.9582 57.6247 25.9195 57.6468 25.8752 57.669C25.8364 57.6967 25.7977 57.7133 25.7589 57.7299C25.5928 57.8019 25.4267 57.8462 25.2717 57.8849C25.1111 57.9237 24.9616 57.9458 24.8232 57.979C24.6792 58.0123 24.5519 58.051 24.4411 58.1009C24.3304 58.1507 24.2307 58.2171 24.1366 58.3002C24.0369 58.3832 23.9428 58.4829 23.8487 58.5936C23.7546 58.7044 23.6549 58.8262 23.5552 58.9425C23.4611 59.0587 23.367 59.175 23.2784 59.2913C23.1898 59.4076 23.1067 59.5238 23.0348 59.6456C22.9628 59.7619 22.8963 59.8893 22.8465 60.0166C22.7967 60.144 22.7635 60.2824 22.7468 60.4208C22.7247 60.5592 22.7302 60.7032 22.7524 60.8416C22.7635 60.9136 22.7801 60.9856 22.8078 61.052C22.8299 61.124 22.8631 61.1904 22.9019 61.2624C22.9074 61.2735 22.9074 61.2846 22.8963 61.2901C22.8908 61.2901 22.8797 61.2901 22.8742 61.2846C22.769 61.1683 22.6859 61.0299 22.6361 60.8804C22.5863 60.7364 22.5586 60.5758 22.5586 60.4208C22.5586 60.2658 22.5752 60.1052 22.614 59.9557C22.6583 59.8007 22.7136 59.6567 22.7856 59.5183C22.924 59.2359 23.1067 58.9868 23.295 58.7376C23.4888 58.4995 23.666 58.2448 23.9041 58.0344C24.0259 57.9347 24.1588 57.8462 24.3027 57.7852C24.4522 57.7243 24.6017 57.6856 24.7567 57.6579C25.0613 57.597 25.3713 57.5748 25.6592 57.4696C25.7977 57.4143 25.9306 57.3423 26.0468 57.2426C26.1686 57.1485 26.2794 57.0378 26.4178 56.9603C26.4898 56.9215 26.5618 56.8883 26.6448 56.8717C26.7223 56.8606 26.8054 56.8606 26.8829 56.8883C26.9604 56.916 27.0269 56.9658 27.0712 57.0378C27.121 57.1042 27.1431 57.1928 27.1154 57.2703C27.1154 57.2814 27.1044 57.2869 27.0988 57.2814C27.0878 57.2814 27.0822 57.2759 27.0822 57.2648L27.0878 57.2592Z" fill="#1C3AB4"/>
</g>
<mask id="mask2_2031_294" style="mask-type:luminance" maskUnits="userSpaceOnUse" x="21" y="57" width="12" height="19">
<path d="M21.8115 57.4858H32.8133V75.979H21.8115V57.4858Z" fill="white"/>
</mask>
<g mask="url(#mask2_2031_294)">
<path d="M31.7052 76.1341C30.3709 74.9326 29.0808 73.6924 27.7574 72.4909C27.5913 72.3414 27.4308 72.1919 27.2591 72.0424L27.0155 71.8154L26.7608 71.5939C26.6002 71.4444 26.4286 71.3004 26.2625 71.1565L25.7531 70.7191C25.4098 70.4311 25.0721 70.1321 24.7343 69.8165C24.4076 69.5009 24.0865 69.1632 23.8041 68.7812C23.6657 68.5929 23.5328 68.3936 23.4221 68.1832C23.3667 68.078 23.3169 67.9672 23.2615 67.862L23.1951 67.6959C23.1729 67.6406 23.1452 67.5907 23.1286 67.5298C22.9625 67.0924 22.8462 66.6384 22.7632 66.1899C22.6801 65.7359 22.6192 65.2929 22.5528 64.85C22.5251 64.6285 22.4863 64.4126 22.4531 64.1966C22.4365 64.0859 22.4144 63.9751 22.3922 63.8699C22.3701 63.7647 22.3479 63.654 22.3258 63.5488C22.2316 63.1225 22.0932 62.6961 21.9935 62.2532C21.8883 61.8047 21.8108 61.3451 21.8274 60.8745C21.8385 60.6198 21.916 60.3817 22.0212 60.1713C22.1209 59.9554 22.2593 59.7616 22.4033 59.5899C22.5528 59.4127 22.7133 59.2522 22.8795 59.0971C23.0456 58.9421 23.2172 58.7982 23.3833 58.6487C23.3944 58.6431 23.4055 58.6431 23.411 58.6542C23.4165 58.6597 23.4165 58.6708 23.411 58.6763C23.0899 58.9919 22.7687 59.302 22.5029 59.6619C22.3701 59.8391 22.2482 60.0273 22.1597 60.2322C22.0711 60.4315 22.0102 60.653 22.0102 60.8745C22.0102 61.3174 22.1043 61.7604 22.2206 62.1923C22.3368 62.6241 22.4808 63.0449 22.5915 63.4824C22.8185 64.3516 22.9071 65.2486 23.0843 66.1234C23.1729 66.5609 23.2836 66.9927 23.4442 67.408C23.5992 67.8288 23.8207 68.2164 24.0865 68.5763C24.3467 68.9362 24.6513 69.2629 24.9724 69.5729C25.2935 69.883 25.6313 70.1764 25.969 70.4699C26.6445 71.0623 27.3034 71.6714 27.9512 72.2915C29.2413 73.5318 30.4871 74.8219 31.7329 76.1064C31.7385 76.1175 31.7385 76.1286 31.7274 76.1341C31.7219 76.1397 31.7108 76.1397 31.7052 76.1341Z" fill="#1C3AB4"/>
</g>
<path d="M24.4627 62.1644C24.3907 61.7491 24.2578 61.3837 24.1471 60.9795C24.0973 60.7802 24.053 60.5698 24.0308 60.3483C24.0198 60.2376 24.0142 60.1213 24.0197 60.005C24.0253 59.8887 24.0419 59.7669 24.0696 59.6507C24.0973 59.5344 24.1305 59.4181 24.1859 59.3018C24.2412 59.1911 24.3077 59.0804 24.3907 58.9862C24.4738 58.8866 24.5734 58.7924 24.6731 58.7315C24.7728 58.6596 24.878 58.6097 24.9721 58.5654L25.2379 58.4436C25.3265 58.4049 25.4095 58.355 25.4981 58.3052C25.6753 58.2111 25.8414 58.0948 26.0296 57.9896H26.0352C26.0462 57.9841 26.0573 57.9896 26.0629 57.9951C26.0629 58.0007 26.0629 58.0117 26.0573 58.0173C25.9189 58.1668 25.7749 58.3163 25.6199 58.4492C25.5424 58.5211 25.4593 58.582 25.3763 58.643C25.2877 58.6983 25.1991 58.7537 25.1161 58.8035C24.9389 58.9087 24.7672 59.025 24.651 59.1856C24.5291 59.3461 24.4516 59.5344 24.4073 59.7282C24.363 59.9275 24.352 60.1268 24.3575 60.3317C24.3686 60.5366 24.3963 60.7359 24.4239 60.9408C24.4572 61.1401 24.4904 61.3449 24.507 61.5498C24.5236 61.7547 24.5236 61.9651 24.4959 62.1699C24.4959 62.1755 24.4848 62.1866 24.4738 62.181C24.4682 62.181 24.4627 62.1755 24.4627 62.1699V62.1644Z" fill="#1C3AB4"/>
<path d="M23.2171 60.8801C23.2393 60.5866 23.2836 60.3098 23.3279 60.0385C23.3777 59.7672 23.4275 59.4959 23.4774 59.2301C23.5051 59.0917 23.5327 58.9477 23.577 58.8038C23.6047 58.7318 23.6269 58.6598 23.6656 58.5878C23.6822 58.5491 23.6988 58.5159 23.7155 58.4826C23.7265 58.4605 23.7431 58.4439 23.7542 58.4217C23.7653 58.4051 23.7819 58.3885 23.793 58.3719C23.9037 58.239 24.0366 58.1504 24.175 58.0784C24.3134 58.0175 24.4685 57.9732 24.618 57.9898H24.6235C24.629 57.9954 24.6346 58.0009 24.6346 58.0065C24.6346 58.012 24.629 58.0175 24.6235 58.0175C24.4906 58.0452 24.3633 58.1117 24.2525 58.1892C24.1363 58.2722 24.0366 58.3664 23.9591 58.4826C23.9203 58.538 23.8926 58.5989 23.8705 58.6653C23.8428 58.7318 23.8262 58.7982 23.804 58.8647C23.7708 58.9976 23.7487 59.136 23.721 59.2744C23.6656 59.5512 23.5992 59.8226 23.5217 60.0939C23.4829 60.2267 23.4386 60.3652 23.3888 60.4981C23.3445 60.6309 23.2947 60.7583 23.2393 60.8912C23.2337 60.8967 23.2282 60.8967 23.2227 60.8967C23.2171 60.8912 23.2116 60.8856 23.2171 60.8856V60.8801Z" fill="#1C3AB4"/>
<path d="M30.4596 53.9647C30.4707 53.937 30.4984 53.9149 30.5261 53.9093C30.5538 53.8983 30.587 53.8983 30.6202 53.9038C30.6867 53.9259 30.731 53.9758 30.7697 54.0201C30.8085 54.0644 30.8362 54.1087 30.8749 54.1308C30.9081 54.1585 30.9358 54.1585 30.958 54.1474C30.9746 54.1363 30.9967 54.1142 31.0133 54.0754C31.0244 54.0367 31.0355 53.9924 31.0355 53.9481C31.041 53.8484 31.0299 53.7488 31.0078 53.6602C30.9801 53.566 30.9414 53.4885 30.886 53.4276C30.8251 53.3667 30.7586 53.3224 30.6922 53.3113C30.5482 53.2837 30.3766 53.3667 30.2769 53.4941C30.1717 53.6269 30.1274 53.8152 30.133 54.0145C30.1385 54.2083 30.1773 54.4132 30.2548 54.6014C30.3323 54.7897 30.4486 54.9613 30.6036 55.0998C30.7586 55.2382 30.9524 55.3489 31.1739 55.3988C30.9469 55.4209 30.7088 55.36 30.5039 55.2382C30.2991 55.1219 30.1274 54.9337 30.0112 54.7233C29.9503 54.6181 29.9004 54.5018 29.8672 54.3855C29.834 54.2692 29.8118 54.153 29.8008 54.0256C29.7952 53.9038 29.8008 53.7764 29.8284 53.6436C29.8617 53.5162 29.917 53.3944 30.0001 53.2781C30.0887 53.1674 30.1994 53.0843 30.3323 53.029C30.4652 52.9736 30.6147 52.9514 30.7642 52.9902C30.9137 53.029 31.0355 53.1231 31.1185 53.2338C31.2071 53.3446 31.257 53.4775 31.2736 53.6048C31.2957 53.7321 31.2846 53.8595 31.2625 53.9758C31.2459 54.0478 31.2237 54.1087 31.1905 54.1696C31.1684 54.2028 31.1462 54.2305 31.113 54.2582C31.0853 54.2803 31.041 54.3024 30.9967 54.3135C30.9524 54.3191 30.9081 54.3135 30.8694 54.2969C30.8306 54.2803 30.8029 54.2526 30.7808 54.2305C30.7365 54.1751 30.7088 54.1197 30.6867 54.0699C30.6645 54.0256 30.6424 53.9758 30.5981 53.9536C30.5593 53.9315 30.4984 53.9204 30.4596 53.9647Z" fill="#1C3AB4"/>
<mask id="mask3_2031_294" style="mask-type:luminance" maskUnits="userSpaceOnUse" x="21" y="46" width="11" height="12">
<path d="M21.8115 46.147H31.3959V57.4865H21.8115V46.147Z" fill="white"/>
</mask>
<g mask="url(#mask3_2031_294)">
<path d="M31.0359 47.1326C30.305 46.9277 29.5631 46.7339 28.8267 46.6675C28.4557 46.6066 28.0903 46.5789 27.7193 46.5955C27.3539 46.6066 26.9829 46.6564 26.6285 46.7395C26.4458 46.7782 26.2686 46.8336 26.097 46.889C25.9254 46.9499 25.7537 47.0219 25.5876 47.1049C25.427 47.1824 25.2665 47.271 25.117 47.3762C24.9619 47.4759 24.818 47.5866 24.6796 47.7084C24.1259 48.1846 23.6995 48.8103 23.4282 49.4913C23.1514 50.1723 23.0296 50.9143 23.0351 51.6507C23.0517 52.3926 23.1901 53.129 23.4559 53.8211C23.7217 54.5077 24.1203 55.1445 24.6408 55.6649C25.128 56.2186 25.7426 56.6671 26.4514 56.955C25.7039 56.8055 24.9896 56.429 24.3972 55.9086C23.8324 55.3549 23.4116 54.6738 23.1292 53.9485C22.8468 53.2176 22.7029 52.4369 22.6918 51.6562C22.6752 50.8755 22.8081 50.0893 23.1015 49.3584C23.395 48.6276 23.8546 47.9631 24.4525 47.4427C24.602 47.3153 24.7571 47.1935 24.9232 47.0828C25.0893 46.972 25.2609 46.8779 25.4381 46.7893C25.6153 46.7007 25.798 46.6287 25.9807 46.5623C26.169 46.4959 26.3572 46.4405 26.5455 46.3962C27.3096 46.219 28.1069 46.1969 28.882 46.3187C29.6461 46.4959 30.3549 46.7948 31.0359 47.1326Z" fill="#1C3AB4"/>
</g>
<path d="M33.9754 49.6572C34.0142 49.7015 34.053 49.7514 34.0917 49.8067C34.1139 49.8344 34.1305 49.8621 34.1471 49.8898C34.1637 49.923 34.1748 49.9562 34.1803 49.995C34.1858 50.0337 34.1858 50.067 34.1914 50.0946C34.1914 50.1223 34.1969 50.15 34.2024 50.1777C34.2191 50.2331 34.2301 50.294 34.2523 50.3493C34.2689 50.4047 34.2855 50.4711 34.3021 50.5321C34.3187 50.593 34.3353 50.6594 34.3464 50.7258C34.3686 50.8532 34.3796 50.9805 34.3796 51.1134C34.3796 51.3737 34.3298 51.6394 34.2301 51.8831C34.208 51.944 34.1803 52.0049 34.1415 52.0658C34.1028 52.1211 34.0585 52.1765 34.0087 52.2208C33.909 52.3149 33.7816 52.3814 33.6543 52.3869C33.7706 52.326 33.8536 52.2429 33.9201 52.1433C33.9478 52.0935 33.9754 52.0436 33.9976 51.9883C34.0197 51.9384 34.0308 51.8831 34.0474 51.8221C34.1028 51.5896 34.1305 51.3515 34.1305 51.1134C34.1305 50.9972 34.1194 50.8753 34.1083 50.7535C34.1028 50.6982 34.0972 50.6373 34.0862 50.5763L34.0585 50.3936C34.0474 50.3272 34.0419 50.2607 34.0419 50.1943C34.0419 50.1611 34.0419 50.1279 34.0474 50.0891C34.053 50.0559 34.0585 50.0227 34.0585 50.0005C34.0696 49.9562 34.0474 49.8953 34.0308 49.8344L33.9754 49.6572Z" fill="#1C3AB4"/>
<path d="M34.1863 51.5671C34.3358 51.8218 34.5572 52.0211 34.8175 52.1318C34.8839 52.1595 34.9504 52.1817 35.0168 52.1927C35.0832 52.2093 35.1552 52.2204 35.2327 52.237C35.3103 52.2536 35.3878 52.2702 35.4653 52.3145C35.5373 52.3533 35.6093 52.4087 35.6646 52.4862C35.6923 52.5249 35.7145 52.5692 35.7255 52.6191C35.7366 52.6689 35.7366 52.7187 35.7255 52.7686C35.7089 52.8627 35.6702 52.9347 35.6425 53.0011C35.6148 53.062 35.5982 53.1174 35.6037 53.1617C35.6037 53.2115 35.6203 53.2669 35.648 53.3278C35.6757 53.3832 35.7145 53.4441 35.7532 53.5105C35.792 53.5825 35.8252 53.6545 35.8529 53.732C35.9082 53.8815 35.9415 54.042 35.9359 54.2082C35.9304 54.2912 35.9193 54.3798 35.8916 54.4573C35.8695 54.5404 35.8307 54.6179 35.7975 54.6843C35.7587 54.7452 35.7311 54.8061 35.7145 54.8615C35.6978 54.9113 35.7034 54.9612 35.7145 55.0221C35.72 55.0885 35.7421 55.155 35.7643 55.2269C35.7754 55.2657 35.7809 55.3045 35.792 55.3488C35.792 55.393 35.7975 55.4318 35.7975 55.4761C35.803 55.6422 35.7477 55.8083 35.6646 55.9467C35.5871 56.0852 35.4764 56.207 35.349 56.3011C35.2217 56.3952 35.0832 56.4617 34.9393 56.5115C34.6458 56.6001 34.3413 56.6167 34.0479 56.6056C34.3413 56.5613 34.6292 56.5115 34.895 56.3952C35.0223 56.3399 35.1442 56.2679 35.2494 56.1737C35.349 56.0796 35.4376 55.9744 35.493 55.8526C35.5262 55.7972 35.5483 55.7308 35.5594 55.6699C35.576 55.609 35.5816 55.5425 35.576 55.4816C35.576 55.4152 35.565 55.3598 35.5428 55.2934C35.5207 55.2214 35.4985 55.1494 35.4819 55.0664C35.4708 55.0276 35.4653 54.9833 35.4653 54.939C35.4653 54.8892 35.4708 54.8394 35.4819 54.7951C35.5041 54.7065 35.5428 54.6345 35.576 54.5681C35.6148 54.5016 35.6369 54.4462 35.6535 54.3853C35.6702 54.3244 35.6812 54.2635 35.6868 54.1971C35.6923 54.0697 35.6702 53.9368 35.6259 53.815C35.6037 53.7486 35.576 53.6877 35.5428 53.6268C35.5096 53.5659 35.4708 53.4994 35.4376 53.4275C35.4044 53.3499 35.3712 53.2613 35.3712 53.1617C35.3712 53.1174 35.3822 53.0676 35.3989 53.0233C35.4099 52.979 35.4265 52.9402 35.4431 52.907C35.4819 52.835 35.5096 52.7796 35.5207 52.7298C35.5317 52.68 35.5317 52.6357 35.5041 52.5914C35.4764 52.5416 35.4321 52.5028 35.3767 52.4696C35.3269 52.4364 35.2604 52.4142 35.194 52.3921C35.1275 52.3754 35.05 52.3588 34.978 52.3312C34.9061 52.309 34.8341 52.2758 34.7676 52.237C34.4963 52.0875 34.2804 51.8439 34.1863 51.5615V51.5671Z" fill="#1C3AB4"/>
<path d="M34.4297 52.4531C34.6622 52.5196 34.8671 52.6469 35.0609 52.7909C35.2491 52.9404 35.4208 53.1176 35.5537 53.3224C35.6921 53.5217 35.7918 53.7543 35.8194 54.0035C35.8305 54.1308 35.825 54.2526 35.7973 54.3744C35.7641 54.4907 35.7198 54.607 35.6478 54.7011C35.7087 54.4741 35.7198 54.2471 35.6644 54.0311C35.6146 53.8152 35.5149 53.6159 35.3876 53.4332C35.2658 53.2449 35.1163 53.0733 34.9557 52.9071C34.7951 52.7466 34.6179 52.5971 34.4297 52.4531Z" fill="#1C3AB4"/>
<path d="M27.2422 59.4237C27.3474 58.7814 27.6464 58.1779 28.0727 57.674C28.2887 57.4249 28.5378 57.2034 28.8147 57.0151C29.086 56.8324 29.3905 56.6885 29.7116 56.5833C30.3484 56.3729 31.0405 56.3507 31.6938 56.4947C32.0261 56.5667 32.3417 56.6829 32.6406 56.8435C32.9396 56.9985 33.2165 57.1979 33.4656 57.4249C33.9529 57.8844 34.3294 58.4492 34.6229 59.0361C34.7668 59.3296 34.8942 59.6341 35.0049 59.9386C35.0603 60.0937 35.1156 60.2487 35.1655 60.3982C35.2153 60.5477 35.2707 60.6972 35.3316 60.8356C35.4589 61.118 35.6361 61.3616 35.8908 61.5056C36.0237 61.5831 36.1676 61.6495 36.3171 61.727C36.3891 61.7658 36.4666 61.8045 36.5331 61.8599C36.6051 61.9097 36.6715 61.9651 36.7269 62.0316C36.8431 62.1534 36.9317 62.3029 37.0037 62.4579C37.0702 62.6074 37.1144 62.768 37.1421 62.9341C37.1975 63.2552 37.1864 63.5819 37.1754 63.903C37.1477 63.5819 37.1255 63.2607 37.048 62.9507C36.9705 62.6462 36.8265 62.3582 36.6051 62.1478C36.4999 62.0426 36.3725 61.9707 36.2285 61.9042C36.0846 61.8433 35.9351 61.7879 35.7801 61.7104C35.625 61.6329 35.4811 61.5166 35.3703 61.3837C35.2541 61.2509 35.1655 61.1069 35.088 60.9519C34.9329 60.6529 34.8333 60.3428 34.717 60.0494C34.6007 59.7559 34.4734 59.4624 34.3239 59.1856C34.0359 58.6264 33.6816 58.1004 33.2276 57.6796C33.0005 57.4692 32.7514 57.2865 32.4801 57.1425C32.2143 56.993 31.9209 56.8878 31.6219 56.8158C31.3229 56.7438 31.0128 56.7051 30.7027 56.7106C30.3982 56.7162 30.0881 56.7604 29.7892 56.8435C29.1912 57.0096 28.6375 57.3363 28.2001 57.7903C27.7571 58.2388 27.4194 58.8036 27.2422 59.4237Z" fill="#1C3AB4"/>
<path d="M39.6506 61.766C39.8222 61.7494 39.9939 61.8214 40.1268 61.9376C40.2596 62.0484 40.3538 62.2034 40.4091 62.3695C40.459 62.5412 40.4756 62.7183 40.4756 62.89C40.4756 63.0616 40.4645 63.2333 40.4479 63.3994C40.4091 63.7427 40.3482 64.0804 40.2541 64.4126C40.16 64.7448 40.0271 65.066 39.8555 65.3705C39.6838 65.675 39.4789 65.9574 39.2242 66.2066C38.9696 66.4557 38.6761 66.6606 38.355 66.8156C38.0338 66.9707 37.6905 67.0592 37.3417 67.1091C36.9873 67.1534 36.633 67.1534 36.2842 67.1091C35.5865 67.015 34.9276 66.7547 34.3296 66.417C34.0307 66.2398 33.7427 66.0515 33.4714 65.8411C33.2001 65.6307 32.9454 65.3982 32.7073 65.1435C32.4748 64.8888 32.2589 64.6175 32.0761 64.3296C31.8934 64.0361 31.7328 63.7316 31.611 63.4049C31.3729 62.7626 31.2677 62.0705 31.3563 61.395C31.3453 62.0761 31.4948 62.7405 31.7716 63.344C32.0429 63.9475 32.436 64.4901 32.9067 64.9552C33.3773 65.4148 33.9144 65.8135 34.4902 66.1291C35.0661 66.4447 35.6862 66.6827 36.334 66.7658C36.6496 66.8046 36.9763 66.8101 37.2974 66.7713C37.613 66.7326 37.9286 66.644 38.2165 66.5166C38.51 66.3837 38.7758 66.2066 39.0138 65.9851C39.2464 65.7636 39.4513 65.5089 39.6229 65.2321C39.7945 64.9552 39.9274 64.6562 40.0382 64.3406C40.1434 64.0306 40.2209 63.7039 40.2763 63.3772C40.3316 63.0505 40.387 62.7128 40.315 62.3972C40.2818 62.2366 40.2043 62.0927 40.0935 61.9709C39.9773 61.8546 39.8222 61.7715 39.6506 61.766Z" fill="#1C3AB4"/>
<path d="M29.0039 67.5797C29.5853 67.6406 30.15 67.5853 30.7148 67.4856C31.274 67.3915 31.8333 67.253 32.4146 67.1534C32.5586 67.1257 32.7025 67.1036 32.852 67.0869C32.996 67.0703 33.1455 67.0537 33.2895 67.0482C33.4389 67.0371 33.5884 67.0371 33.7379 67.0371C33.8874 67.0426 34.0369 67.0593 34.1864 67.0759C34.3359 67.098 34.4799 67.1257 34.6238 67.1645C34.7678 67.2032 34.9118 67.253 35.0502 67.3084C35.1831 67.3693 35.316 67.4413 35.4433 67.5188C35.5651 67.6019 35.6814 67.696 35.7866 67.7957C35.2827 67.5022 34.718 67.3749 34.1587 67.3472C33.5995 67.3195 33.0348 67.397 32.47 67.4967C31.9052 67.5908 31.3349 67.7126 30.748 67.7569C30.4546 67.7791 30.1556 67.7846 29.8621 67.7624C29.5687 67.7348 29.2752 67.6849 29.0039 67.5797Z" fill="#1C3AB4"/>
<path d="M32.2598 68.7201C32.6529 68.4322 33.0903 68.1996 33.5665 68.0502C34.0371 67.9062 34.5576 67.8453 35.067 67.9339C35.1279 67.9505 35.1888 67.9616 35.2497 67.9782C35.3161 67.9948 35.377 68.0114 35.4379 68.0335C35.5542 68.0723 35.6705 68.1166 35.7868 68.1664C36.0082 68.2606 36.2242 68.3658 36.4401 68.4543C36.6561 68.5429 36.8775 68.6149 37.1045 68.6426C37.3371 68.6758 37.5696 68.6647 37.8022 68.5817C37.6084 68.7312 37.3537 68.8032 37.099 68.8142C36.8443 68.8253 36.5896 68.781 36.3515 68.7146C35.8753 68.5762 35.4435 68.3547 35.0005 68.2772C34.5576 68.1996 34.0925 68.2273 33.6329 68.3159C33.1734 68.4045 32.7193 68.5595 32.2598 68.7201Z" fill="#1C3AB4"/>
<path d="M37.3037 68.0282C37.3591 68.0392 37.4144 68.0559 37.4698 68.0559C37.5252 68.0669 37.5806 68.0669 37.6359 68.0725C37.7522 68.0725 37.8629 68.0669 37.9737 68.0559C38.1951 68.0392 38.4222 68.0005 38.6658 68.0005C38.7821 68.0005 38.9094 68.006 39.0368 68.0337L39.1253 68.0559C39.1586 68.0669 39.1918 68.078 39.2195 68.0891C39.2527 68.1002 39.2804 68.1112 39.3081 68.1278C39.3413 68.1389 39.369 68.1555 39.3967 68.1721C39.6292 68.305 39.8064 68.5154 39.9116 68.748C39.967 68.8642 40.0112 68.9805 40.0334 69.1079C40.0611 69.2297 40.0777 69.357 40.0777 69.4844C40.0722 69.6062 40.0611 69.7335 40.0334 69.8553C40.0002 69.9716 39.967 70.0934 39.9171 70.2042C39.823 70.4256 39.6956 70.625 39.5517 70.8132C39.4077 70.9959 39.2472 71.162 39.07 71.3171C39.3025 70.9184 39.5406 70.5253 39.6569 70.11C39.6901 70.0048 39.7123 69.8996 39.7289 69.7944C39.7455 69.6892 39.751 69.5896 39.7455 69.4899C39.7399 69.3847 39.7233 69.285 39.7012 69.1854C39.6901 69.1355 39.6735 69.0857 39.6569 69.0359C39.6403 68.9916 39.6237 68.9418 39.6015 68.8975C39.5572 68.8089 39.5019 68.7203 39.4409 68.6483C39.38 68.5708 39.3081 68.5043 39.225 68.4545C39.0644 68.3493 38.8651 68.2939 38.6492 68.2718C38.4332 68.2496 38.2062 68.2496 37.9737 68.2275C37.8574 68.2164 37.7356 68.1998 37.6249 68.1666C37.5086 68.1389 37.3978 68.0891 37.3037 68.0282Z" fill="#1C3AB4"/>
<path d="M39.1523 67.4079C39.3074 67.3747 39.4624 67.347 39.623 67.3359C39.778 67.3249 39.9386 67.3249 40.0992 67.3359C40.2597 67.3526 40.4203 67.3747 40.5753 67.419C40.6141 67.4301 40.6528 67.4411 40.6916 67.4522C40.7304 67.4633 40.7691 67.4799 40.8079 67.491C40.8466 67.5076 40.8854 67.5242 40.9241 67.5408L41.0349 67.5906C41.1844 67.6682 41.3283 67.7567 41.4557 67.8619C41.583 67.9727 41.6993 68.1 41.799 68.2329C41.8931 68.3713 41.9762 68.5208 42.0371 68.6814C42.098 68.8364 42.1423 68.997 42.1755 69.1631C42.1976 69.3292 42.2087 69.4953 42.2087 69.6614C42.1976 69.8275 42.181 69.9936 42.1423 70.1542C42.1035 70.3203 42.0481 70.4754 41.9817 70.6249C41.9152 70.7743 41.8322 70.9183 41.7436 71.0512C41.3726 71.5938 40.8356 71.9925 40.2542 72.225C40.7691 71.8651 41.2121 71.4277 41.5111 70.9072C41.583 70.7799 41.6439 70.647 41.6993 70.5086C41.7491 70.3702 41.7879 70.2317 41.8211 70.0878C41.8433 69.9438 41.8599 69.7999 41.8599 69.6559C41.8654 69.5064 41.8543 69.3624 41.8322 69.2185C41.8045 69.0801 41.7658 68.9361 41.7159 68.8032C41.6661 68.6703 41.5996 68.543 41.5221 68.4212C41.4446 68.2994 41.3505 68.1942 41.2508 68.0945L41.1678 68.0225C41.1456 67.9948 41.1124 67.9782 41.0847 67.9561L41.0404 67.9173L40.9961 67.8896C40.9684 67.8675 40.9352 67.8453 40.9075 67.8287C40.6528 67.6792 40.3705 67.5685 40.0715 67.502C39.922 67.4688 39.7725 67.4467 39.6174 67.4301C39.4679 67.419 39.3129 67.4135 39.1523 67.4079Z" fill="#1C3AB4"/>
<path d="M34.9391 60.0992C35.0222 60.1047 35.0997 60.0826 35.1717 60.0549C35.2437 60.0217 35.3101 59.9829 35.371 59.9331C35.4928 59.839 35.6036 59.7172 35.7531 59.6064C35.825 59.5566 35.9081 59.5068 36.0022 59.4735C36.0908 59.4403 36.1849 59.4237 36.2791 59.4182C36.4673 59.4071 36.65 59.4403 36.8162 59.4846C36.9047 59.5012 36.9823 59.5234 37.0598 59.5455C37.1428 59.5677 37.2148 59.5898 37.2923 59.6064C37.4363 59.6396 37.6024 59.6452 37.7906 59.7005C37.8848 59.7282 37.9844 59.7725 38.0786 59.8445C38.1727 59.9109 38.2447 60.0051 38.3 60.0992C38.4052 60.293 38.4274 60.5145 38.4052 60.7138C38.3776 60.9076 38.3222 61.0792 38.2502 61.2509C38.1727 61.417 38.073 61.5775 37.9457 61.7215C37.8848 61.7879 37.8128 61.8544 37.7408 61.9098C37.7187 61.9264 37.7021 61.943 37.6799 61.9541C37.6633 61.9707 37.6356 61.9817 37.6135 61.9983C37.5692 62.0205 37.5249 62.0482 37.475 62.0648C37.3809 62.1035 37.2813 62.1257 37.1816 62.1312C37.0819 62.1368 36.9878 62.1312 36.8937 62.1202C36.7995 62.1035 36.711 62.0814 36.6279 62.0537C36.6058 62.0482 36.5836 62.0371 36.5615 62.0316L36.5116 62.0094L36.3953 61.9762C36.3511 61.9596 36.3068 61.943 36.2569 61.9208C36.2071 61.8987 36.1573 61.8599 36.113 61.8156C36.0908 61.7879 36.0742 61.7658 36.0631 61.7381C36.0576 61.7215 36.0465 61.7104 36.041 61.6938L36.0299 61.6551C36.0244 61.6329 36.0188 61.6052 36.0133 61.5831C36.0133 61.5554 36.0078 61.5333 36.0078 61.5056C36.0022 61.4114 36.0188 61.3173 36.041 61.2343C36.0631 61.1457 36.0853 61.0682 36.113 60.9906C36.1407 60.9131 36.1628 60.8356 36.1794 60.7581C36.196 60.6806 36.2071 60.6031 36.196 60.52C36.196 60.5089 36.196 60.5034 36.2071 60.5034C36.2126 60.5034 36.2182 60.5089 36.2182 60.5145C36.2625 60.675 36.2348 60.8467 36.196 61.0072C36.1794 61.0903 36.1628 61.1678 36.1462 61.2509C36.1351 61.3339 36.1296 61.4114 36.1351 61.4945C36.1351 61.5111 36.1462 61.5333 36.1462 61.5499C36.1517 61.572 36.1573 61.5942 36.1628 61.6108C36.1739 61.6495 36.196 61.6827 36.2237 61.7104C36.2791 61.7658 36.3566 61.7935 36.4341 61.8101L36.5559 61.8433L36.6722 61.8765C36.7552 61.8987 36.8328 61.9153 36.9158 61.9264C37.0764 61.943 37.2425 61.9319 37.392 61.8655C37.464 61.8322 37.5304 61.7879 37.5969 61.7381C37.6578 61.6883 37.7187 61.6274 37.7685 61.5665C37.8737 61.4447 37.9623 61.3007 38.0287 61.1512C38.0896 61.0017 38.1395 60.8467 38.1561 60.6861C38.1782 60.5255 38.1561 60.3594 38.0841 60.2155C38.0453 60.1435 37.9955 60.0826 37.9346 60.0328C37.8682 59.9829 37.7962 59.9497 37.7187 59.9276C37.5636 59.8777 37.3975 59.8611 37.237 59.8168C37.0764 59.7781 36.9214 59.7172 36.7608 59.6729C36.6058 59.623 36.4452 59.5898 36.2791 59.5898C36.2016 59.5898 36.1185 59.6009 36.041 59.623C35.9635 59.6396 35.8915 59.6784 35.8195 59.7227C35.6811 59.8057 35.5593 59.9165 35.4153 60.0051C35.3433 60.0494 35.2658 60.0881 35.1883 60.1103C35.1053 60.1324 35.0222 60.138 34.9336 60.1213C34.9281 60.1213 34.9225 60.1158 34.9281 60.1103C34.9281 60.1047 34.9336 60.0992 34.9391 60.0992Z" fill="#1C3AB4"/>
<path d="M36.8385 60.321C36.9492 60.4372 37.0157 60.5812 37.0544 60.7307C37.0932 60.8747 37.1043 61.0297 37.0876 61.1792C37.0766 61.3342 37.0378 61.4837 36.9714 61.6221C36.9049 61.755 36.8163 61.8879 36.689 61.982H36.6835C36.6835 61.9876 36.6724 61.9876 36.6724 61.982C36.6724 61.9765 36.6668 61.9765 36.6724 61.971C36.7333 61.8436 36.7776 61.7107 36.8163 61.5778C36.8551 61.4394 36.8772 61.301 36.8883 61.1626C36.9049 61.0242 36.9049 60.8857 36.8939 60.7418C36.8828 60.6033 36.8551 60.4649 36.8219 60.3265C36.8219 60.321 36.8219 60.3154 36.8274 60.3154C36.833 60.3154 36.833 60.3154 36.8385 60.321Z" fill="#1C3AB4"/>
<path d="M37.4645 60.3322C37.5808 60.4263 37.6583 60.5537 37.7082 60.6866C37.758 60.8194 37.7857 60.9689 37.7802 61.1129C37.7802 61.2569 37.7469 61.4008 37.6916 61.5337C37.6307 61.661 37.5476 61.7884 37.4258 61.877C37.4203 61.8825 37.4147 61.8825 37.4092 61.877C37.4092 61.8715 37.4092 61.8714 37.4092 61.8659C37.4645 61.7496 37.5033 61.6223 37.5365 61.4949C37.5642 61.3676 37.5808 61.2347 37.5808 61.1074C37.5864 60.9745 37.5753 60.8471 37.5531 60.7142C37.531 60.5869 37.4922 60.4595 37.4424 60.3377C37.4424 60.3322 37.4424 60.3267 37.4479 60.3267C37.4535 60.3267 37.4535 60.3267 37.459 60.3267L37.4645 60.3322Z" fill="#1C3AB4"/>
<path d="M37.7736 61.5942C37.8567 61.4724 37.9785 61.4004 38.1058 61.3617C38.2332 61.3174 38.3716 61.3063 38.499 61.3285C38.6318 61.3451 38.7647 61.3949 38.8755 61.4724C38.9807 61.5444 39.0803 61.6496 39.1246 61.788L39.1302 61.7936C39.1302 61.7991 39.1302 61.8102 39.1246 61.8102C39.1191 61.8102 39.1135 61.8102 39.1135 61.8102L39.036 61.7659L38.881 61.6884L38.8035 61.6551C38.6927 61.6164 38.582 61.5887 38.4657 61.5721C38.355 61.5555 38.2387 61.5499 38.1224 61.561L38.0339 61.5665L37.9508 61.5776L37.8622 61.5942L37.7792 61.6164C37.7736 61.6164 37.7681 61.6164 37.7681 61.6108C37.7625 61.6053 37.7681 61.5998 37.7681 61.5998L37.7736 61.5942Z" fill="#1C3AB4"/>
<path d="M38.1784 60.6865C38.2836 60.4928 38.3943 60.3266 38.5383 60.1661C38.6822 60.011 38.876 59.8671 39.1086 59.7951C39.2249 59.7619 39.3522 59.7453 39.4796 59.7563C39.5183 59.7619 39.5626 59.7674 39.6014 59.784C39.6457 59.7951 39.69 59.8173 39.7398 59.8615C39.7675 59.8837 39.7896 59.9114 39.8062 59.9501C39.8284 59.9834 39.8339 60.0221 39.8395 60.0609C39.8395 60.0996 39.8339 60.1384 39.8228 60.1716C39.8062 60.2048 39.7952 60.227 39.7785 60.2491C39.7453 60.2934 39.7121 60.3156 39.6789 60.3322C39.6512 60.3543 39.6235 60.3654 39.6014 60.3765C39.5515 60.3931 39.5017 60.4097 39.4519 60.4318C39.3522 60.4595 39.2581 60.4928 39.1473 60.5149H39.1418C39.1307 60.5149 39.1252 60.5094 39.1252 60.5038C39.1252 60.4983 39.1252 60.4928 39.1307 60.4928L39.3799 60.3156L39.5017 60.2325C39.546 60.2048 39.5848 60.1771 39.6124 60.1384C39.6346 60.1052 39.6346 60.0553 39.6014 60.0332C39.5681 60.0055 39.5183 59.9944 39.4685 59.9944C39.3744 59.9889 39.2747 60.0055 39.1806 60.0332C38.9923 60.0941 38.8207 60.1993 38.6656 60.3266C38.5826 60.3876 38.5051 60.454 38.4331 60.5149C38.35 60.5813 38.2725 60.6422 38.1895 60.7032C38.1839 60.7087 38.1784 60.7087 38.1729 60.7032C38.1729 60.6976 38.1729 60.6921 38.1729 60.6865H38.1784Z" fill="#1C3AB4"/>
<path d="M39.6497 60.0555C39.7771 59.906 39.9709 59.8229 40.1702 59.8063C40.2754 59.7952 40.3751 59.8008 40.4747 59.8229C40.5024 59.8285 40.5246 59.834 40.5523 59.8451C40.5744 59.8506 40.6021 59.8562 40.6242 59.8672C40.6519 59.8783 40.6741 59.8894 40.6962 59.9004C40.7184 59.906 40.7516 59.9281 40.7903 59.9503C40.8236 59.978 40.8623 60.0112 40.8955 60.0832C40.9122 60.1164 40.9288 60.1662 40.9232 60.216C40.9232 60.2659 40.9122 60.3102 40.89 60.3489C40.8623 60.3932 40.8346 60.4209 40.807 60.4375C40.7848 60.4597 40.7627 60.4707 40.7405 60.4763C40.7239 60.4874 40.7073 60.4929 40.6907 60.4984C40.6741 60.504 40.6685 60.504 40.6575 60.504C40.5744 60.5261 40.4858 60.5483 40.4028 60.5593C40.2256 60.587 40.0484 60.6036 39.8546 60.5815H39.8491C39.8435 60.5815 39.838 60.5759 39.838 60.5649C39.838 60.5649 39.8435 60.5593 39.8491 60.5593L40.0927 60.4652L40.5799 60.2825C40.6187 60.2714 40.663 60.2548 40.6741 60.2271C40.6796 60.216 40.6796 60.205 40.6741 60.1884C40.6685 60.1773 40.6519 60.1607 40.6408 60.1496C40.6242 60.1385 40.6076 60.1275 40.5855 60.1219C40.5689 60.1108 40.5467 60.0998 40.5301 60.0942C40.4914 60.0776 40.4526 60.061 40.4083 60.0499C40.3308 60.0223 40.2422 60.0112 40.1591 60.0001C40.0761 59.9946 39.9875 60.0001 39.9044 60.0112C39.8214 60.0223 39.7383 60.0444 39.6553 60.0776C39.6497 60.0776 39.6442 60.0776 39.6387 60.0721C39.6387 60.0666 39.6387 60.061 39.6442 60.0555H39.6497Z" fill="#1C3AB4"/>
<path d="M40.7196 60.205C40.7473 60.1884 40.7805 60.1773 40.8193 60.1718C40.8525 60.1607 40.8857 60.1607 40.9245 60.1662C40.9965 60.1718 41.0795 60.1995 41.146 60.2714C41.1792 60.3047 41.2069 60.349 41.2235 60.3932C41.2456 60.4375 41.2512 60.4874 41.2512 60.5483C41.2512 60.6036 41.2346 60.6646 41.2069 60.7199C41.1737 60.7753 41.1294 60.8196 41.0795 60.8528C40.9854 60.9137 40.9079 60.9193 40.847 60.9248C40.7916 60.9303 40.7363 60.9303 40.6809 60.9248C40.5646 60.9193 40.4483 60.8971 40.321 60.8307L40.3154 60.8251C40.3099 60.8251 40.3044 60.8196 40.3099 60.814C40.3099 60.8085 40.3154 60.8085 40.3154 60.8085L40.476 60.7698L40.7972 60.6978C40.8525 60.6867 40.9024 60.6701 40.9467 60.6424C40.9854 60.6203 41.0131 60.576 41.0186 60.5261C41.0242 60.4763 41.0076 60.4265 40.9799 60.3822C40.9522 60.3434 40.9079 60.3102 40.8636 60.2825C40.8193 60.2604 40.7639 60.2437 40.7141 60.2327C40.7086 60.2271 40.703 60.2216 40.703 60.2161L40.7086 60.2105L40.7196 60.205Z" fill="#1C3AB4"/>
<path d="M40.9851 60.6149C41.1678 60.5706 41.3727 60.626 41.5388 60.7367C41.6218 60.7921 41.6994 60.8641 41.7603 60.9471C41.8267 61.0357 41.8655 61.1298 41.8987 61.2295C41.9319 61.3292 41.9485 61.4344 41.9541 61.534C41.9596 61.6392 41.9485 61.7444 41.9264 61.8441C41.9153 61.8939 41.9042 61.9438 41.8876 61.9936C41.871 62.0434 41.8544 62.0877 41.8322 62.1375C41.8046 62.1874 41.7769 62.2372 41.7381 62.2926C41.6994 62.3424 41.6495 62.3922 41.5831 62.431C41.5499 62.4531 41.5166 62.4698 41.4668 62.4864C41.428 62.4974 41.3838 62.503 41.3395 62.503C41.2564 62.4974 41.1734 62.4808 41.0958 62.431C41.0571 62.4033 41.0183 62.3701 40.9906 62.3258C40.9574 62.2815 40.9353 62.2261 40.9297 62.1708C40.9187 62.1209 40.9242 62.0766 40.9297 62.0379C40.9353 62.0047 40.9463 61.977 40.9519 61.9604C40.9574 61.9382 40.9574 61.9271 40.9629 61.9161C40.9629 61.905 40.9685 61.8884 40.9685 61.8773C40.9685 61.8496 40.9685 61.8219 40.9685 61.7943C40.963 61.7666 40.9519 61.7389 40.9463 61.7167C40.9408 61.7001 40.9353 61.6891 40.9242 61.678C40.9187 61.6669 40.9131 61.6503 40.9076 61.6448C40.9076 61.6392 40.902 61.6392 40.9187 61.6392C40.9297 61.6448 40.9629 61.6448 40.9851 61.6337C41.0017 61.6171 41.0072 61.606 41.0017 61.6115C40.9962 61.6171 40.9851 61.6281 40.9796 61.6448L40.9463 61.7057C40.9297 61.7278 40.9187 61.75 40.902 61.7721C40.8744 61.8109 40.8411 61.8496 40.8079 61.8884C40.664 62.0323 40.4868 62.1265 40.2985 62.1431C40.293 62.1431 40.2875 62.1375 40.2875 62.132C40.2819 62.1265 40.2875 62.1209 40.293 62.1154C40.4536 62.06 40.5975 61.9493 40.6972 61.8109C40.7525 61.7389 40.7913 61.6614 40.819 61.5783C40.8356 61.5396 40.8522 61.4897 40.9076 61.462C40.9297 61.451 40.9574 61.451 40.9851 61.462C41.0072 61.4731 41.0294 61.4842 41.046 61.5008C41.1734 61.6337 41.2287 61.833 41.1789 62.0102C41.1678 62.0545 41.1623 62.0932 41.1678 62.132C41.1734 62.1708 41.1955 62.1984 41.2287 62.2206C41.2952 62.2649 41.3838 62.2649 41.4502 62.2206C41.5222 62.1763 41.572 62.1043 41.6108 62.0323C41.644 61.9548 41.6772 61.8718 41.6994 61.7887C41.7381 61.6171 41.7436 61.4399 41.7049 61.2738C41.6883 61.1907 41.6551 61.1077 41.6163 61.0357C41.572 60.9582 41.5166 60.8917 41.4502 60.8364C41.3228 60.7201 41.1567 60.6426 40.9851 60.6426C40.9796 60.6426 40.974 60.6315 40.974 60.626C40.974 60.6204 40.9796 60.6149 40.9851 60.6149Z" fill="#1C3AB4"/>
<path d="M28.0563 43.0682C27.8569 43.0682 27.6687 43.1235 27.5137 43.2177C27.3531 43.3063 27.2202 43.4391 27.1316 43.5942C26.9489 43.8987 26.9378 44.2918 27.0652 44.613C27.1981 44.9452 27.4694 45.2165 27.796 45.3715C28.1283 45.5321 28.5158 45.5819 28.909 45.5432C28.538 45.6816 28.1116 45.6927 27.7241 45.5542C27.3309 45.4103 26.9932 45.1057 26.8326 44.7071C26.7551 44.5078 26.7274 44.2918 26.7496 44.0759C26.7717 43.8655 26.8437 43.6606 26.9655 43.4834C27.0929 43.3118 27.27 43.1844 27.4583 43.1069C27.6521 43.035 27.8625 43.0128 28.0563 43.0682Z" fill="#1C3AB4"/>
<path d="M28.6496 45.3217C28.4613 45.2331 28.3173 45.067 28.2177 44.8843C28.1125 44.7015 28.0516 44.4967 28.0239 44.2863C27.9962 44.0814 28.0128 43.8655 28.0682 43.6606C28.1236 43.4613 28.2232 43.273 28.3672 43.1235C28.3118 43.3229 28.2786 43.5111 28.262 43.6994C28.2454 43.8876 28.2509 44.0703 28.2731 44.2586C28.2952 44.4413 28.334 44.624 28.3949 44.8012C28.4558 44.9839 28.5333 45.1556 28.6496 45.3217Z" fill="#1C3AB4"/>
<path d="M35.8689 44.8068C35.6585 45.1113 35.3373 45.3273 35.0051 45.5045C34.6784 45.6816 34.3296 45.8256 34.0196 46.036C33.5323 46.3571 33.1503 46.8167 32.7793 47.2707C32.8734 47.3704 33.034 47.3815 33.1613 47.3372C33.2942 47.2929 33.3994 47.1987 33.4991 47.1046C33.859 46.7503 34.1524 46.3294 34.5456 46.0138C34.7836 45.8256 35.055 45.6761 35.2986 45.4989C35.5477 45.3162 35.7692 45.0892 35.8689 44.8013V44.8068Z" fill="#1C3AB4"/>
<path d="M36.008 46.2129C36.1021 46.6614 36.0135 47.1431 35.7699 47.5362C35.6758 47.6857 35.554 47.8297 35.3879 47.8961C35.2273 47.9625 35.0335 47.9459 34.8729 47.8629C34.7179 47.7854 34.5905 47.6469 34.502 47.4919C34.5739 47.7411 34.729 47.9736 34.9228 48.1176C34.9283 48.2283 34.9117 48.3391 34.8729 48.4498C34.9117 48.3557 34.9504 48.2615 34.9947 48.1729C35.0169 48.3114 35.0335 48.4498 35.039 48.5882C35.039 48.4609 35.0612 48.328 35.0944 48.2006C35.1387 48.411 35.1664 48.627 35.1885 48.8484C35.1996 48.6325 35.2162 48.4166 35.2439 48.1896C35.266 48.1785 35.2937 48.1896 35.3103 48.2062C35.3325 48.2228 35.3436 48.2449 35.3546 48.2671C35.4155 48.4 35.4764 48.5273 35.5429 48.6547C35.5041 48.4885 35.4654 48.3224 35.4266 48.1508C35.565 48.2449 35.6592 48.3833 35.7588 48.5162C35.6868 48.4 35.637 48.2671 35.6038 48.1342C35.5983 48.1065 35.5927 48.0733 35.6149 48.0511C35.6315 48.029 35.6592 48.0235 35.6868 48.0345C35.7145 48.0401 35.7367 48.0622 35.7533 48.0788C35.864 48.1785 35.9692 48.2781 36.0744 48.3723C35.9803 48.2615 35.8862 48.1508 35.792 48.0401C35.7533 47.9958 35.7145 47.9293 35.7533 47.885C35.7865 47.8463 35.8474 47.8573 35.8917 47.874C36.0135 47.9127 36.1298 47.9736 36.2405 48.0456C36.1409 47.957 36.0467 47.8629 35.9526 47.7743C35.936 47.7577 35.9139 47.7355 35.9083 47.7134C35.9028 47.6746 35.9305 47.6303 35.9692 47.6193C36.008 47.6026 36.0467 47.6082 36.0855 47.6193C36.1907 47.6359 36.2904 47.6746 36.379 47.73C36.2848 47.658 36.1962 47.5805 36.1021 47.5085C36.0855 47.4974 36.0744 47.4864 36.0689 47.4698C36.0523 47.4255 36.0966 47.3867 36.1353 47.3701C36.2184 47.3313 36.3125 47.3258 36.4011 47.3535C36.307 47.3258 36.2018 47.2926 36.1575 47.2095C36.1298 47.1486 36.1409 47.0766 36.1464 47.0102C36.1686 46.7555 36.1132 46.4953 36.008 46.2184V46.2129Z" fill="#1C3AB4"/>
<path d="M35.9695 51.346C35.9529 51.4346 35.9917 51.5065 36.0471 51.5619C36.0969 51.6117 36.1689 51.656 36.2408 51.6893C36.3128 51.7225 36.3793 51.7502 36.4457 51.7446C36.5122 51.7391 36.5731 51.7114 36.634 51.6671C36.6893 51.6228 36.7392 51.5619 36.789 51.501C36.8388 51.4346 36.8831 51.3681 36.9219 51.3017C37.0049 51.1633 37.0658 51.0082 37.1212 50.8477H37.1267C37.1323 51.0193 37.0935 51.1909 37.0271 51.3515C36.9939 51.4346 36.9551 51.5121 36.9053 51.5841C36.8554 51.656 36.8001 51.728 36.7226 51.7834C36.6506 51.8443 36.5509 51.8886 36.4513 51.8831C36.3461 51.8831 36.2519 51.8443 36.1799 51.7889C36.1467 51.7668 36.108 51.7391 36.0747 51.7059C36.0471 51.6782 36.0138 51.645 35.9862 51.6062C35.9363 51.5287 35.9197 51.4235 35.9695 51.346Z" fill="#1C3AB4"/>
<path d="M96.5161 76.5401C94.6111 76.5401 93.1596 76.0411 92.1617 75.0433C91.1639 74.0454 90.6649 72.5712 90.6649 70.6208V33.5406C90.6649 31.5448 91.1639 30.0253 92.1617 28.9821C93.1596 27.8935 94.475 27.3492 96.1079 27.3492C97.5594 27.3492 98.6933 27.6213 99.5098 28.1656C100.326 28.7099 101.233 29.6171 102.231 30.8871L123.799 57.8298H121.894V33.2004C121.894 31.2953 122.37 29.8439 123.323 28.846C124.321 27.8481 125.772 27.3492 127.677 27.3492C129.582 27.3492 131.011 27.8481 131.964 28.846C132.961 29.8439 133.46 31.2953 133.46 33.2004V70.893C133.46 72.6166 133.007 74 132.1 75.0433C131.192 76.0411 129.968 76.5401 128.426 76.5401C126.883 76.5401 125.659 76.2679 124.752 75.7236C123.89 75.134 122.96 74.2268 121.962 73.0021L100.394 45.9914H102.299V70.6208C102.299 72.5712 101.8 74.0454 100.802 75.0433C99.85 76.0411 98.4212 76.5401 96.5161 76.5401ZM159.642 76.6761C155.56 76.6761 152.022 75.9731 149.028 74.567C146.08 73.1155 143.812 71.0744 142.224 68.4436C140.637 65.8129 139.843 62.7058 139.843 59.1225C139.843 55.6753 140.591 52.659 142.088 50.0736C143.63 47.4428 145.717 45.4017 148.348 43.9502C151.024 42.4534 154.063 41.705 157.465 41.705C159.959 41.705 162.227 42.1132 164.268 42.9297C166.31 43.7008 168.056 44.8574 169.507 46.3996C170.959 47.8964 172.047 49.7107 172.773 51.8426C173.544 53.9744 173.93 56.3557 173.93 58.9865C173.93 59.8936 173.68 60.574 173.181 61.0276C172.682 61.4358 171.889 61.6399 170.8 61.6399H149.981V55.9248H165.085L163.996 56.8093C163.996 55.131 163.769 53.7703 163.316 52.727C162.862 51.6838 162.182 50.89 161.275 50.3457C160.413 49.8014 159.324 49.5293 158.009 49.5293C156.603 49.5293 155.378 49.8695 154.335 50.5499C153.337 51.1849 152.566 52.1374 152.022 53.4074C151.477 54.6774 151.205 56.265 151.205 58.17V58.7824C151.205 62.0028 151.908 64.3161 153.314 65.7222C154.766 67.0829 156.988 67.7633 159.982 67.7633C160.98 67.7633 162.114 67.6499 163.384 67.4231C164.699 67.1509 165.947 66.7881 167.126 66.3345C168.305 65.8809 169.326 65.8129 170.188 66.1304C171.049 66.4025 171.707 66.9015 172.161 67.6272C172.66 68.3076 172.932 69.1013 172.977 70.0085C173.023 70.8703 172.818 71.7321 172.365 72.5939C171.911 73.4104 171.163 74.0454 170.12 74.499C168.532 75.2247 166.831 75.769 165.017 76.1318C163.248 76.4947 161.456 76.6761 159.642 76.6761ZM196.089 76.6761C192.369 76.6761 189.126 75.9731 186.359 74.567C183.592 73.1609 181.438 71.1425 179.896 68.5117C178.354 65.8809 177.582 62.7739 177.582 59.1906C177.582 56.4691 178.013 54.0424 178.875 51.9106C179.737 49.7334 180.984 47.8964 182.617 46.3996C184.25 44.8574 186.201 43.7008 188.468 42.9297C190.736 42.1132 193.276 41.705 196.089 41.705C199.808 41.705 203.051 42.4081 205.818 43.8142C208.585 45.2203 210.717 47.2387 212.213 49.8695C213.756 52.4549 214.527 55.5619 214.527 59.1906C214.527 61.8667 214.096 64.2934 213.234 66.4706C212.372 68.6478 211.125 70.5074 209.492 72.0496C207.904 73.5464 205.954 74.7031 203.641 75.5195C201.373 76.2906 198.855 76.6761 196.089 76.6761ZM196.089 67.7633C197.313 67.7633 198.402 67.4684 199.354 66.8788C200.307 66.2438 201.033 65.3139 201.532 64.0893C202.076 62.8192 202.348 61.1863 202.348 59.1906C202.348 56.1516 201.758 53.9744 200.579 52.659C199.4 51.2983 197.903 50.6179 196.089 50.6179C194.864 50.6179 193.775 50.9127 192.823 51.5024C191.87 52.092 191.122 53.0219 190.578 54.2919C190.033 55.5166 189.761 57.1495 189.761 59.1906C189.761 62.1842 190.351 64.3614 191.53 65.7222C192.709 67.0829 194.229 67.7633 196.089 67.7633ZM245.386 76.6761C239.897 76.6761 235.226 75.6556 231.37 73.6145C227.56 71.5734 224.657 68.7158 222.661 65.0418C220.666 61.3678 219.668 57.0814 219.668 52.1827C219.668 48.3727 220.257 44.9481 221.437 41.9091C222.661 38.8248 224.408 36.194 226.676 34.0168C228.943 31.7943 231.71 30.116 234.976 28.9821C238.287 27.8027 242.029 27.2131 246.202 27.2131C248.47 27.2131 250.783 27.4399 253.142 27.8935C255.501 28.3017 257.814 29.0955 260.082 30.2748C261.261 30.8191 262.055 31.5902 262.463 32.588C262.917 33.5406 263.053 34.5611 262.871 35.6497C262.735 36.6929 262.35 37.6681 261.715 38.5753C261.125 39.4371 260.309 40.0268 259.265 40.3443C258.222 40.6164 257.043 40.4577 255.727 39.868C254.367 39.233 252.893 38.7567 251.305 38.4392C249.718 38.0764 248.039 37.8949 246.27 37.8949C243.231 37.8949 240.691 38.4392 238.65 39.5278C236.654 40.6164 235.158 42.2266 234.16 44.3585C233.162 46.4903 232.663 49.0984 232.663 52.1827C232.663 56.8093 233.797 60.3019 236.065 62.6605C238.333 65.0191 241.689 66.1984 246.134 66.1984C247.495 66.1984 248.969 66.0623 250.557 65.7902C252.19 65.518 253.822 65.1325 255.455 64.6336L253.142 69.3281V57.6938H248.379C246.837 57.6938 245.635 57.3082 244.773 56.5371C243.957 55.766 243.549 54.6774 243.549 53.2713C243.549 51.8652 243.957 50.7993 244.773 50.0736C245.635 49.3025 246.837 48.917 248.379 48.917H258.449C260.036 48.917 261.238 49.3479 262.055 50.2097C262.917 51.0261 263.348 52.2281 263.348 53.8156V68.8519C263.348 70.2126 263.053 71.3692 262.463 72.3218C261.919 73.2743 261.034 73.9547 259.81 74.3629C257.678 75.0886 255.365 75.6556 252.87 76.0638C250.375 76.472 247.881 76.6761 245.386 76.6761ZM283.423 76.6761C280.52 76.6761 278.139 76.1545 276.279 75.1113C274.42 74.0227 273.014 72.4125 272.061 70.2806C271.154 68.1488 270.7 65.45 270.7 62.1842V47.8964C270.7 45.9006 271.222 44.4038 272.265 43.4059C273.309 42.3627 274.805 41.8411 276.756 41.8411C278.706 41.8411 280.203 42.3627 281.246 43.4059C282.289 44.4038 282.811 45.9006 282.811 47.8964V62.5244C282.811 64.1573 283.151 65.382 283.832 66.1984C284.512 67.0149 285.578 67.4231 287.029 67.4231C288.662 67.4231 290 66.8334 291.044 65.6541C292.087 64.4748 292.608 62.9099 292.608 60.9595V47.8964C292.608 45.9006 293.13 44.4038 294.173 43.4059C295.216 42.3627 296.713 41.8411 298.664 41.8411C300.614 41.8411 302.111 42.3627 303.154 43.4059C304.197 44.4038 304.719 45.9006 304.719 47.8964V70.4167C304.719 74.499 302.769 76.5401 298.868 76.5401C296.963 76.5401 295.489 76.0185 294.445 74.9752C293.402 73.932 292.881 72.4125 292.881 70.4167V66.4706L293.969 69.8044C292.971 72.0269 291.565 73.7279 289.751 74.9072C287.982 76.0865 285.873 76.6761 283.423 76.6761ZM323.401 76.6761C320.816 76.6761 318.525 76.1999 316.529 75.2474C314.579 74.2948 313.037 73.0021 311.903 71.3692C310.814 69.691 310.27 67.7859 310.27 65.6541C310.27 63.2048 310.905 61.2771 312.175 59.871C313.445 58.4648 315.486 57.467 318.298 56.8773C321.111 56.2423 324.853 55.9248 329.524 55.9248H333.266V61.6399H329.524C327.755 61.6399 326.281 61.776 325.102 62.0481C323.968 62.2749 323.129 62.6605 322.585 63.2048C322.04 63.7037 321.768 64.3614 321.768 65.1779C321.768 66.2211 322.131 67.0829 322.857 67.7633C323.628 68.4436 324.716 68.7838 326.123 68.7838C327.257 68.7838 328.254 68.5344 329.116 68.0354C330.023 67.5365 330.749 66.8561 331.293 65.9943C331.838 65.0871 332.11 64.0439 332.11 62.8646V54.9723C332.11 53.3394 331.679 52.1827 330.817 51.5024C330.001 50.822 328.572 50.4818 326.531 50.4818C325.442 50.4818 324.218 50.6179 322.857 50.89C321.496 51.1168 319.977 51.5477 318.298 52.1827C317.074 52.6363 316.03 52.7044 315.169 52.3869C314.307 52.0694 313.626 51.5251 313.127 50.754C312.674 49.9829 312.447 49.1438 312.447 48.2366C312.492 47.3294 312.787 46.4676 313.332 45.6512C313.921 44.8347 314.806 44.1997 315.985 43.7461C318.162 42.9297 320.158 42.3854 321.972 42.1132C323.832 41.8411 325.533 41.705 327.075 41.705C330.794 41.705 333.856 42.2493 336.26 43.3379C338.709 44.3811 340.524 46.014 341.703 48.2366C342.928 50.4138 343.54 53.226 343.54 56.6732V70.4167C343.54 72.4125 343.064 73.932 342.111 74.9752C341.159 76.0185 339.775 76.5401 337.961 76.5401C336.101 76.5401 334.673 76.0185 333.675 74.9752C332.722 73.932 332.246 72.4125 332.246 70.4167V68.6478L332.654 69.6003C332.427 71.0517 331.906 72.2991 331.089 73.3423C330.273 74.3856 329.207 75.202 327.892 75.7917C326.576 76.3813 325.079 76.6761 323.401 76.6761ZM356.628 76.5401C354.632 76.5401 353.09 76.0185 352.001 74.9752C350.958 73.932 350.436 72.4125 350.436 70.4167V47.8964C350.436 45.946 350.935 44.4492 351.933 43.4059C352.976 42.3627 354.451 41.8411 356.356 41.8411C358.261 41.8411 359.712 42.3627 360.71 43.4059C361.708 44.4492 362.207 45.946 362.207 47.8964V50.6859H361.526C361.98 47.9644 363.137 45.8099 364.996 44.2224C366.901 42.6349 369.26 41.7957 372.072 41.705C373.388 41.6597 374.363 41.9998 374.998 42.7256C375.678 43.4059 376.041 44.6987 376.086 46.6037C376.086 48.2366 375.746 49.5293 375.066 50.4818C374.385 51.4343 373.093 52.0013 371.188 52.1827L369.623 52.3188C367.219 52.5456 365.473 53.226 364.384 54.3599C363.295 55.4485 362.751 57.0814 362.751 59.2586V70.4167C362.751 72.4125 362.229 73.932 361.186 74.9752C360.143 76.0185 358.623 76.5401 356.628 76.5401ZM392.402 76.6761C389.544 76.6761 387.004 75.9731 384.782 74.567C382.605 73.1609 380.881 71.1425 379.611 68.5117C378.386 65.8809 377.774 62.7739 377.774 59.1906C377.774 55.5166 378.386 52.3869 379.611 49.8014C380.881 47.216 382.605 45.2203 384.782 43.8142C387.004 42.4081 389.544 41.705 392.402 41.705C394.897 41.705 397.142 42.2947 399.138 43.474C401.133 44.6533 402.471 46.1728 403.152 48.0325H402.403V33.4725C402.403 31.4768 402.925 29.9573 403.968 28.914C405.012 27.8708 406.508 27.3492 408.459 27.3492C410.364 27.3492 411.838 27.8708 412.881 28.914C413.97 29.9573 414.514 31.4768 414.514 33.4725V70.4167C414.514 72.4125 413.992 73.932 412.949 74.9752C411.951 76.0185 410.477 76.5401 408.527 76.5401C406.622 76.5401 405.148 76.0185 404.104 74.9752C403.061 73.932 402.54 72.4125 402.54 70.4167V66.5386L403.288 69.8724C402.653 71.9135 401.315 73.5691 399.274 74.8391C397.278 76.0638 394.987 76.6761 392.402 76.6761ZM396.28 67.7633C397.505 67.7633 398.593 67.4684 399.546 66.8788C400.498 66.2438 401.224 65.3139 401.723 64.0893C402.267 62.8192 402.54 61.1863 402.54 59.1906C402.54 56.1516 401.95 53.9744 400.771 52.659C399.591 51.2983 398.094 50.6179 396.28 50.6179C395.055 50.6179 393.967 50.9127 393.014 51.5024C392.062 52.092 391.313 53.0219 390.769 54.2919C390.225 55.5166 389.953 57.1495 389.953 59.1906C389.953 62.1842 390.542 64.3614 391.722 65.7222C392.901 67.0829 394.42 67.7633 396.28 67.7633Z" fill="#FEFEFE"/>
</svg>
