<svg width="160" height="160" viewBox="0 0 160 160" fill="none" xmlns="http://www.w3.org/2000/svg">
<rect width="160" height="160" rx="80" fill="#A992F3"/>
<path d="M113.831 51.1885C111.876 49.2266 109.556 47.6702 107.001 46.6084C104.447 45.5465 101.709 45 98.9435 45C96.1784 45 93.4404 45.5465 90.8859 46.6084C88.3315 47.6702 86.0105 49.2266 84.0558 51.1885L79.999 55.2583L75.9422 51.1885C71.9937 47.2274 66.6384 45.0021 61.0544 45.0021C55.4705 45.0021 50.1152 47.2274 46.1667 51.1885C42.2182 55.1496 40 60.5221 40 66.1239C40 71.7258 42.2182 77.0982 46.1667 81.0594L50.2235 85.1292L79.999 115L109.774 85.1292L113.831 81.0594C115.787 79.0983 117.338 76.77 118.397 74.2073C119.455 71.6446 120 68.8979 120 66.1239C120 63.35 119.455 60.6032 118.397 58.0405C117.338 55.4779 115.787 53.1495 113.831 51.1885Z" stroke="#FEFEFE" stroke-width="7.62162" stroke-linecap="round" stroke-linejoin="round"/>
</svg>
