<svg width="46" height="47" viewBox="0 0 46 47" fill="none" xmlns="http://www.w3.org/2000/svg">
<g clip-path="url(#clip0_2257_1197)">
<path d="M26.6757 28.9562V18.866C26.6757 18.0047 26.1739 17.1787 25.2805 16.5696C24.3872 15.9606 23.1756 15.6184 21.9122 15.6184C20.6489 15.6184 19.4372 15.9606 18.5439 16.5696C17.6506 17.1787 17.1487 18.0047 17.1487 18.866L18.5439 28.9562C17.0144 29.653 14.4589 35.2036 13.8391 36.3844C13.2194 37.5652 13.1731 38.8505 13.7071 40.0507C14.241 41.2508 15.327 42.302 16.8045 43.0491C18.282 43.7962 20.0727 44.1995 21.9122 44.1995C23.7517 44.1995 25.5425 43.7962 27.02 43.0491C28.4975 42.302 29.5834 41.2508 30.1174 40.0507C30.6513 38.8505 30.605 37.5652 29.9853 36.3844C29.3655 35.2036 28.2052 29.653 26.6757 28.9562Z" fill="#F67E27"/>
<path d="M26.6757 28.4987V7.04379C26.6757 5.78042 26.1739 4.56881 25.2805 3.67547C24.3872 2.78214 23.1756 2.28027 21.9122 2.28027C20.6489 2.28027 19.4372 2.78214 18.5439 3.67547C17.6506 4.56881 17.1487 5.78042 17.1487 7.04379V28.4987C15.6192 29.5206 14.4589 31.0073 13.8391 32.7393C13.2194 34.4713 13.1731 36.3566 13.7071 38.1169C14.241 39.8772 15.327 41.4192 16.8045 42.515C18.282 43.6108 20.0727 44.2024 21.9122 44.2024C23.7517 44.2024 25.5425 43.6108 27.02 42.515C28.4975 41.4192 29.5834 39.8772 30.1174 38.1169C30.6513 36.3566 30.605 34.4713 29.9853 32.7393C29.3655 31.0073 28.2052 29.5206 26.6757 28.4987Z" stroke="#2E2E2E" stroke-width="3.81081" stroke-linecap="round" stroke-linejoin="round"/>
</g>
<defs>
<clipPath id="clip0_2257_1197">
<rect width="45.7297" height="45.7297" fill="white" transform="translate(0 0.375)"/>
</clipPath>
</defs>
</svg>
