<svg width="40" height="40" viewBox="0 0 40 40" fill="none" xmlns="http://www.w3.org/2000/svg">
<path d="M5 10H8.33333H35" stroke="#A992F3" stroke-width="2" stroke-linecap="round" stroke-linejoin="round"/>
<path d="M31.6667 10V33.3334C31.6667 34.2174 31.3155 35.0653 30.6904 35.6904C30.0653 36.3155 29.2174 36.6667 28.3334 36.6667H11.6667C10.7827 36.6667 9.93481 36.3155 9.30968 35.6904C8.68456 35.0653 8.33337 34.2174 8.33337 33.3334V10M13.3334 10V6.66671C13.3334 5.78265 13.6846 4.93481 14.3097 4.30968C14.9348 3.68456 15.7827 3.33337 16.6667 3.33337H23.3334C24.2174 3.33337 25.0653 3.68456 25.6904 4.30968C26.3155 4.93481 26.6667 5.78265 26.6667 6.66671V10" stroke="#A992F3" stroke-width="2" stroke-linecap="round" stroke-linejoin="round"/>
<path d="M16.6666 18.3334V28.3334" stroke="#A992F3" stroke-width="2" stroke-linecap="round" stroke-linejoin="round"/>
<path d="M23.3334 18.3334V28.3334" stroke="#A992F3" stroke-width="2" stroke-linecap="round" stroke-linejoin="round"/>
</svg>
