<svg width="92" height="92" viewBox="0 0 92 92" fill="none" xmlns="http://www.w3.org/2000/svg">
<path d="M65.1667 53.6667C66.1833 53.6667 67.1584 53.2628 67.8772 52.5439C68.5961 51.825 69 50.85 69 49.8333C69 48.8167 68.5961 47.8416 67.8772 47.1228C67.1584 46.4039 66.1833 46 65.1667 46C64.15 46 63.175 46.4039 62.4561 47.1228C61.7372 47.8416 61.3333 48.8167 61.3333 49.8333C61.3333 50.85 61.7372 51.825 62.4561 52.5439C63.175 53.2628 64.15 53.6667 65.1667 53.6667ZM65.1667 69C66.1833 69 67.1584 68.5961 67.8772 67.8772C68.5961 67.1584 69 66.1833 69 65.1667C69 64.15 68.5961 63.175 67.8772 62.4561C67.1584 61.7372 66.1833 61.3333 65.1667 61.3333C64.15 61.3333 63.175 61.7372 62.4561 62.4561C61.7372 63.175 61.3333 64.15 61.3333 65.1667C61.3333 66.1833 61.7372 67.1584 62.4561 67.8772C63.175 68.5961 64.15 69 65.1667 69ZM49.8333 49.8333C49.8333 50.85 49.4295 51.825 48.7106 52.5439C47.9917 53.2628 47.0167 53.6667 46 53.6667C44.9833 53.6667 44.0083 53.2628 43.2894 52.5439C42.5705 51.825 42.1667 50.85 42.1667 49.8333C42.1667 48.8167 42.5705 47.8416 43.2894 47.1228C44.0083 46.4039 44.9833 46 46 46C47.0167 46 47.9917 46.4039 48.7106 47.1228C49.4295 47.8416 49.8333 48.8167 49.8333 49.8333ZM49.8333 65.1667C49.8333 66.1833 49.4295 67.1584 48.7106 67.8772C47.9917 68.5961 47.0167 69 46 69C44.9833 69 44.0083 68.5961 43.2894 67.8772C42.5705 67.1584 42.1667 66.1833 42.1667 65.1667C42.1667 64.15 42.5705 63.175 43.2894 62.4561C44.0083 61.7372 44.9833 61.3333 46 61.3333C47.0167 61.3333 47.9917 61.7372 48.7106 62.4561C49.4295 63.175 49.8333 64.15 49.8333 65.1667ZM26.8333 53.6667C27.85 53.6667 28.825 53.2628 29.5439 52.5439C30.2628 51.825 30.6667 50.85 30.6667 49.8333C30.6667 48.8167 30.2628 47.8416 29.5439 47.1228C28.825 46.4039 27.85 46 26.8333 46C25.8167 46 24.8416 46.4039 24.1228 47.1228C23.4039 47.8416 23 48.8167 23 49.8333C23 50.85 23.4039 51.825 24.1228 52.5439C24.8416 53.2628 25.8167 53.6667 26.8333 53.6667ZM26.8333 69C27.85 69 28.825 68.5961 29.5439 67.8772C30.2628 67.1584 30.6667 66.1833 30.6667 65.1667C30.6667 64.15 30.2628 63.175 29.5439 62.4561C28.825 61.7372 27.85 61.3333 26.8333 61.3333C25.8167 61.3333 24.8416 61.7372 24.1228 62.4561C23.4039 63.175 23 64.15 23 65.1667C23 66.1833 23.4039 67.1584 24.1228 67.8772C24.8416 68.5961 25.8167 69 26.8333 69Z" fill="#BBBBBB"/>
<path fill-rule="evenodd" clip-rule="evenodd" d="M26.8347 6.70801C27.5972 6.70801 28.3285 7.01091 28.8676 7.55008C29.4068 8.08924 29.7097 8.82051 29.7097 9.58301V12.5078C32.2474 12.458 35.0419 12.458 38.1162 12.458H53.8827C56.9609 12.458 59.7554 12.458 62.293 12.5078V9.58301C62.293 8.82051 62.5959 8.08924 63.1351 7.55008C63.6743 7.01091 64.4055 6.70801 65.168 6.70801C65.9305 6.70801 66.6618 7.01091 67.201 7.55008C67.7401 8.08924 68.043 8.82051 68.043 9.58301V12.7532C69.0397 12.8298 69.984 12.927 70.8759 13.0445C75.3685 13.6502 79.0064 14.9228 81.8775 17.7902C84.7449 20.6613 86.0175 24.2992 86.6232 28.7918C87.2097 33.1618 87.2097 38.7393 87.2097 45.785V53.881C87.2097 60.9267 87.2097 66.508 86.6232 70.8742C86.0175 75.3668 84.7449 79.0047 81.8775 81.8758C79.0064 84.7432 75.3685 86.0158 70.8759 86.6215C66.5059 87.208 60.9284 87.208 53.8827 87.208H38.1239C31.0782 87.208 25.4969 87.208 21.1307 86.6215C16.638 86.0158 13.0002 84.7432 10.129 81.8758C7.26171 79.0047 5.98904 75.3668 5.38337 70.8742C4.79688 66.5042 4.79688 60.9267 4.79688 53.881V45.785C4.79688 38.7393 4.79688 33.158 5.38337 28.7918C5.98904 24.2992 7.26171 20.6613 10.129 17.7902C13.0002 14.9228 16.638 13.6502 21.1307 13.0445C22.0252 12.927 22.9694 12.8298 23.9635 12.7532V9.58301C23.9635 8.82117 24.2659 8.09049 24.8043 7.55143C25.3426 7.01237 26.0729 6.70902 26.8347 6.70801ZM21.8897 18.7447C18.0372 19.2622 15.8139 20.2358 14.1924 21.8573C12.5709 23.4788 11.5972 25.7022 11.0797 29.5547C10.9928 30.2063 10.9187 30.8951 10.8574 31.6208H81.1454C81.084 30.8951 81.0099 30.2051 80.923 29.5508C80.4055 25.6983 79.4319 23.475 77.8104 21.8535C76.1889 20.232 73.9655 19.2583 70.1092 18.7408C66.1724 18.2118 60.9782 18.2042 53.668 18.2042H38.3347C31.0245 18.2042 25.8342 18.2157 21.8897 18.7447ZM10.543 45.9997C10.543 42.726 10.543 39.8778 10.5929 37.3747H81.4099C81.4597 39.8778 81.4597 42.726 81.4597 45.9997V53.6663C81.4597 60.9765 81.452 66.1707 80.923 70.1113C80.4055 73.9638 79.4319 76.1872 77.8104 77.8087C76.1889 79.4302 73.9655 80.4038 70.1092 80.9213C66.1724 81.4503 60.9782 81.458 53.668 81.458H38.3347C31.0245 81.458 25.8342 81.4503 21.8897 80.9213C18.0372 80.4038 15.8139 79.4302 14.1924 77.8087C12.5709 76.1872 11.5972 73.9638 11.0797 70.1075C10.5507 66.1707 10.543 60.9765 10.543 53.6663V45.9997Z" fill="#BBBBBB"/>
</svg>
