<svg xmlns="http://www.w3.org/2000/svg" xmlns:xlink="http://www.w3.org/1999/xlink" width="500" zoomAndPan="magnify" viewBox="0 0 375 374.999991" height="500" preserveAspectRatio="xMidYMid meet" version="1.0"><defs><clipPath id="0181117902"><path d="M 112.5 117.390625 L 262 117.390625 L 262 257 L 112.5 257 Z M 112.5 117.390625 " clip-rule="nonzero"/></clipPath></defs><g clip-path="url(#0181117902)"><path stroke-linecap="round" transform="matrix(1.630405, 0, 0, 1.630814, 112.50136, 117.391281)" fill="none" stroke-linejoin="round" d="M 68.250513 10.083712 L 68.250513 0.749319 M 23.251152 10.083712 L 23.251152 0.749319 M 1.999723 24.084104 L 89.499545 24.084104 M 0.749075 33.622095 C 0.749075 23.75116 0.749075 18.814495 2.929323 15.04433 C 4.90113 11.681362 7.960665 8.98428 11.669482 7.338725 C 15.950914 5.417713 21.550079 5.417713 32.750804 5.417713 L 58.750861 5.417713 C 69.949189 5.417713 75.55075 5.417713 79.829786 7.338725 C 83.596105 9.02979 86.650848 11.726872 88.569945 15.039539 C 90.750193 18.819286 90.750193 23.755951 90.750193 33.626885 L 90.750193 56.549682 C 90.750193 66.418222 90.750193 71.357282 88.569945 75.127447 C 86.598138 78.490416 83.540999 81.187497 79.829786 82.833052 C 75.55075 84.749273 69.949189 84.749273 58.750861 84.749273 L 32.750804 84.749273 C 21.550079 84.749273 15.950914 84.749273 11.669482 82.828261 C 7.960665 81.182706 4.90113 78.48802 2.929323 75.127447 C 0.749075 71.347701 0.749075 66.411036 0.749075 56.540101 Z M 0.749075 33.622095 " stroke="#f67e27" stroke-width="1.5" stroke-opacity="1" stroke-miterlimit="4"/></g></svg>