<svg width="202" height="51" viewBox="0 0 202 51" fill="none" xmlns="http://www.w3.org/2000/svg">
<path d="M27.4621 9.65154C24.0783 9.58462 21.3338 8.06703 19.9591 7.18415C19.613 6.9619 19.1718 6.96191 18.8257 7.18421C17.4515 8.06711 14.7086 9.58462 11.3227 9.65154C8.51051 9.71741 6.37867 9.29719 4.94922 8.80505C4.19281 8.54463 3.25293 9.08961 3.25293 9.8896V22.1019C3.25293 30.9289 10.0355 40.8876 19.121 43.6191C19.2979 43.6723 19.4868 43.6723 19.6638 43.6192C24.1631 42.268 28.1087 39.1387 30.9224 35.2698C33.7926 31.3259 35.5345 26.5605 35.5345 22.1019V9.88694C35.5345 9.08748 34.5963 8.54337 33.8404 8.80384C32.4108 9.2965 30.2783 9.71746 27.4621 9.65154ZM33.7926 22.1019C33.7926 26.0718 32.2275 30.5044 29.5134 34.2455C26.8681 37.8881 23.3996 40.535 19.6935 41.8069C19.4982 41.874 19.2864 41.8748 19.0906 41.809C15.3636 40.5577 11.917 37.8891 9.27403 34.2715C6.55726 30.5564 4.99479 26.0718 4.99479 22.1019V10.6239C6.86403 11.162 8.81127 11.4194 10.7585 11.3934H11.3747C14.0628 11.3154 16.8056 10.4445 19.3924 8.856C21.9818 10.4445 24.722 11.3154 27.4127 11.3674H28.0263C29.9735 11.3934 31.9208 11.136 33.7926 10.5979V22.1019ZM30.9206 12.9591C31.5286 12.8883 32.0741 13.3546 32.0741 13.9666V22.1019C32.0741 25.739 30.6391 29.7869 28.1303 33.2212C25.8278 36.3623 22.8827 38.7177 19.7283 39.9361C19.5121 40.0196 19.2727 40.0196 19.0566 39.936C15.9044 38.7176 12.957 36.3622 10.6571 33.2212C8.14572 29.7869 6.71064 25.713 6.71064 22.1019V13.9866C6.71064 13.3678 7.26796 12.8992 7.88256 12.9713C8.83566 13.0831 9.79709 13.1353 10.7585 13.1353H11.4007C14.0306 13.0382 16.5699 12.3638 18.8962 11.1502C19.2067 10.9881 19.5776 10.9891 19.8876 11.152C22.1952 12.3645 24.7582 13.0383 27.3867 13.1353H28.0263C28.9952 13.1353 29.9628 13.0706 30.9206 12.9591Z" fill="#FEFEFE"/>
<path d="M13.2749 18.7013C13.2333 18.9067 13.2385 19.1199 13.2827 19.3227C13.3243 19.5255 13.4023 19.7204 13.5115 19.8946C13.6207 20.0688 13.7585 20.2222 13.9223 20.3418C13.9431 20.3574 13.9613 20.373 13.9821 20.386L14.0471 20.425C14.0887 20.4536 14.1355 20.4744 14.1797 20.4978C14.1901 20.503 14.2031 20.5082 14.2135 20.5134L14.2499 20.5264L14.32 20.555C14.3668 20.5706 14.4162 20.5836 14.463 20.5992L14.6086 20.633L14.684 20.646C14.71 20.6512 14.7334 20.6564 14.7594 20.659C14.8608 20.672 14.9622 20.6798 15.0636 20.6772C15.269 20.6772 15.4744 20.6564 15.6797 20.6252C15.8851 20.594 16.0879 20.5498 16.2933 20.5056C16.4987 20.4614 16.7092 20.4172 16.9198 20.386C17.1304 20.3548 17.3436 20.334 17.5594 20.3366C17.7752 20.3366 17.9935 20.36 18.2067 20.4198L18.2847 20.4458C18.3107 20.4562 18.3367 20.4614 18.3627 20.4744L18.4381 20.5056L18.4771 20.5212C18.4901 20.5264 18.5031 20.5342 18.5135 20.542C18.5629 20.568 18.6123 20.5914 18.6591 20.6226L18.7267 20.6694C18.7501 20.685 18.7735 20.7032 18.7943 20.7188C18.9685 20.8566 19.1089 21.0281 19.2284 21.2075C19.348 21.3869 19.4494 21.5741 19.5482 21.7613C19.6496 21.9459 19.7484 22.1304 19.8524 22.3124C20.0578 22.679 20.2736 23.0352 20.5205 23.3705C20.6453 23.5369 20.7779 23.6981 20.9183 23.8463C21.0613 23.9971 21.2121 24.1375 21.3759 24.2623C21.5397 24.3871 21.7112 24.4963 21.8984 24.5846C22.0804 24.673 22.2754 24.7406 22.4756 24.79C22.8759 24.8914 23.2945 24.9278 23.7131 24.9928C23.9237 25.024 24.1316 25.063 24.3396 25.1228C24.5476 25.18 24.7504 25.2554 24.9428 25.3542C25.3275 25.5492 25.6759 25.8169 25.9619 26.1393C26.1049 26.3005 26.2323 26.4747 26.3415 26.6619C26.3961 26.7555 26.4454 26.8517 26.4922 26.9478C26.5156 26.9972 26.5364 27.0466 26.5572 27.096C26.565 27.122 26.578 27.148 26.5858 27.1714L26.6118 27.2494C26.8692 28.0736 26.7886 28.9861 26.4039 29.7374C26.7288 28.9601 26.747 28.071 26.4558 27.304L26.4298 27.2312L26.4013 27.1584C26.3805 27.1116 26.3649 27.0648 26.3415 27.018C26.2999 26.9245 26.2505 26.8335 26.2011 26.7451C26.0971 26.5683 25.9749 26.4019 25.8371 26.2485C25.5667 25.9417 25.2365 25.6844 24.87 25.4998C24.688 25.4062 24.4956 25.3334 24.2954 25.2788C24.0978 25.2242 23.8951 25.1852 23.6871 25.154C23.2763 25.0916 22.8525 25.0526 22.4366 24.9486C22.2286 24.8966 22.0206 24.8264 21.8256 24.7328C21.6306 24.6392 21.4487 24.5222 21.2771 24.3923C21.1055 24.2623 20.9469 24.1141 20.7987 23.9607C20.6531 23.8047 20.5179 23.6383 20.3905 23.4667C20.1358 23.1236 19.9174 22.7622 19.7094 22.393C19.6054 22.2084 19.5066 22.0239 19.4052 21.8367C19.3064 21.6521 19.2076 21.4701 19.0933 21.2985C18.9789 21.1295 18.8489 20.9709 18.6929 20.8462C18.6721 20.8332 18.6539 20.815 18.6331 20.802L18.5707 20.7604C18.5291 20.7318 18.4849 20.711 18.4407 20.6876C18.4303 20.6824 18.4199 20.6746 18.4069 20.6694L18.3731 20.6564L18.3055 20.6252C18.2821 20.6148 18.2561 20.6096 18.2327 20.6018L18.1625 20.5784C17.9675 20.5238 17.7648 20.5004 17.5594 20.5004C17.354 20.4978 17.1486 20.5186 16.9432 20.5498C16.7378 20.5784 16.5351 20.6226 16.3297 20.6668C16.1243 20.711 15.9163 20.7526 15.7057 20.7864C15.4952 20.8202 15.2794 20.841 15.0636 20.841C14.9544 20.8436 14.8478 20.8358 14.7386 20.8228C14.7126 20.8202 14.684 20.815 14.658 20.8124L14.5774 20.7968C14.5228 20.7864 14.4708 20.7708 14.4162 20.7578C14.3902 20.7474 14.3642 20.7396 14.3382 20.7292C14.3148 20.7188 14.2863 20.711 14.2629 20.7006L14.1875 20.6668L14.1511 20.6486C14.1381 20.6434 14.1251 20.6356 14.1147 20.6278C14.0653 20.6018 14.0159 20.5758 13.9717 20.542L13.9041 20.4952C13.8833 20.4796 13.8625 20.4588 13.8417 20.4432C13.6753 20.3002 13.5349 20.1286 13.4335 19.9388C13.3321 19.749 13.2645 19.5411 13.2359 19.3305C13.2073 19.1199 13.2203 18.9041 13.2749 18.6987V18.7013Z" fill="#A992F3"/>
<path d="M13.0154 19.3824C12.9738 18.9092 13.057 18.423 13.239 17.9759C13.421 17.5287 13.7043 17.1206 14.0657 16.7956C14.4297 16.4706 14.8665 16.234 15.3292 16.1014C15.792 15.9688 16.2859 15.9377 16.7539 16.0312C16.2781 16.0078 15.8076 16.0728 15.3682 16.2236C14.9288 16.3744 14.5207 16.6084 14.1749 16.9178C13.8317 17.2271 13.5562 17.6067 13.356 18.0279C13.1584 18.449 13.0414 18.9092 13.0154 19.3824Z" fill="#A992F3"/>
<mask id="mask0_2303_48" style="mask-type:luminance" maskUnits="userSpaceOnUse" x="13" y="14" width="16" height="16">
<path d="M13.4102 14.2947H28.0937V29.8206H13.4102V14.2947Z" fill="white"/>
</mask>
<g mask="url(#mask0_2303_48)">
<path d="M13.6104 15.9819C14.1589 15.0745 15.152 14.4298 16.2335 14.3128C16.3011 14.3076 16.3687 14.3024 16.4363 14.2998H16.5897C16.6053 14.2998 16.6235 14.3024 16.6391 14.3024C16.7067 14.305 16.7743 14.3076 16.8419 14.3154C16.9095 14.3206 16.9771 14.3258 17.0447 14.3388C17.3124 14.3752 17.575 14.4428 17.8298 14.539C18.082 14.6352 18.3264 14.76 18.5525 14.9082C18.6071 14.9472 18.6617 14.9861 18.7163 15.0251C18.7709 15.0693 18.8229 15.1109 18.8775 15.1525C18.9789 15.2409 19.0777 15.3345 19.1713 15.4307C19.3611 15.6205 19.5353 15.8207 19.7146 16.0131C19.803 16.1093 19.8966 16.2028 19.9902 16.2912L20.0604 16.3588L20.0968 16.3926L20.1332 16.4238L20.2086 16.4862L20.284 16.546C20.4868 16.702 20.713 16.8216 20.9573 16.91C21.0795 16.9542 21.2043 16.9932 21.3291 17.0244C21.4565 17.0582 21.5839 17.0868 21.7113 17.1154C21.9713 17.17 22.2312 17.2194 22.4912 17.287C22.6212 17.3208 22.7512 17.3624 22.8786 17.4091C23.006 17.4559 23.1308 17.5105 23.2504 17.5755C23.3725 17.6379 23.4869 17.7133 23.5961 17.7991C23.7027 17.8849 23.8041 17.9837 23.8873 18.0955C23.9107 18.1215 23.9289 18.1527 23.9497 18.1813L23.9783 18.2255L24.0043 18.2697C24.0381 18.3295 24.0693 18.3945 24.0953 18.4595C24.1473 18.5894 24.1785 18.7246 24.1993 18.8624C24.2357 19.1354 24.2201 19.4058 24.2019 19.671C24.1811 19.9387 24.1525 20.1987 24.1551 20.4587C24.1551 20.5861 24.1629 20.7161 24.1837 20.8409C24.1941 20.9033 24.2123 20.9657 24.2253 21.0254C24.2305 21.0566 24.2435 21.0878 24.2539 21.1164L24.2825 21.2074C24.3761 21.444 24.5113 21.665 24.6724 21.8652C24.6932 21.8912 24.7166 21.9146 24.7374 21.938L24.7998 22.0108C24.8466 22.0576 24.8882 22.107 24.935 22.1512C24.9844 22.1954 25.0286 22.2421 25.078 22.2837L25.1508 22.3487C25.1768 22.3695 25.2002 22.3903 25.2262 22.4111C25.4264 22.5801 25.6396 22.7335 25.8579 22.8791C26.2947 23.1755 26.7497 23.4588 27.15 23.8228C27.2488 23.9112 27.345 24.01 27.436 24.1088C27.4594 24.1348 27.4802 24.1608 27.501 24.1868C27.5244 24.2128 27.5452 24.2388 27.566 24.2648L27.6284 24.348C27.6388 24.361 27.6492 24.374 27.657 24.3896L27.6856 24.4312C27.8364 24.6573 27.956 24.9095 28.0262 25.1747C28.099 25.4373 28.1302 25.7103 28.1302 25.9806L28.1276 26.0846C28.1276 26.1184 28.125 26.1522 28.1224 26.186C28.1172 26.251 28.1146 26.3212 28.1042 26.3862L28.0912 26.4876L28.0756 26.589C28.0652 26.654 28.0496 26.7216 28.034 26.7866C27.969 27.0492 27.8728 27.3039 27.761 27.5457C27.6518 27.7901 27.5218 28.0241 27.3788 28.2503C27.2384 28.4764 27.0876 28.6948 26.9291 28.908C26.7705 29.1212 26.6093 29.3292 26.4455 29.5371C26.5963 29.3214 26.7471 29.103 26.8901 28.8794C27.0356 28.661 27.176 28.4348 27.3034 28.2061C27.3684 28.0891 27.4282 27.9721 27.4854 27.8551C27.5426 27.7381 27.5972 27.6185 27.6466 27.4963C27.7428 27.2545 27.8234 27.005 27.8754 26.7502C27.8858 26.6852 27.9014 26.6228 27.9118 26.5604L27.9274 26.4642L27.9404 26.368C27.9586 26.238 27.9638 26.1106 27.9664 25.9806C27.9664 25.7233 27.9378 25.4659 27.8702 25.2163C27.8026 24.9693 27.6908 24.7353 27.5504 24.5222L27.5244 24.4832C27.514 24.4702 27.5036 24.4572 27.4958 24.4442L27.436 24.3662C27.4178 24.3402 27.397 24.3168 27.3762 24.2934C27.3554 24.2674 27.3346 24.2414 27.3138 24.218C27.2254 24.1218 27.137 24.0308 27.0382 23.9424C26.6535 23.594 26.2063 23.3107 25.7669 23.0143C25.546 22.8661 25.3276 22.7101 25.1222 22.5385C25.0962 22.5151 25.0702 22.4943 25.0442 22.4735L24.9688 22.4059C24.9168 22.3617 24.87 22.3149 24.8206 22.2681C24.7712 22.2213 24.727 22.172 24.6802 22.1226L24.6126 22.0472C24.5918 22.0212 24.5684 21.9952 24.5476 21.9692C24.3761 21.7586 24.2305 21.522 24.1291 21.2672L24.0979 21.1684C24.0875 21.1346 24.0745 21.1034 24.0667 21.0696C24.0511 21.0021 24.0329 20.9345 24.0225 20.8669C23.9991 20.7317 23.9913 20.5939 23.9913 20.4587C23.9887 20.1883 24.0173 19.9231 24.0381 19.6606C24.0589 19.398 24.0719 19.1354 24.0355 18.8832C24.0173 18.7584 23.9887 18.6362 23.9419 18.5193C23.9211 18.4621 23.8925 18.4049 23.8613 18.3503L23.8379 18.3113L23.8119 18.2723C23.7937 18.2463 23.7781 18.2177 23.7573 18.1943C23.6819 18.0955 23.5909 18.0071 23.4921 17.9291C23.3933 17.8511 23.2868 17.7783 23.1724 17.7185C23.0606 17.6587 22.941 17.6067 22.8214 17.5625C22.6992 17.5183 22.577 17.4793 22.4496 17.4455C22.1974 17.3779 21.9375 17.3312 21.6775 17.274C21.5475 17.248 21.4175 17.2194 21.2875 17.183C21.1575 17.1492 21.0301 17.1102 20.9001 17.066C20.6454 16.9724 20.3984 16.8424 20.1852 16.676L20.1046 16.6136L20.0266 16.546L19.9876 16.5148L19.9512 16.481L19.8758 16.4108C19.7796 16.3172 19.686 16.221 19.5951 16.1249C19.4131 15.9299 19.2389 15.7297 19.0543 15.5451C18.9633 15.4515 18.8671 15.3631 18.7709 15.2773C18.7215 15.2383 18.6695 15.1967 18.6201 15.1577C18.5655 15.1213 18.5135 15.0823 18.4616 15.0459C18.2458 14.903 18.0144 14.7834 17.7726 14.6924C17.5308 14.6014 17.2786 14.5364 17.0213 14.5C16.9563 14.4896 16.8939 14.4844 16.8289 14.4792L16.7795 14.474C16.7639 14.4714 16.7483 14.4714 16.7327 14.4714L16.6339 14.4688C16.6183 14.4662 16.6027 14.4662 16.5871 14.4662H16.5377L16.4415 14.4688C16.4077 14.4688 16.3765 14.4714 16.3453 14.474L16.2465 14.4792C15.7318 14.5104 15.2222 14.6716 14.7699 14.929C14.5411 15.0589 14.3279 15.2123 14.1329 15.3891C13.9379 15.5659 13.7611 15.7661 13.6104 15.9845V15.9819Z" fill="#A992F3"/>
</g>
<path d="M15.105 17.3286C15.3728 17.56 15.6873 17.7316 16.0175 17.8512C16.1813 17.9084 16.3503 17.9578 16.5219 17.9942C16.6909 18.0332 16.865 18.0618 17.0392 18.0852C17.385 18.1423 17.736 18.1761 18.0895 18.2021L18.6199 18.2385C18.7967 18.2515 18.9761 18.2697 19.1528 18.2905C19.509 18.3321 19.8626 18.3919 20.211 18.4933C20.5567 18.5947 20.8947 18.7351 21.1989 18.9405C21.3497 19.0445 21.4927 19.1615 21.6174 19.2941C21.7448 19.4266 21.8566 19.5748 21.9528 19.7282C22.1452 20.0402 22.2778 20.3782 22.3922 20.7161C22.5092 21.0541 22.608 21.3921 22.7302 21.7223C22.8497 22.0524 22.9953 22.3722 23.1955 22.6504C23.3957 22.9312 23.6505 23.1729 23.9261 23.3861C24.2016 23.6019 24.5006 23.7865 24.8048 23.9685C25.109 24.1479 25.4183 24.3246 25.7173 24.5196C25.8681 24.6158 26.0163 24.7198 26.1593 24.829C26.1931 24.8576 26.2295 24.8862 26.2633 24.9148C26.2997 24.9434 26.3335 24.972 26.3673 25.0006C26.401 25.0318 26.4374 25.0604 26.4686 25.0916C26.5024 25.1228 26.5336 25.154 26.5648 25.1878C26.8144 25.4529 27.0198 25.7597 27.1524 26.0977C27.2174 26.2641 27.2642 26.4409 27.2876 26.6176C27.3084 26.797 27.3058 26.979 27.2746 27.1532C27.2902 26.9764 27.2772 26.797 27.2408 26.6254C27.207 26.4539 27.1472 26.2901 27.0718 26.1315C26.9184 25.8195 26.7026 25.5387 26.4504 25.3022C26.3854 25.245 26.3231 25.1852 26.2581 25.1254C26.1931 25.0682 26.1255 25.0136 26.0579 24.959C25.9201 24.8524 25.7771 24.751 25.6289 24.6574C25.3351 24.465 25.0258 24.2908 24.7216 24.1089C24.4148 23.9269 24.1106 23.7371 23.8247 23.5161C23.5413 23.2951 23.2761 23.0429 23.0629 22.7466C22.8471 22.4502 22.699 22.1148 22.5742 21.7794C22.452 21.4415 22.3532 21.1009 22.2388 20.7681C22.1244 20.4354 21.9944 20.1104 21.8124 19.814C21.7214 19.6684 21.6174 19.5332 21.5005 19.4084C21.3809 19.2837 21.2483 19.1745 21.1053 19.0783C20.8219 18.8833 20.4995 18.7481 20.1642 18.6519C19.8288 18.5531 19.483 18.4933 19.1346 18.4517C18.9605 18.4309 18.7837 18.4153 18.6069 18.4023L18.0765 18.3633C17.8997 18.3529 17.723 18.3373 17.5436 18.3191C17.4552 18.3087 17.3668 18.2983 17.2784 18.2879C17.19 18.2775 17.099 18.2645 17.0132 18.2489C16.6597 18.1787 16.3113 18.08 15.9837 17.9344C15.8199 17.859 15.6613 17.7732 15.5131 17.6718C15.365 17.5704 15.2272 17.456 15.105 17.3286Z" fill="#A992F3"/>
<path d="M15.9971 20.1339C16.3116 20.043 16.6288 19.9598 16.9512 19.8948C17.1124 19.8636 17.2736 19.8376 17.4374 19.8194C17.6011 19.7986 17.7675 19.7908 17.9339 19.7908C18.1003 19.7908 18.2667 19.8012 18.4331 19.8272C18.5969 19.8506 18.7606 19.887 18.9218 19.939C19.0804 19.991 19.2364 20.0585 19.3846 20.1417C19.5302 20.2249 19.668 20.3237 19.7954 20.4329C19.9253 20.5395 20.0423 20.6617 20.1515 20.7865C20.2607 20.9139 20.3621 21.0465 20.4557 21.1817C20.5467 21.3194 20.6325 21.4624 20.7157 21.6054C20.7365 21.6418 20.7547 21.6782 20.7755 21.7146C20.7937 21.7484 20.8145 21.7848 20.8327 21.8212C20.8717 21.894 20.9081 21.9694 20.9445 22.0422C21.0173 22.1904 21.0874 22.336 21.1576 22.4841C21.2278 22.6323 21.298 22.7779 21.3708 22.9261C21.5164 23.2173 21.6724 23.5033 21.8518 23.7762C21.6412 23.5241 21.4644 23.2459 21.3006 22.9625C21.22 22.8195 21.1394 22.6765 21.0615 22.5335C20.9861 22.388 20.9107 22.245 20.8301 22.102C20.6741 21.816 20.5155 21.5326 20.3283 21.27C20.1411 21.0101 19.9331 20.7605 19.6914 20.5551C19.5692 20.4537 19.4418 20.3601 19.304 20.2795C19.1688 20.1989 19.0232 20.1365 18.8724 20.0845C18.5735 19.978 18.2537 19.9312 17.9313 19.9182C17.6089 19.9052 17.2866 19.9312 16.9642 19.9754C16.6392 20.017 16.3194 20.0793 15.9971 20.1339Z" fill="#A992F3"/>
<path d="M12.5417 20.4692C12.3623 20.0819 12.2661 19.6529 12.2505 19.2188C12.2297 18.7846 12.2921 18.3478 12.4325 17.9345C12.5729 17.5211 12.7886 17.1337 13.0668 16.801C13.345 16.4682 13.6804 16.1848 14.0599 15.9846C13.7194 16.242 13.4178 16.5436 13.1682 16.8815C12.9186 17.2195 12.7211 17.5913 12.5859 17.9865C12.4533 18.3816 12.3857 18.7976 12.3779 19.2162C12.3701 19.6373 12.4273 20.0585 12.5417 20.4692Z" fill="#A992F3"/>
<path d="M13.3242 20.4172C13.4178 20.7968 13.5842 21.1556 13.8104 21.4675C13.9222 21.6235 14.047 21.7691 14.1873 21.9017C14.2237 21.9329 14.2575 21.9667 14.2939 21.9953C14.3303 22.0265 14.3667 22.0577 14.4057 22.0863L14.4629 22.1305C14.4811 22.1435 14.5019 22.1565 14.5227 22.1695L14.5799 22.2111C14.6007 22.2241 14.6215 22.2371 14.6423 22.2501C14.8061 22.3489 14.9777 22.4399 15.1519 22.5361C15.2377 22.5881 15.3235 22.6375 15.4066 22.6972C15.4872 22.7544 15.5678 22.8194 15.6432 22.8896C15.7888 23.0352 15.9136 23.2042 15.9994 23.3888C16.0852 23.576 16.1398 23.7762 16.1502 23.9815L16.041 23.9373C16.106 23.8802 16.1866 23.8516 16.2698 23.8464C16.3504 23.8412 16.4362 23.8672 16.5012 23.9139C16.5662 23.9633 16.6155 24.0335 16.6363 24.1115C16.6467 24.1479 16.6519 24.1765 16.6649 24.1921C16.6779 24.2103 16.6987 24.2207 16.7247 24.2259C16.7767 24.2363 16.8417 24.2103 16.9067 24.1843C16.9691 24.1583 17.0315 24.1297 17.0939 24.1011C17.2187 24.0413 17.3383 23.9711 17.4553 23.8957C17.4033 23.9399 17.3487 23.9841 17.2915 24.0257C17.2343 24.0673 17.1771 24.1063 17.1173 24.1427C17.0575 24.1791 16.9951 24.2129 16.9327 24.2441C16.9015 24.2597 16.8703 24.2753 16.8339 24.2883C16.8001 24.3013 16.7585 24.3117 16.7169 24.3091C16.6727 24.3039 16.6285 24.2883 16.5947 24.2493C16.5636 24.2103 16.5558 24.1687 16.5454 24.1401C16.5246 24.0855 16.4856 24.0387 16.4388 24.0075C16.3894 23.9737 16.3322 23.9607 16.2776 23.9659C16.2204 23.9737 16.1684 23.9971 16.1294 24.0335C16.1034 24.0595 16.0618 24.0595 16.0384 24.0335C16.028 24.0231 16.0202 24.0075 16.0202 23.9945V23.9919C15.9838 23.6176 15.7992 23.264 15.5314 23.0066C15.4638 22.9416 15.391 22.8844 15.3131 22.8298C15.2351 22.7778 15.1519 22.7258 15.0687 22.6764C14.9023 22.5777 14.7281 22.4893 14.5591 22.3775C14.3927 22.2683 14.2341 22.1409 14.0938 21.9979C13.9534 21.8523 13.8286 21.6963 13.722 21.5273C13.5088 21.1894 13.3684 20.8072 13.3242 20.4172Z" fill="#A992F3"/>
<path d="M16.9094 24.2232C16.8782 24.2622 16.8782 24.3142 16.8964 24.3558C16.912 24.4 16.9458 24.4286 16.9874 24.4468C17.029 24.465 17.0732 24.4728 17.12 24.478C17.1668 24.4806 17.2162 24.478 17.2682 24.4806C17.2916 24.4832 17.3175 24.4858 17.3461 24.491C17.3721 24.4962 17.3981 24.504 17.4241 24.5144C17.4735 24.5326 17.5177 24.5612 17.5619 24.5872C17.6035 24.6158 17.6425 24.6444 17.6815 24.6704C17.7205 24.6938 17.7595 24.7172 17.7985 24.7302C17.9623 24.7848 18.1495 24.7432 18.2977 24.6522C18.4511 24.556 18.5758 24.413 18.6902 24.2596C18.9216 23.9529 19.127 23.6253 19.2804 23.2743C19.4364 22.9233 19.5352 22.5464 19.5404 22.1538C19.5716 22.3462 19.5716 22.5464 19.5456 22.744C19.5378 22.7934 19.53 22.8428 19.5222 22.8895C19.5092 22.9389 19.5014 22.9883 19.4884 23.0377C19.4754 23.0845 19.465 23.1339 19.4494 23.1807C19.4312 23.2275 19.4182 23.2743 19.4 23.3211C19.2648 23.6981 19.0568 24.0439 18.8202 24.3584C18.7604 24.439 18.6954 24.517 18.6252 24.5898C18.5524 24.6626 18.4693 24.7302 18.3783 24.7848C18.2847 24.8368 18.1833 24.8758 18.0741 24.8888C17.9675 24.9018 17.8557 24.8914 17.7543 24.8472C17.7023 24.8264 17.6555 24.7978 17.6139 24.7666C17.5749 24.7354 17.5359 24.7042 17.4995 24.6756C17.4605 24.647 17.4241 24.6184 17.3851 24.6002C17.3643 24.5898 17.3461 24.582 17.3253 24.5768C17.3045 24.569 17.2812 24.5638 17.2578 24.5612C17.211 24.5534 17.1642 24.5482 17.1122 24.5404C17.0628 24.53 17.0108 24.517 16.9666 24.4884C16.9432 24.4728 16.9224 24.4572 16.9068 24.4338C16.8886 24.413 16.8782 24.3896 16.873 24.3636C16.86 24.3142 16.8704 24.2544 16.9094 24.2232Z" fill="#A992F3"/>
<path d="M19.0205 23.9919C19.3013 24.0153 19.5743 24.1479 19.79 24.3403C20.0084 24.5353 20.1696 24.7953 20.2398 25.0839C20.3074 25.3724 20.2814 25.6792 20.1748 25.9496C20.0708 26.22 19.8836 26.4617 19.6445 26.6099C19.8394 26.4071 19.9772 26.1654 20.0526 25.908C20.128 25.6506 20.141 25.3776 20.0812 25.1228C20.0188 24.8655 19.8836 24.6289 19.7017 24.4313C19.5171 24.2363 19.2857 24.0829 19.0205 23.9919Z" fill="#A992F3"/>
<path d="M16.769 27.4809C16.886 26.9973 17.2448 26.5657 17.718 26.3604C17.9519 26.2538 18.2041 26.2044 18.4459 26.1576C18.5681 26.1342 18.6877 26.1134 18.8073 26.0874C18.9243 26.0588 19.0413 26.0276 19.153 25.986C19.2076 25.9652 19.2622 25.9418 19.3142 25.9158C19.3688 25.8898 19.4182 25.8612 19.4676 25.8274C19.5144 25.7962 19.5612 25.7624 19.6028 25.7208C19.6236 25.7026 19.6444 25.6818 19.6626 25.661L19.6912 25.6272C19.699 25.6168 19.7094 25.6064 19.7172 25.596C19.7848 25.505 19.8394 25.401 19.8706 25.2893C19.9018 25.1775 19.9148 25.0605 19.9096 24.9461C19.8992 24.7121 19.7952 24.4859 19.6236 24.3195C19.5404 24.2337 19.439 24.1661 19.3298 24.1141C19.2752 24.0882 19.218 24.0674 19.1582 24.0518C19.0985 24.0336 19.0387 24.0258 18.9763 24.018C19.1011 24.0128 19.2258 24.031 19.3454 24.0726C19.3766 24.083 19.4052 24.0933 19.4338 24.1089C19.4494 24.1141 19.4624 24.1219 19.478 24.1297L19.5196 24.1505L19.5404 24.1635L19.6002 24.2025C19.6262 24.2207 19.6522 24.2389 19.6782 24.2597C19.7744 24.3455 19.8602 24.4443 19.9226 24.5613C19.985 24.6757 20.024 24.8031 20.037 24.9357C20.0448 25.0007 20.0448 25.0657 20.0396 25.1307L20.0344 25.1801L20.0318 25.2061L20.0292 25.2295L20.0188 25.2789L20.0084 25.3256C19.9772 25.4556 19.92 25.5778 19.842 25.687C19.8238 25.7156 19.803 25.739 19.7796 25.765C19.7588 25.791 19.7354 25.8144 19.712 25.8378C19.6626 25.8846 19.6106 25.9236 19.556 25.9626C19.4468 26.0354 19.3298 26.0926 19.2102 26.1394C18.7215 26.3188 18.2145 26.3032 17.7648 26.4774C17.3202 26.6489 16.951 27.0181 16.769 27.4809Z" fill="#A992F3"/>
<path d="M20.0061 22.6037C20.0087 22.9287 20.0711 23.2562 20.1907 23.563C20.2505 23.7164 20.3258 23.8672 20.4116 24.0076C20.5 24.148 20.6014 24.278 20.7132 24.4028C20.8224 24.5275 20.9394 24.6523 21.0382 24.7927C21.0876 24.8629 21.1318 24.9357 21.1682 25.0163C21.202 25.0943 21.2306 25.1775 21.2436 25.2607C21.3008 25.5987 21.1942 25.96 20.955 26.1992C21.1838 25.9522 21.2722 25.5909 21.2046 25.2685C21.1864 25.1879 21.1578 25.1099 21.1214 25.0371C21.085 24.9643 21.0408 24.8941 20.9888 24.8291C20.8874 24.6965 20.7678 24.5795 20.6508 24.4573C20.5338 24.3378 20.422 24.2052 20.3258 24.0622C20.2297 23.9218 20.1465 23.7684 20.0789 23.6124C19.9411 23.2952 19.8579 22.9547 19.8423 22.6063C19.8423 22.5621 19.8761 22.5231 19.9229 22.5205C19.9671 22.5205 20.0061 22.5543 20.0061 22.6011C20.0061 22.6011 20.0061 22.6011 20.0061 22.6037Z" fill="#A992F3"/>
<path d="M17.7235 20.3651C18.0927 20.5679 18.3864 20.8903 18.5502 21.2672C18.714 21.6442 18.7452 22.0706 18.6412 22.4605C18.7166 22.0654 18.6568 21.652 18.4748 21.3036C18.2954 20.9527 17.9991 20.6719 17.6507 20.5133C17.6091 20.4925 17.5909 20.4457 17.6091 20.4041C17.6273 20.3625 17.6767 20.3443 17.7183 20.3625C17.7183 20.3651 17.7209 20.3651 17.7235 20.3651Z" fill="#A992F3"/>
<path d="M18.6465 35.4673C19.208 34.7887 19.6396 34.0192 19.975 33.2158C20.3311 32.4203 20.5885 31.5806 20.8043 30.733C20.9109 30.3093 21.0071 29.8803 21.0981 29.4513C21.1917 29.025 21.2749 28.5908 21.3867 28.1645C21.501 27.7355 21.6414 27.3117 21.852 26.914C21.878 26.8646 21.9066 26.8152 21.9326 26.7684C21.9612 26.719 21.9924 26.6722 22.021 26.6228C22.0834 26.5292 22.1484 26.4382 22.2212 26.3498C22.3616 26.1756 22.5228 26.0144 22.7021 25.8766C22.8789 25.7363 23.0739 25.6193 23.2845 25.5283C23.4925 25.4399 23.7161 25.3801 23.9448 25.3619C24.0592 25.3515 24.1762 25.3541 24.2906 25.3671C24.3192 25.3671 24.3452 25.3723 24.3738 25.3775C24.4024 25.3801 24.431 25.3879 24.4596 25.3931L24.5428 25.4113C24.5714 25.4191 24.6 25.4269 24.626 25.4347C24.7378 25.4685 24.8418 25.5153 24.9458 25.5673L25.0186 25.6089C25.0446 25.6219 25.0706 25.6349 25.094 25.6531C25.1407 25.6843 25.1901 25.7155 25.2343 25.7519C25.5983 26.0274 25.8687 26.4122 26.0221 26.8412C26.0975 27.0569 26.1443 27.2779 26.1651 27.5041C26.1859 27.7277 26.1807 27.9539 26.1573 28.1775C26.1079 28.6246 25.9727 29.0588 25.7907 29.4643C25.6087 29.8699 25.3825 30.2547 25.1355 30.6213C24.6234 31.3414 24.0488 32.0043 23.5965 32.7583C23.6953 32.5633 23.8045 32.3709 23.9162 32.1811C24.0306 31.9939 24.1502 31.8094 24.2724 31.6248C24.5142 31.2582 24.7664 30.8994 25.0004 30.5303L25.1771 30.2547C25.2343 30.1637 25.2915 30.0701 25.3461 29.9765C25.4527 29.7867 25.5541 29.5943 25.6425 29.3968C25.7309 29.1992 25.8063 28.9964 25.8661 28.791C25.8973 28.687 25.9207 28.583 25.9441 28.4764C25.9649 28.3724 25.9831 28.2658 25.9935 28.1593C26.0169 27.9461 26.0221 27.7303 26.0013 27.5171C25.9805 27.3065 25.9389 27.0959 25.8687 26.8958C25.7257 26.498 25.4709 26.1366 25.1329 25.8818C25.094 25.848 25.0498 25.8194 25.0056 25.7909C24.9848 25.7753 24.9614 25.7623 24.938 25.7493L24.8678 25.7103C24.7742 25.6661 24.678 25.6219 24.5792 25.5933C24.5532 25.5855 24.5298 25.5777 24.5038 25.5699L24.4258 25.5543C24.4024 25.5491 24.3764 25.5413 24.3504 25.5387C24.3244 25.5361 24.2984 25.5309 24.2724 25.5283C24.1684 25.5179 24.0618 25.5153 23.9578 25.5257C23.7499 25.5413 23.5445 25.5959 23.3495 25.6791C23.1545 25.7623 22.9699 25.874 22.8035 26.004C22.6346 26.1366 22.4812 26.2874 22.3486 26.4538C22.281 26.537 22.216 26.6228 22.1588 26.7138C22.1328 26.758 22.1016 26.8022 22.0756 26.849C22.0496 26.8958 22.021 26.9426 21.9976 26.9894C21.7948 27.3715 21.657 27.7849 21.5452 28.2061C21.4361 28.6272 21.3503 29.0562 21.2593 29.4877C21.1657 29.9167 21.0695 30.3457 20.9629 30.7746C20.7471 31.6274 20.4845 32.4749 20.1232 33.2834C19.9334 33.6812 19.715 34.0686 19.4706 34.4351C19.3484 34.6197 19.2184 34.7991 19.0806 34.9707C18.9429 35.1423 18.7973 35.3087 18.6465 35.4673Z" fill="#A992F3"/>
<path d="M18.6282 35.0957C18.5476 35.0931 18.467 35.0931 18.389 35.0879L18.2668 35.0801C18.2278 35.0775 18.1862 35.0775 18.1472 35.0723C18.0666 35.0619 17.9886 35.0541 17.908 35.0411L17.7885 35.0203C17.7495 35.0151 17.7105 35.0073 17.6715 34.9995C17.3543 34.9345 17.0449 34.8461 16.7407 34.7343C16.4392 34.6199 16.1454 34.4821 15.862 34.3287C15.576 34.1753 15.3031 34.0011 15.0379 33.8166C14.9053 33.723 14.7753 33.6268 14.6479 33.5306C14.5829 33.4812 14.5205 33.4292 14.4581 33.3798C14.3957 33.3278 14.3333 33.2784 14.2709 33.2264C14.024 33.0184 13.7848 32.8026 13.5508 32.5843C13.3168 32.3633 13.0906 32.1371 12.8645 31.9109L12.6955 31.7419C12.6383 31.6821 12.5811 31.6223 12.5239 31.5573C12.4693 31.495 12.4147 31.4248 12.3679 31.3468C12.3211 31.2688 12.2821 31.183 12.2587 31.0894C12.2327 30.9958 12.2275 30.8944 12.2353 30.8008C12.2431 30.7072 12.2665 30.6188 12.2925 30.5356C12.3445 30.3718 12.4147 30.2289 12.4589 30.0885C12.4797 30.0183 12.4953 29.9507 12.5057 29.8805C12.5135 29.8103 12.5135 29.7401 12.5109 29.6647C12.5057 29.5191 12.4797 29.3631 12.4563 29.2045C12.4459 29.124 12.4355 29.0408 12.4303 28.9576C12.4225 28.8744 12.4225 28.7886 12.4225 28.7054C12.4251 28.6222 12.4303 28.5364 12.4407 28.4532C12.4485 28.37 12.4641 28.2868 12.4797 28.2062C12.4979 28.123 12.5187 28.0424 12.5447 27.9618C12.5707 27.8839 12.5967 27.8033 12.6305 27.7253C12.6487 27.6889 12.6643 27.6499 12.6825 27.6135C12.7007 27.5771 12.7189 27.5407 12.7319 27.5095C12.7475 27.4757 12.7579 27.4445 12.7683 27.4133C12.7709 27.3977 12.7735 27.3821 12.7761 27.3691C12.7787 27.3535 12.7813 27.3405 12.7787 27.3275C12.7787 27.2729 12.7579 27.2209 12.7319 27.1975C12.7033 27.1741 12.6669 27.1637 12.6123 27.1819C12.5603 27.1975 12.5031 27.2391 12.4537 27.2859C12.4407 27.2963 12.4303 27.3093 12.4173 27.3249L12.3809 27.3665C12.3679 27.3795 12.3575 27.3951 12.3471 27.4107C12.3367 27.4237 12.3237 27.4393 12.3133 27.4549C12.2275 27.5771 12.1599 27.7149 12.1079 27.8579C12.0533 28.0034 12.0143 28.1542 11.9779 28.3076C11.9077 28.6144 11.8609 28.9316 11.7855 29.2461C11.7466 29.4021 11.6998 29.5581 11.6374 29.7063C11.575 29.8571 11.4918 29.9975 11.393 30.1249C11.3904 30.1275 11.3852 30.1275 11.3826 30.1249C11.38 30.1223 11.3774 30.1171 11.38 30.1145C11.4736 29.9845 11.5464 29.8415 11.6036 29.6933C11.6582 29.5451 11.6998 29.3917 11.7336 29.2357C11.7985 28.9238 11.8323 28.604 11.8947 28.292C11.9233 28.1334 11.9623 27.9774 12.0143 27.8267C12.0637 27.6733 12.1339 27.5277 12.2223 27.3925C12.2327 27.3769 12.2457 27.3613 12.2561 27.3457C12.2691 27.3275 12.2795 27.3119 12.2925 27.2963C12.3185 27.2651 12.3419 27.2339 12.3705 27.2053C12.4277 27.1455 12.4953 27.0961 12.5733 27.0675C12.6123 27.0545 12.6539 27.0467 12.6955 27.0519C12.7371 27.0571 12.7787 27.0753 12.8099 27.1013C12.8437 27.1273 12.8671 27.1637 12.8827 27.2027C12.8983 27.2391 12.9061 27.2807 12.9087 27.3223C12.9113 27.4055 12.8853 27.4861 12.8541 27.5589C12.8411 27.5953 12.8229 27.6317 12.8073 27.6681C12.7891 27.7045 12.7735 27.7409 12.7579 27.7773C12.7293 27.8527 12.7033 27.928 12.6799 28.0034C12.6565 28.0788 12.6383 28.1568 12.6201 28.2348C12.6071 28.3128 12.5941 28.3908 12.5863 28.4688C12.5785 28.5468 12.5733 28.6274 12.5733 28.708C12.5707 28.786 12.5733 28.8666 12.5811 28.9446C12.5889 29.0226 12.5993 29.1032 12.6097 29.1811C12.6331 29.3397 12.6617 29.4983 12.6695 29.6569C12.6721 29.7375 12.6721 29.8181 12.6617 29.8987C12.6539 29.9793 12.6357 30.0599 12.6097 30.1353C12.5629 30.2887 12.4927 30.4342 12.4459 30.585C12.4225 30.6604 12.4043 30.7384 12.3965 30.8164C12.3913 30.8944 12.3965 30.9724 12.4173 31.0478C12.4563 31.1986 12.5473 31.3338 12.6487 31.4534C12.7501 31.5729 12.8671 31.6847 12.9789 31.7991C13.2024 32.0253 13.4286 32.2515 13.6574 32.4725C14.1202 32.9144 14.5985 33.3382 15.1133 33.7126C15.6306 34.0869 16.1844 34.4119 16.7745 34.6537C17.3647 34.8929 17.9912 35.0489 18.6282 35.0775C18.6334 35.0775 18.636 35.0827 18.636 35.0853C18.636 35.0905 18.6334 35.0931 18.6282 35.0931V35.0957Z" fill="#A992F3"/>
<mask id="mask1_2303_48" style="mask-type:luminance" maskUnits="userSpaceOnUse" x="10" y="26" width="3" height="4">
<path d="M10.2402 26.4929H12.7438V29.1551H10.2402V26.4929Z" fill="white"/>
</mask>
<g mask="url(#mask1_2303_48)">
<path d="M12.7194 27.0519C12.7194 27.0181 12.7038 26.9895 12.6804 26.9687C12.6596 26.9479 12.631 26.9349 12.605 26.9297C12.553 26.9245 12.4958 26.9505 12.449 26.9869C12.4022 27.0233 12.3606 27.0779 12.3034 27.1325C12.2748 27.1585 12.2436 27.1871 12.2072 27.2105C12.189 27.2235 12.1708 27.2339 12.15 27.2443C12.1318 27.2573 12.1136 27.2651 12.0954 27.2729C12.0175 27.3067 11.9395 27.3275 11.8667 27.3457C11.7913 27.3639 11.7211 27.3743 11.6561 27.3899C11.5885 27.4055 11.5287 27.4237 11.4767 27.4471C11.4247 27.4705 11.3779 27.5017 11.3337 27.5407C11.2869 27.5797 11.2427 27.6265 11.1985 27.6785C11.1543 27.7305 11.1075 27.7877 11.0607 27.8423C11.0165 27.8969 10.9723 27.9515 10.9307 28.0061C10.8891 28.0606 10.8502 28.1152 10.8164 28.1724C10.7826 28.227 10.7514 28.2868 10.728 28.3466C10.7046 28.4064 10.689 28.4714 10.6812 28.5364C10.6708 28.6014 10.6734 28.669 10.6838 28.734C10.689 28.7678 10.6968 28.8016 10.7098 28.8328C10.7202 28.8666 10.7358 28.8978 10.754 28.9316C10.7566 28.9368 10.7566 28.942 10.7514 28.9446C10.7488 28.9446 10.7436 28.9446 10.741 28.942C10.6916 28.8874 10.6526 28.8224 10.6292 28.7522C10.6058 28.6846 10.5928 28.6092 10.5928 28.5364C10.5928 28.4636 10.6006 28.3882 10.6188 28.318C10.6396 28.2452 10.6656 28.1776 10.6994 28.1126C10.7644 27.9801 10.8502 27.8631 10.9385 27.7461C11.0295 27.6343 11.1127 27.5147 11.2245 27.4159C11.2817 27.3691 11.3441 27.3275 11.4117 27.2989C11.4819 27.2703 11.5521 27.2521 11.6249 27.2391C11.7679 27.2105 11.9135 27.2001 12.0487 27.1507C12.1136 27.1247 12.176 27.0909 12.2306 27.0441C12.2878 26.9999 12.3398 26.9479 12.4048 26.9115C12.4386 26.8933 12.4724 26.8777 12.5114 26.8699C12.5478 26.8647 12.5868 26.8647 12.6232 26.8777C12.6596 26.8907 12.6908 26.9141 12.7116 26.9479C12.735 26.9791 12.7454 27.0207 12.7324 27.0571C12.7324 27.0623 12.7272 27.0649 12.7246 27.0623C12.7194 27.0623 12.7168 27.0597 12.7168 27.0545L12.7194 27.0519Z" fill="#A992F3"/>
</g>
<mask id="mask2_2303_48" style="mask-type:luminance" maskUnits="userSpaceOnUse" x="10" y="27" width="6" height="9">
<path d="M10.2402 27.1582H15.406V35.8415H10.2402V27.1582Z" fill="white"/>
</mask>
<g mask="url(#mask2_2303_48)">
<path d="M14.8871 35.9142C14.2606 35.3501 13.6548 34.7677 13.0335 34.2036C12.9555 34.1334 12.8801 34.0632 12.7995 33.993L12.6851 33.8864L12.5655 33.7824C12.4901 33.7122 12.4095 33.6446 12.3315 33.577L12.0923 33.3716C11.9312 33.2364 11.7726 33.0961 11.614 32.9479C11.4606 32.7997 11.3098 32.6411 11.1772 32.4617C11.1122 32.3733 11.0498 32.2797 10.9978 32.1809C10.9718 32.1315 10.9484 32.0795 10.9224 32.0301L10.8912 31.9521C10.8808 31.9262 10.8679 31.9028 10.8601 31.8742C10.7821 31.6688 10.7275 31.4556 10.6885 31.245C10.6495 31.0318 10.6209 30.8238 10.5897 30.6159C10.5767 30.5119 10.5585 30.4105 10.5429 30.3091C10.5351 30.2571 10.5247 30.2051 10.5143 30.1557C10.5039 30.1063 10.4935 30.0543 10.4831 30.0049C10.4389 29.8047 10.3739 29.6045 10.3271 29.3966C10.2777 29.186 10.2413 28.9702 10.2491 28.7492C10.2543 28.6296 10.2907 28.5178 10.3401 28.419C10.3869 28.3177 10.4519 28.2267 10.5195 28.1461C10.5897 28.0629 10.6651 27.9875 10.7431 27.9147C10.8211 27.8419 10.9016 27.7743 10.9796 27.7041C10.9848 27.7015 10.99 27.7015 10.9926 27.7067C10.9952 27.7093 10.9952 27.7145 10.9926 27.7171C10.8419 27.8653 10.6911 28.0109 10.5663 28.1799C10.5039 28.2631 10.4467 28.3514 10.4051 28.4476C10.3635 28.5412 10.3349 28.6452 10.3349 28.7492C10.3349 28.9572 10.3791 29.1652 10.4337 29.368C10.4883 29.5707 10.5559 29.7683 10.6079 29.9737C10.7145 30.3819 10.7561 30.803 10.8393 31.2138C10.8808 31.4192 10.9328 31.622 11.0082 31.817C11.081 32.0145 11.185 32.1965 11.3098 32.3655C11.432 32.5345 11.575 32.6879 11.7258 32.8335C11.8766 32.9791 12.0352 33.1169 12.1937 33.2546C12.5109 33.5328 12.8203 33.8188 13.1245 34.11C13.7302 34.6923 14.3152 35.2981 14.9001 35.9012C14.9027 35.9064 14.9027 35.9116 14.8975 35.9142C14.8949 35.9168 14.8897 35.9168 14.8871 35.9142Z" fill="#A992F3"/>
</g>
<path d="M11.4863 29.3554C11.4525 29.1604 11.3902 28.9888 11.3382 28.799C11.3148 28.7054 11.294 28.6066 11.2836 28.5026C11.2784 28.4506 11.2758 28.396 11.2784 28.3414C11.281 28.2868 11.2888 28.2297 11.3018 28.1751C11.3148 28.1205 11.3304 28.0659 11.3564 28.0113C11.3824 27.9593 11.4136 27.9073 11.4525 27.8631C11.4915 27.8163 11.5383 27.7721 11.5851 27.7435C11.6319 27.7097 11.6813 27.6863 11.7255 27.6655L11.8503 27.6083C11.8919 27.5901 11.9309 27.5667 11.9725 27.5433C12.0557 27.4991 12.1337 27.4445 12.2221 27.3951H12.2247C12.2299 27.3925 12.2351 27.3951 12.2377 27.3977C12.2377 27.4003 12.2377 27.4055 12.2351 27.4081C12.1701 27.4783 12.1025 27.5485 12.0297 27.6109C11.9933 27.6447 11.9543 27.6733 11.9153 27.7019C11.8737 27.7279 11.8321 27.7539 11.7931 27.7773C11.7099 27.8267 11.6293 27.8813 11.5747 27.9567C11.5175 28.0321 11.4811 28.1205 11.4603 28.2115C11.4395 28.305 11.4344 28.3986 11.437 28.4948C11.4422 28.591 11.4551 28.6846 11.4681 28.7808C11.4837 28.8744 11.4993 28.9706 11.5071 29.0668C11.5149 29.163 11.5149 29.2618 11.5019 29.358C11.5019 29.3606 11.4967 29.3658 11.4915 29.3632C11.4889 29.3632 11.4863 29.3606 11.4863 29.358V29.3554Z" fill="#A992F3"/>
<path d="M10.9015 28.7521C10.9119 28.6143 10.9327 28.4843 10.9535 28.3569C10.9769 28.2295 11.0003 28.1021 11.0237 27.9773C11.0367 27.9123 11.0497 27.8447 11.0705 27.7771C11.0835 27.7433 11.0939 27.7095 11.1121 27.6757C11.1198 27.6575 11.1276 27.6419 11.1354 27.6263C11.1406 27.6159 11.1484 27.6081 11.1536 27.5977C11.1588 27.5899 11.1666 27.5821 11.1718 27.5743C11.2238 27.512 11.2862 27.4704 11.3512 27.4366C11.4162 27.408 11.489 27.3872 11.5592 27.395H11.5618C11.5644 27.3976 11.567 27.4002 11.567 27.4028C11.567 27.4054 11.5644 27.408 11.5618 27.408C11.4994 27.421 11.4396 27.4522 11.3876 27.4886C11.333 27.5276 11.2862 27.5717 11.2498 27.6263C11.2316 27.6523 11.2186 27.6809 11.2082 27.7121C11.1952 27.7433 11.1874 27.7745 11.177 27.8057C11.1614 27.8681 11.151 27.9331 11.138 27.9981C11.1121 28.1281 11.0809 28.2555 11.0445 28.3829C11.0263 28.4453 11.0055 28.5103 10.9821 28.5727C10.9613 28.6351 10.9379 28.6949 10.9119 28.7573C10.9093 28.7599 10.9067 28.7599 10.9041 28.7599C10.9015 28.7573 10.8989 28.7547 10.9015 28.7547V28.7521Z" fill="#A992F3"/>
<path d="M14.3025 25.5051C14.3077 25.4921 14.3207 25.4817 14.3337 25.4791C14.3467 25.4739 14.3623 25.4739 14.3779 25.4765C14.4091 25.4869 14.4299 25.5102 14.4481 25.531C14.4663 25.5518 14.4793 25.5726 14.4975 25.583C14.5131 25.596 14.526 25.596 14.5364 25.5908C14.5442 25.5856 14.5546 25.5752 14.5624 25.557C14.5676 25.5388 14.5728 25.518 14.5728 25.4973C14.5754 25.4505 14.5702 25.4037 14.5598 25.3621C14.5468 25.3179 14.5286 25.2815 14.5027 25.2529C14.4741 25.2243 14.4429 25.2035 14.4117 25.1983C14.3441 25.1853 14.2635 25.2243 14.2167 25.2841C14.1673 25.3465 14.1465 25.4349 14.1491 25.5284C14.1517 25.6194 14.1699 25.7156 14.2063 25.804C14.2427 25.8924 14.2973 25.973 14.3701 26.038C14.4429 26.103 14.5338 26.155 14.6378 26.1784C14.5312 26.1888 14.4195 26.1602 14.3233 26.103C14.2271 26.0484 14.1465 25.96 14.0919 25.8612C14.0633 25.8118 14.0399 25.7572 14.0243 25.7026C14.0087 25.648 13.9983 25.5934 13.9931 25.5336C13.9905 25.4765 13.9931 25.4167 14.0061 25.3543C14.0217 25.2945 14.0477 25.2373 14.0867 25.1827C14.1283 25.1307 14.1803 25.0917 14.2427 25.0657C14.3051 25.0397 14.3753 25.0293 14.4455 25.0475C14.5156 25.0657 14.5728 25.1099 14.6118 25.1619C14.6534 25.2139 14.6768 25.2763 14.6846 25.3361C14.695 25.3959 14.6898 25.4557 14.6794 25.5102C14.6716 25.544 14.6612 25.5726 14.6456 25.6012C14.6352 25.6168 14.6248 25.6298 14.6092 25.6428C14.5962 25.6532 14.5754 25.6636 14.5546 25.6688C14.5338 25.6714 14.5131 25.6688 14.4949 25.661C14.4767 25.6532 14.4637 25.6402 14.4533 25.6298C14.4325 25.6038 14.4195 25.5778 14.4091 25.5544C14.3987 25.5336 14.3883 25.5103 14.3675 25.4999C14.3493 25.4895 14.3207 25.4843 14.3025 25.5051Z" fill="#A992F3"/>
<mask id="mask3_2303_48" style="mask-type:luminance" maskUnits="userSpaceOnUse" x="10" y="21" width="5" height="7">
<path d="M10.2402 21.834H14.7405V27.1583H10.2402V21.834Z" fill="white"/>
</mask>
<g mask="url(#mask3_2303_48)">
<path d="M14.5718 22.297C14.2287 22.2008 13.8803 22.1098 13.5345 22.0786C13.3603 22.05 13.1888 22.037 13.0146 22.0448C12.843 22.05 12.6688 22.0734 12.5024 22.1124C12.4166 22.1306 12.3334 22.1566 12.2528 22.1826C12.1722 22.2112 12.0917 22.245 12.0137 22.284C11.9383 22.3204 11.8629 22.362 11.7927 22.4114C11.7199 22.4582 11.6523 22.5102 11.5873 22.5674C11.3273 22.7909 11.1271 23.0847 10.9997 23.4045C10.8698 23.7243 10.8126 24.0726 10.8152 24.4184C10.823 24.7668 10.888 25.1126 11.0127 25.4375C11.1375 25.7599 11.3247 26.0589 11.5691 26.3033C11.7979 26.5632 12.0865 26.7738 12.4192 26.909C12.0683 26.8388 11.7329 26.662 11.4547 26.4176C11.1895 26.1577 10.9919 25.8379 10.8594 25.4973C10.7268 25.1542 10.6592 24.7876 10.654 24.421C10.6462 24.0544 10.7086 23.6853 10.8464 23.3421C10.9841 22.9989 11.1999 22.687 11.4807 22.4426C11.5509 22.3828 11.6237 22.3256 11.7017 22.2736C11.7797 22.2216 11.8603 22.1774 11.9435 22.1358C12.0267 22.0942 12.1124 22.0604 12.1982 22.0292C12.2866 21.998 12.375 21.972 12.4634 21.9512C12.8222 21.868 13.1966 21.8576 13.5605 21.9148C13.9193 21.998 14.2521 22.1384 14.5718 22.297Z" fill="#A992F3"/>
</g>
<path d="M15.953 23.4824C15.9712 23.5032 15.9894 23.5266 16.0076 23.5526C16.018 23.5656 16.0258 23.5786 16.0336 23.5916C16.0414 23.6072 16.0466 23.6228 16.0492 23.641C16.0518 23.6592 16.0518 23.6748 16.0544 23.6878C16.0544 23.7008 16.057 23.7138 16.0596 23.7268C16.0674 23.7528 16.0726 23.7814 16.083 23.8074C16.0908 23.8334 16.0986 23.8646 16.1064 23.8932C16.1142 23.9218 16.122 23.953 16.1272 23.9842C16.1376 24.044 16.1428 24.1038 16.1428 24.1662C16.1428 24.2884 16.1194 24.4131 16.0726 24.5275C16.0622 24.5561 16.0492 24.5847 16.031 24.6133C16.0128 24.6393 15.992 24.6653 15.9686 24.6861C15.9218 24.7303 15.862 24.7615 15.8022 24.7641C15.8568 24.7355 15.8958 24.6965 15.927 24.6497C15.94 24.6263 15.953 24.6029 15.9634 24.5769C15.9738 24.5535 15.979 24.5275 15.9868 24.4989C16.0128 24.3897 16.0258 24.278 16.0258 24.1662C16.0258 24.1116 16.0206 24.0544 16.0154 23.9972C16.0128 23.9712 16.0102 23.9426 16.005 23.914L15.992 23.8282C15.9868 23.797 15.9842 23.7658 15.9842 23.7346C15.9842 23.719 15.9842 23.7034 15.9868 23.6852C15.9894 23.6696 15.992 23.654 15.992 23.6436C15.9972 23.6228 15.9868 23.5942 15.979 23.5656L15.953 23.4824Z" fill="#A992F3"/>
<path d="M16.0513 24.3793C16.1215 24.4989 16.2255 24.5925 16.3477 24.6445C16.3789 24.6575 16.4101 24.6679 16.4413 24.6731C16.4725 24.6809 16.5063 24.6861 16.5427 24.6939C16.5791 24.7017 16.6155 24.7095 16.6519 24.7303C16.6857 24.7485 16.7195 24.7745 16.7455 24.8109C16.7585 24.8291 16.7689 24.8499 16.7741 24.8733C16.7793 24.8967 16.7793 24.9201 16.7741 24.9435C16.7663 24.9877 16.7481 25.0215 16.7351 25.0527C16.7221 25.0813 16.7143 25.1072 16.7169 25.128C16.7169 25.1514 16.7247 25.1774 16.7377 25.206C16.7507 25.232 16.7689 25.2606 16.7871 25.2918C16.8053 25.3256 16.8209 25.3594 16.8339 25.3958C16.8599 25.466 16.8755 25.5414 16.8729 25.6194C16.8703 25.6584 16.8651 25.7 16.8521 25.7364C16.8417 25.7754 16.8235 25.8118 16.8079 25.843C16.7897 25.8716 16.7767 25.9002 16.7689 25.9262C16.7611 25.9496 16.7637 25.973 16.7689 26.0016C16.7715 26.0328 16.7819 26.064 16.7923 26.0978C16.7975 26.116 16.8001 26.1342 16.8053 26.155C16.8053 26.1758 16.8079 26.194 16.8079 26.2148C16.8105 26.2928 16.7845 26.3707 16.7455 26.4357C16.7091 26.5007 16.6571 26.5579 16.5973 26.6021C16.5375 26.6463 16.4725 26.6775 16.4049 26.7009C16.2671 26.7425 16.1241 26.7503 15.9863 26.7451C16.1241 26.7243 16.2593 26.7009 16.3841 26.6463C16.4439 26.6203 16.5011 26.5865 16.5505 26.5423C16.5973 26.4981 16.6389 26.4487 16.6649 26.3915C16.6805 26.3655 16.6909 26.3343 16.6961 26.3057C16.7039 26.2772 16.7065 26.246 16.7039 26.2174C16.7039 26.1862 16.6987 26.1602 16.6883 26.129C16.6779 26.0952 16.6675 26.0614 16.6597 26.0224C16.6545 26.0042 16.6519 25.9834 16.6519 25.9626C16.6519 25.9392 16.6545 25.9158 16.6597 25.895C16.6701 25.8534 16.6883 25.8196 16.7039 25.7884C16.7221 25.7572 16.7325 25.7312 16.7403 25.7026C16.7481 25.674 16.7533 25.6454 16.7559 25.6142C16.7585 25.5544 16.7481 25.492 16.7273 25.4348C16.7169 25.4036 16.7039 25.375 16.6883 25.3464C16.6727 25.3178 16.6545 25.2866 16.6389 25.2528C16.6233 25.2164 16.6077 25.1748 16.6077 25.128C16.6077 25.1072 16.6129 25.0839 16.6207 25.0631C16.6259 25.0423 16.6337 25.0241 16.6415 25.0085C16.6597 24.9747 16.6727 24.9487 16.6779 24.9253C16.6831 24.9019 16.6831 24.8811 16.6701 24.8603C16.6571 24.8369 16.6363 24.8187 16.6103 24.8031C16.5869 24.7875 16.5557 24.7771 16.5245 24.7667C16.4933 24.7589 16.4569 24.7511 16.4231 24.7381C16.3893 24.7277 16.3555 24.7121 16.3243 24.6939C16.1969 24.6237 16.0955 24.5093 16.0513 24.3767V24.3793Z" fill="#A992F3"/>
<path d="M16.1665 24.7952C16.2758 24.8264 16.3721 24.8862 16.4632 24.9539C16.5516 25.0242 16.6323 25.1074 16.6948 25.2037C16.7598 25.2974 16.8066 25.4067 16.8197 25.5238C16.8249 25.5836 16.8223 25.6409 16.8092 25.6981C16.7936 25.7528 16.7728 25.8074 16.739 25.8517C16.7676 25.745 16.7728 25.6383 16.7468 25.5368C16.7234 25.4353 16.6765 25.3416 16.6167 25.2558C16.5594 25.1673 16.4892 25.0866 16.4137 25.0085C16.3382 24.9331 16.255 24.8628 16.1665 24.7952Z" fill="#A992F3"/>
<path d="M12.7915 28.0683C12.8409 27.7667 12.9813 27.4834 13.1815 27.2468C13.2829 27.1298 13.3999 27.0258 13.5298 26.9374C13.6572 26.8516 13.8002 26.784 13.951 26.7346C14.25 26.6358 14.575 26.6254 14.8817 26.693C15.0377 26.7268 15.1859 26.7814 15.3263 26.8568C15.4667 26.9296 15.5967 27.0232 15.7137 27.1298C15.9424 27.3456 16.1192 27.6108 16.257 27.8863C16.3246 28.0241 16.3844 28.1671 16.4364 28.3101C16.4624 28.3829 16.4884 28.4557 16.5118 28.5259C16.5352 28.5961 16.5612 28.6663 16.5898 28.7313C16.6496 28.8638 16.7328 28.9782 16.8524 29.0458C16.9148 29.0822 16.9824 29.1134 17.0526 29.1498C17.0863 29.168 17.1227 29.1862 17.1539 29.2122C17.1877 29.2356 17.2189 29.2616 17.2449 29.2928C17.2995 29.35 17.3411 29.4202 17.3749 29.493C17.4061 29.5632 17.4269 29.6386 17.4399 29.7166C17.4659 29.8674 17.4607 30.0208 17.4555 30.1715C17.4425 30.0208 17.4321 29.87 17.3957 29.7244C17.3593 29.5814 17.2917 29.4462 17.1877 29.3474C17.1383 29.298 17.0785 29.2642 17.011 29.233C16.9434 29.2044 16.8732 29.1784 16.8004 29.142C16.7276 29.1056 16.66 29.051 16.608 28.9886C16.5534 28.9262 16.5118 28.8586 16.4754 28.7859C16.4026 28.6455 16.3558 28.4999 16.3012 28.3621C16.2466 28.2243 16.1868 28.0865 16.1166 27.9565C15.9814 27.6939 15.8151 27.447 15.6019 27.2494C15.4953 27.1506 15.3783 27.0648 15.2509 26.9972C15.1261 26.927 14.9883 26.8776 14.8479 26.8438C14.7075 26.81 14.562 26.7918 14.4164 26.7944C14.2734 26.797 14.1278 26.8178 13.9874 26.8568C13.7066 26.9348 13.4466 27.0882 13.2413 27.3014C13.0333 27.512 12.8747 27.7771 12.7915 28.0683Z" fill="#A992F3"/>
<path d="M18.6176 29.1681C18.6982 29.1603 18.7788 29.1941 18.8412 29.2487C18.9036 29.3007 18.9478 29.3735 18.9738 29.4515C18.9972 29.5321 19.005 29.6152 19.005 29.6958C19.005 29.7764 18.9998 29.857 18.992 29.935C18.9738 30.0962 18.9452 30.2548 18.901 30.4108C18.8568 30.5668 18.7944 30.7176 18.7138 30.8605C18.6332 31.0035 18.537 31.1361 18.4174 31.2531C18.2978 31.3701 18.16 31.4663 18.0092 31.5391C17.8585 31.6119 17.6973 31.6535 17.5335 31.6769C17.3671 31.6977 17.2007 31.6977 17.0369 31.6769C16.7094 31.6327 16.4 31.5105 16.1192 31.3519C15.9788 31.2687 15.8436 31.1803 15.7162 31.0815C15.5888 30.9827 15.4693 30.8735 15.3575 30.754C15.2483 30.6344 15.1469 30.507 15.0611 30.3718C14.9753 30.234 14.8999 30.091 14.8427 29.9376C14.7309 29.636 14.6815 29.3111 14.7231 28.9939C14.7179 29.3137 14.7881 29.6256 14.9181 29.909C15.0455 30.1924 15.2301 30.4472 15.4511 30.6656C15.672 30.8813 15.9242 31.0685 16.1946 31.2167C16.465 31.3649 16.7562 31.4767 17.0603 31.5157C17.2085 31.5339 17.3619 31.5365 17.5127 31.5183C17.6609 31.5001 17.8091 31.4585 17.9443 31.3987C18.082 31.3363 18.2068 31.2531 18.3186 31.1491C18.4278 31.0451 18.524 30.9255 18.6046 30.7955C18.6852 30.6656 18.7476 30.5252 18.7996 30.377C18.849 30.2314 18.8854 30.078 18.9114 29.9246C18.9374 29.7712 18.9634 29.6126 18.9296 29.4645C18.914 29.3891 18.8776 29.3215 18.8256 29.2643C18.771 29.2097 18.6982 29.1707 18.6176 29.1681Z" fill="#A992F3"/>
<path d="M13.6187 31.8978C13.8916 31.9264 14.1568 31.9004 14.422 31.8536C14.6846 31.8095 14.9471 31.7445 15.2201 31.6977C15.2877 31.6847 15.3553 31.6743 15.4255 31.6665C15.4931 31.6587 15.5633 31.6509 15.6309 31.6483C15.7011 31.6431 15.7713 31.6431 15.8415 31.6431C15.9117 31.6457 15.9819 31.6535 16.0521 31.6613C16.1222 31.6717 16.1898 31.6847 16.2574 31.7029C16.325 31.7211 16.3926 31.7445 16.4576 31.7705C16.52 31.7991 16.5824 31.8329 16.6422 31.8692C16.6994 31.9082 16.754 31.9524 16.8034 31.9992C16.5668 31.8614 16.3016 31.8017 16.0391 31.7887C15.7765 31.7757 15.5113 31.8121 15.2461 31.8588C14.9809 31.903 14.7132 31.9602 14.4376 31.981C14.2998 31.9914 14.1594 31.994 14.0216 31.9836C13.8838 31.9706 13.746 31.9472 13.6187 31.8978Z" fill="#A992F3"/>
<path d="M15.147 32.4335C15.3316 32.2983 15.5369 32.1891 15.7605 32.1189C15.9815 32.0513 16.2259 32.0227 16.4651 32.0643C16.4937 32.0721 16.5223 32.0773 16.5509 32.0851C16.5821 32.0929 16.6107 32.1007 16.6392 32.1111C16.6938 32.1293 16.7484 32.1501 16.803 32.1735C16.907 32.2177 17.0084 32.2671 17.1098 32.3087C17.2112 32.3503 17.3152 32.3841 17.4218 32.3971C17.531 32.4127 17.6402 32.4075 17.7494 32.3685C17.6584 32.4387 17.5388 32.4725 17.4192 32.4777C17.2996 32.4829 17.18 32.4621 17.0682 32.4309C16.8446 32.3659 16.6418 32.2619 16.4339 32.2255C16.2259 32.1891 16.0075 32.2021 15.7917 32.2437C15.5759 32.2853 15.3628 32.3581 15.147 32.4335Z" fill="#A992F3"/>
<path d="M17.5156 32.1082C17.5416 32.1134 17.5676 32.1212 17.5936 32.1212C17.6196 32.1264 17.6456 32.1264 17.6716 32.129C17.7262 32.129 17.7782 32.1264 17.8302 32.1212C17.9342 32.1134 18.0408 32.0952 18.1552 32.0952C18.2098 32.0952 18.2696 32.0978 18.3294 32.1108L18.371 32.1212C18.3866 32.1264 18.4022 32.1316 18.4152 32.1368C18.4307 32.142 18.4437 32.1472 18.4567 32.155C18.4723 32.1602 18.4853 32.168 18.4983 32.1758C18.6075 32.2382 18.6907 32.337 18.7401 32.4462C18.7661 32.5008 18.7869 32.5554 18.7973 32.6152C18.8103 32.6724 18.8181 32.7322 18.8181 32.792C18.8155 32.8492 18.8103 32.9089 18.7973 32.9661C18.7817 33.0207 18.7661 33.0779 18.7427 33.1299C18.6985 33.2339 18.6387 33.3275 18.5711 33.4159C18.5035 33.5017 18.4281 33.5797 18.345 33.6525C18.4541 33.4653 18.5659 33.2807 18.6205 33.0857C18.6361 33.0363 18.6465 32.9869 18.6543 32.9375C18.6621 32.8881 18.6647 32.8414 18.6621 32.7946C18.6595 32.7452 18.6517 32.6984 18.6413 32.6516C18.6361 32.6282 18.6283 32.6048 18.6205 32.5814C18.6127 32.5606 18.6049 32.5372 18.5945 32.5164C18.5737 32.4748 18.5477 32.4332 18.5191 32.3994C18.4905 32.363 18.4567 32.3318 18.4178 32.3084C18.3424 32.259 18.2488 32.233 18.1474 32.2226C18.046 32.2122 17.9394 32.2122 17.8302 32.2018C17.7756 32.1966 17.7184 32.1888 17.6664 32.1732C17.6118 32.1602 17.5598 32.1368 17.5156 32.1082Z" fill="#A992F3"/>
<path d="M18.3843 31.8172C18.4571 31.8016 18.5299 31.7886 18.6053 31.7834C18.6781 31.7782 18.7534 31.7782 18.8288 31.7834C18.9042 31.7912 18.9796 31.8016 19.0524 31.8224C19.0706 31.8276 19.0888 31.8328 19.107 31.838C19.1252 31.8432 19.1434 31.851 19.1616 31.8562C19.1798 31.864 19.198 31.8718 19.2162 31.8796L19.2682 31.903C19.3384 31.9394 19.406 31.981 19.4658 32.0304C19.5256 32.0824 19.5802 32.1422 19.627 32.2046C19.6712 32.2696 19.7102 32.3398 19.7388 32.4152C19.7674 32.488 19.7882 32.5634 19.8038 32.6414C19.8142 32.7194 19.8194 32.7974 19.8194 32.8754C19.8142 32.9533 19.8064 33.0313 19.7882 33.1067C19.77 33.1847 19.744 33.2575 19.7128 33.3277C19.6816 33.3979 19.6426 33.4655 19.601 33.5279C19.4268 33.7827 19.1746 33.9699 18.9016 34.0791C19.1434 33.9101 19.3514 33.7047 19.4918 33.4603C19.5256 33.4005 19.5542 33.3381 19.5802 33.2731C19.6036 33.2081 19.6218 33.1431 19.6374 33.0755C19.6478 33.0079 19.6556 32.9403 19.6556 32.8728C19.6582 32.8026 19.653 32.735 19.6426 32.6674C19.6296 32.6024 19.6114 32.5348 19.588 32.4724C19.5646 32.41 19.5334 32.3502 19.497 32.293C19.4606 32.2358 19.4164 32.1864 19.3696 32.1396L19.3306 32.1058C19.3202 32.0928 19.3046 32.085 19.2916 32.0746L19.2708 32.0564L19.25 32.0434C19.237 32.033 19.2214 32.0226 19.2084 32.0148C19.0888 31.9446 18.9562 31.8926 18.8158 31.8614C18.7456 31.8458 18.6755 31.8354 18.6027 31.8276C18.5325 31.8224 18.4597 31.8198 18.3843 31.8172Z" fill="#A992F3"/>
<path d="M16.4052 28.3855C16.4442 28.3881 16.4806 28.3777 16.5144 28.3647C16.5482 28.3491 16.5794 28.3309 16.608 28.3075C16.6652 28.2633 16.7172 28.2061 16.7874 28.1541C16.8212 28.1307 16.8602 28.1073 16.9044 28.0917C16.946 28.0761 16.9902 28.0683 17.0344 28.0657C17.1227 28.0605 17.2085 28.0761 17.2865 28.0969C17.3281 28.1047 17.3645 28.1151 17.4009 28.1255C17.4399 28.1359 17.4737 28.1463 17.5101 28.1541C17.5777 28.1697 17.6557 28.1723 17.7441 28.1983C17.7883 28.2113 17.8351 28.2321 17.8793 28.2659C17.9235 28.2971 17.9573 28.3413 17.9833 28.3855C18.0327 28.4765 18.0431 28.5805 18.0327 28.6741C18.0197 28.765 17.9937 28.8456 17.9599 28.9262C17.9235 29.0042 17.8767 29.0796 17.8169 29.1472C17.7883 29.1784 17.7545 29.2096 17.7207 29.2356C17.7103 29.2434 17.7025 29.2512 17.6921 29.2564C17.6843 29.2642 17.6713 29.2694 17.6609 29.2772C17.6401 29.2876 17.6193 29.3006 17.5959 29.3084C17.5517 29.3266 17.5049 29.337 17.4581 29.3396C17.4113 29.3422 17.3671 29.3396 17.3229 29.3344C17.2787 29.3266 17.2371 29.3162 17.1981 29.3032C17.1877 29.3006 17.1773 29.2954 17.1669 29.2928L17.1435 29.2824L17.0889 29.2668C17.0681 29.259 17.0473 29.2512 17.024 29.2408C17.0006 29.2304 16.9772 29.2122 16.9564 29.1914C16.946 29.1784 16.9382 29.168 16.933 29.155C16.9304 29.1472 16.9252 29.142 16.9226 29.1342L16.9174 29.116C16.9148 29.1056 16.9122 29.0926 16.9096 29.0822C16.9096 29.0692 16.907 29.0588 16.907 29.0458C16.9044 29.0016 16.9122 28.9574 16.9226 28.9184C16.933 28.8768 16.9434 28.8404 16.9564 28.804C16.9694 28.7676 16.9798 28.7312 16.9876 28.6949C16.9954 28.6585 17.0006 28.6221 16.9954 28.5831C16.9954 28.5779 16.9954 28.5753 17.0006 28.5753C17.0032 28.5753 17.0058 28.5779 17.0058 28.5805C17.0266 28.6559 17.0136 28.7364 16.9954 28.8118C16.9876 28.8508 16.9798 28.8872 16.972 28.9262C16.9668 28.9652 16.9642 29.0016 16.9668 29.0406C16.9668 29.0484 16.972 29.0588 16.972 29.0666C16.9746 29.077 16.9772 29.0874 16.9798 29.0952C16.985 29.1134 16.9954 29.129 17.0084 29.142C17.0344 29.168 17.0707 29.181 17.1071 29.1888L17.1643 29.2044L17.2189 29.22C17.2579 29.2304 17.2943 29.2382 17.3333 29.2434C17.4087 29.2512 17.4867 29.246 17.5569 29.2148C17.5907 29.1992 17.6219 29.1784 17.6531 29.155C17.6817 29.1316 17.7103 29.103 17.7337 29.0744C17.7831 29.0172 17.8247 28.9496 17.8559 28.8794C17.8845 28.8092 17.9079 28.7364 17.9157 28.6611C17.9261 28.5857 17.9157 28.5077 17.8819 28.4401C17.8637 28.4063 17.8403 28.3777 17.8117 28.3543C17.7805 28.3309 17.7467 28.3153 17.7103 28.3049C17.6375 28.2815 17.5595 28.2737 17.4841 28.2529C17.4087 28.2347 17.3359 28.2061 17.2605 28.1853C17.1877 28.1619 17.1123 28.1463 17.0344 28.1463C16.998 28.1463 16.959 28.1515 16.9226 28.1619C16.8862 28.1697 16.8524 28.1879 16.8186 28.2087C16.7536 28.2477 16.6964 28.2997 16.6288 28.3413C16.595 28.3621 16.5586 28.3803 16.5222 28.3907C16.4832 28.4011 16.4442 28.4037 16.4026 28.3959C16.4 28.3959 16.3974 28.3933 16.4 28.3907C16.4 28.3881 16.4026 28.3855 16.4052 28.3855Z" fill="#A992F3"/>
<path d="M17.297 28.4894C17.349 28.5441 17.3803 28.6117 17.3985 28.682C17.4167 28.7496 17.4219 28.8225 17.4141 28.8928C17.4089 28.9656 17.3907 29.0359 17.3594 29.1009C17.3282 29.1634 17.2866 29.2258 17.2267 29.2701H17.2241C17.2241 29.2727 17.2189 29.2727 17.2189 29.2701C17.2189 29.2675 17.2163 29.2675 17.2189 29.2649C17.2476 29.205 17.2684 29.1426 17.2866 29.0801C17.3048 29.0151 17.3152 28.95 17.3204 28.885C17.3282 28.8199 17.3282 28.7548 17.323 28.6872C17.3178 28.6221 17.3048 28.5571 17.2892 28.492C17.2892 28.4894 17.2892 28.4868 17.2918 28.4868C17.2944 28.4868 17.2944 28.4868 17.297 28.4894Z" fill="#A992F3"/>
<path d="M17.591 28.4948C17.6456 28.539 17.682 28.5989 17.7055 28.6613C17.7289 28.7238 17.7419 28.794 17.7393 28.8617C17.7393 28.9294 17.7237 28.997 17.6977 29.0595C17.669 29.1193 17.63 29.1792 17.5727 29.2208C17.5701 29.2234 17.5675 29.2234 17.5649 29.2208C17.5649 29.2182 17.5649 29.2182 17.5649 29.2156C17.591 29.161 17.6092 29.1011 17.6248 29.0413C17.6378 28.9814 17.6456 28.9189 17.6456 28.8591C17.6482 28.7966 17.643 28.7368 17.6326 28.6743C17.6222 28.6145 17.604 28.5546 17.5806 28.4974C17.5806 28.4948 17.5806 28.4922 17.5832 28.4922C17.5858 28.4922 17.5858 28.4922 17.5884 28.4922L17.591 28.4948Z" fill="#A992F3"/>
<path d="M17.7362 29.0876C17.7752 29.0304 17.8325 28.9966 17.8923 28.9783C17.9522 28.9575 18.0172 28.9523 18.0771 28.9627C18.1395 28.9705 18.202 28.994 18.254 29.0304C18.3035 29.0642 18.3503 29.1137 18.3711 29.1787L18.3737 29.1813C18.3737 29.1839 18.3737 29.1891 18.3711 29.1891C18.3685 29.1891 18.3659 29.1891 18.3659 29.1891L18.3295 29.1683L18.2566 29.1319L18.2202 29.1163C18.1681 29.098 18.1161 29.085 18.0615 29.0772C18.0094 29.0694 17.9548 29.0668 17.9001 29.072L17.8585 29.0746L17.8195 29.0798L17.7778 29.0876L17.7388 29.098C17.7362 29.098 17.7336 29.098 17.7336 29.0954C17.731 29.0928 17.7336 29.0902 17.7336 29.0902L17.7362 29.0876Z" fill="#A992F3"/>
<path d="M17.9259 28.6617C17.9754 28.5706 18.0274 28.4925 18.0951 28.4171C18.1627 28.3442 18.2538 28.2766 18.3631 28.2427C18.4178 28.2271 18.4776 28.2193 18.5375 28.2245C18.5557 28.2271 18.5765 28.2297 18.5947 28.2375C18.6155 28.2427 18.6363 28.2531 18.6598 28.2739C18.6728 28.2844 18.6832 28.2974 18.691 28.3156C18.7014 28.3312 18.704 28.3494 18.7066 28.3676C18.7066 28.3858 18.704 28.4041 18.6988 28.4197C18.691 28.4353 18.6858 28.4457 18.678 28.4561C18.6624 28.4769 18.6468 28.4873 18.6311 28.4951C18.6181 28.5055 18.6051 28.5107 18.5947 28.516C18.5713 28.5238 18.5479 28.5316 18.5244 28.542C18.4776 28.555 18.4334 28.5706 18.3813 28.581H18.3787C18.3735 28.581 18.3709 28.5784 18.3709 28.5758C18.3709 28.5732 18.3709 28.5706 18.3735 28.5706L18.4906 28.4873L18.5479 28.4483C18.5687 28.4353 18.5869 28.4223 18.5999 28.4041C18.6103 28.3884 18.6103 28.365 18.5947 28.3546C18.5791 28.3416 18.5557 28.3364 18.5323 28.3364C18.488 28.3338 18.4412 28.3416 18.3969 28.3546C18.3085 28.3832 18.2278 28.4327 18.1549 28.4925C18.1159 28.5212 18.0795 28.5524 18.0456 28.581C18.0066 28.6122 17.9702 28.6409 17.9311 28.6695C17.9285 28.6721 17.9259 28.6721 17.9233 28.6695C17.9233 28.6669 17.9233 28.6643 17.9233 28.6617H17.9259Z" fill="#A992F3"/>
<path d="M18.6175 28.3648C18.6774 28.2946 18.7684 28.2555 18.8621 28.2477C18.9116 28.2425 18.9584 28.2451 19.0052 28.2555C19.0182 28.2581 19.0287 28.2607 19.0417 28.2659C19.0521 28.2685 19.0651 28.2711 19.0755 28.2763C19.0885 28.2815 19.0989 28.2868 19.1093 28.292C19.1197 28.2946 19.1353 28.305 19.1536 28.3154C19.1692 28.3284 19.1874 28.344 19.203 28.3778C19.2108 28.3934 19.2186 28.4169 19.216 28.4403C19.216 28.4637 19.2108 28.4845 19.2004 28.5027C19.1874 28.5236 19.1744 28.5366 19.1614 28.5444C19.151 28.5548 19.1406 28.56 19.1301 28.5626C19.1223 28.5678 19.1145 28.5704 19.1067 28.573C19.0989 28.5756 19.0963 28.5756 19.0911 28.5756C19.0521 28.586 19.0104 28.5964 18.9714 28.6016C18.8881 28.6146 18.8049 28.6224 18.7138 28.612H18.7112C18.7086 28.612 18.706 28.6094 18.706 28.6042C18.706 28.6042 18.7086 28.6016 18.7112 28.6016L18.8257 28.5574L19.0547 28.4715C19.0729 28.4663 19.0937 28.4585 19.0989 28.4455C19.1015 28.4403 19.1015 28.4351 19.0989 28.4273C19.0963 28.4221 19.0885 28.4143 19.0833 28.4091C19.0755 28.4039 19.0677 28.3986 19.0573 28.396C19.0495 28.3908 19.0391 28.3856 19.0313 28.383C19.013 28.3752 18.9948 28.3674 18.974 28.3622C18.9376 28.3492 18.8959 28.344 18.8569 28.3388C18.8179 28.3362 18.7762 28.3388 18.7372 28.344C18.6982 28.3492 18.6591 28.3596 18.6201 28.3752C18.6175 28.3752 18.6149 28.3752 18.6123 28.3726C18.6123 28.37 18.6123 28.3674 18.6149 28.3648H18.6175Z" fill="#A992F3"/>
<path d="M19.1194 28.435C19.1324 28.4272 19.148 28.422 19.1663 28.4194C19.1819 28.4141 19.1975 28.4141 19.2157 28.4167C19.2495 28.4194 19.2886 28.4324 19.3198 28.4662C19.3354 28.4818 19.3484 28.5026 19.3562 28.5234C19.3666 28.5443 19.3692 28.5677 19.3692 28.5963C19.3692 28.6223 19.3614 28.6509 19.3484 28.677C19.3328 28.703 19.312 28.7238 19.2886 28.7394C19.2443 28.768 19.2079 28.7706 19.1793 28.7733C19.1533 28.7759 19.1272 28.7759 19.1012 28.7733C19.0466 28.7706 18.9919 28.7602 18.9321 28.729L18.9295 28.7264C18.9269 28.7264 18.9243 28.7238 18.9269 28.7212C18.9269 28.7186 18.9295 28.7186 18.9295 28.7186L19.0049 28.7004L19.1559 28.6666C19.1819 28.6614 19.2053 28.6535 19.2261 28.6405C19.2443 28.6301 19.2573 28.6093 19.2599 28.5859C19.2625 28.5625 19.2547 28.5391 19.2417 28.5182C19.2287 28.5 19.2079 28.4844 19.1871 28.4714C19.1663 28.461 19.1402 28.4532 19.1168 28.448C19.1142 28.4454 19.1116 28.4428 19.1116 28.4402L19.1142 28.4376L19.1194 28.435Z" fill="#A992F3"/>
<path d="M19.2445 28.6273C19.3304 28.6065 19.4266 28.6325 19.5047 28.6846C19.5437 28.7106 19.5802 28.7444 19.6088 28.7834C19.64 28.8251 19.6582 28.8693 19.6738 28.9161C19.6895 28.963 19.6973 29.0124 19.6999 29.0593C19.7025 29.1087 19.6973 29.1582 19.6869 29.205C19.6817 29.2284 19.6764 29.2518 19.6686 29.2753C19.6608 29.2987 19.653 29.3195 19.6426 29.3429C19.6296 29.3663 19.6166 29.3897 19.5984 29.4158C19.5802 29.4392 19.5567 29.4626 19.5255 29.4808C19.5099 29.4912 19.4943 29.499 19.4709 29.5068C19.4527 29.5121 19.4318 29.5147 19.411 29.5147C19.372 29.5121 19.333 29.5042 19.2965 29.4808C19.2783 29.4678 19.2601 29.4522 19.2471 29.4314C19.2315 29.4106 19.2211 29.3845 19.2185 29.3585C19.2133 29.3351 19.2159 29.3143 19.2185 29.2961C19.2211 29.2805 19.2263 29.2674 19.2289 29.2596C19.2315 29.2492 19.2315 29.244 19.2341 29.2388C19.2341 29.2336 19.2367 29.2258 19.2367 29.2206C19.2367 29.2076 19.2367 29.1946 19.2367 29.1816C19.2341 29.1686 19.2289 29.1556 19.2263 29.1451C19.2237 29.1373 19.2211 29.1321 19.2159 29.1269C19.2133 29.1217 19.2107 29.1139 19.2081 29.1113C19.2081 29.1087 19.2054 29.1087 19.2133 29.1087C19.2185 29.1113 19.2341 29.1113 19.2445 29.1061C19.2523 29.0983 19.2549 29.0931 19.2523 29.0957C19.2497 29.0983 19.2445 29.1035 19.2419 29.1113L19.2263 29.1399C19.2185 29.1503 19.2133 29.1608 19.2054 29.1712C19.1924 29.1894 19.1768 29.2076 19.1612 29.2258C19.0936 29.2935 19.0103 29.3377 18.9218 29.3455C18.9192 29.3455 18.9166 29.3429 18.9166 29.3403C18.914 29.3377 18.9166 29.3351 18.9192 29.3325C18.9947 29.3065 19.0623 29.2544 19.1092 29.1894C19.1352 29.1556 19.1534 29.1191 19.1664 29.0801C19.1742 29.0619 19.182 29.0385 19.2081 29.0254C19.2185 29.0202 19.2315 29.0202 19.2445 29.0254C19.2549 29.0306 19.2653 29.0358 19.2731 29.0437C19.333 29.1061 19.359 29.1998 19.3356 29.2831C19.3304 29.3039 19.3278 29.3221 19.3304 29.3403C19.333 29.3585 19.3434 29.3715 19.359 29.3819C19.3902 29.4028 19.4318 29.4028 19.4631 29.3819C19.4969 29.3611 19.5203 29.3273 19.5385 29.2935C19.5541 29.257 19.5698 29.218 19.5802 29.179C19.5984 29.0983 19.601 29.015 19.5828 28.937C19.575 28.8979 19.5593 28.8589 19.5411 28.8251C19.5203 28.7886 19.4943 28.7574 19.4631 28.7314C19.4032 28.6767 19.3252 28.6403 19.2445 28.6403C19.2419 28.6403 19.2393 28.6351 19.2393 28.6325C19.2393 28.6299 19.2419 28.6273 19.2445 28.6273Z" fill="#A992F3"/>
<path d="M13.1737 20.3886C13.0801 20.3886 12.9917 20.4146 12.9189 20.4588C12.8435 20.5004 12.7811 20.5628 12.7395 20.6356C12.6537 20.7786 12.6485 20.9632 12.7083 21.1139C12.7707 21.2699 12.8981 21.3973 13.0515 21.4701C13.2075 21.5455 13.3894 21.5689 13.574 21.5507C13.3998 21.6157 13.1997 21.6209 13.0177 21.5559C12.8331 21.4883 12.6745 21.3453 12.5991 21.1581C12.5627 21.0646 12.5497 20.9632 12.5601 20.8618C12.5705 20.763 12.6043 20.6668 12.6615 20.5836C12.7213 20.503 12.8045 20.4432 12.8929 20.4068C12.9839 20.373 13.0827 20.3626 13.1737 20.3886Z" fill="#A992F3"/>
<path d="M13.4526 21.4476C13.3641 21.406 13.2964 21.3279 13.2496 21.2421C13.2002 21.1562 13.1715 21.0599 13.1585 20.961C13.1455 20.8647 13.1533 20.7632 13.1793 20.667C13.2054 20.5733 13.2522 20.4848 13.3199 20.4146C13.2938 20.5082 13.2782 20.5967 13.2704 20.6852C13.2626 20.7737 13.2652 20.8595 13.2756 20.948C13.286 21.0339 13.3042 21.1197 13.3329 21.203C13.3615 21.2889 13.3979 21.3696 13.4526 21.4476Z" fill="#A992F3"/>
<path d="M16.8418 21.205C16.743 21.348 16.5922 21.4494 16.4362 21.5326C16.2828 21.6158 16.1191 21.6834 15.9735 21.7821C15.7447 21.9329 15.5653 22.1487 15.3911 22.3619C15.4353 22.4087 15.5107 22.4139 15.5705 22.3931C15.6329 22.3723 15.6823 22.3281 15.7291 22.2839C15.8981 22.1175 16.0359 21.9199 16.2204 21.7717C16.3322 21.6834 16.4596 21.6132 16.574 21.53C16.691 21.4442 16.795 21.3376 16.8418 21.2024V21.205Z" fill="#A992F3"/>
<path d="M16.9068 21.8652C16.951 22.0758 16.9094 22.302 16.7951 22.4866C16.7509 22.5568 16.6937 22.6244 16.6157 22.6556C16.5403 22.6868 16.4493 22.679 16.3739 22.64C16.3011 22.6036 16.2413 22.5386 16.1997 22.4658C16.2335 22.5828 16.3063 22.692 16.3973 22.7596C16.3999 22.8116 16.3921 22.8636 16.3739 22.9155C16.3921 22.8714 16.4103 22.8272 16.4311 22.7856C16.4415 22.8506 16.4493 22.9155 16.4519 22.9805C16.4519 22.9207 16.4623 22.8584 16.4779 22.7986C16.4987 22.8973 16.5117 22.9987 16.5221 23.1027C16.5273 23.0013 16.5351 22.8999 16.5481 22.7934C16.5585 22.7882 16.5715 22.7934 16.5793 22.8012C16.5897 22.809 16.5949 22.8194 16.6001 22.8298C16.6287 22.8921 16.6573 22.9519 16.6885 23.0117C16.6703 22.9337 16.6521 22.8558 16.6339 22.7752C16.6989 22.8194 16.7431 22.8844 16.7899 22.9467C16.7561 22.8921 16.7327 22.8298 16.7171 22.7674C16.7145 22.7544 16.7119 22.7388 16.7223 22.7284C16.7301 22.718 16.7431 22.7154 16.7561 22.7206C16.7691 22.7232 16.7795 22.7336 16.7873 22.7414C16.8393 22.7882 16.8886 22.835 16.938 22.8792C16.8938 22.8272 16.8497 22.7752 16.8055 22.7232C16.7873 22.7024 16.7691 22.6712 16.7873 22.6504C16.8029 22.6322 16.8315 22.6374 16.8523 22.6452C16.9094 22.6634 16.964 22.692 17.016 22.7258C16.9692 22.6842 16.925 22.64 16.8809 22.5984C16.8731 22.5906 16.8627 22.5802 16.8601 22.5698C16.8575 22.5516 16.8705 22.5308 16.8887 22.5256C16.9068 22.5178 16.925 22.5204 16.9432 22.5256C16.9926 22.5334 17.0394 22.5516 17.081 22.5776C17.0368 22.5438 16.9952 22.5074 16.951 22.4736C16.9432 22.4684 16.938 22.4632 16.9354 22.4554C16.9276 22.4346 16.9484 22.4164 16.9666 22.4086C17.0056 22.3904 17.0498 22.3878 17.0914 22.4008C17.0472 22.3878 16.9978 22.3722 16.977 22.3332C16.964 22.3046 16.9692 22.2708 16.9718 22.2396C16.9822 22.12 16.9562 21.9978 16.9068 21.8678V21.8652Z" fill="#A992F3"/>
<path d="M16.8887 24.2755C16.8808 24.3171 16.8991 24.3509 16.9251 24.3769C16.9485 24.4004 16.9823 24.4212 17.0162 24.4368C17.05 24.4524 17.0812 24.4654 17.1124 24.4628C17.1437 24.4602 17.1723 24.4472 17.2009 24.4264C17.2269 24.4056 17.2504 24.3769 17.2738 24.3483C17.2972 24.3171 17.318 24.2859 17.3362 24.2546C17.3753 24.1896 17.4039 24.1167 17.4299 24.0413H17.4325C17.4351 24.1219 17.4169 24.2026 17.3857 24.2781C17.3701 24.3171 17.3518 24.3535 17.3284 24.3874C17.305 24.4212 17.279 24.455 17.2426 24.481C17.2087 24.5097 17.1619 24.5305 17.115 24.5279C17.0656 24.5279 17.0214 24.5097 16.9875 24.4836C16.9719 24.4732 16.9537 24.4602 16.9381 24.4446C16.9251 24.4316 16.9095 24.416 16.8965 24.3978C16.873 24.3613 16.8652 24.3119 16.8887 24.2755Z" fill="#A992F3"/>
<path d="M45.3183 36.5404C44.4238 36.5404 43.7423 36.3062 43.2737 35.8376C42.8052 35.3691 42.5709 34.6769 42.5709 33.7611V16.3505C42.5709 15.4134 42.8052 14.6999 43.2737 14.2101C43.7423 13.6989 44.3599 13.4434 45.1266 13.4434C45.8081 13.4434 46.3406 13.5712 46.7239 13.8267C47.1073 14.0823 47.5332 14.5082 48.0018 15.1046L58.1287 27.7553H57.2342V16.1907C57.2342 15.2962 57.4578 14.6147 57.9051 14.1462C58.3736 13.6776 59.0551 13.4434 59.9496 13.4434C60.8441 13.4434 61.515 13.6776 61.9622 14.1462C62.4308 14.6147 62.6651 15.2962 62.6651 16.1907V33.8889C62.6651 34.6982 62.4521 35.3478 62.0261 35.8376C61.6002 36.3062 61.0252 36.5404 60.301 36.5404C59.5769 36.5404 59.0019 36.4127 58.5759 36.1571C58.1713 35.8802 57.7347 35.4543 57.2662 34.8792L47.1392 22.1966H48.0337V33.7611C48.0337 34.6769 47.7994 35.3691 47.3309 35.8376C46.8837 36.3062 46.2128 36.5404 45.3183 36.5404ZM74.9583 36.6043C73.0416 36.6043 71.3804 36.2742 69.9747 35.614C68.5904 34.9325 67.5255 33.9741 66.7801 32.7389C66.0347 31.5036 65.662 30.0447 65.662 28.3622C65.662 26.7436 66.0134 25.3273 66.7162 24.1134C67.4403 22.8781 68.42 21.9198 69.6553 21.2382C70.9118 20.5354 72.3388 20.184 73.9361 20.184C75.1074 20.184 76.1723 20.3757 77.1307 20.759C78.0891 21.1211 78.909 21.6642 79.5905 22.3883C80.2721 23.0911 80.7832 23.943 81.1239 24.944C81.486 25.945 81.667 27.0631 81.667 28.2983C81.667 28.7243 81.5499 29.0437 81.3156 29.2567C81.0814 29.4484 80.7086 29.5442 80.1975 29.5442H70.422V26.8608H77.514L77.0029 27.2761C77.0029 26.4881 76.8964 25.8491 76.6834 25.3593C76.4705 24.8694 76.151 24.4967 75.725 24.2412C75.3204 23.9856 74.8093 23.8578 74.1916 23.8578C73.5314 23.8578 72.9564 24.0175 72.4665 24.337C71.998 24.6352 71.6359 25.0824 71.3804 25.6787C71.1248 26.2751 70.997 27.0205 70.997 27.915V28.2025C70.997 29.7146 71.3271 30.8008 71.9873 31.461C72.6689 32.0999 73.7124 32.4194 75.1181 32.4194C75.5866 32.4194 76.119 32.3661 76.7154 32.2597C77.333 32.1319 77.9187 31.9615 78.4724 31.7485C79.0262 31.5355 79.5053 31.5036 79.91 31.6527C80.3146 31.7805 80.6235 32.0147 80.8364 32.3555C81.0707 32.675 81.1985 33.0477 81.2198 33.4736C81.2411 33.8783 81.1452 34.2829 80.9323 34.6876C80.7193 35.0709 80.3679 35.3691 79.878 35.5821C79.1326 35.9228 78.334 36.1784 77.4821 36.3488C76.6515 36.5191 75.8102 36.6043 74.9583 36.6043ZM92.0715 36.6043C90.3251 36.6043 88.8023 36.2742 87.5032 35.614C86.2041 34.9538 85.1924 34.006 84.4683 32.7708C83.7442 31.5355 83.3821 30.0767 83.3821 28.3942C83.3821 27.1163 83.5845 25.9769 83.9891 24.9759C84.3938 23.9537 84.9795 23.0911 85.7462 22.3883C86.5129 21.6642 87.4287 21.1211 88.4935 20.759C89.5584 20.3757 90.7511 20.184 92.0715 20.184C93.8179 20.184 95.3407 20.5141 96.6398 21.1743C97.9389 21.8346 98.9399 22.7823 99.6427 24.0175C100.367 25.2315 100.729 26.6904 100.729 28.3942C100.729 29.6507 100.527 30.7901 100.122 31.8124C99.7173 32.8347 99.1316 33.7079 98.3649 34.432C97.6195 35.1348 96.7037 35.6779 95.6175 36.0613C94.5527 36.4233 93.3706 36.6043 92.0715 36.6043ZM92.0715 32.4194C92.6465 32.4194 93.1577 32.281 93.6049 32.0041C94.0522 31.7059 94.3929 31.2693 94.6272 30.6943C94.8828 30.098 95.0105 29.3313 95.0105 28.3942C95.0105 26.9672 94.7337 25.945 94.1799 25.3273C93.6262 24.6884 92.9234 24.369 92.0715 24.369C91.4965 24.369 90.9853 24.5074 90.5381 24.7843C90.0908 25.0611 89.7394 25.4977 89.4839 26.094C89.2283 26.6691 89.1005 27.4358 89.1005 28.3942C89.1005 29.7998 89.3774 30.8221 89.9311 31.461C90.4848 32.0999 91.1983 32.4194 92.0715 32.4194ZM115.218 36.6043C112.641 36.6043 110.448 36.1251 108.638 35.1668C106.849 34.2084 105.486 32.8666 104.548 31.1415C103.611 29.4165 103.143 27.4038 103.143 25.1037C103.143 23.3147 103.42 21.7068 103.973 20.2798C104.548 18.8316 105.368 17.5964 106.433 16.5741C107.498 15.5305 108.797 14.7425 110.331 14.2101C111.885 13.6563 113.642 13.3795 115.602 13.3795C116.667 13.3795 117.753 13.486 118.86 13.6989C119.968 13.8906 121.054 14.2633 122.119 14.8171C122.673 15.0726 123.045 15.4347 123.237 15.9032C123.45 16.3505 123.514 16.8297 123.429 17.3408C123.365 17.8306 123.184 18.2885 122.886 18.7145C122.609 19.1191 122.225 19.396 121.736 19.5451C121.246 19.6729 120.692 19.5983 120.074 19.3215C119.435 19.0233 118.743 18.7997 117.998 18.6506C117.252 18.4802 116.464 18.395 115.634 18.395C114.207 18.395 113.014 18.6506 112.056 19.1617C111.119 19.6729 110.416 20.4289 109.947 21.4299C109.479 22.4309 109.245 23.6555 109.245 25.1037C109.245 27.2761 109.777 28.916 110.842 30.0234C111.907 31.1309 113.483 31.6846 115.57 31.6846C116.209 31.6846 116.901 31.6207 117.646 31.493C118.413 31.3652 119.18 31.1841 119.947 30.9499L118.86 33.1542V27.6914H116.624C115.9 27.6914 115.336 27.5103 114.931 27.1483C114.548 26.7862 114.356 26.2751 114.356 25.6149C114.356 24.9546 114.548 24.4541 114.931 24.1134C115.336 23.7513 115.9 23.5703 116.624 23.5703H121.352C122.098 23.5703 122.662 23.7726 123.045 24.1773C123.45 24.5606 123.652 25.125 123.652 25.8704V32.9305C123.652 33.5695 123.514 34.1125 123.237 34.5598C122.981 35.007 122.566 35.3265 121.991 35.5182C120.99 35.8589 119.904 36.1251 118.733 36.3168C117.561 36.5085 116.39 36.6043 115.218 36.6043ZM133.079 36.6043C131.716 36.6043 130.597 36.3594 129.724 35.8696C128.851 35.3584 128.191 34.6024 127.744 33.6014C127.318 32.6004 127.105 31.3332 127.105 29.7998V23.0911C127.105 22.154 127.35 21.4512 127.839 20.9827C128.329 20.4928 129.032 20.2479 129.948 20.2479C130.864 20.2479 131.567 20.4928 132.056 20.9827C132.546 21.4512 132.791 22.154 132.791 23.0911V29.9595C132.791 30.7262 132.951 31.3013 133.27 31.6846C133.59 32.068 134.09 32.2597 134.772 32.2597C135.538 32.2597 136.167 31.9828 136.657 31.4291C137.146 30.8753 137.391 30.1406 137.391 29.2248V23.0911C137.391 22.154 137.636 21.4512 138.126 20.9827C138.616 20.4928 139.319 20.2479 140.235 20.2479C141.15 20.2479 141.853 20.4928 142.343 20.9827C142.833 21.4512 143.078 22.154 143.078 23.0911V33.6653C143.078 35.5821 142.162 36.5404 140.33 36.5404C139.436 36.5404 138.744 36.2955 138.254 35.8057C137.764 35.3158 137.519 34.6024 137.519 33.6653V31.8124L138.03 33.3778C137.562 34.4213 136.902 35.22 136.05 35.7737C135.219 36.3275 134.229 36.6043 133.079 36.6043ZM151.85 36.6043C150.636 36.6043 149.56 36.3807 148.623 35.9335C147.707 35.4862 146.983 34.8792 146.451 34.1125C145.94 33.3245 145.684 32.43 145.684 31.4291C145.684 30.279 145.982 29.3739 146.579 28.7136C147.175 28.0534 148.133 27.5849 149.454 27.308C150.774 27.0098 152.531 26.8608 154.725 26.8608H156.482V29.5442H154.725C153.894 29.5442 153.202 29.6081 152.648 29.7359C152.116 29.8424 151.722 30.0234 151.466 30.279C151.211 30.5133 151.083 30.8221 151.083 31.2054C151.083 31.6953 151.253 32.0999 151.594 32.4194C151.956 32.7389 152.467 32.8986 153.128 32.8986C153.66 32.8986 154.129 32.7814 154.533 32.5472C154.959 32.3129 155.3 31.9934 155.556 31.5888C155.811 31.1628 155.939 30.673 155.939 30.1193V26.4135C155.939 25.6468 155.737 25.1037 155.332 24.7843C154.949 24.4648 154.278 24.3051 153.319 24.3051C152.808 24.3051 152.233 24.369 151.594 24.4967C150.955 24.6032 150.242 24.8056 149.454 25.1037C148.879 25.3167 148.389 25.3486 147.984 25.1996C147.58 25.0505 147.26 24.7949 147.026 24.4328C146.813 24.0708 146.706 23.6768 146.706 23.2508C146.728 22.8249 146.866 22.4202 147.122 22.0369C147.399 21.6535 147.814 21.3554 148.368 21.1424C149.39 20.759 150.327 20.5035 151.179 20.3757C152.052 20.2479 152.851 20.184 153.575 20.184C155.321 20.184 156.759 20.4396 157.888 20.9507C159.038 21.4406 159.89 22.2073 160.443 23.2508C161.018 24.2731 161.306 25.5936 161.306 27.2122V33.6653C161.306 34.6024 161.082 35.3158 160.635 35.8057C160.188 36.2955 159.538 36.5404 158.686 36.5404C157.813 36.5404 157.142 36.2955 156.674 35.8057C156.226 35.3158 156.003 34.6024 156.003 33.6653V32.8347L156.194 33.2819C156.088 33.9635 155.843 34.5491 155.46 35.039C155.076 35.5288 154.576 35.9122 153.958 36.189C153.341 36.4659 152.638 36.6043 151.85 36.6043ZM167.451 36.5404C166.514 36.5404 165.79 36.2955 165.279 35.8057C164.789 35.3158 164.544 34.6024 164.544 33.6653V23.0911C164.544 22.1753 164.778 21.4725 165.247 20.9827C165.737 20.4928 166.429 20.2479 167.323 20.2479C168.218 20.2479 168.899 20.4928 169.368 20.9827C169.836 21.4725 170.071 22.1753 170.071 23.0911V24.4009H169.751C169.964 23.1231 170.507 22.1114 171.38 21.366C172.275 20.6206 173.382 20.2266 174.703 20.184C175.32 20.1627 175.778 20.3224 176.076 20.6632C176.396 20.9827 176.566 21.5896 176.588 22.4841C176.588 23.2508 176.428 23.8578 176.108 24.3051C175.789 24.7523 175.182 25.0185 174.287 25.1037L173.553 25.1676C172.424 25.2741 171.604 25.5936 171.093 26.126C170.582 26.6371 170.326 27.4038 170.326 28.4261V33.6653C170.326 34.6024 170.081 35.3158 169.591 35.8057C169.102 36.2955 168.388 36.5404 167.451 36.5404ZM184.248 36.6043C182.907 36.6043 181.714 36.2742 180.67 35.614C179.648 34.9538 178.839 34.006 178.243 32.7708C177.667 31.5355 177.38 30.0767 177.38 28.3942C177.38 26.6691 177.667 25.1996 178.243 23.9856C178.839 22.7716 179.648 21.8346 180.67 21.1743C181.714 20.5141 182.907 20.184 184.248 20.184C185.42 20.184 186.474 20.4609 187.411 21.0146C188.348 21.5683 188.976 22.2818 189.296 23.155H188.944V16.3185C188.944 15.3814 189.189 14.668 189.679 14.1781C190.169 13.6883 190.872 13.4434 191.788 13.4434C192.682 13.4434 193.374 13.6883 193.864 14.1781C194.375 14.668 194.631 15.3814 194.631 16.3185V33.6653C194.631 34.6024 194.386 35.3158 193.896 35.8057C193.428 36.2955 192.735 36.5404 191.82 36.5404C190.925 36.5404 190.233 36.2955 189.743 35.8057C189.253 35.3158 189.008 34.6024 189.008 33.6653V31.8444L189.36 33.4097C189.062 34.3681 188.433 35.1455 187.475 35.7418C186.538 36.3168 185.462 36.6043 184.248 36.6043ZM186.069 32.4194C186.644 32.4194 187.156 32.281 187.603 32.0041C188.05 31.7059 188.391 31.2693 188.625 30.6943C188.881 30.098 189.008 29.3313 189.008 28.3942C189.008 26.9672 188.732 25.945 188.178 25.3273C187.624 24.6884 186.921 24.369 186.069 24.369C185.494 24.369 184.983 24.5074 184.536 24.7843C184.089 25.0611 183.737 25.4977 183.482 26.094C183.226 26.6691 183.098 27.4358 183.098 28.3942C183.098 29.7998 183.375 30.8221 183.929 31.461C184.483 32.0999 185.196 32.4194 186.069 32.4194Z" fill="#FEFEFE"/>
</svg>
