<svg width="48" height="48" viewBox="0 0 48 48" fill="none" xmlns="http://www.w3.org/2000/svg">
<path d="M43.9999 34.2152V40.2152C44.0021 40.7722 43.888 41.3235 43.6649 41.8339C43.4417 42.3442 43.1145 42.8024 42.704 43.1789C42.2936 43.5555 41.809 43.8422 41.2814 44.0206C40.7537 44.1991 40.1946 44.2653 39.6399 44.2152C33.4855 43.5465 27.5739 41.4435 22.3799 38.0752C17.5475 35.0045 13.4505 30.9075 10.3799 26.0752C6.99982 20.8576 4.89635 14.9172 4.23987 8.73519C4.18989 8.18213 4.25562 7.62471 4.43287 7.09844C4.61012 6.57217 4.89501 6.08857 5.2694 5.67844C5.64379 5.2683 6.09948 4.94061 6.60745 4.71624C7.11542 4.49186 7.66455 4.37572 8.21987 4.37519H14.2199C15.1905 4.36564 16.1314 4.70935 16.8674 5.34226C17.6033 5.97517 18.084 6.85409 18.2199 7.81519C18.4731 9.73533 18.9428 11.6206 19.6199 13.4352C19.889 14.151 19.9472 14.929 19.7877 15.677C19.6282 16.4249 19.2576 17.1114 18.7199 17.6552L16.1799 20.1952C19.027 25.2023 23.1728 29.3481 28.1799 32.1952L30.7199 29.6552C31.2636 29.1175 31.9502 28.7469 32.6981 28.5874C33.446 28.4279 34.224 28.4861 34.9399 28.7552C36.7544 29.4323 38.6397 29.9019 40.5599 30.1552C41.5314 30.2923 42.4187 30.7816 43.0529 31.5302C43.6872 32.2788 44.0242 33.2343 43.9999 34.2152Z" stroke="#FEFEFE" stroke-width="4" stroke-linecap="round" stroke-linejoin="round"/>
</svg>
