<svg width="26" height="26" viewBox="0 0 26 26" fill="none" xmlns="http://www.w3.org/2000/svg">
<path d="M4.03661 12.5613C4.02289 7.86134 7.81178 4.05026 12.5118 4.03654C17.2117 4.02281 21.0228 7.8117 21.0365 12.5117C21.0503 17.2117 17.2614 21.0227 12.5614 21.0365C7.86141 21.0502 4.05033 17.2613 4.03661 12.5613ZM20.0365 12.5146C20.0244 8.36462 16.6647 5.02442 12.5147 5.03653C8.36469 5.04865 5.02449 8.40842 5.03661 12.5584C5.04872 16.7084 8.40849 20.0486 12.5585 20.0365C16.7085 20.0244 20.0487 16.6646 20.0365 12.5146Z" fill="white"/>
<path d="M11.699 16.689L15.8368 12.5269L11.6747 8.38905L12.3727 7.68701L17.2368 12.5228L12.401 17.387L11.699 16.689Z" fill="white"/>
<path d="M16.5352 12.0249L16.5381 13.0249L8.03811 13.0497L8.03519 12.0497L16.5352 12.0249Z" fill="white"/>
</svg>
