<svg width="25" height="25" viewBox="0 0 25 25" fill="none" xmlns="http://www.w3.org/2000/svg">
<rect width="25" height="25" rx="12.5" fill="#F67E27"/>
<path fill-rule="evenodd" clip-rule="evenodd" d="M13.025 12.0651L16.4296 15.4698L15.6876 16.2126L11.975 12.5V7.25H13.025V12.0651ZM12.5 21.25C7.66738 21.25 3.75 17.3326 3.75 12.5C3.75 7.66738 7.66738 3.75 12.5 3.75C17.3326 3.75 21.25 7.66738 21.25 12.5C21.25 17.3326 17.3326 21.25 12.5 21.25ZM12.5 20.2C14.5422 20.2 16.5007 19.3888 17.9447 17.9447C19.3888 16.5007 20.2 14.5422 20.2 12.5C20.2 10.4578 19.3888 8.49931 17.9447 7.05528C16.5007 5.61125 14.5422 4.8 12.5 4.8C10.4578 4.8 8.49931 5.61125 7.05528 7.05528C5.61125 8.49931 4.8 10.4578 4.8 12.5C4.8 14.5422 5.61125 16.5007 7.05528 17.9447C8.49931 19.3888 10.4578 20.2 12.5 20.2Z" fill="white"/>
</svg>
