<svg width="153" height="153" viewBox="0 0 153 153" fill="none" xmlns="http://www.w3.org/2000/svg">
<path d="M38.25 66.9375H66.9375V153H38.25V66.9375ZM47.8125 143.438H57.375V76.5H47.8125V143.438ZM76.5 86.0625H105.188V153H76.5V86.0625ZM86.0625 143.438H95.625V95.625H86.0625V143.438ZM0 105.188H28.6875V153H0V105.188ZM9.5625 143.438H19.125V114.75H9.5625V143.438ZM114.75 47.8125H143.438V153H114.75V47.8125ZM124.312 143.438H133.875V57.375H124.312V143.438ZM103.768 46.3931C104.714 48.4351 105.188 50.502 105.188 52.5938C105.188 54.5859 104.814 56.4536 104.067 58.1968C103.32 59.9399 102.299 61.459 101.004 62.7539C99.709 64.0488 98.1899 65.0698 96.4468 65.8169C94.7036 66.564 92.8359 66.9375 90.8438 66.9375C88.8516 66.9375 86.9839 66.564 85.2407 65.8169C83.4976 65.0698 81.9785 64.0488 80.6836 62.7539C79.3887 61.459 78.3677 59.9399 77.6206 58.1968C76.8735 56.4536 76.5 54.5859 76.5 52.5938V51.6973C76.5 51.3984 76.5249 51.0996 76.5747 50.8008L62.5298 43.7783C61.2349 45.0732 59.7158 46.0693 57.9727 46.7666C56.2295 47.4639 54.4365 47.8125 52.5938 47.8125C50.502 47.8125 48.4351 47.3394 46.3931 46.3931L27.2681 65.5181C28.2144 67.5601 28.6875 69.627 28.6875 71.7188C28.6875 73.7109 28.314 75.5786 27.5669 77.3218C26.8198 79.0649 25.7988 80.584 24.5039 81.8789C23.209 83.1738 21.6899 84.1948 19.9468 84.9419C18.2036 85.689 16.3359 86.0625 14.3438 86.0625C12.3516 86.0625 10.4839 85.689 8.74072 84.9419C6.99756 84.1948 5.47852 83.1738 4.18359 81.8789C2.88867 80.584 1.86768 79.0649 1.12061 77.3218C0.373535 75.5786 0 73.7109 0 71.7188C0 69.7266 0.373535 67.8589 1.12061 66.1157C1.86768 64.3726 2.88867 62.8535 4.18359 61.5586C5.47852 60.2637 6.99756 59.2427 8.74072 58.4956C10.4839 57.7485 12.3516 57.375 14.3438 57.375C16.4355 57.375 18.5024 57.8481 20.5444 58.7944L39.6694 39.6694C38.7231 37.6274 38.25 35.5605 38.25 33.4688C38.25 31.4766 38.6235 29.6089 39.3706 27.8657C40.1177 26.1226 41.1387 24.6035 42.4336 23.3086C43.7285 22.0137 45.2476 20.9927 46.9907 20.2456C48.7339 19.4985 50.6016 19.125 52.5938 19.125C54.5859 19.125 56.4536 19.4985 58.1968 20.2456C59.9399 20.9927 61.459 22.0137 62.7539 23.3086C64.0488 24.6035 65.0698 26.1226 65.8169 27.8657C66.564 29.6089 66.9375 31.4766 66.9375 33.4688V34.3652C66.9375 34.6641 66.9126 34.9629 66.8628 35.2617L80.9077 42.2842C82.2026 40.9893 83.7217 39.9932 85.4648 39.2959C87.208 38.5986 89.001 38.25 90.8438 38.25C92.9355 38.25 95.0024 38.7231 97.0444 39.6694L116.169 20.5444C115.223 18.5024 114.75 16.4355 114.75 14.3438C114.75 12.3516 115.124 10.4839 115.871 8.74072C116.618 6.99756 117.639 5.47852 118.934 4.18359C120.229 2.88867 121.748 1.86768 123.491 1.12061C125.234 0.373535 127.102 0 129.094 0C131.086 0 132.954 0.373535 134.697 1.12061C136.44 1.86768 137.959 2.88867 139.254 4.18359C140.549 5.47852 141.57 6.99756 142.317 8.74072C143.064 10.4839 143.438 12.3516 143.438 14.3438C143.438 16.3359 143.064 18.2036 142.317 19.9468C141.57 21.6899 140.549 23.209 139.254 24.5039C137.959 25.7988 136.44 26.8198 134.697 27.5669C132.954 28.314 131.086 28.6875 129.094 28.6875C127.002 28.6875 124.935 28.2144 122.893 27.2681L103.768 46.3931ZM14.3438 76.5C15.6387 76.5 16.7593 76.0269 17.7056 75.0806C18.6519 74.1343 19.125 73.0137 19.125 71.7188C19.125 70.4238 18.6519 69.3032 17.7056 68.3569C16.7593 67.4106 15.6387 66.9375 14.3438 66.9375C13.0488 66.9375 11.9282 67.4106 10.9819 68.3569C10.0356 69.3032 9.5625 70.4238 9.5625 71.7188C9.5625 73.0137 10.0356 74.1343 10.9819 75.0806C11.9282 76.0269 13.0488 76.5 14.3438 76.5ZM129.094 9.5625C127.799 9.5625 126.678 10.0356 125.732 10.9819C124.786 11.9282 124.312 13.0488 124.312 14.3438C124.312 15.6387 124.786 16.7593 125.732 17.7056C126.678 18.6519 127.799 19.125 129.094 19.125C130.389 19.125 131.509 18.6519 132.456 17.7056C133.402 16.7593 133.875 15.6387 133.875 14.3438C133.875 13.0488 133.402 11.9282 132.456 10.9819C131.509 10.0356 130.389 9.5625 129.094 9.5625ZM52.5938 38.25C53.8887 38.25 55.0093 37.7769 55.9556 36.8306C56.9019 35.8843 57.375 34.7637 57.375 33.4688C57.375 32.1738 56.9019 31.0532 55.9556 30.1069C55.0093 29.1606 53.8887 28.6875 52.5938 28.6875C51.2988 28.6875 50.1782 29.1606 49.2319 30.1069C48.2856 31.0532 47.8125 32.1738 47.8125 33.4688C47.8125 34.7637 48.2856 35.8843 49.2319 36.8306C50.1782 37.7769 51.2988 38.25 52.5938 38.25ZM90.8438 57.375C92.1387 57.375 93.2593 56.9019 94.2056 55.9556C95.1519 55.0093 95.625 53.8887 95.625 52.5938C95.625 51.2988 95.1519 50.1782 94.2056 49.2319C93.2593 48.2856 92.1387 47.8125 90.8438 47.8125C89.5488 47.8125 88.4282 48.2856 87.4819 49.2319C86.5356 50.1782 86.0625 51.2988 86.0625 52.5938C86.0625 53.8887 86.5356 55.0093 87.4819 55.9556C88.4282 56.9019 89.5488 57.375 90.8438 57.375Z" fill="white"/>
</svg>
