<svg width="30" height="30" viewBox="0 0 30 30" fill="none" xmlns="http://www.w3.org/2000/svg">
<path d="M26.5125 19.8626C25.7173 21.7432 24.4735 23.4004 22.8899 24.6892C21.3062 25.9781 19.431 26.8594 17.4281 27.2561C15.4251 27.6528 13.3555 27.5528 11.4002 26.9648C9.44485 26.3769 7.6633 25.3189 6.21129 23.8834C4.75928 22.4479 3.68103 20.6785 3.07081 18.73C2.46059 16.7815 2.33697 14.7132 2.71076 12.7059C3.08456 10.6986 3.94439 8.81338 5.21507 7.21513C6.48576 5.61689 8.12862 4.35424 10 3.5376" stroke="#FEFEFE" stroke-width="2" stroke-linecap="round" stroke-linejoin="round"/>
<path d="M27.5 15C27.5 13.3585 27.1767 11.733 26.5485 10.2165C25.9203 8.69989 24.9996 7.3219 23.8388 6.16117C22.6781 5.00043 21.3001 4.07969 19.7835 3.45151C18.267 2.82332 16.6415 2.5 15 2.5V15H27.5Z" stroke="#FEFEFE" stroke-width="2" stroke-linecap="round" stroke-linejoin="round"/>
</svg>
